<svg width="24" height="24" viewBox="0 0 24 24" fill="none" xmlns="http://www.w3.org/2000/svg">
<g clip-path="url(#clip0_255_40062)">
<path d="M20.3332 20.5111C24.9847 15.8597 24.9847 8.31808 20.3332 3.66659C15.6818 -0.984909 8.14018 -0.984909 3.48869 3.66659C-1.16281 8.31808 -1.16281 15.8597 3.48869 20.5111C8.14018 25.1626 15.6818 25.1626 20.3332 20.5111Z" fill="#7F7F7F"/>
<path d="M20.3332 20.3334C24.9847 15.6819 24.9847 8.14035 20.3332 3.48885C15.6818 -1.16264 8.14018 -1.16264 3.48869 3.48885C-1.16281 8.14035 -1.16281 15.6819 3.48869 20.3334C8.14018 24.9849 15.6818 24.9849 20.3332 20.3334Z" fill="white"/>
<path d="M11.911 23.8933C18.4893 23.8933 23.822 18.5606 23.822 11.9823C23.822 5.40403 18.4893 0.0712891 11.911 0.0712891C5.33275 0.0712891 0 5.40403 0 11.9823C0 18.5606 5.33275 23.8933 11.911 23.8933Z" fill="url(#paint0_linear_255_40062)"/>
<path d="M11.9097 23.5596C18.3039 23.5596 23.4874 18.3761 23.4874 11.982C23.4874 5.5878 18.3039 0.404297 11.9097 0.404297C5.51553 0.404297 0.332031 5.5878 0.332031 11.982C0.332031 18.3761 5.51553 23.5596 11.9097 23.5596Z" fill="url(#paint1_linear_255_40062)"/>
<path d="M11.912 22.0974C17.4984 22.0974 22.0271 17.5687 22.0271 11.9823C22.0271 6.39587 17.4984 1.86719 11.912 1.86719C6.32556 1.86719 1.79688 6.39587 1.79688 11.9823C1.79688 17.5687 6.32556 22.0974 11.912 22.0974Z" fill="url(#paint2_linear_255_40062)"/>
<path d="M10.5838 10.3946L7.64062 10.8273L9.76988 12.9286L9.26761 15.8953L11.9 14.4941L14.5325 15.8953L14.0293 12.9286L16.1586 10.8273L13.2163 10.3946L11.9 7.69531L10.5838 10.3946Z" fill="url(#paint3_linear_255_40062)"/>
<path d="M10.0467 18.8475C9.7766 18.5837 9.58418 18.1989 9.61129 17.8646C9.97173 17.8448 10.4135 18.0273 10.6357 18.245C10.8706 18.4744 11.0124 18.7906 10.9817 19.0905C10.7197 18.7319 10.3891 18.4347 10.0034 18.2161C10.091 18.2757 10.1768 18.3371 10.2572 18.4067C10.5147 18.6271 10.7261 18.8873 10.8995 19.1736C10.6583 19.1926 10.2617 19.058 10.0467 18.8475ZM9.07558 18.5467C8.98705 18.235 8.85606 17.9396 8.67268 17.6677C8.61486 17.5828 8.55072 17.5033 8.48478 17.4256C8.78921 17.7282 9.02048 18.0896 9.17405 18.4907C9.27975 18.2197 9.22825 17.8881 9.06745 17.6144C8.91569 17.3551 8.55072 17.0724 8.20925 16.9983C8.09813 17.3037 8.17943 17.712 8.36372 18.0264C8.51097 18.2775 8.84703 18.5042 9.07558 18.5467ZM7.13784 15.7535C6.94813 16.0037 6.90748 16.403 6.98788 16.7454C7.05202 17.0182 7.29684 17.3235 7.49558 17.4283C7.50281 17.1158 7.46667 16.8059 7.37453 16.5024C7.34562 16.4075 7.30858 16.3163 7.26973 16.225C7.46396 16.5918 7.57508 16.9902 7.60127 17.4039C7.77653 17.1835 7.8235 16.8637 7.75304 16.5647C7.68709 16.2837 7.43144 15.9179 7.13784 15.7535ZM6.79727 15.3984C6.78372 15.1193 6.60395 14.7281 6.35371 14.5213C6.13058 14.7254 6.02307 15.0976 6.03934 15.4364C6.05289 15.7065 6.23266 16.038 6.4034 16.1717C6.46392 15.8763 6.4838 15.5764 6.44856 15.2729C6.43772 15.178 6.41875 15.085 6.39707 14.9919C6.51812 15.3731 6.55426 15.7706 6.50819 16.1681C6.71235 15.9892 6.81172 15.6938 6.79727 15.3984ZM5.6825 14.6685C5.90744 14.5366 6.0556 14.2755 6.09534 13.9928C6.13238 13.7263 6.03392 13.3243 5.83427 13.0822C5.58674 13.2348 5.41691 13.5673 5.37174 13.8907C5.33561 14.1491 5.44582 14.4951 5.58313 14.6522C5.69425 14.3839 5.76652 14.103 5.7882 13.8103C5.79542 13.7191 5.79362 13.6269 5.79091 13.5357C5.83608 13.9187 5.79813 14.3017 5.6825 14.6685ZM5.83427 12.6449C5.91738 12.4001 5.8948 12.0017 5.75026 11.738C5.48828 11.8382 5.26966 12.1219 5.16938 12.42C5.08898 12.6576 5.13144 13.0045 5.23352 13.177C5.38619 12.9431 5.50454 12.691 5.57771 12.4173C5.60029 12.3324 5.61565 12.2447 5.6292 12.158C5.60391 12.5275 5.50002 12.8825 5.32567 13.2086C5.56055 13.1255 5.74664 12.9042 5.83427 12.6449ZM5.06911 11.6585C5.26514 11.4751 5.43317 11.2682 5.56416 11.0297C5.60481 10.9556 5.63914 10.8779 5.67166 10.7993C5.56326 11.1381 5.38529 11.4453 5.1477 11.709C5.3871 11.6847 5.61204 11.522 5.75297 11.2998C5.88666 11.0902 5.95713 10.7144 5.88215 10.4353C5.61565 10.4687 5.34554 10.6828 5.18384 10.9376C5.05466 11.1408 5.014 11.4733 5.06911 11.6585ZM5.31934 10.3278C5.547 10.3684 5.79633 10.2772 5.98513 10.1101C6.1631 9.95198 6.32751 9.62495 6.33203 9.34762C6.07728 9.30787 5.77284 9.43434 5.55603 9.62676C5.38348 9.77943 5.25882 10.0757 5.26062 10.2609C5.48918 10.1435 5.69876 9.99714 5.88215 9.81195C5.93906 9.75414 5.99146 9.6918 6.04114 9.62857C5.85324 9.91042 5.60752 10.1462 5.31934 10.3278ZM6.10528 8.45056C5.91557 8.56349 5.74574 8.81914 5.71412 8.99349C5.9499 8.92484 6.17304 8.82366 6.379 8.68273C6.44314 8.63847 6.50277 8.58968 6.56149 8.53909C6.33293 8.77126 6.06011 8.94923 5.75748 9.06757C5.96345 9.14616 6.21459 9.10551 6.42146 8.98175C6.6175 8.86521 6.82979 8.58697 6.88399 8.32771C6.65182 8.24459 6.34287 8.30873 6.10528 8.45056ZM7.39801 7.43788C7.18301 7.34212 6.88399 7.37916 6.64731 7.4966C6.4585 7.58965 6.27692 7.82001 6.23446 7.98352C6.46392 7.93564 6.68435 7.85705 6.89032 7.7378C6.95446 7.70076 7.01498 7.6583 7.0746 7.61494C6.83973 7.8191 6.56691 7.96726 6.2697 8.0576C6.46031 8.14793 6.70151 8.12806 6.90838 8.02598C7.10442 7.92932 7.32755 7.68089 7.39801 7.43788ZM9.56973 19.9415C9.67362 19.9225 9.77751 19.9018 9.87959 19.871C10.2048 19.7744 10.502 19.6217 10.7766 19.4284C10.5643 19.3091 10.1452 19.2685 9.86333 19.3733C9.51011 19.5052 9.17857 19.7816 9.07016 20.1041C9.39357 20.274 9.87236 20.2884 10.1642 20.18C10.4722 20.0653 10.7288 19.8313 10.82 19.5395C10.4352 19.7626 10.0133 19.9 9.56973 19.9415ZM7.47751 18.8764C7.57959 18.8837 7.68167 18.8882 7.78376 18.8837C8.11168 18.8701 8.42696 18.7996 8.73049 18.6858C8.55976 18.5268 8.17763 18.3922 7.88945 18.4229C7.5272 18.4618 7.15049 18.6388 6.97072 18.9099C7.2327 19.1411 7.67716 19.2658 7.97617 19.2333C8.29236 19.1998 8.58866 19.0445 8.74404 18.7978C8.3303 18.9126 7.903 18.9415 7.47751 18.8764ZM5.84692 17.4057C5.94087 17.4355 6.03572 17.4636 6.13329 17.4825C6.44405 17.5449 6.75571 17.5494 7.06647 17.5123C6.94271 17.3244 6.61479 17.1103 6.33655 17.0742C5.98784 17.0281 5.59397 17.1085 5.36361 17.3217C5.55693 17.5982 5.94538 17.8168 6.23266 17.8547C6.5371 17.8954 6.85057 17.8168 7.05292 17.6207C6.63918 17.6343 6.23085 17.5638 5.84692 17.4057ZM5.95984 16.2991C5.57861 16.1799 5.22901 15.9856 4.92999 15.7209C5.00678 15.7779 5.08356 15.833 5.16577 15.8817C5.42865 16.0371 5.71141 16.141 6.00591 16.2051C5.95261 15.9947 5.72225 15.6965 5.48105 15.5746C5.17842 15.4219 4.79448 15.3695 4.51715 15.4906C4.60568 15.8031 4.89024 16.1256 5.13957 16.2521C5.40336 16.3849 5.71412 16.4138 5.95984 16.2991ZM5.20462 14.8094C4.85772 14.6423 4.55328 14.4074 4.30576 14.112C4.3708 14.1771 4.43584 14.2412 4.50721 14.299C4.73576 14.4842 4.98961 14.6233 5.26153 14.7263C5.24075 14.5185 5.06369 14.2015 4.8514 14.0506C4.5849 13.8618 4.22626 13.7579 3.94531 13.8338C3.98506 14.1445 4.21 14.4923 4.42952 14.6477C4.66259 14.8121 4.95348 14.8835 5.20462 14.8094ZM4.70685 13.2583C4.425 13.018 4.19825 12.7262 4.04016 12.3911C4.08443 12.467 4.1305 12.5429 4.1829 12.6133C4.35092 12.841 4.55328 13.0325 4.78093 13.1942C4.81255 12.9955 4.72492 12.6576 4.56322 12.4661C4.36086 12.2258 4.05281 12.0415 3.77276 12.0442C3.73392 12.3423 3.85858 12.7208 4.02571 12.9187C4.20187 13.1282 4.45572 13.2656 4.70685 13.2583ZM4.55328 11.6205C4.33376 11.3414 4.17567 11.0234 4.08985 10.6783C4.11695 10.7587 4.14586 10.8382 4.18199 10.915C4.29672 11.1607 4.4512 11.3793 4.63458 11.5744C4.70143 11.3938 4.68337 11.0586 4.56774 10.8481C4.42229 10.5834 4.16754 10.3522 3.90375 10.3016C3.81071 10.5753 3.85678 10.9547 3.97693 11.1724C4.1025 11.4028 4.31569 11.5799 4.55328 11.6205ZM4.80713 10.064C4.63458 9.7704 4.52618 9.44789 4.48914 9.10913C4.5045 9.18862 4.52166 9.26812 4.54605 9.34581C4.62284 9.59424 4.74118 9.82189 4.89024 10.0315C4.97696 9.86887 5.00316 9.54817 4.92096 9.33316C4.81797 9.06305 4.60568 8.81011 4.36177 8.7279C4.238 8.97543 4.23258 9.3422 4.3175 9.56443C4.40784 9.79931 4.58671 9.99443 4.80713 10.064ZM5.28502 8.7532C5.18655 8.44243 5.15403 8.11903 5.19197 7.79471C5.18926 7.8724 5.18835 7.95009 5.19468 8.02688C5.21365 8.27531 5.27598 8.51199 5.36993 8.73964C5.48557 8.60594 5.57861 8.31325 5.547 8.09463C5.50815 7.82091 5.36451 7.53996 5.15403 7.41078C4.986 7.61584 4.90289 7.95551 4.93451 8.18136C4.96883 8.42075 5.0944 8.64208 5.28502 8.7532ZM6.03301 6.78655C6.01494 6.85791 5.99778 6.93018 5.98784 7.00426C5.95442 7.23914 5.96345 7.47311 6.00501 7.70438C6.14051 7.6041 6.28686 7.34935 6.30222 7.13977C6.32209 6.87688 6.24531 6.58509 6.07637 6.42158C5.87763 6.57787 5.73038 6.87869 5.71412 7.0955C5.69696 7.32496 5.76832 7.55713 5.9237 7.69986C5.8957 7.39 5.93093 7.08105 6.03301 6.78655ZM7.12248 6.60135C7.16585 6.54625 7.20379 6.48753 7.24083 6.4279C7.10713 6.68988 6.92103 6.91573 6.69248 7.09911C6.89122 7.11086 7.09538 7.00878 7.24083 6.84617C7.37724 6.6935 7.48564 6.39629 7.46215 6.1587C7.23992 6.15057 6.99149 6.28878 6.82618 6.47488C6.69428 6.62303 6.61659 6.88863 6.63647 7.04672C6.81985 6.92386 6.98427 6.77751 7.12248 6.60135ZM16.6341 17.45C16.9106 17.1898 17.1671 16.9098 17.402 16.6117C17.636 16.3126 17.8447 15.9956 18.028 15.664C18.3957 15 18.6414 14.2746 18.7887 13.5339C18.8619 13.1626 18.9106 12.7868 18.9314 12.4101C18.9513 12.0325 18.945 11.6539 18.9115 11.2781C18.8781 10.9023 18.814 10.5283 18.7245 10.1625C18.6342 9.7966 18.5168 9.43615 18.3695 9.08925C18.0768 8.39365 17.6748 7.74593 17.1861 7.17319C17.6694 7.75135 18.0642 8.40178 18.3496 9.09829C18.4933 9.44608 18.6062 9.80563 18.6929 10.1715C18.7787 10.5374 18.8393 10.9087 18.8682 11.2836C18.898 11.6576 18.9007 12.0343 18.8772 12.4092C18.8528 12.7841 18.8004 13.1563 18.7245 13.523C18.571 14.2566 18.3207 14.9729 17.9513 15.6243C17.767 15.9504 17.5574 16.2612 17.3243 16.5539C17.0903 16.8456 16.8338 17.1194 16.5592 17.3732C16.2827 17.6253 15.99 17.8583 15.6811 18.0688C15.3712 18.2775 15.0487 18.4681 14.7127 18.6307C14.5455 18.7138 14.3739 18.7879 14.2013 18.8584C14.0279 18.9261 13.8526 18.9921 13.6747 19.0472C13.5861 19.077 13.4958 19.1005 13.4064 19.1276C13.3151 19.1529 13.2239 19.18 13.1335 19.208C12.952 19.264 12.7722 19.3272 12.5951 19.3986C12.3575 19.4943 12.1254 19.6064 11.905 19.7401C11.6845 19.6064 11.4515 19.4934 11.2148 19.3986C11.0377 19.3272 10.8579 19.2649 10.6764 19.208C10.586 19.18 10.4948 19.1538 10.4035 19.1276C10.3141 19.1005 10.2238 19.077 10.1352 19.0472C9.95728 18.9921 9.78202 18.9261 9.60857 18.8584C9.43603 18.7879 9.26439 18.7129 9.09726 18.6307C8.76121 18.4681 8.4387 18.2775 8.12885 18.0688C7.81989 17.8583 7.52629 17.6253 7.25076 17.3732C6.97614 17.1194 6.72048 16.8456 6.4856 16.5539C6.25253 16.2612 6.04295 15.9504 5.85866 15.6243C5.48918 14.9729 5.23894 14.2575 5.08537 13.523C5.00949 13.1553 4.95709 12.7832 4.9327 12.4092C4.90921 12.0343 4.91192 11.6585 4.94173 11.2836C4.97064 10.9096 5.03117 10.5374 5.11699 10.1715C5.20371 9.80563 5.31663 9.44608 5.46027 9.09829C5.74574 8.40269 6.14051 7.75135 6.62382 7.17319C6.13509 7.74593 5.73309 8.39456 5.4404 9.08925C5.29315 9.43615 5.17661 9.7966 5.08537 10.1625C4.99594 10.5292 4.93089 10.9023 4.89837 11.2781C4.86495 11.6539 4.85862 12.0334 4.8785 12.4101C4.89927 12.7877 4.94806 13.1635 5.02123 13.5339C5.16848 14.2746 5.4142 15.0009 5.78187 15.664C5.96526 15.9956 6.17484 16.3136 6.40791 16.6117C6.64279 16.9098 6.89935 17.1898 7.17578 17.45C7.45312 17.7084 7.74852 17.9478 8.06019 18.1646C8.37276 18.3796 8.69888 18.5756 9.03855 18.7445C9.20838 18.8304 9.38183 18.908 9.55618 18.9812C9.73234 19.0526 9.9094 19.1212 10.091 19.1791C10.1804 19.2098 10.2726 19.2351 10.3629 19.264C10.4523 19.2902 10.5418 19.3173 10.6312 19.3453C10.8092 19.4022 10.9844 19.4654 11.1561 19.5368C11.3629 19.6226 11.5635 19.7202 11.755 19.8331C11.699 19.871 11.6439 19.909 11.5906 19.9496C11.437 20.0653 11.2934 20.1954 11.1606 20.3345C11.0278 20.4736 10.9058 20.6209 10.7884 20.7699L10.9257 20.8765C11.0395 20.7284 11.1561 20.5838 11.2825 20.4501C11.4081 20.3155 11.5436 20.1908 11.69 20.0788C11.7595 20.0246 11.8318 19.974 11.905 19.9253C11.9781 19.974 12.0504 20.0246 12.12 20.0788C12.2654 20.1908 12.4009 20.3155 12.5274 20.4501C12.6539 20.5847 12.7704 20.7284 12.8842 20.8765L13.0215 20.7699C12.9041 20.6209 12.7821 20.4727 12.6493 20.3345C12.5165 20.1954 12.3729 20.0653 12.2193 19.9496C12.166 19.909 12.11 19.8701 12.0549 19.8331C12.2455 19.7202 12.447 19.6217 12.6539 19.5368C12.8255 19.4654 13.0008 19.4022 13.1787 19.3453C13.2672 19.3173 13.3567 19.2902 13.447 19.264C13.5383 19.236 13.6295 19.2107 13.7189 19.1791C13.8996 19.1212 14.0776 19.0526 14.2537 18.9812C14.429 18.9071 14.6024 18.8304 14.7714 18.7445C15.1119 18.5756 15.4372 18.3796 15.7497 18.1646C16.0605 17.9478 16.3559 17.7084 16.6341 17.45ZM13.8066 18.2152C13.7189 18.2748 13.6331 18.3362 13.5527 18.4058C13.2953 18.6262 13.0839 18.8864 12.9104 19.1727C13.1507 19.1926 13.5473 19.058 13.7623 18.8484C14.0324 18.5846 14.2248 18.1998 14.1977 17.8656C13.8373 17.8457 13.3955 18.0282 13.1733 18.2459C12.9384 18.4753 12.7966 18.7915 12.8273 19.0914C13.0902 18.7319 13.4199 18.4347 13.8066 18.2152ZM15.3242 17.4256C15.2583 17.5033 15.1932 17.5828 15.1363 17.6677C14.952 17.9396 14.822 18.235 14.7334 18.5467C14.962 18.5042 15.298 18.2775 15.4453 18.0264C15.6296 17.712 15.7109 17.3037 15.5998 16.9983C15.2583 17.0715 14.8933 17.3551 14.7416 17.6144C14.5808 17.889 14.5293 18.2197 14.635 18.4907C14.7885 18.0896 15.0198 17.7291 15.3242 17.4256ZM16.5393 16.2259C16.5004 16.3172 16.4634 16.4084 16.4345 16.5033C16.3423 16.8068 16.3062 17.1167 16.3134 17.4292C16.5122 17.3244 16.7579 17.0191 16.8211 16.7463C16.9015 16.4039 16.86 16.0037 16.6712 15.7544C16.3776 15.9197 16.1219 16.2846 16.0551 16.5674C15.9846 16.8664 16.0316 17.1862 16.2068 17.4066C16.2339 16.9911 16.3441 16.5918 16.5393 16.2259ZM17.4056 16.1717C17.5764 16.038 17.7561 15.7065 17.7697 15.4364C17.7868 15.0976 17.6784 14.7254 17.4553 14.5213C17.2051 14.729 17.0253 15.1193 17.0117 15.3984C16.9973 15.6938 17.0967 15.9892 17.3008 16.1681C17.2548 15.7706 17.2909 15.3731 17.4119 14.9919C17.3912 15.085 17.3713 15.178 17.3604 15.2729C17.3252 15.5764 17.3451 15.8763 17.4056 16.1717ZM18.0208 13.8112C18.0425 14.1048 18.1157 14.3848 18.2259 14.6531C18.3632 14.496 18.4734 14.1491 18.4373 13.8916C18.3921 13.5682 18.2223 13.2357 17.9747 13.0831C17.776 13.3243 17.6766 13.7263 17.7137 13.9937C17.7534 14.2755 17.9016 14.5375 18.1265 14.6694C18.0109 14.3026 17.9729 13.9196 18.019 13.5366C18.0154 13.6278 18.0145 13.72 18.0208 13.8112ZM18.5764 13.1779C18.6785 13.0045 18.72 12.6576 18.6405 12.4209C18.5403 12.1228 18.3207 11.8391 18.0597 11.7389C17.9142 12.0026 17.8925 12.4001 17.9756 12.6458C18.0633 12.9051 18.2494 13.1264 18.4861 13.2105C18.3117 12.8843 18.2078 12.5293 18.1825 12.1598C18.1961 12.2475 18.2114 12.3342 18.234 12.4191C18.3054 12.6919 18.4237 12.944 18.5764 13.1779ZM18.7399 11.6585C18.795 11.4742 18.7544 11.1408 18.6252 10.9376C18.4635 10.6828 18.1934 10.4687 17.9269 10.4353C17.8519 10.7144 17.9233 11.0902 18.056 11.2998C18.197 11.522 18.4219 11.6847 18.6613 11.709C18.4237 11.4453 18.2449 11.1381 18.1374 10.7993C18.1699 10.8779 18.2042 10.9547 18.2449 11.0297C18.3749 11.2673 18.5439 11.4751 18.7399 11.6585ZM18.5475 10.26C18.5493 10.0757 18.4246 9.77943 18.2521 9.62586C18.0362 9.43434 17.7308 9.30787 17.4761 9.34671C17.4806 9.62315 17.645 9.95107 17.823 10.1092C18.0118 10.2763 18.2611 10.3675 18.4888 10.3269C18.2006 10.1462 17.9549 9.91042 17.7661 9.62676C17.8167 9.69 17.8681 9.75233 17.9251 9.81015C18.1093 9.99624 18.3189 10.1426 18.5475 10.26ZM18.0949 8.99349C18.0642 8.81914 17.8934 8.56349 17.7037 8.45056C17.4661 8.30873 17.1572 8.24459 16.925 8.32771C16.9792 8.58697 17.1915 8.86521 17.3875 8.98175C17.5944 9.10551 17.8456 9.14616 18.0515 9.06757C17.748 8.94923 17.4752 8.77126 17.2475 8.53909C17.3062 8.58968 17.3659 8.63937 17.43 8.68273C17.6351 8.82366 17.8591 8.92393 18.0949 8.99349ZM17.5736 7.98352C17.5312 7.82001 17.3496 7.58965 17.1608 7.4966C16.9241 7.38006 16.6251 7.34212 16.4101 7.43788C16.4806 7.68089 16.7046 7.92932 16.8997 8.02507C17.1066 8.12716 17.3478 8.14703 17.5384 8.05669C17.2412 7.96726 16.9675 7.8182 16.7335 7.61404C16.7931 7.6574 16.8537 7.69986 16.9178 7.7369C17.1238 7.85614 17.3442 7.93564 17.5736 7.98352ZM13.9457 19.3733C13.6638 19.2685 13.2456 19.3091 13.0324 19.4284C13.307 19.6217 13.6042 19.7744 13.9294 19.871C14.0306 19.9018 14.1345 19.9225 14.2393 19.9415C13.7966 19.9 13.3738 19.7626 12.9899 19.5395C13.0812 19.8304 13.3377 20.0653 13.6458 20.18C13.9367 20.2884 14.4163 20.274 14.7398 20.1041C14.6304 19.7807 14.2989 19.5052 13.9457 19.3733ZM15.9196 18.4229C15.6305 18.3922 15.2484 18.5268 15.0785 18.6858C15.3821 18.7996 15.6973 18.8701 16.0253 18.8837C16.1273 18.8882 16.2294 18.8828 16.3315 18.8764C15.9069 18.9415 15.4787 18.9126 15.065 18.7978C15.2203 19.0445 15.5167 19.1998 15.8328 19.2333C16.131 19.2649 16.5763 19.1402 16.8383 18.9099C16.6585 18.6379 16.2818 18.4618 15.9196 18.4229ZM17.4725 17.0742C17.1942 17.1112 16.8663 17.3244 16.7425 17.5123C17.0533 17.5503 17.365 17.5449 17.6757 17.4825C17.7724 17.4636 17.8672 17.4355 17.9621 17.4057C17.5782 17.5629 17.1698 17.6343 16.7561 17.6198C16.9575 17.8159 17.2719 17.8936 17.5764 17.8538C17.8636 17.8159 18.253 17.5972 18.4454 17.3208C18.215 17.1076 17.8212 17.0281 17.4725 17.0742ZM18.328 15.5746C18.0868 15.6965 17.8564 15.9956 17.8031 16.2051C18.0976 16.141 18.3804 16.0371 18.6432 15.8817C18.7254 15.833 18.8031 15.7779 18.879 15.7209C18.58 15.9865 18.2304 16.1808 17.8492 16.2991C18.0949 16.4129 18.4057 16.3849 18.6694 16.2512C18.9188 16.1256 19.2033 15.8031 19.2919 15.4897C19.0145 15.3695 18.6306 15.421 18.328 15.5746ZM18.9576 14.0506C18.7453 14.2015 18.5683 14.5185 18.5475 14.7263C18.8185 14.6233 19.0732 14.4842 19.3018 14.299C19.3732 14.2412 19.4391 14.178 19.5033 14.112C19.2557 14.4074 18.9513 14.6423 18.6044 14.8094C18.8546 14.8835 19.1464 14.8121 19.3795 14.6468C19.599 14.4914 19.824 14.1436 19.8637 13.8329C19.5828 13.7579 19.2241 13.8618 18.9576 14.0506ZM19.2458 12.4661C19.0841 12.6576 18.9974 12.9955 19.0281 13.1942C19.2557 13.0325 19.4581 12.841 19.6261 12.6133C19.6785 12.542 19.7246 12.467 19.7689 12.3911C19.6108 12.7262 19.384 13.018 19.1022 13.2583C19.3533 13.2665 19.6071 13.1292 19.7833 12.9187C19.9504 12.7208 20.0751 12.3423 20.0362 12.0442C19.7562 12.0415 19.4481 12.2258 19.2458 12.4661ZM19.2413 10.8481C19.1256 11.0586 19.1067 11.3938 19.1744 11.5744C19.3578 11.3793 19.5123 11.1607 19.627 10.915C19.6632 10.8382 19.6921 10.7587 19.7192 10.6783C19.6333 11.0234 19.4753 11.3414 19.2557 11.6205C19.4933 11.5808 19.7065 11.4037 19.833 11.1724C19.9522 10.9547 19.9992 10.5753 19.9062 10.3016C19.6415 10.3522 19.3867 10.5834 19.2413 10.8481ZM18.9188 10.0306C19.0678 9.82099 19.1862 9.59424 19.263 9.34491C19.2873 9.26722 19.3045 9.18772 19.3199 9.10822C19.2828 9.44699 19.1744 9.76949 19.0019 10.0631C19.2223 9.99443 19.4021 9.7984 19.4915 9.56262C19.5764 9.34039 19.571 8.97362 19.4472 8.72609C19.2033 8.8083 18.991 9.06125 18.8881 9.33136C18.8049 9.54726 18.8311 9.86796 18.9188 10.0306ZM18.6143 8.02778C18.6207 7.95009 18.6189 7.8724 18.617 7.79562C18.655 8.11903 18.6225 8.44334 18.524 8.7541C18.7146 8.64298 18.8402 8.42166 18.8745 8.18317C18.9061 7.95732 18.823 7.61765 18.655 7.41259C18.4454 7.54177 18.3009 7.82272 18.262 8.09644C18.2313 8.31506 18.3234 8.60775 18.4391 8.74145C18.5339 8.5129 18.5954 8.27621 18.6143 8.02778ZM17.804 7.70438C17.8456 7.47311 17.8546 7.24004 17.8212 7.00426C17.8103 6.93109 17.7941 6.85882 17.776 6.78655C17.8781 7.08014 17.9133 7.3891 17.8853 7.69896C18.0407 7.55622 18.1121 7.32496 18.0949 7.0946C18.0786 6.87779 17.9314 6.57696 17.7326 6.42068C17.5628 6.58419 17.4869 6.87508 17.5068 7.13886C17.5222 7.34935 17.6685 7.6041 17.804 7.70438ZM17.1165 7.09911C16.888 6.91573 16.701 6.68898 16.5682 6.4279C16.6052 6.48753 16.6432 6.54625 16.6865 6.60135C16.8247 6.77841 16.9901 6.92476 17.1744 7.04762C17.1942 6.88953 17.1174 6.62394 16.9846 6.47578C16.8184 6.28969 16.57 6.15147 16.3487 6.1596C16.3252 6.39719 16.4327 6.6935 16.57 6.84707C16.7136 7.00878 16.9178 7.11176 17.1165 7.09911ZM11.5273 4.45583L10.6836 4.5796L11.2943 5.18215L11.1506 6.03313L11.905 5.63113L12.6593 6.03313L12.5147 5.18215L13.1254 4.5796L12.2817 4.45583L11.9041 3.68164L11.5273 4.45583ZM8.99789 5.1948L8.4658 5.27339L8.85064 5.65371L8.7594 6.19032L9.23548 5.93737L9.71156 6.19032L9.62032 5.65371L10.0052 5.27339L9.47307 5.1948L9.23548 4.70697L8.99789 5.1948ZM14.335 5.1948L13.803 5.27339L14.1878 5.65371L14.0965 6.19032L14.5726 5.93737L15.0487 6.19032L14.9575 5.65371L15.3423 5.27339L14.8102 5.1948L14.5726 4.70697L14.335 5.1948Z" fill="#EBEAE7"/>
<path d="M10.0467 18.7528C9.7766 18.489 9.58418 18.1042 9.61129 17.7699C9.97173 17.75 10.4135 17.9334 10.6357 18.1502C10.8706 18.3797 11.0124 18.6959 10.9817 18.9958C10.7197 18.6372 10.3891 18.34 10.0034 18.1213C10.091 18.181 10.1768 18.2424 10.2572 18.3119C10.5147 18.5324 10.7261 18.7925 10.8995 19.0789C10.6583 19.097 10.2617 18.9624 10.0467 18.7528ZM9.07558 18.452C8.98705 18.1403 8.85606 17.8449 8.67268 17.573C8.61486 17.4881 8.55072 17.4086 8.48478 17.3309C8.78921 17.6335 9.02048 17.9949 9.17405 18.396C9.27975 18.1249 9.22825 17.7934 9.06745 17.5197C8.91569 17.2604 8.55072 16.9777 8.20925 16.9036C8.09813 17.2089 8.17943 17.6173 8.36372 17.9316C8.51097 18.1819 8.84703 18.4095 9.07558 18.452ZM7.13784 15.6587C6.94813 15.909 6.90748 16.3083 6.98788 16.6506C7.05202 16.9235 7.29684 17.2288 7.49558 17.3336C7.50281 17.021 7.46667 16.7112 7.37453 16.4076C7.34562 16.3128 7.30858 16.2215 7.26973 16.1303C7.46396 16.4971 7.57508 16.8955 7.60127 17.3092C7.77653 17.0888 7.8235 16.769 7.75304 16.47C7.68709 16.189 7.43144 15.8231 7.13784 15.6587ZM6.79727 15.3037C6.78372 15.0246 6.60395 14.6334 6.35371 14.4265C6.13058 14.6307 6.02307 15.0029 6.03934 15.3416C6.05289 15.6118 6.23266 15.9433 6.4034 16.077C6.46392 15.7816 6.4838 15.4817 6.44856 15.1781C6.43772 15.0833 6.41875 14.9902 6.39707 14.8972C6.51812 15.2784 6.55426 15.6759 6.50819 16.0734C6.71235 15.8945 6.81172 15.5991 6.79727 15.3037ZM5.6825 14.5738C5.90744 14.4419 6.0556 14.1808 6.09534 13.8981C6.13238 13.6316 6.03392 13.2296 5.83427 12.9874C5.58674 13.1401 5.41691 13.4726 5.37174 13.796C5.33561 14.0543 5.44582 14.4003 5.58313 14.5575C5.69425 14.2892 5.76652 14.0083 5.7882 13.7156C5.79542 13.6243 5.79362 13.5322 5.79091 13.4409C5.83608 13.824 5.79813 14.207 5.6825 14.5738ZM5.83427 12.5502C5.91738 12.3054 5.8948 11.907 5.75026 11.6441C5.48828 11.7444 5.26966 12.0281 5.16938 12.3262C5.08898 12.5638 5.13144 12.9107 5.23352 13.0832C5.38619 12.8492 5.50454 12.5972 5.57771 12.3235C5.60029 12.2385 5.61565 12.1509 5.6292 12.0642C5.60391 12.4337 5.50002 12.7887 5.32567 13.1148C5.56055 13.0299 5.74664 12.8095 5.83427 12.5502ZM5.06911 11.5628C5.26514 11.3794 5.43317 11.1726 5.56416 10.9341C5.60481 10.86 5.63914 10.7823 5.67166 10.7037C5.56326 11.0425 5.38529 11.3496 5.1477 11.6134C5.3871 11.589 5.61204 11.4264 5.75297 11.2042C5.88666 10.9946 5.95713 10.6188 5.88215 10.3397C5.61565 10.3731 5.34554 10.5872 5.18384 10.8419C5.05466 11.0452 5.014 11.3785 5.06911 11.5628ZM5.31934 10.2322C5.547 10.2728 5.79633 10.1816 5.98513 10.0144C6.1631 9.85635 6.32751 9.52932 6.33203 9.25199C6.07728 9.21224 5.77284 9.33871 5.55603 9.53113C5.38348 9.6838 5.25882 9.98011 5.26062 10.1653C5.48918 10.0479 5.69876 9.90151 5.88215 9.71632C5.93906 9.65851 5.99146 9.59617 6.04114 9.53294C5.85324 9.81569 5.60752 10.0515 5.31934 10.2322ZM6.10528 8.35584C5.91557 8.46876 5.74574 8.72442 5.71412 8.89877C5.9499 8.83011 6.17304 8.72893 6.379 8.58801C6.44314 8.54374 6.50277 8.49496 6.56149 8.44437C6.33293 8.67654 6.06011 8.8545 5.75748 8.97284C5.96345 9.05144 6.21459 9.01079 6.42146 8.88702C6.6175 8.77049 6.82979 8.49225 6.88399 8.23298C6.65182 8.14987 6.34287 8.21401 6.10528 8.35584ZM7.39801 7.34315C7.18301 7.2474 6.88399 7.28443 6.64731 7.40187C6.4585 7.49492 6.27692 7.72528 6.23446 7.88879C6.46392 7.84091 6.68435 7.76232 6.89032 7.64307C6.95446 7.60604 7.01498 7.56358 7.0746 7.52021C6.83973 7.72438 6.56691 7.87253 6.2697 7.96287C6.46031 8.05321 6.70151 8.03333 6.90838 7.93125C7.10442 7.83459 7.32755 7.58616 7.39801 7.34315ZM9.56973 19.8468C9.67362 19.8278 9.77751 19.807 9.87959 19.7763C10.2048 19.6797 10.502 19.527 10.7766 19.3337C10.5643 19.2144 10.1452 19.1738 9.86333 19.2786C9.51011 19.4105 9.17857 19.6869 9.07016 20.0094C9.39357 20.1792 9.87236 20.1937 10.1642 20.0853C10.4722 19.9705 10.7288 19.7366 10.82 19.4448C10.4352 19.667 10.0133 19.8052 9.56973 19.8468ZM7.47751 18.7817C7.57959 18.7889 7.68167 18.7934 7.78376 18.7889C8.11168 18.7754 8.42696 18.7049 8.73049 18.5911C8.55976 18.4321 8.17763 18.2975 7.88945 18.3282C7.5272 18.3671 7.15049 18.5441 6.97072 18.8151C7.2327 19.0464 7.67716 19.1711 7.97617 19.1385C8.29236 19.1051 8.58866 18.9497 8.74404 18.7031C8.3303 18.8178 7.903 18.8467 7.47751 18.7817ZM5.84692 17.311C5.94087 17.3408 6.03572 17.3688 6.13329 17.3878C6.44405 17.4501 6.75571 17.4546 7.06647 17.4176C6.94271 17.2297 6.61479 17.0156 6.33655 16.9795C5.98784 16.9334 5.59397 17.0138 5.36361 17.227C5.55693 17.5034 5.94538 17.722 6.23266 17.76C6.5371 17.8006 6.85057 17.722 7.05292 17.526C6.63918 17.5396 6.23085 17.4682 5.84692 17.311ZM5.95984 16.2044C5.57861 16.0851 5.22901 15.8909 4.92999 15.6262C5.00678 15.6831 5.08356 15.7382 5.16577 15.787C5.42865 15.9424 5.71141 16.0463 6.00591 16.1104C5.95261 15.8999 5.72225 15.6018 5.48105 15.4799C5.17842 15.3272 4.79448 15.2748 4.51715 15.3958C4.60568 15.7084 4.89024 16.0309 5.13957 16.1574C5.40336 16.2902 5.71412 16.3182 5.95984 16.2044ZM5.20462 14.7147C4.85772 14.5476 4.55328 14.3127 4.30576 14.0173C4.3708 14.0823 4.43584 14.1465 4.50721 14.2043C4.73576 14.3895 4.98961 14.5286 5.26153 14.6316C5.24075 14.4238 5.06369 14.1067 4.8514 13.9559C4.5849 13.7671 4.22626 13.6632 3.94531 13.7391C3.98506 14.0498 4.21 14.3976 4.42952 14.553C4.66259 14.7174 4.95348 14.7888 5.20462 14.7147ZM4.70685 13.1627C4.425 12.9224 4.19825 12.6306 4.04016 12.2955C4.08443 12.3713 4.1305 12.4472 4.1829 12.5177C4.35092 12.7453 4.55328 12.9369 4.78093 13.0986C4.81255 12.8998 4.72492 12.562 4.56322 12.3704C4.36086 12.1301 4.05281 11.9459 3.77276 11.9486C3.73392 12.2467 3.85858 12.6252 4.02571 12.823C4.20187 13.0335 4.45572 13.1708 4.70685 13.1627ZM4.55328 11.5258C4.33376 11.2466 4.17567 10.9287 4.08985 10.5836C4.11695 10.664 4.14586 10.7435 4.18199 10.8202C4.29672 11.066 4.4512 11.2846 4.63458 11.4797C4.70143 11.299 4.68337 10.9639 4.56774 10.7534C4.42229 10.4887 4.16754 10.2574 3.90375 10.2069C3.81071 10.4806 3.85678 10.86 3.97693 11.0777C4.1025 11.3081 4.31569 11.4851 4.55328 11.5258ZM4.80713 9.96927C4.63458 9.67567 4.52618 9.35317 4.48914 9.0144C4.5045 9.0939 4.52166 9.17339 4.54605 9.25108C4.62284 9.49951 4.74118 9.72716 4.89024 9.93675C4.97696 9.77414 5.00316 9.45344 4.92096 9.23844C4.81797 8.96833 4.60568 8.71538 4.36177 8.63317C4.238 8.8807 4.23258 9.24747 4.3175 9.4697C4.40784 9.70368 4.58671 9.89971 4.80713 9.96927ZM5.28502 8.65847C5.18655 8.34771 5.15403 8.0243 5.19197 7.69999C5.18926 7.77768 5.18835 7.85537 5.19468 7.93215C5.21365 8.18058 5.27598 8.41727 5.36993 8.64492C5.48557 8.51122 5.57861 8.21852 5.547 7.99991C5.50815 7.72618 5.36451 7.44523 5.15403 7.31605C4.986 7.52112 4.90289 7.86079 4.93451 8.08663C4.96883 8.32603 5.0944 8.54735 5.28502 8.65847ZM6.03301 6.69182C6.01494 6.76319 5.99778 6.83546 5.98784 6.90953C5.95442 7.14441 5.96345 7.37838 6.00501 7.60965C6.14051 7.50937 6.28686 7.25462 6.30222 7.04504C6.32209 6.78216 6.24531 6.49037 6.07637 6.32685C5.87763 6.48314 5.73038 6.78396 5.71412 7.00077C5.69696 7.23023 5.76832 7.4624 5.9237 7.60513C5.8957 7.29437 5.93093 6.98632 6.03301 6.69182ZM7.12248 6.50572C7.16585 6.45062 7.20379 6.3919 7.24083 6.33227C7.10713 6.59425 6.92103 6.8201 6.69248 7.00348C6.89122 7.01523 7.09538 6.91315 7.24083 6.75054C7.37724 6.59787 7.48564 6.30066 7.46215 6.06307C7.23992 6.05494 6.99149 6.19316 6.82618 6.37925C6.69428 6.5274 6.61659 6.793 6.63647 6.95109C6.81985 6.82913 6.98427 6.68278 7.12248 6.50572ZM16.6341 17.3553C16.9106 17.0951 17.1671 16.8151 17.402 16.5169C17.636 16.2179 17.8447 15.9008 18.028 15.5693C18.3957 14.9053 18.6414 14.1799 18.7887 13.4391C18.8619 13.0678 18.9106 12.692 18.9314 12.3153C18.9513 11.9377 18.945 11.5592 18.9115 11.1834C18.8781 10.8076 18.814 10.4336 18.7245 10.0677C18.6342 9.70187 18.5168 9.34142 18.3695 8.99452C18.0768 8.29892 17.6748 7.6512 17.1861 7.07846C17.6694 7.65662 18.0642 8.30706 18.3496 9.00356C18.4933 9.35136 18.6062 9.7109 18.6929 10.0768C18.7787 10.4426 18.8393 10.8139 18.8682 11.1888C18.898 11.5628 18.9007 11.9395 18.8772 12.3144C18.8528 12.6893 18.8004 13.0615 18.7245 13.4283C18.571 14.1618 18.3207 14.8782 17.9513 15.5296C17.767 15.8557 17.5574 16.1664 17.3243 16.4591C17.0903 16.7509 16.8338 17.0246 16.5592 17.2785C16.2827 17.5305 15.99 17.7636 15.6811 17.9741C15.3712 18.1828 15.0487 18.3734 14.7127 18.536C14.5455 18.6191 14.3739 18.6932 14.2013 18.7636C14.0279 18.8314 13.8526 18.8973 13.6747 18.9524C13.5861 18.9823 13.4958 19.0057 13.4064 19.0328C13.3151 19.0581 13.2239 19.0852 13.1335 19.1132C12.952 19.1693 12.7722 19.2325 12.5951 19.3039C12.3575 19.3996 12.1254 19.5116 11.905 19.6453C11.6845 19.5116 11.4515 19.3987 11.2148 19.3039C11.0377 19.2325 10.8579 19.1702 10.6764 19.1132C10.586 19.0852 10.4948 19.059 10.4035 19.0328C10.3141 19.0057 10.2238 18.9823 10.1352 18.9524C9.95728 18.8973 9.78202 18.8314 9.60857 18.7636C9.43603 18.6932 9.26439 18.6182 9.09726 18.536C8.76121 18.3734 8.4387 18.1828 8.12885 17.9741C7.81989 17.7636 7.52629 17.5305 7.25076 17.2785C6.97614 17.0246 6.72048 16.7509 6.4856 16.4591C6.25253 16.1664 6.04295 15.8557 5.85866 15.5296C5.48918 14.8782 5.23894 14.1627 5.08537 13.4283C5.00949 13.0606 4.95709 12.6884 4.9327 12.3144C4.90921 11.9395 4.91192 11.5637 4.94173 11.1888C4.97064 10.8148 5.03117 10.4426 5.11699 10.0768C5.20371 9.7109 5.31663 9.35136 5.46027 9.00356C5.74574 8.30796 6.14051 7.65662 6.62382 7.07846C6.13509 7.6512 5.73309 8.29983 5.4404 8.99452C5.29315 9.34142 5.17661 9.70187 5.08537 10.0677C4.99594 10.4345 4.93089 10.8076 4.89837 11.1834C4.86495 11.5592 4.85862 11.9386 4.8785 12.3153C4.89927 12.6929 4.94806 13.0688 5.02123 13.4391C5.16848 14.1799 5.4142 14.9062 5.78187 15.5693C5.96526 15.9008 6.17484 16.2188 6.40791 16.5169C6.64279 16.8151 6.89935 17.0951 7.17578 17.3553C7.45312 17.6136 7.74852 17.853 8.06019 18.0698C8.37276 18.2848 8.69888 18.4809 9.03855 18.6498C9.20838 18.7356 9.38183 18.8133 9.55618 18.8865C9.73234 18.9579 9.9094 19.0265 10.091 19.0843C10.1804 19.115 10.2726 19.1403 10.3629 19.1693C10.4523 19.1954 10.5418 19.2226 10.6312 19.2506C10.8092 19.3075 10.9844 19.3707 11.1561 19.4421C11.3629 19.5279 11.5635 19.6255 11.755 19.7384C11.699 19.7763 11.6439 19.8143 11.5906 19.8549C11.437 19.9705 11.2934 20.1006 11.1606 20.2398C11.0278 20.3789 10.9058 20.5261 10.7884 20.6752L10.9257 20.7818C11.0395 20.6336 11.1561 20.4891 11.2825 20.3554C11.4081 20.2208 11.5436 20.0961 11.69 19.9841C11.7595 19.9299 11.8318 19.8793 11.905 19.8305C11.9781 19.8793 12.0504 19.9299 12.12 19.9841C12.2654 20.0961 12.4009 20.2208 12.5274 20.3554C12.6539 20.49 12.7704 20.6336 12.8842 20.7818L13.0215 20.6752C12.9041 20.5261 12.7821 20.378 12.6493 20.2398C12.5165 20.1006 12.3729 19.9705 12.2193 19.8549C12.166 19.8143 12.11 19.7754 12.0549 19.7384C12.2455 19.6255 12.447 19.527 12.6539 19.4421C12.8255 19.3707 13.0008 19.3075 13.1787 19.2506C13.2672 19.2226 13.3567 19.1954 13.447 19.1693C13.5383 19.1412 13.6295 19.116 13.7189 19.0843C13.8996 19.0265 14.0776 18.9579 14.2537 18.8865C14.429 18.8124 14.6024 18.7356 14.7714 18.6498C15.1119 18.4809 15.4372 18.2848 15.7497 18.0698C16.0605 17.853 16.3559 17.6136 16.6341 17.3553ZM13.8066 18.1204C13.7189 18.1801 13.6331 18.2415 13.5527 18.311C13.2953 18.5315 13.0839 18.7916 12.9104 19.078C13.1507 19.0979 13.5473 18.9633 13.7623 18.7537C14.0324 18.4899 14.2248 18.1051 14.1977 17.7708C13.8373 17.751 13.3955 17.9343 13.1733 18.1511C12.9384 18.3806 12.7966 18.6968 12.8273 18.9967C13.0902 18.6363 13.4199 18.34 13.8066 18.1204ZM15.3242 17.3309C15.2583 17.4086 15.1932 17.4881 15.1363 17.573C14.952 17.8449 14.822 18.1403 14.7334 18.452C14.962 18.4095 15.298 18.1828 15.4453 17.9316C15.6296 17.6173 15.7109 17.2089 15.5998 16.9036C15.2583 16.9768 14.8933 17.2604 14.7416 17.5197C14.5808 17.7943 14.5293 18.1249 14.635 18.396C14.7885 17.9949 15.0198 17.6335 15.3242 17.3309ZM16.5393 16.1303C16.5004 16.2215 16.4634 16.3128 16.4345 16.4076C16.3423 16.7112 16.3062 17.021 16.3134 17.3336C16.5122 17.2288 16.7579 16.9235 16.8211 16.6506C16.9015 16.3083 16.86 15.9081 16.6712 15.6587C16.3776 15.824 16.1219 16.189 16.0551 16.4718C15.9846 16.7708 16.0316 17.0906 16.2068 17.311C16.2339 16.8964 16.3441 16.4971 16.5393 16.1303ZM17.4056 16.077C17.5764 15.9433 17.7561 15.6118 17.7697 15.3416C17.7868 15.0029 17.6784 14.6307 17.4553 14.4265C17.2051 14.6343 17.0253 15.0246 17.0117 15.3037C16.9973 15.5991 17.0967 15.8945 17.3008 16.0734C17.2548 15.6759 17.2909 15.2784 17.4119 14.8972C17.3912 14.9902 17.3713 15.0833 17.3604 15.1781C17.3252 15.4817 17.3451 15.7816 17.4056 16.077ZM18.0208 13.7165C18.0425 14.0101 18.1157 14.2901 18.2259 14.5584C18.3632 14.4012 18.4734 14.0543 18.4373 13.7969C18.3921 13.4735 18.2223 13.141 17.9747 12.9884C17.776 13.2296 17.6766 13.6316 17.7137 13.899C17.7534 14.1808 17.9016 14.4428 18.1265 14.5747C18.0109 14.2079 17.9729 13.8249 18.019 13.4418C18.0154 13.5331 18.0145 13.6252 18.0208 13.7165ZM18.5764 13.0823C18.6785 12.9089 18.72 12.562 18.6405 12.3253C18.5403 12.0272 18.3207 11.7435 18.0597 11.6432C17.9142 11.907 17.8925 12.3045 17.9756 12.5493C18.0633 12.8086 18.2494 13.0299 18.4861 13.1139C18.3117 12.7878 18.2078 12.4328 18.1825 12.0633C18.1961 12.1509 18.2114 12.2376 18.234 12.3226C18.3054 12.5963 18.4237 12.8483 18.5764 13.0823ZM18.7399 11.5628C18.795 11.3785 18.7544 11.0452 18.6252 10.8419C18.4635 10.5872 18.1934 10.3731 17.9269 10.3397C17.8519 10.6188 17.9233 10.9946 18.056 11.2042C18.197 11.4264 18.4219 11.589 18.6613 11.6134C18.4237 11.3496 18.2449 11.0425 18.1374 10.7037C18.1699 10.7823 18.2042 10.8591 18.2449 10.9341C18.3749 11.1726 18.5439 11.3803 18.7399 11.5628ZM18.5475 10.1653C18.5493 9.98011 18.4246 9.6847 18.2521 9.53113C18.0362 9.33961 17.7308 9.21314 17.4761 9.25199C17.4806 9.52842 17.645 9.85635 17.823 10.0144C18.0118 10.1816 18.2611 10.2728 18.4888 10.2322C18.2006 10.0515 17.9549 9.81569 17.7661 9.53203C17.8167 9.59527 17.8681 9.6576 17.9251 9.71542C18.1093 9.90061 18.3189 10.0479 18.5475 10.1653ZM18.0949 8.89786C18.0642 8.72351 17.8934 8.46786 17.7037 8.35493C17.4661 8.2131 17.1572 8.14896 16.925 8.23208C16.9792 8.49134 17.1915 8.76958 17.3875 8.88612C17.5944 9.00988 17.8456 9.05053 18.0515 8.97194C17.748 8.8536 17.4752 8.67563 17.2475 8.44347C17.3062 8.49405 17.3659 8.54374 17.43 8.5871C17.6351 8.72893 17.8591 8.82921 18.0949 8.89786ZM17.5736 7.88879C17.5312 7.72528 17.3496 7.49492 17.1608 7.40187C16.9241 7.28534 16.6251 7.2474 16.4101 7.34315C16.4806 7.58616 16.7046 7.83459 16.8997 7.93035C17.1066 8.03243 17.3478 8.0523 17.5384 7.96197C17.2412 7.87253 16.9675 7.72347 16.7335 7.51931C16.7931 7.56267 16.8537 7.60513 16.9178 7.64217C17.1238 7.76142 17.3442 7.84001 17.5736 7.88879ZM13.9457 19.2786C13.6638 19.1738 13.2456 19.2144 13.0324 19.3337C13.307 19.527 13.6042 19.6797 13.9294 19.7763C14.0306 19.807 14.1345 19.8278 14.2393 19.8468C13.7966 19.8052 13.3738 19.6679 12.9899 19.4448C13.0812 19.7357 13.3377 19.9705 13.6458 20.0853C13.9367 20.1937 14.4163 20.1792 14.7398 20.0094C14.6304 19.686 14.2989 19.4096 13.9457 19.2786ZM15.9196 18.3282C15.6305 18.2975 15.2484 18.4321 15.0785 18.5911C15.3821 18.7049 15.6973 18.7754 16.0253 18.7889C16.1273 18.7934 16.2294 18.788 16.3315 18.7817C15.9069 18.8467 15.4787 18.8178 15.065 18.7031C15.2203 18.9497 15.5167 19.1051 15.8328 19.1385C16.131 19.1702 16.5763 19.0455 16.8383 18.8151C16.6585 18.5432 16.2818 18.3671 15.9196 18.3282ZM17.4725 16.9795C17.1942 17.0165 16.8663 17.2297 16.7425 17.4176C17.0533 17.4555 17.365 17.4501 17.6757 17.3878C17.7724 17.3688 17.8672 17.3408 17.9621 17.311C17.5782 17.4682 17.1698 17.5396 16.7561 17.5251C16.9575 17.7211 17.2719 17.7988 17.5764 17.7591C17.8636 17.7211 18.253 17.5025 18.4454 17.2261C18.215 17.0129 17.8212 16.9325 17.4725 16.9795ZM18.328 15.479C18.0868 15.6009 17.8564 15.8999 17.8031 16.1095C18.0976 16.0454 18.3804 15.9415 18.6432 15.7861C18.7254 15.7373 18.8031 15.6822 18.879 15.6253C18.58 15.8909 18.2304 16.0851 17.8492 16.2035C18.0949 16.3173 18.4057 16.2893 18.6694 16.1556C18.9188 16.03 19.2033 15.7075 19.2919 15.394C19.0145 15.2739 18.6306 15.3263 18.328 15.479ZM18.9576 13.9559C18.7453 14.1067 18.5683 14.4238 18.5475 14.6316C18.8185 14.5286 19.0732 14.3895 19.3018 14.2043C19.3732 14.1465 19.4391 14.0832 19.5033 14.0173C19.2557 14.3127 18.9513 14.5476 18.6044 14.7147C18.8546 14.7888 19.1464 14.7174 19.3795 14.5521C19.599 14.3967 19.824 14.0489 19.8637 13.7382C19.5828 13.6632 19.2241 13.7671 18.9576 13.9559ZM19.2458 12.3713C19.0841 12.5629 18.9974 12.9007 19.0281 13.0995C19.2557 12.9378 19.4581 12.7462 19.6261 12.5186C19.6785 12.4472 19.7246 12.3722 19.7689 12.2964C19.6108 12.6315 19.384 12.9233 19.1022 13.1636C19.3533 13.1717 19.6071 13.0344 19.7833 12.8239C19.9504 12.6261 20.0751 12.2476 20.0362 11.9495C19.7562 11.9468 19.4481 12.131 19.2458 12.3713ZM19.2413 10.7534C19.1256 10.9639 19.1067 11.299 19.1744 11.4797C19.3578 11.2846 19.5123 11.066 19.627 10.8202C19.6632 10.7435 19.6921 10.664 19.7192 10.5836C19.6333 10.9287 19.4753 11.2466 19.2557 11.5258C19.4933 11.486 19.7065 11.309 19.833 11.0777C19.9522 10.86 19.9992 10.4806 19.9062 10.2069C19.6415 10.2574 19.3867 10.4887 19.2413 10.7534ZM18.9188 9.93584C19.0678 9.72626 19.1862 9.49951 19.263 9.25018C19.2873 9.17249 19.3045 9.09299 19.3199 9.0135C19.2828 9.35226 19.1744 9.67477 19.0019 9.96836C19.2223 9.89971 19.4021 9.70368 19.4915 9.46789C19.5764 9.24566 19.571 8.87889 19.4472 8.63137C19.2033 8.71358 18.991 8.96652 18.8881 9.23663C18.8049 9.45254 18.8311 9.77324 18.9188 9.93584ZM18.6143 7.93306C18.6207 7.85537 18.6189 7.77768 18.617 7.70089C18.655 8.0243 18.6225 8.34861 18.524 8.65937C18.7146 8.54826 18.8402 8.32693 18.8745 8.08844C18.9061 7.86259 18.823 7.52293 18.655 7.31786C18.4454 7.44704 18.3009 7.72799 18.262 8.00171C18.2313 8.22033 18.3234 8.51303 18.4391 8.64673C18.5339 8.41817 18.5954 8.18149 18.6143 7.93306ZM17.804 7.60965C17.8456 7.37838 17.8546 7.14531 17.8212 6.90953C17.8103 6.83636 17.7941 6.76409 17.776 6.69182C17.8781 6.98542 17.9133 7.29437 17.8853 7.60423C18.0407 7.4615 18.1121 7.23023 18.0949 6.99987C18.0786 6.78306 17.9314 6.48224 17.7326 6.32595C17.5628 6.48946 17.4869 6.78035 17.5068 7.04414C17.5222 7.25462 17.6685 7.50847 17.804 7.60965ZM17.1165 7.00439C16.888 6.821 16.701 6.59425 16.5682 6.33318C16.6052 6.3928 16.6432 6.45152 16.6865 6.50663C16.8247 6.68369 16.9901 6.83004 17.1744 6.95289C17.1942 6.7948 17.1174 6.52921 16.9846 6.38106C16.8184 6.19496 16.57 6.05675 16.3487 6.06488C16.3252 6.30246 16.4327 6.59877 16.57 6.75234C16.7136 6.91405 16.9178 7.01613 17.1165 7.00439ZM11.5273 4.36111L10.6836 4.48487L11.2943 5.08742L11.1506 5.9384L11.905 5.5373L12.6593 5.9384L12.5147 5.08742L13.1254 4.48487L12.2817 4.36111L11.9041 3.58691L11.5273 4.36111ZM8.99789 5.10007L8.4658 5.17866L8.85064 5.55898L8.7594 6.09559L9.23548 5.84264L9.71156 6.09559L9.62032 5.55898L10.0052 5.17866L9.47307 5.10007L9.23548 4.61225L8.99789 5.10007ZM14.335 5.10007L13.803 5.17866L14.1878 5.55898L14.0965 6.09559L14.5726 5.84264L15.0487 6.09559L14.9575 5.55898L15.3423 5.17866L14.8102 5.10007L14.5726 4.61225L14.335 5.10007Z" fill="#656563"/>
<path d="M10.0467 18.7997C9.7766 18.5359 9.58418 18.151 9.61129 17.8168C9.97173 17.7969 10.4135 17.9803 10.6357 18.1971C10.8706 18.4266 11.0124 18.7428 10.9817 19.0427C10.7197 18.684 10.3891 18.3868 10.0034 18.1682C10.091 18.2278 10.1768 18.2893 10.2572 18.3588C10.5147 18.5792 10.7261 18.8394 10.8995 19.1258C10.6583 19.1448 10.2617 19.0093 10.0467 18.7997ZM9.07558 18.4988C8.98705 18.1872 8.85606 17.8918 8.67268 17.6199C8.61486 17.5349 8.55072 17.4554 8.48478 17.3778C8.78921 17.6804 9.02048 18.0417 9.17405 18.4428C9.27975 18.1718 9.22825 17.8403 9.06745 17.5666C8.91569 17.3073 8.55072 17.0245 8.20925 16.9505C8.09813 17.2558 8.17943 17.6641 8.36372 17.9785C8.51097 18.2296 8.84703 18.4564 9.07558 18.4988ZM7.13784 15.7056C6.94813 15.9558 6.90748 16.3551 6.98788 16.6975C7.05202 16.9703 7.29684 17.2757 7.49558 17.3805C7.50281 17.0679 7.46667 16.758 7.37453 16.4545C7.34562 16.3597 7.30858 16.2684 7.26973 16.1772C7.46396 16.5439 7.57508 16.9423 7.60127 17.3561C7.77653 17.1357 7.8235 16.8159 7.75304 16.5168C7.68709 16.2359 7.43144 15.87 7.13784 15.7056ZM6.79727 15.3506C6.78372 15.0714 6.60395 14.6803 6.35371 14.4734C6.13058 14.6776 6.02307 15.0498 6.03934 15.3885C6.05289 15.6586 6.23266 15.9902 6.4034 16.1239C6.46392 15.8285 6.4838 15.5285 6.44856 15.225C6.43772 15.1302 6.41875 15.0371 6.39707 14.9441C6.51812 15.3253 6.55426 15.7228 6.50819 16.1203C6.71235 15.9414 6.81172 15.646 6.79727 15.3506ZM5.6825 14.6207C5.90744 14.4888 6.0556 14.2277 6.09534 13.9449C6.13238 13.6784 6.03392 13.2764 5.83427 13.0343C5.58674 13.187 5.41691 13.5194 5.37174 13.8428C5.33561 14.1012 5.44582 14.4472 5.58313 14.6044C5.69425 14.3361 5.76652 14.0551 5.7882 13.7624C5.79542 13.6712 5.79362 13.5791 5.79091 13.4878C5.83608 13.8708 5.79813 14.2539 5.6825 14.6207ZM5.83427 12.5971C5.91738 12.3523 5.8948 11.9539 5.75026 11.6901C5.48828 11.7904 5.26966 12.074 5.16938 12.3721C5.08898 12.6097 5.13144 12.9566 5.23352 13.1292C5.38619 12.8952 5.50454 12.6432 5.57771 12.3694C5.60029 12.2845 5.61565 12.1969 5.6292 12.1102C5.60391 12.4796 5.50002 12.8347 5.32567 13.1608C5.56055 13.0777 5.74664 12.8564 5.83427 12.5971ZM5.06911 11.6106C5.26514 11.4272 5.43317 11.2203 5.56416 10.9819C5.60481 10.9078 5.63914 10.8301 5.67166 10.7515C5.56326 11.0903 5.38529 11.3974 5.1477 11.6612C5.3871 11.6368 5.61204 11.4742 5.75297 11.252C5.88666 11.0424 5.95713 10.6666 5.88215 10.3874C5.61565 10.4209 5.34554 10.635 5.18384 10.8897C5.05466 11.0921 5.014 11.4254 5.06911 11.6106ZM5.31934 10.2799C5.547 10.3206 5.79633 10.2293 5.98513 10.0622C6.1631 9.90412 6.32751 9.5771 6.33203 9.29976C6.07728 9.26002 5.77284 9.38649 5.55603 9.57891C5.38348 9.73158 5.25882 10.0279 5.26062 10.2131C5.48918 10.0956 5.69876 9.94929 5.88215 9.7641C5.93906 9.70628 5.99146 9.64395 6.04114 9.58072C5.85324 9.86257 5.60752 10.0984 5.31934 10.2799ZM6.10528 8.40271C5.91557 8.51563 5.74574 8.77129 5.71412 8.94564C5.9499 8.87699 6.17304 8.77581 6.379 8.63488C6.44314 8.59061 6.50277 8.54183 6.56149 8.49124C6.33293 8.72341 6.06011 8.90138 5.75748 9.01972C5.96345 9.09831 6.21459 9.05766 6.42146 8.9339C6.6175 8.81736 6.82979 8.53912 6.88399 8.27985C6.65182 8.19674 6.34287 8.26088 6.10528 8.40271ZM7.39801 7.39003C7.18301 7.29427 6.88399 7.33131 6.64731 7.44875C6.4585 7.54179 6.27692 7.77216 6.23446 7.93567C6.46392 7.88779 6.68435 7.80919 6.89032 7.68995C6.95446 7.65291 7.01498 7.61045 7.0746 7.56709C6.83973 7.77125 6.56691 7.91941 6.2697 8.00974C6.46031 8.10008 6.70151 8.08021 6.90838 7.97813C7.10442 7.88146 7.32755 7.63304 7.39801 7.39003ZM9.56973 19.8937C9.67362 19.8747 9.77751 19.8539 9.87959 19.8232C10.2048 19.7265 10.502 19.5739 10.7766 19.3805C10.5643 19.2613 10.1452 19.2206 9.86333 19.3254C9.51011 19.4573 9.17857 19.7338 9.07016 20.0563C9.39357 20.2261 9.87236 20.2406 10.1642 20.1322C10.4722 20.0174 10.7288 19.7834 10.82 19.4917C10.4352 19.7148 10.0133 19.8521 9.56973 19.8937ZM7.47751 18.8286C7.57959 18.8358 7.68167 18.8403 7.78376 18.8358C8.11168 18.8223 8.42696 18.7518 8.73049 18.638C8.55976 18.479 8.17763 18.3444 7.88945 18.3751C7.5272 18.4139 7.15049 18.591 6.97072 18.862C7.2327 19.0933 7.67716 19.2179 7.97617 19.1854C8.29236 19.152 8.58866 18.9966 8.74404 18.75C8.3303 18.8647 7.903 18.8936 7.47751 18.8286ZM5.84692 17.3579C5.94087 17.3877 6.03572 17.4157 6.13329 17.4347C6.44405 17.497 6.75571 17.5015 7.06647 17.4645C6.94271 17.2766 6.61479 17.0625 6.33655 17.0263C5.98784 16.9803 5.59397 17.0607 5.36361 17.2739C5.55693 17.5503 5.94538 17.7689 6.23266 17.8069C6.5371 17.8475 6.85057 17.7689 7.05292 17.5729C6.63918 17.5864 6.23085 17.5151 5.84692 17.3579ZM5.95984 16.2512C5.57861 16.132 5.22901 15.9378 4.92999 15.6731C5.00678 15.73 5.08356 15.7851 5.16577 15.8339C5.42865 15.9893 5.71141 16.0932 6.00591 16.1573C5.95261 15.9468 5.72225 15.6487 5.48105 15.5267C5.17842 15.3741 4.79448 15.3217 4.51715 15.4427C4.60568 15.7553 4.89024 16.0778 5.13957 16.2043C5.40336 16.3371 5.71412 16.3651 5.95984 16.2512ZM5.20462 14.7616C4.85772 14.5945 4.55328 14.3596 4.30576 14.0642C4.3708 14.1292 4.43584 14.1934 4.50721 14.2512C4.73576 14.4364 4.98961 14.5755 5.26153 14.6785C5.24075 14.4707 5.06369 14.1536 4.8514 14.0027C4.5849 13.8139 4.22626 13.71 3.94531 13.7859C3.98506 14.0967 4.21 14.4445 4.42952 14.5999C4.66259 14.7643 4.95348 14.8357 5.20462 14.7616ZM4.70685 13.2096C4.425 12.9693 4.19825 12.6775 4.04016 12.3423C4.08443 12.4182 4.1305 12.4941 4.1829 12.5646C4.35092 12.7922 4.55328 12.9837 4.78093 13.1454C4.81255 12.9467 4.72492 12.6088 4.56322 12.4173C4.36086 12.177 4.05281 11.9927 3.77276 11.9954C3.73392 12.2936 3.85858 12.6721 4.02571 12.8699C4.20187 13.0804 4.45572 13.2177 4.70685 13.2096ZM4.55328 11.5727C4.33376 11.2935 4.17567 10.9755 4.08985 10.6304C4.11695 10.7108 4.14586 10.7903 4.18199 10.8671C4.29672 11.1128 4.4512 11.3315 4.63458 11.5266C4.70143 11.3459 4.68337 11.0108 4.56774 10.8003C4.42229 10.5356 4.16754 10.3043 3.90375 10.2537C3.81071 10.5275 3.85678 10.9069 3.97693 11.1246C4.1025 11.3549 4.31569 11.532 4.55328 11.5727ZM4.80713 10.0161C4.63458 9.72254 4.52618 9.40004 4.48914 9.06127C4.5045 9.14077 4.52166 9.22027 4.54605 9.29796C4.62284 9.54639 4.74118 9.77404 4.89024 9.98362C4.97696 9.82101 5.00316 9.50031 4.92096 9.28531C4.81797 9.0152 4.60568 8.76226 4.36177 8.68005C4.238 8.92757 4.23258 9.29434 4.3175 9.51657C4.40784 9.75145 4.58671 9.94658 4.80713 10.0161ZM5.28502 8.70534C5.18655 8.39458 5.15403 8.07117 5.19197 7.74686C5.18926 7.82455 5.18835 7.90224 5.19468 7.97903C5.21365 8.22746 5.27598 8.46414 5.36993 8.69179C5.48557 8.55809 5.57861 8.2654 5.547 8.04678C5.50815 7.77306 5.36451 7.49211 5.15403 7.36293C4.986 7.56799 4.90289 7.90766 4.93451 8.13351C4.96883 8.3729 5.0944 8.59423 5.28502 8.70534ZM6.03301 6.73869C6.01494 6.81006 5.99778 6.88233 5.98784 6.95641C5.95442 7.19129 5.96345 7.42526 6.00501 7.65652C6.14051 7.55625 6.28686 7.3015 6.30222 7.09191C6.32209 6.82903 6.24531 6.53724 6.07637 6.37373C5.87763 6.53001 5.73038 6.83084 5.71412 7.04765C5.69696 7.27711 5.76832 7.50927 5.9237 7.65201C5.8957 7.34125 5.93093 7.03319 6.03301 6.73869ZM7.12248 6.5526C7.16585 6.49749 7.20379 6.43877 7.24083 6.37915C7.10713 6.64113 6.92103 6.86697 6.69248 7.05036C6.89122 7.0621 7.09538 6.96002 7.24083 6.79741C7.37724 6.64474 7.48564 6.34753 7.46215 6.10994C7.23992 6.10181 6.99149 6.24003 6.82618 6.42613C6.69428 6.57428 6.61659 6.83987 6.63647 6.99796C6.81985 6.87601 6.98427 6.72966 7.12248 6.5526ZM16.6341 17.4021C16.9106 17.142 17.1671 16.8619 17.402 16.5638C17.636 16.2648 17.8447 15.9477 18.028 15.6162C18.3957 14.9522 18.6414 14.2268 18.7887 13.486C18.8619 13.1147 18.9106 12.7389 18.9314 12.3622C18.9513 11.9846 18.945 11.6061 18.9115 11.2303C18.8781 10.8545 18.814 10.4805 18.7245 10.1146C18.6342 9.74874 18.5168 9.3883 18.3695 9.0414C18.0768 8.3458 17.6748 7.69808 17.1861 7.12534C17.6694 7.7035 18.0642 8.35393 18.3496 9.05043C18.4933 9.39823 18.6062 9.75778 18.6929 10.1236C18.7787 10.4895 18.8393 10.8608 18.8682 11.2357C18.898 11.6097 18.9007 11.9864 18.8772 12.3613C18.8528 12.7362 18.8004 13.1084 18.7245 13.4752C18.571 14.2087 18.3207 14.9251 17.9513 15.5764C17.767 15.9025 17.5574 16.2133 17.3243 16.506C17.0903 16.7978 16.8338 17.0715 16.5592 17.3254C16.2827 17.5774 15.99 17.8105 15.6811 18.021C15.3712 18.2296 15.0487 18.4203 14.7127 18.5829C14.5455 18.666 14.3739 18.74 14.2013 18.8105C14.0279 18.8783 13.8526 18.9442 13.6747 18.9993C13.5861 19.0291 13.4958 19.0526 13.4064 19.0797C13.3151 19.105 13.2239 19.1321 13.1335 19.1601C12.952 19.2161 12.7722 19.2794 12.5951 19.3507C12.3575 19.4465 12.1254 19.5585 11.905 19.6922C11.6845 19.5585 11.4515 19.4456 11.2148 19.3507C11.0377 19.2794 10.8579 19.217 10.6764 19.1601C10.586 19.1321 10.4948 19.1059 10.4035 19.0797C10.3141 19.0526 10.2238 19.0291 10.1352 18.9993C9.95728 18.9442 9.78202 18.8783 9.60857 18.8105C9.43603 18.74 9.26439 18.6651 9.09726 18.5829C8.76121 18.4203 8.4387 18.2296 8.12885 18.021C7.81989 17.8105 7.52629 17.5774 7.25076 17.3254C6.97614 17.0715 6.72048 16.7978 6.4856 16.506C6.25253 16.2133 6.04295 15.9025 5.85866 15.5764C5.48918 14.9251 5.23894 14.2096 5.08537 13.4752C5.00949 13.1075 4.95709 12.7353 4.9327 12.3613C4.90921 11.9864 4.91192 11.6106 4.94173 11.2357C4.97064 10.8617 5.03117 10.4895 5.11699 10.1236C5.20371 9.75778 5.31663 9.39823 5.46027 9.05043C5.74574 8.35483 6.14051 7.7035 6.62382 7.12534C6.13509 7.69808 5.73309 8.3467 5.4404 9.0414C5.29315 9.3883 5.17661 9.74874 5.08537 10.1146C4.99594 10.4814 4.93089 10.8545 4.89837 11.2303C4.86495 11.6061 4.85862 11.9855 4.8785 12.3622C4.89927 12.7398 4.94806 13.1156 5.02123 13.486C5.16848 14.2268 5.4142 14.9531 5.78187 15.6162C5.96526 15.9477 6.17484 16.2657 6.40791 16.5638C6.64279 16.8619 6.89935 17.142 7.17578 17.4021C7.45312 17.6605 7.74852 17.8999 8.06019 18.1167C8.37276 18.3317 8.69888 18.5278 9.03855 18.6967C9.20838 18.7825 9.38183 18.8602 9.55618 18.9334C9.73234 19.0047 9.9094 19.0734 10.091 19.1312C10.1804 19.1619 10.2726 19.1872 10.3629 19.2161C10.4523 19.2423 10.5418 19.2694 10.6312 19.2974C10.8092 19.3543 10.9844 19.4176 11.1561 19.4889C11.3629 19.5748 11.5635 19.6723 11.755 19.7853C11.699 19.8232 11.6439 19.8611 11.5906 19.9018C11.437 20.0174 11.2934 20.1475 11.1606 20.2866C11.0278 20.4257 10.9058 20.573 10.7884 20.7221L10.9257 20.8287C11.0395 20.6805 11.1561 20.536 11.2825 20.4023C11.4081 20.2677 11.5436 20.143 11.69 20.031C11.7595 19.9768 11.8318 19.9262 11.905 19.8783C11.9781 19.9271 12.0504 19.9777 12.12 20.031C12.2654 20.143 12.4009 20.2677 12.5274 20.4023C12.6539 20.5369 12.7704 20.6805 12.8842 20.8287L13.0215 20.7221C12.9041 20.573 12.7821 20.4248 12.6493 20.2866C12.5165 20.1475 12.3729 20.0174 12.2193 19.9018C12.166 19.8611 12.11 19.8223 12.0549 19.7853C12.2455 19.6723 12.447 19.5739 12.6539 19.4889C12.8255 19.4176 13.0008 19.3543 13.1787 19.2974C13.2672 19.2694 13.3567 19.2423 13.447 19.2161C13.5383 19.1881 13.6295 19.1628 13.7189 19.1312C13.8996 19.0734 14.0776 19.0047 14.2537 18.9334C14.429 18.8593 14.6024 18.7825 14.7714 18.6967C15.1119 18.5278 15.4372 18.3317 15.7497 18.1167C16.0605 17.8999 16.3559 17.6605 16.6341 17.4021ZM13.8066 18.1673C13.7189 18.2269 13.6331 18.2884 13.5527 18.3579C13.2953 18.5783 13.0839 18.8385 12.9104 19.1249C13.1507 19.1448 13.5473 19.0102 13.7623 18.8006C14.0324 18.5368 14.2248 18.1519 14.1977 17.8177C13.8373 17.7978 13.3955 17.9812 13.1733 18.198C12.9384 18.4275 12.7966 18.7437 12.8273 19.0436C13.0902 18.6831 13.4199 18.3868 13.8066 18.1673ZM15.3242 17.3778C15.2583 17.4554 15.1932 17.5349 15.1363 17.6199C14.952 17.8918 14.822 18.1872 14.7334 18.4988C14.962 18.4564 15.298 18.2296 15.4453 17.9785C15.6296 17.6641 15.7109 17.2558 15.5998 16.9505C15.2583 17.0236 14.8933 17.3073 14.7416 17.5666C14.5808 17.8412 14.5293 18.1718 14.635 18.4428C14.7885 18.0417 15.0198 17.6804 15.3242 17.3778ZM16.5393 16.1781C16.5004 16.2693 16.4634 16.3606 16.4345 16.4554C16.3423 16.7589 16.3062 17.0688 16.3134 17.3814C16.5122 17.2766 16.7579 16.9712 16.8211 16.6984C16.9015 16.356 16.86 15.9558 16.6712 15.7065C16.3776 15.8718 16.1219 16.2368 16.0551 16.5195C15.9846 16.8186 16.0316 17.1384 16.2068 17.3588C16.2339 16.9432 16.3441 16.5439 16.5393 16.1781ZM17.4056 16.1239C17.5764 15.9902 17.7561 15.6586 17.7697 15.3885C17.7868 15.0498 17.6784 14.6776 17.4553 14.4734C17.2051 14.6812 17.0253 15.0714 17.0117 15.3506C16.9973 15.646 17.0967 15.9414 17.3008 16.1203C17.2548 15.7228 17.2909 15.3253 17.4119 14.9441C17.3912 15.0371 17.3713 15.1302 17.3604 15.225C17.3252 15.5285 17.3451 15.8285 17.4056 16.1239ZM18.0208 13.7633C18.0425 14.0569 18.1157 14.337 18.2259 14.6053C18.3632 14.4481 18.4734 14.1012 18.4373 13.8437C18.3921 13.5203 18.2223 13.1879 17.9747 13.0352C17.776 13.2764 17.6766 13.6784 17.7137 13.9458C17.7534 14.2277 17.9016 14.4897 18.1265 14.6216C18.0109 14.2548 17.9729 13.8718 18.019 13.4887C18.0154 13.58 18.0145 13.6721 18.0208 13.7633ZM18.5764 13.1292C18.6785 12.9557 18.72 12.6088 18.6405 12.3721C18.5403 12.074 18.3207 11.7904 18.0597 11.6901C17.9142 11.9539 17.8925 12.3514 17.9756 12.5971C18.0633 12.8564 18.2494 13.0777 18.4861 13.1617C18.3117 12.8356 18.2078 12.4806 18.1825 12.1111C18.1961 12.1987 18.2114 12.2854 18.234 12.3703C18.3054 12.6441 18.4237 12.8952 18.5764 13.1292ZM18.7399 11.6106C18.795 11.4254 18.7544 11.093 18.6252 10.8897C18.4635 10.635 18.1934 10.4209 17.9269 10.3874C17.8519 10.6666 17.9233 11.0424 18.056 11.252C18.197 11.4742 18.4219 11.6368 18.6613 11.6612C18.4237 11.3974 18.2449 11.0903 18.1374 10.7515C18.1699 10.8301 18.2042 10.9069 18.2449 10.9819C18.3749 11.2194 18.5439 11.4272 18.7399 11.6106ZM18.5475 10.2122C18.5493 10.0279 18.4246 9.73158 18.2521 9.57801C18.0362 9.38649 17.7308 9.26002 17.4761 9.29886C17.4806 9.57529 17.645 9.90322 17.823 10.0613C18.0118 10.2284 18.2611 10.3197 18.4888 10.279C18.2006 10.0983 17.9549 9.86257 17.7661 9.57891C17.8167 9.64214 17.8681 9.70448 17.9251 9.76229C18.1093 9.94749 18.3189 10.0947 18.5475 10.2122ZM18.0949 8.94564C18.0642 8.77129 17.8934 8.51563 17.7037 8.40271C17.4661 8.26088 17.1572 8.19674 16.925 8.27985C16.9792 8.53912 17.1915 8.81736 17.3875 8.9339C17.5944 9.05766 17.8456 9.09831 18.0515 9.01972C17.748 8.90138 17.4752 8.72341 17.2475 8.49124C17.3062 8.54183 17.3659 8.59152 17.43 8.63488C17.6351 8.77581 17.8591 8.87608 18.0949 8.94564ZM17.5736 7.93567C17.5312 7.77216 17.3496 7.54179 17.1608 7.44875C16.9241 7.33221 16.6251 7.29427 16.4101 7.39003C16.4806 7.63304 16.7046 7.88146 16.8997 7.97722C17.1066 8.0793 17.3478 8.09918 17.5384 8.00884C17.2412 7.91941 16.9675 7.77035 16.7335 7.56619C16.7931 7.60955 16.8537 7.65201 16.9178 7.68905C17.1238 7.80829 17.3442 7.88779 17.5736 7.93567ZM13.9457 19.3254C13.6638 19.2206 13.2456 19.2613 13.0324 19.3805C13.307 19.5739 13.6042 19.7265 13.9294 19.8232C14.0306 19.8539 14.1345 19.8747 14.2393 19.8937C13.7966 19.8521 13.3738 19.7148 12.9899 19.4917C13.0812 19.7825 13.3377 20.0174 13.6458 20.1322C13.9367 20.2406 14.4163 20.2261 14.7398 20.0563C14.6304 19.7329 14.2989 19.4564 13.9457 19.3254ZM15.9196 18.3751C15.6305 18.3444 15.2484 18.479 15.0785 18.638C15.3821 18.7518 15.6973 18.8223 16.0253 18.8358C16.1273 18.8403 16.2294 18.8349 16.3315 18.8286C15.9069 18.8936 15.4787 18.8647 15.065 18.75C15.2203 18.9966 15.5167 19.152 15.8328 19.1854C16.131 19.217 16.5763 19.0924 16.8383 18.862C16.6585 18.5901 16.2818 18.4139 15.9196 18.3751ZM17.4725 17.0263C17.1942 17.0634 16.8663 17.2766 16.7425 17.4645C17.0533 17.5024 17.365 17.497 17.6757 17.4347C17.7724 17.4157 17.8672 17.3877 17.9621 17.3579C17.5782 17.5151 17.1698 17.5864 16.7561 17.572C16.9575 17.768 17.2719 17.8457 17.5764 17.806C17.8636 17.768 18.253 17.5494 18.4454 17.273C18.215 17.0598 17.8212 16.9794 17.4725 17.0263ZM18.328 15.5258C18.0868 15.6478 17.8564 15.9468 17.8031 16.1564C18.0976 16.0923 18.3804 15.9884 18.6432 15.833C18.7254 15.7842 18.8031 15.7291 18.879 15.6722C18.58 15.9378 18.2304 16.132 17.8492 16.2503C18.0949 16.3642 18.4057 16.3362 18.6694 16.2025C18.9188 16.0769 19.2033 15.7544 19.2919 15.4409C19.0145 15.3217 18.6306 15.3732 18.328 15.5258ZM18.9576 14.0027C18.7453 14.1527 18.5683 14.4707 18.5475 14.6785C18.8185 14.5755 19.0732 14.4364 19.3018 14.2512C19.3732 14.1934 19.4391 14.1301 19.5033 14.0642C19.2557 14.3596 18.9513 14.5945 18.6044 14.7616C18.8546 14.8357 19.1464 14.7643 19.3795 14.599C19.599 14.4436 19.824 14.0958 19.8637 13.785C19.5828 13.71 19.2241 13.8139 18.9576 14.0027ZM19.2458 12.4182C19.0841 12.6097 18.9974 12.9476 19.0281 13.1463C19.2557 12.9846 19.4581 12.7931 19.6261 12.5655C19.6785 12.4941 19.7246 12.4191 19.7689 12.3432C19.6108 12.6784 19.384 12.9702 19.1022 13.2105C19.3533 13.2186 19.6071 13.0813 19.7833 12.8708C19.9504 12.673 20.0751 12.2945 20.0362 11.9963C19.7562 11.9936 19.4481 12.1779 19.2458 12.4182ZM19.2413 10.8003C19.1256 11.0108 19.1067 11.3459 19.1744 11.5266C19.3578 11.3315 19.5123 11.1128 19.627 10.8671C19.6632 10.7903 19.6921 10.7108 19.7192 10.6304C19.6333 10.9755 19.4753 11.2935 19.2557 11.5727C19.4933 11.5329 19.7065 11.3558 19.833 11.1246C19.9522 10.9069 19.9992 10.5275 19.9062 10.2537C19.6415 10.3043 19.3867 10.5356 19.2413 10.8003ZM18.9188 9.98272C19.0678 9.77313 19.1862 9.54639 19.263 9.29705C19.2873 9.21936 19.3045 9.13987 19.3199 9.06037C19.2828 9.39914 19.1744 9.72164 19.0019 10.0152C19.2223 9.94658 19.4021 9.75055 19.4915 9.51477C19.5764 9.29254 19.571 8.92577 19.4472 8.67824C19.2033 8.76045 18.991 9.01339 18.8881 9.2835C18.8049 9.49941 18.8311 9.82011 18.9188 9.98272ZM18.6143 7.97993C18.6207 7.90224 18.6189 7.82455 18.617 7.74776C18.655 8.07117 18.6225 8.39548 18.524 8.70625C18.7146 8.59513 18.8402 8.3738 18.8745 8.13531C18.9061 7.90947 18.823 7.5698 18.655 7.36473C18.4454 7.49392 18.3009 7.77487 18.262 8.04859C18.2313 8.26721 18.3234 8.5599 18.4391 8.6936C18.5339 8.46504 18.5954 8.22836 18.6143 7.97993ZM17.804 7.65652C17.8456 7.42526 17.8546 7.19219 17.8212 6.95641C17.8103 6.88323 17.7941 6.81096 17.776 6.73869C17.8781 7.03229 17.9133 7.34124 17.8853 7.6511C18.0407 7.50837 18.1121 7.2762 18.0949 7.04674C18.0786 6.82993 17.9314 6.52911 17.7326 6.37283C17.5628 6.53634 17.4869 6.82722 17.5068 7.09101C17.5222 7.3015 17.6685 7.55625 17.804 7.65652ZM17.1165 7.05126C16.888 6.86788 16.701 6.64113 16.5682 6.38005C16.6052 6.43968 16.6432 6.4984 16.6865 6.5535C16.8247 6.73056 16.9901 6.87691 17.1744 6.99977C17.1942 6.84168 17.1174 6.57609 16.9846 6.42793C16.8184 6.24184 16.57 6.10362 16.3487 6.11175C16.3252 6.34934 16.4327 6.64565 16.57 6.79922C16.7136 6.96092 16.9178 7.06391 17.1165 7.05126ZM11.5273 4.40798L10.6836 4.53174L11.2943 5.1343L11.1506 5.98528L11.905 5.58418L12.6593 5.98528L12.5147 5.1343L13.1254 4.53174L12.2817 4.40798L11.9041 3.63379L11.5273 4.40798ZM8.99789 5.14694L8.4658 5.22554L8.85064 5.60586L8.7594 6.14247L9.23548 5.88952L9.71156 6.14247L9.62032 5.60586L10.0052 5.22554L9.47307 5.14694L9.23548 4.65912L8.99789 5.14694ZM14.335 5.14694L13.803 5.22554L14.1878 5.60586L14.0965 6.14247L14.5726 5.88952L15.0487 6.14247L14.9575 5.60586L15.3423 5.22554L14.8102 5.14694L14.5726 4.65912L14.335 5.14694Z" fill="url(#paint4_linear_255_40062)"/>
</g>
<defs>
<linearGradient id="paint0_linear_255_40062" x1="9.43406" y1="23.6351" x2="14.3879" y2="0.328841" gradientUnits="userSpaceOnUse">
<stop stop-color="#898989"/>
<stop offset="0.0413" stop-color="#8F8F8F"/>
<stop offset="0.1007" stop-color="#A2A2A2"/>
<stop offset="0.1707" stop-color="#C1C1C1"/>
<stop offset="0.2399" stop-color="#E7E7E7"/>
<stop offset="0.2739" stop-color="#D8D8D8"/>
<stop offset="0.346" stop-color="#BEBEBE"/>
<stop offset="0.3888" stop-color="#B4B4B4"/>
<stop offset="0.7334" stop-color="#B7B7B7"/>
<stop offset="0.7866" stop-color="#CCCCCC"/>
<stop offset="0.8707" stop-color="#E8E8E8"/>
<stop offset="0.9447" stop-color="#F9F9F9"/>
<stop offset="1" stop-color="white"/>
</linearGradient>
<linearGradient id="paint1_linear_255_40062" x1="18.2168" y1="21.6937" x2="5.60259" y2="2.26953" gradientUnits="userSpaceOnUse">
<stop stop-color="#898989"/>
<stop offset="0.0413" stop-color="#8F8F8F"/>
<stop offset="0.1007" stop-color="#A2A2A2"/>
<stop offset="0.1707" stop-color="#C1C1C1"/>
<stop offset="0.2399" stop-color="#E7E7E7"/>
<stop offset="0.2739" stop-color="#D8D8D8"/>
<stop offset="0.346" stop-color="#BEBEBE"/>
<stop offset="0.3888" stop-color="#B4B4B4"/>
<stop offset="0.5239" stop-color="#B7B7B7"/>
<stop offset="0.5604" stop-color="#CCCCCC"/>
<stop offset="0.6183" stop-color="#E8E8E8"/>
<stop offset="0.6692" stop-color="#F9F9F9"/>
<stop offset="0.7072" stop-color="white"/>
<stop offset="0.7838" stop-color="#D8D8D8"/>
<stop offset="0.8802" stop-color="#ADADAD"/>
<stop offset="0.9555" stop-color="#929292"/>
<stop offset="1" stop-color="#898989"/>
</linearGradient>
<linearGradient id="paint2_linear_255_40062" x1="15.241" y1="-1.62009" x2="9.80844" y2="21.8783" gradientUnits="userSpaceOnUse">
<stop stop-color="#898989"/>
<stop offset="0.0413" stop-color="#8F8F8F"/>
<stop offset="0.1007" stop-color="#A2A2A2"/>
<stop offset="0.1707" stop-color="#C1C1C1"/>
<stop offset="0.2399" stop-color="#E7E7E7"/>
<stop offset="0.2739" stop-color="#D8D8D8"/>
<stop offset="0.346" stop-color="#BEBEBE"/>
<stop offset="0.3888" stop-color="#B4B4B4"/>
<stop offset="0.5239" stop-color="#B7B7B7"/>
<stop offset="0.6188" stop-color="#CCCCCC"/>
<stop offset="0.7692" stop-color="#E8E8E8"/>
<stop offset="0.9013" stop-color="#F9F9F9"/>
<stop offset="1" stop-color="white"/>
</linearGradient>
<linearGradient id="paint3_linear_255_40062" x1="11.8997" y1="15.895" x2="11.8997" y2="7.69511" gradientUnits="userSpaceOnUse">
<stop stop-color="#8A8A88"/>
<stop offset="0.4131" stop-color="#6D6D6B"/>
<stop offset="0.5186" stop-color="#656563"/>
<stop offset="1" stop-color="#C0BEAD"/>
</linearGradient>
<linearGradient id="paint4_linear_255_40062" x1="11.9044" y1="20.8294" x2="11.9044" y2="3.63394" gradientUnits="userSpaceOnUse">
<stop stop-color="#8A8A88"/>
<stop offset="0.4131" stop-color="#6D6D6B"/>
<stop offset="0.5186" stop-color="#656563"/>
<stop offset="1" stop-color="#C0BEAD"/>
</linearGradient>
<clipPath id="clip0_255_40062">
<rect width="23.822" height="24" fill="white"/>
</clipPath>
</defs>
</svg>
