<svg width="24" height="24" viewBox="0 0 24 24" fill="none" xmlns="http://www.w3.org/2000/svg">
<g clip-path="url(#clip0_255_40021)">
<path d="M11.9679 24.0003C17.9023 24.0003 22.7131 19.1894 22.7131 13.255C22.7131 7.32058 17.9023 2.50977 11.9679 2.50977C6.03347 2.50977 1.22266 7.32058 1.22266 13.255C1.22266 19.1894 6.03347 24.0003 11.9679 24.0003Z" fill="#8A6E00"/>
<path d="M11.9035 23.807C18.4776 23.807 23.807 18.4776 23.807 11.9035C23.807 5.32938 18.4776 0 11.9035 0C5.32938 0 0 5.32938 0 11.9035C0 18.4776 5.32938 23.807 11.9035 23.807Z" fill="url(#paint0_linear_255_40021)"/>
<path d="M11.9039 23.55C18.3358 23.55 23.55 18.3358 23.55 11.9039C23.55 5.47194 18.3358 0.257812 11.9039 0.257812C5.47194 0.257812 0.257812 5.47194 0.257812 11.9039C0.257812 18.3358 5.47194 23.55 11.9039 23.55Z" fill="url(#paint1_linear_255_40021)"/>
<path d="M11.9026 23.1637C18.1214 23.1637 23.1627 18.1224 23.1627 11.9036C23.1627 5.68486 18.1214 0.643555 11.9026 0.643555C5.68388 0.643555 0.642578 5.68486 0.642578 11.9036C0.642578 18.1224 5.68388 23.1637 11.9026 23.1637Z" fill="url(#paint2_linear_255_40021)"/>
<path d="M11.9026 23.1637C18.1214 23.1637 23.1627 18.1224 23.1627 11.9036C23.1627 5.68486 18.1214 0.643555 11.9026 0.643555C5.68388 0.643555 0.642578 5.68486 0.642578 11.9036C0.642578 18.1224 5.68388 23.1637 11.9026 23.1637Z" fill="url(#paint3_linear_255_40021)"/>
<path d="M11.9032 21.7478C17.3402 21.7478 21.7478 17.3402 21.7478 11.9032C21.7478 6.46618 17.3402 2.05859 11.9032 2.05859C6.46618 2.05859 2.05859 6.46618 2.05859 11.9032C2.05859 17.3402 6.46618 21.7478 11.9032 21.7478Z" fill="url(#paint4_linear_255_40021)"/>
<path d="M11.9037 21.3621C17.1274 21.3621 21.3621 17.1274 21.3621 11.9037C21.3621 6.67998 17.1274 2.44531 11.9037 2.44531C6.67998 2.44531 2.44531 6.67998 2.44531 11.9037C2.44531 17.1274 6.67998 21.3621 11.9037 21.3621Z" fill="url(#paint5_linear_255_40021)"/>
<path d="M6.73335 16.6685L5.58008 9.27298L9.66266 11.2612L11.8769 7.32031L14.0889 11.2612L18.1715 9.27298L17.0229 16.6803L6.73335 16.6685Z" fill="#E4BF5A"/>
<path d="M18.0167 9.48684L14.0379 11.4229L11.8767 7.56738L9.71086 11.4229L5.73438 9.48684L6.8369 16.5454L16.9188 16.5549L18.0167 9.48684Z" fill="url(#paint6_linear_255_40021)"/>
<path d="M7.5593 15.6721L6.82812 10.9838L10.055 12.5569L11.8748 9.31348L13.6947 12.5569L16.9239 10.9838L16.195 15.6816L7.5593 15.6721Z" fill="url(#paint7_linear_255_40021)"/>
<path d="M7.55984 15.6719L6.83789 16.545L16.9198 16.5545L16.1955 15.6814L7.55984 15.6719Z" fill="url(#paint8_linear_255_40021)"/>
<path d="M9.71094 11.4229L10.0546 12.557L11.8745 9.31363L11.8768 7.56738L9.71094 11.4229Z" fill="#E8F983"/>
<path d="M11.8773 7.56738L11.875 9.31363L13.6949 12.557L14.0385 11.4229L11.8773 7.56738Z" fill="url(#paint9_linear_255_40021)"/>
<path d="M18.0175 9.48633L16.9242 10.9835L16.1953 15.6813L16.9196 16.5544L18.0175 9.48633Z" fill="url(#paint10_linear_255_40021)"/>
<g opacity="0.9">
<path d="M16.9242 10.9834C16.9242 10.9834 16.8965 11.28 16.8411 11.7237C16.8112 11.9443 16.7835 12.2029 16.742 12.4782C16.7028 12.7534 16.6589 13.0476 16.6151 13.3418C16.5667 13.636 16.5182 13.9278 16.4744 14.203C16.4306 14.4783 16.3798 14.7321 16.3406 14.9528C16.2576 15.3917 16.1953 15.6812 16.1953 15.6812C16.1953 15.6812 16.223 15.3846 16.276 14.9409C16.306 14.7203 16.3337 14.4617 16.3752 14.1864C16.4144 13.9112 16.4583 13.617 16.5021 13.3228C16.5505 13.0286 16.599 12.7368 16.6428 12.4615C16.6889 12.1863 16.7374 11.9324 16.7766 11.7118C16.8619 11.2729 16.9242 10.9834 16.9242 10.9834Z" fill="white"/>
</g>
<path d="M5.73438 9.48633L6.82768 10.9835L10.0545 12.5565L9.71086 11.4224L5.73438 9.48633Z" fill="url(#paint11_linear_255_40021)"/>
<path d="M17.2859 13.5033C17.0414 14.8604 16.5178 15.902 16.1165 15.8261C15.7151 15.7502 15.5883 14.5852 15.8351 13.2257C16.0796 11.8662 16.6032 10.8294 17.0045 10.9053C17.4058 10.9812 17.5304 12.1438 17.2859 13.5033Z" fill="url(#paint12_radial_255_40021)"/>
</g>
<defs>
<linearGradient id="paint0_linear_255_40021" x1="20.0939" y1="3.71316" x2="3.05219" y2="20.7548" gradientUnits="userSpaceOnUse">
<stop stop-color="#FFFFA0"/>
<stop offset="0.1684" stop-color="#FDF17E"/>
<stop offset="0.236" stop-color="#F8E977"/>
<stop offset="0.344" stop-color="#EAD164"/>
<stop offset="0.4779" stop-color="#D3AC45"/>
<stop offset="0.5606" stop-color="#C3912F"/>
<stop offset="0.6963" stop-color="#99600D"/>
<stop offset="0.7444" stop-color="#894E00"/>
<stop offset="0.8271" stop-color="#8B5002"/>
<stop offset="0.8658" stop-color="#915807"/>
<stop offset="0.8953" stop-color="#9C6410"/>
<stop offset="0.92" stop-color="#AC771C"/>
<stop offset="0.9417" stop-color="#C08E2D"/>
<stop offset="0.944" stop-color="#C3912F"/>
<stop offset="0.9734" stop-color="#E0C257"/>
<stop offset="1" stop-color="#FDF17E"/>
</linearGradient>
<linearGradient id="paint1_linear_255_40021" x1="3.89037" y1="3.89037" x2="19.877" y2="19.877" gradientUnits="userSpaceOnUse">
<stop stop-color="#FFFFA0"/>
<stop offset="0.1684" stop-color="#FDF17E"/>
<stop offset="0.236" stop-color="#F8E977"/>
<stop offset="0.344" stop-color="#EAD164"/>
<stop offset="0.4779" stop-color="#D3AC45"/>
<stop offset="0.5606" stop-color="#C3912F"/>
<stop offset="0.6963" stop-color="#99600D"/>
<stop offset="0.7444" stop-color="#894E00"/>
<stop offset="0.8271" stop-color="#8B5002"/>
<stop offset="0.8658" stop-color="#915807"/>
<stop offset="0.8953" stop-color="#9C6410"/>
<stop offset="0.92" stop-color="#AC771C"/>
<stop offset="0.9417" stop-color="#C08E2D"/>
<stop offset="0.944" stop-color="#C3912F"/>
<stop offset="0.9734" stop-color="#E0C257"/>
<stop offset="1" stop-color="#FDF17E"/>
</linearGradient>
<linearGradient id="paint2_linear_255_40021" x1="11.9027" y1="0.455067" x2="11.9027" y2="23.1495" gradientUnits="userSpaceOnUse">
<stop stop-color="#FFFFA0"/>
<stop offset="0.1684" stop-color="#FDF17E"/>
<stop offset="0.236" stop-color="#F8E977"/>
<stop offset="0.344" stop-color="#EAD164"/>
<stop offset="0.4779" stop-color="#D3AC45"/>
<stop offset="0.5606" stop-color="#C3912F"/>
<stop offset="0.6963" stop-color="#99600D"/>
<stop offset="0.7444" stop-color="#894E00"/>
<stop offset="0.8271" stop-color="#8B5002"/>
<stop offset="0.8658" stop-color="#915807"/>
<stop offset="0.8953" stop-color="#9C6410"/>
<stop offset="0.92" stop-color="#AC771C"/>
<stop offset="0.9417" stop-color="#C08E2D"/>
<stop offset="0.944" stop-color="#C3912F"/>
<stop offset="0.9734" stop-color="#E0C257"/>
<stop offset="1" stop-color="#FDF17E"/>
</linearGradient>
<linearGradient id="paint3_linear_255_40021" x1="-1.15666" y1="11.903" x2="21.3623" y2="11.903" gradientUnits="userSpaceOnUse">
<stop stop-color="#BB862A"/>
<stop offset="0.0641" stop-color="#C48E24"/>
<stop offset="0.1667" stop-color="#DBA414"/>
<stop offset="0.2405" stop-color="#F0B706"/>
<stop offset="0.6784" stop-color="#FEF387"/>
<stop offset="0.8432" stop-color="#ECCB64"/>
<stop offset="1" stop-color="#BB862A"/>
</linearGradient>
<linearGradient id="paint4_linear_255_40021" x1="5.20871" y1="5.20871" x2="18.6649" y2="18.6649" gradientUnits="userSpaceOnUse">
<stop stop-color="#FFFFA0"/>
<stop offset="0.1684" stop-color="#FDF17E"/>
<stop offset="0.236" stop-color="#F8E977"/>
<stop offset="0.344" stop-color="#EAD164"/>
<stop offset="0.4779" stop-color="#D3AC45"/>
<stop offset="0.5606" stop-color="#C3912F"/>
<stop offset="0.6963" stop-color="#99600D"/>
<stop offset="0.7444" stop-color="#894E00"/>
<stop offset="0.8271" stop-color="#8B5002"/>
<stop offset="0.8658" stop-color="#915807"/>
<stop offset="0.8953" stop-color="#9C6410"/>
<stop offset="0.92" stop-color="#AC771C"/>
<stop offset="0.9417" stop-color="#C08E2D"/>
<stop offset="0.944" stop-color="#C3912F"/>
<stop offset="0.9734" stop-color="#E0C257"/>
<stop offset="1" stop-color="#FDF17E"/>
</linearGradient>
<linearGradient id="paint5_linear_255_40021" x1="0.933961" y1="11.9032" x2="19.8498" y2="11.9032" gradientUnits="userSpaceOnUse">
<stop stop-color="#BB862A"/>
<stop offset="0.0641" stop-color="#C48E24"/>
<stop offset="0.1667" stop-color="#DBA414"/>
<stop offset="0.2405" stop-color="#F0B706"/>
<stop offset="0.6784" stop-color="#FEF387"/>
<stop offset="0.8432" stop-color="#ECCB64"/>
<stop offset="1" stop-color="#BB862A"/>
</linearGradient>
<linearGradient id="paint6_linear_255_40021" x1="5.05081" y1="11.2252" x2="21.9772" y2="14.3141" gradientUnits="userSpaceOnUse">
<stop stop-color="#AF6517"/>
<stop offset="0.257" stop-color="#E0A03B"/>
<stop offset="0.48" stop-color="#E9FF88"/>
<stop offset="0.6391" stop-color="#E0A03B"/>
<stop offset="1" stop-color="#88390B"/>
</linearGradient>
<linearGradient id="paint7_linear_255_40021" x1="3.79587" y1="6.7909" x2="21.0567" y2="19.417" gradientUnits="userSpaceOnUse">
<stop stop-color="#AF6517"/>
<stop offset="0.257" stop-color="#E0A03B"/>
<stop offset="0.48" stop-color="#E9FF88"/>
<stop offset="0.6391" stop-color="#E0A03B"/>
<stop offset="1" stop-color="#88390B"/>
</linearGradient>
<linearGradient id="paint8_linear_255_40021" x1="-5.85826" y1="-5.70191" x2="10.7455" y2="13.9838" gradientUnits="userSpaceOnUse">
<stop stop-color="#AF6517"/>
<stop offset="0.257" stop-color="#E0A03B"/>
<stop offset="0.48" stop-color="#E9FF88"/>
<stop offset="0.6391" stop-color="#E0A03B"/>
<stop offset="1" stop-color="#88390B"/>
</linearGradient>
<linearGradient id="paint9_linear_255_40021" x1="12.4531" y1="9.13545" x2="16.0804" y2="17.5147" gradientUnits="userSpaceOnUse">
<stop stop-color="#E0A03B"/>
<stop offset="1" stop-color="#88390B"/>
</linearGradient>
<linearGradient id="paint10_linear_255_40021" x1="12.8064" y1="10.9823" x2="21.0637" y2="14.3931" gradientUnits="userSpaceOnUse">
<stop stop-color="#AF6517"/>
<stop offset="0.257" stop-color="#E0A03B"/>
<stop offset="0.48" stop-color="#E9FF88"/>
<stop offset="0.6391" stop-color="#E0A03B"/>
<stop offset="1" stop-color="#88390B"/>
</linearGradient>
<linearGradient id="paint11_linear_255_40021" x1="3.70342" y1="8.64039" x2="9.94645" y2="11.9517" gradientUnits="userSpaceOnUse">
<stop stop-color="#AF6517"/>
<stop offset="0.257" stop-color="#E0A03B"/>
<stop offset="0.48" stop-color="#E9FF88"/>
<stop offset="0.6391" stop-color="#E0A03B"/>
<stop offset="1" stop-color="#88390B"/>
</linearGradient>
<radialGradient id="paint12_radial_255_40021" cx="0" cy="0" r="1" gradientUnits="userSpaceOnUse" gradientTransform="translate(16.5594 13.4001) rotate(10.8274) scale(0.648059 2.29966)">
<stop stop-color="white"/>
<stop offset="1" stop-color="white" stop-opacity="0"/>
</radialGradient>
<clipPath id="clip0_255_40021">
<rect width="23.807" height="24" fill="white"/>
</clipPath>
</defs>
</svg>
