<svg width="48" height="48" viewBox="0 0 48 48" fill="none" xmlns="http://www.w3.org/2000/svg">
<g clip-path="url(#clip0_419_641)">
<path d="M48 24C48 19.2533 46.5924 14.6131 43.9553 10.6663C41.3181 6.71954 37.5698 3.64341 33.1844 1.8269C28.799 0.0103989 23.9734 -0.464881 19.3178 0.461164C14.6623 1.38721 10.3859 3.67299 7.02945 7.02945C3.67299 10.3859 1.38721 14.6623 0.461164 19.3178C-0.464881 23.9734 0.0103989 28.799 1.8269 33.1844C3.64341 37.5698 6.71954 41.3181 10.6663 43.9553C14.6131 46.5924 19.2533 48 24 48C30.3631 47.9931 36.4636 45.4624 40.963 40.963C45.4624 36.4636 47.9931 30.3631 48 24ZM16 24C15.9985 22.536 16.5336 21.1222 17.504 20.026C18.086 19.372 18.652 18.752 19.058 18.346L24.706 12.6C25.0824 12.2464 25.581 12.0521 26.0974 12.0578C26.6138 12.0634 27.108 12.2687 27.4766 12.6305C27.8451 12.9923 28.0594 13.4826 28.0746 13.9989C28.0897 14.5151 27.9046 15.0172 27.558 15.4L21.9 21.16C21.526 21.536 21.018 22.096 20.5 22.678C20.1777 23.0434 19.9999 23.5138 19.9999 24.001C19.9999 24.4882 20.1777 24.9586 20.5 25.324C21.016 25.904 21.524 26.464 21.886 26.828L27.558 32.6C27.9046 32.9828 28.0897 33.4849 28.0746 34.0012C28.0594 34.5174 27.8451 35.0077 27.4766 35.3695C27.108 35.7313 26.6138 35.9366 26.0974 35.9423C25.581 35.9479 25.0824 35.7536 24.706 35.4L19.048 29.644C18.648 29.244 18.088 28.63 17.51 27.978C16.536 26.882 15.9986 25.4663 16 24Z" fill="#D9D9D9" fill-opacity="0.5"/>
</g>
<defs>
<clipPath id="clip0_419_641">
<rect width="48" height="48" fill="white"/>
</clipPath>
</defs>
</svg>
