<svg width="48" height="48" viewBox="0 0 48 48" fill="none" xmlns="http://www.w3.org/2000/svg">
<g clip-path="url(#clip0_419_643)">
<path d="M0 24C0 28.7468 1.40758 33.3869 4.04473 37.3337C6.68188 41.2805 10.4302 44.3566 14.8156 46.1731C19.201 47.9896 24.0266 48.4649 28.6822 47.5388C33.3377 46.6128 37.6141 44.327 40.9706 40.9706C44.327 37.6141 46.6128 33.3377 47.5388 28.6822C48.4649 24.0266 47.9896 19.201 46.1731 14.8156C44.3566 10.4302 41.2805 6.68188 37.3337 4.04473C33.3869 1.40758 28.7468 0 24 0C17.6369 0.00688216 11.5364 2.53766 7.03704 7.03704C2.53766 11.5364 0.00688216 17.6369 0 24ZM32 24C32.0015 25.464 31.4664 26.8778 30.496 27.974C29.914 28.628 29.348 29.248 28.942 29.654L23.294 35.4C23.1132 35.5997 22.8938 35.7609 22.6491 35.8737C22.4045 35.9866 22.1395 36.0489 21.8702 36.0568C21.6009 36.0647 21.3327 36.0181 21.0819 35.9198C20.831 35.8215 20.6025 35.6736 20.4103 35.4848C20.218 35.296 20.0659 35.0704 19.963 34.8213C19.8601 34.5723 19.8086 34.3051 19.8115 34.0356C19.8145 33.7662 19.8719 33.5002 19.9802 33.2535C20.0886 33.0068 20.2456 32.7845 20.442 32.6L26.1 26.84C26.474 26.464 26.982 25.904 27.5 25.322C27.8223 24.9566 28.0001 24.4862 28.0001 23.999C28.0001 23.5118 27.8223 23.0414 27.5 22.676C26.984 22.096 26.476 21.536 26.114 21.172L20.442 15.4C20.2456 15.2155 20.0886 14.9932 19.9802 14.7465C19.8719 14.4998 19.8145 14.2338 19.8115 13.9644C19.8086 13.6949 19.8601 13.4277 19.963 13.1787C20.0659 12.9296 20.218 12.704 20.4103 12.5152C20.6025 12.3264 20.831 12.1785 21.0819 12.0802C21.3327 11.9819 21.6009 11.9353 21.8702 11.9432C22.1395 11.9511 22.4045 12.0134 22.6491 12.1263C22.8938 12.2391 23.1132 12.4003 23.294 12.6L28.952 18.358C29.352 18.758 29.912 19.372 30.49 20.024C31.4636 21.1195 32.0009 22.5344 32 24Z" fill="#D9D9D9"/>
</g>
<defs>
<clipPath id="clip0_419_643">
<rect width="48" height="48" fill="white"/>
</clipPath>
</defs>
</svg>
