<svg width="20" height="20" viewBox="0 0 20 20" fill="none" xmlns="http://www.w3.org/2000/svg">
<g clip-path="url(#clip0_421_28777)">
<path d="M15.8333 1.66667H15V0.833333C15 0.373333 14.6275 0 14.1667 0C13.7058 0 13.3333 0.373333 13.3333 0.833333V1.66667H6.66667V0.833333C6.66667 0.373333 6.29417 0 5.83333 0C5.3725 0 5 0.373333 5 0.833333V1.66667H4.16667C1.86917 1.66667 0 3.53583 0 5.83333V15.8333C0 18.1308 1.86917 20 4.16667 20H15.8333C18.1308 20 20 18.1308 20 15.8333V5.83333C20 3.53583 18.1308 1.66667 15.8333 1.66667ZM4.16667 3.33333H15.8333C17.2117 3.33333 18.3333 4.455 18.3333 5.83333V6.66667H1.66667V5.83333C1.66667 4.455 2.78833 3.33333 4.16667 3.33333ZM15.8333 18.3333H4.16667C2.78833 18.3333 1.66667 17.2117 1.66667 15.8333V8.33333H18.3333V15.8333C18.3333 17.2117 17.2117 18.3333 15.8333 18.3333ZM13.0892 13.4208C13.415 13.7467 13.415 14.2733 13.0892 14.5992L11.745 15.9433C11.2642 16.4242 10.6317 16.665 10 16.665C9.36833 16.665 8.73583 16.4242 8.255 15.9433L6.91083 14.5992C6.585 14.2733 6.585 13.7467 6.91083 13.4208C7.23667 13.095 7.76333 13.095 8.08917 13.4208L9.16667 14.4983V10.8333C9.16667 10.3733 9.53917 10 10 10C10.4608 10 10.8333 10.3733 10.8333 10.8333V14.4983L11.9108 13.4208C12.2367 13.095 12.7633 13.095 13.0892 13.4208Z" fill="#009146"/>
</g>
<defs>
<clipPath id="clip0_421_28777">
<rect width="20" height="20" fill="white"/>
</clipPath>
</defs>
</svg>
