<svg width="20" height="19" viewBox="0 0 20 19" fill="none" xmlns="http://www.w3.org/2000/svg">
<path d="M12.7955 15.0178C12.8507 15.0729 12.8945 15.1384 12.9243 15.2105C12.9542 15.2826 12.9695 15.3598 12.9695 15.4378C12.9695 15.5158 12.9542 15.5931 12.9243 15.6652C12.8945 15.7373 12.8507 15.8027 12.7955 15.8579C12.7404 15.9131 12.6749 15.9568 12.6028 15.9867C12.5307 16.0165 12.4535 16.0319 12.3755 16.0319C12.2975 16.0319 12.2202 16.0165 12.1481 15.9867C12.076 15.9568 12.0106 15.9131 11.9554 15.8579L6.01789 9.92041C5.96268 9.86526 5.91889 9.79978 5.88901 9.7277C5.85913 9.65562 5.84375 9.57836 5.84375 9.50033C5.84375 9.4223 5.85913 9.34504 5.88901 9.27296C5.91889 9.20088 5.96268 9.1354 6.01789 9.08025L11.9554 3.14275C12.0668 3.03134 12.2179 2.96875 12.3755 2.96875C12.533 2.96875 12.6841 3.03134 12.7955 3.14275C12.907 3.25416 12.9695 3.40527 12.9695 3.56283C12.9695 3.72039 12.907 3.8715 12.7955 3.98291L7.27738 9.50033L12.7955 15.0178Z" fill="#009146"/>
</svg>
