<svg width="20" height="19" viewBox="0 0 20 19" fill="none" xmlns="http://www.w3.org/2000/svg">
<path d="M12.9517 9.92041L7.01416 15.8579C6.95899 15.9131 6.8935 15.9568 6.82142 15.9867C6.74935 16.0165 6.6721 16.0319 6.59408 16.0319C6.51606 16.0319 6.43881 16.0165 6.36674 15.9867C6.29466 15.9568 6.22917 15.9131 6.174 15.8579C6.11884 15.8027 6.07508 15.7373 6.04522 15.6652C6.01537 15.5931 6 15.5158 6 15.4378C6 15.3598 6.01537 15.2826 6.04522 15.2105C6.07508 15.1384 6.11884 15.0729 6.174 15.0178L11.6922 9.50033L6.174 3.98291C6.06259 3.8715 6 3.72039 6 3.56283C6 3.40527 6.06259 3.25416 6.174 3.14275C6.28541 3.03134 6.43652 2.96875 6.59408 2.96875C6.75164 2.96875 6.90275 3.03134 7.01416 3.14275L12.9517 9.08025C13.0069 9.1354 13.0507 9.20088 13.0805 9.27296C13.1104 9.34504 13.1258 9.4223 13.1258 9.50033C13.1258 9.57836 13.1104 9.65562 13.0805 9.7277C13.0507 9.79978 13.0069 9.86526 12.9517 9.92041Z" fill="#FEFEFF"/>
</svg>
