<svg width="46" height="47" viewBox="0 0 46 47" fill="none" xmlns="http://www.w3.org/2000/svg">
<path d="M14.2981 37.5685H10.618C4.98303 37.166 2.45312 32.8343 2.45312 28.9818C2.45312 25.1293 4.98305 20.7785 10.5222 20.3951C11.3081 20.3185 11.998 20.9318 12.0555 21.7368C12.113 22.5226 11.519 23.2126 10.714 23.2701C6.99562 23.5385 5.32812 26.3368 5.32812 29.001C5.32812 31.6651 6.99562 34.4635 10.714 34.7318H14.2981C15.0839 34.7318 15.7356 35.3835 15.7356 36.1693C15.7356 36.9551 15.0839 37.5685 14.2981 37.5685Z" fill="#1F1F26"/>
<path d="M31.9502 37.5687C31.9119 37.5687 31.8927 37.5687 31.8544 37.5687C31.0686 37.5687 30.3403 36.9171 30.3403 36.1312C30.3403 35.3071 30.9536 34.6937 31.7586 34.6937C34.1161 34.6937 36.2244 33.8696 37.8728 32.3937C40.8628 29.7871 41.0544 26.0304 40.2494 23.3854C39.4444 20.7596 37.2019 17.7504 33.2919 17.2712C32.6594 17.1946 32.161 16.7154 32.046 16.0829C31.2794 11.4829 28.8069 8.30125 25.0503 7.15125C21.1786 5.94375 16.6552 7.13208 13.8377 10.0837C11.0969 12.9396 10.4644 16.9454 12.0552 21.3538C12.3236 22.1013 11.9403 22.9254 11.1928 23.1937C10.4453 23.4621 9.6211 23.0787 9.35277 22.3312C7.41694 16.9262 8.29862 11.7512 11.7678 8.10958C15.3136 4.39125 21.0061 2.9154 25.8936 4.4104C30.3786 5.7904 33.541 9.48957 34.691 14.6262C38.601 15.5079 41.7444 18.4788 42.9902 22.5804C44.3511 27.0463 43.1244 31.6463 39.7703 34.5596C37.6428 36.4762 34.8636 37.5687 31.9502 37.5687Z" fill="#1F1F26"/>
<path d="M23.0013 43.2038C19.1488 43.2038 15.5455 41.1529 13.5713 37.8371C13.3605 37.5113 13.1497 37.1279 12.9772 36.7063C12.3255 35.3454 11.9805 33.7929 11.9805 32.1829C11.9805 26.1071 16.9255 21.1621 23.0013 21.1621C29.0771 21.1621 34.0221 26.1071 34.0221 32.1829C34.0221 33.8121 33.6772 35.3454 32.9872 36.7638C32.8338 37.1279 32.623 37.5113 32.393 37.8754C30.4572 41.1529 26.8538 43.2038 23.0013 43.2038ZM23.0013 24.0371C18.5163 24.0371 14.8555 27.6979 14.8555 32.1829C14.8555 33.3713 15.1046 34.4829 15.5838 35.4988C15.7371 35.8246 15.8713 36.0929 16.0246 36.3421C17.4813 38.8146 20.1455 40.3288 22.9821 40.3288C25.8188 40.3288 28.4829 38.8146 29.9204 36.3804C30.0929 36.0929 30.2464 35.8246 30.3614 35.5563C30.8789 34.5021 31.128 33.3904 31.128 32.2021C31.1471 27.6979 27.4863 24.0371 23.0013 24.0371Z" fill="#1F1F26"/>
<path d="M21.9064 35.5173C21.5423 35.5173 21.1781 35.3831 20.8906 35.0956L18.993 33.1981C18.4372 32.6423 18.4372 31.7223 18.993 31.1664C19.5489 30.6106 20.4689 30.6106 21.0247 31.1664L21.9448 32.0864L25.0114 29.2498C25.6056 28.7131 26.5064 28.7514 27.0431 29.3264C27.5797 29.9014 27.5414 30.8215 26.9664 31.3581L22.8839 35.134C22.5964 35.3831 22.2514 35.5173 21.9064 35.5173Z" fill="#1F1F26"/>
</svg>
