<svg width="16" height="8" viewBox="0 0 16 8" fill="none" xmlns="http://www.w3.org/2000/svg">
<path d="M15.4865 0.329895C15.3829 0.225362 15.2595 0.142392 15.1236 0.0857716C14.9877 0.0291509 14.8419 0 14.6947 0C14.5475 0 14.4017 0.0291509 14.2658 0.0857716C14.1299 0.142392 14.0065 0.225362 13.9029 0.329895L8.79492 5.43783C8.69124 5.54236 8.56789 5.62533 8.43198 5.68195C8.29608 5.73857 8.15031 5.76772 8.00308 5.76772C7.85585 5.76772 7.71008 5.73857 7.57417 5.68195C7.43826 5.62533 7.31492 5.54236 7.21124 5.43783L2.10331 0.329895C1.99963 0.225362 1.87628 0.142392 1.74037 0.0857716C1.60447 0.0291509 1.45869 0 1.31147 0C1.16424 0 1.01846 0.0291509 0.882559 0.0857716C0.746653 0.142392 0.623303 0.225362 0.519624 0.329895C0.311904 0.538854 0.195313 0.821521 0.195312 1.11616C0.195313 1.4108 0.311904 1.69346 0.519624 1.90242L5.63871 7.02151C6.26605 7.64807 7.11644 8 8.00308 8C8.88972 8 9.74011 7.64807 10.3674 7.02151L15.4865 1.90242C15.6942 1.69346 15.8108 1.4108 15.8108 1.11616C15.8108 0.821521 15.6942 0.538854 15.4865 0.329895Z" fill="#6F6F6F"/>
</svg>
