<svg width="18" height="18" viewBox="0 0 18 18" fill="none" xmlns="http://www.w3.org/2000/svg">
<g clip-path="url(#clip0_255_40011)">
<path d="M3.12019 14.6458C2.3371 14.6686 1.84486 14.1682 1.9008 13.4746C1.96792 12.6104 2.03504 11.7463 2.14692 10.8934C2.18048 10.6547 2.3371 10.4159 2.44897 10.1884C2.48253 10.1202 2.54965 10.0634 2.61677 10.0065C5.65966 6.91366 8.70254 3.82079 11.7566 0.727931C12.6963 -0.227217 14.1618 -0.238588 15.1015 0.716561C15.3141 0.932606 15.5378 1.14865 15.7392 1.3647C16.5447 2.26299 16.5447 3.59338 15.7392 4.4803C15.4372 4.81005 15.1127 5.12844 14.7995 5.44682C12.0922 8.19856 9.38495 10.9389 6.68887 13.702C6.24138 14.1569 5.77153 14.4411 5.13386 14.4639C4.42908 14.4866 3.73548 14.589 3.12019 14.6458ZM11.0518 3.24088C11.0295 3.26362 11.0071 3.27499 10.9959 3.29774C8.48999 5.8448 5.99527 8.38049 3.50055 10.9389C3.43343 11.0071 3.38868 11.1322 3.37749 11.2346C3.32156 11.7235 3.288 12.2125 3.24325 12.7014C3.22087 12.9061 3.20969 13.1221 3.1985 13.3268C3.27681 13.3268 3.33275 13.3268 3.38868 13.3268C4.02634 13.2699 4.66401 13.2131 5.30167 13.1449C5.42473 13.1335 5.55897 13.0425 5.64847 12.9516C8.07606 10.4614 10.526 7.97114 12.976 5.48093C13.0208 5.43545 13.0655 5.37859 13.1102 5.33311C12.4278 4.62812 11.7454 3.9345 11.0518 3.24088ZM14.05 4.4007C14.2849 4.16192 14.531 3.92313 14.7659 3.6616C15.1687 3.24088 15.1799 2.63823 14.7883 2.20614C14.5758 1.96735 14.352 1.7513 14.1283 1.53526C13.8038 1.22825 13.3116 1.13728 12.9536 1.39881C12.5845 1.64897 12.2824 1.99009 11.9692 2.27436C12.6851 3.00209 13.3564 3.69571 14.05 4.4007Z" fill="#112F82"/>
<path d="M9.00473 18.0001C6.25271 18.0001 3.51188 18.0001 0.75986 18.0001C0.603241 18.0001 0.446622 17.9774 0.312377 17.9091C0.0662619 17.7954 -0.0344218 17.5225 0.0103265 17.2496C0.0438877 17.0108 0.245255 16.8062 0.480184 16.7493C0.56968 16.7266 0.659177 16.7266 0.748673 16.7266C6.24153 16.7266 11.7456 16.7266 17.2384 16.7266C17.7195 16.7266 18.0103 16.9881 17.988 17.3974C17.9768 17.7158 17.7306 17.9774 17.4174 18.0001C17.3391 18.0115 17.2608 18.0001 17.1825 18.0001C14.464 18.0001 11.7344 18.0001 9.00473 18.0001Z" fill="#112F82"/>
</g>
<defs>
<clipPath id="clip0_255_40011">
<rect width="18" height="18" fill="white"/>
</clipPath>
</defs>
</svg>
