<svg width="25" height="24" viewBox="0 0 25 24" fill="none" xmlns="http://www.w3.org/2000/svg">
<g clip-path="url(#clip0_418_7529)">
<path d="M4.82692 19.5273C3.78279 19.5576 3.12649 18.8905 3.20107 17.9657C3.29056 16.8134 3.38006 15.6612 3.52922 14.5241C3.57397 14.2057 3.78279 13.8873 3.93196 13.5841C3.9767 13.4931 4.0662 13.4173 4.1557 13.3415C8.21287 9.21772 12.2701 5.0939 16.3421 0.970087C17.5951 -0.303444 19.5491 -0.318605 20.8021 0.954926C21.0855 1.24299 21.3838 1.53105 21.6523 1.81911C22.7262 3.01683 22.7262 4.79068 21.6523 5.97325C21.2495 6.41292 20.817 6.83743 20.3993 7.26194C16.7896 10.9309 13.1799 14.5847 9.58516 18.2689C8.98851 18.8753 8.36204 19.2544 7.51182 19.2847C6.5721 19.315 5.64731 19.4515 4.82692 19.5273ZM15.4024 4.32069C15.3726 4.35101 15.3428 4.36617 15.3279 4.39649C11.9866 7.79258 8.66036 11.1735 5.33407 14.5847C5.24457 14.6757 5.18491 14.8425 5.16999 14.9789C5.09541 15.6309 5.05066 16.2828 4.991 16.9347C4.96117 17.2076 4.94625 17.4957 4.93133 17.7686C5.03575 17.7686 5.11033 17.7686 5.18491 17.7686C6.03512 17.6928 6.88534 17.617 7.73556 17.526C7.89964 17.5108 8.07863 17.3895 8.19796 17.2683C11.4348 13.948 14.7014 10.6277 17.968 7.30742C18.0277 7.24678 18.0873 7.17097 18.147 7.11033C17.2371 6.17034 16.3272 5.24551 15.4024 4.32069ZM19.3999 5.86712C19.7132 5.54874 20.0413 5.23035 20.3546 4.88165C20.8916 4.32069 20.9065 3.51715 20.3844 2.94103C20.101 2.62265 19.8027 2.33458 19.5044 2.04652C19.0718 1.63717 18.4155 1.51589 17.9382 1.86459C17.4459 2.19814 17.0432 2.65297 16.6256 3.032C17.5802 4.0023 18.4751 4.92713 19.3999 5.86712Z" fill="#112F82"/>
<path d="M12.6723 23.9998C9.00296 23.9998 5.34852 23.9998 1.67916 23.9998C1.47034 23.9998 1.26151 23.9695 1.08252 23.8785C0.754365 23.7269 0.62012 23.363 0.679784 22.9992C0.724533 22.6808 0.993022 22.4079 1.30626 22.3321C1.42559 22.3018 1.54492 22.3018 1.66425 22.3018C8.98805 22.3018 16.3268 22.3018 23.6506 22.3018C24.292 22.3018 24.6798 22.6505 24.65 23.1963C24.635 23.6208 24.3069 23.9695 23.8892 23.9998C23.7848 24.015 23.6804 23.9998 23.576 23.9998C19.9514 23.9998 16.3119 23.9998 12.6723 23.9998Z" fill="#112F82"/>
</g>
<defs>
<clipPath id="clip0_418_7529">
<rect width="24" height="24" fill="white" transform="translate(0.666016)"/>
</clipPath>
</defs>
</svg>
