<svg width="6" height="4" viewBox="0 0 6 4" fill="none" xmlns="http://www.w3.org/2000/svg">
<path d="M2.62424 3.57L0.226238 0.829C-0.0567621 0.5065 0.173238 1.83853e-07 0.602738 1.83853e-07H5.39874C5.49486 -8.22297e-05 5.58897 0.0275439 5.66979 0.0795705C5.75062 0.131597 5.81473 0.205819 5.85446 0.293347C5.89419 0.380875 5.90785 0.477999 5.8938 0.573089C5.87975 0.668178 5.83858 0.757203 5.77524 0.8295L3.37724 3.5695C3.33031 3.6232 3.27243 3.66625 3.20749 3.69574C3.14255 3.72523 3.07206 3.74049 3.00074 3.74049C2.92942 3.74049 2.85892 3.72523 2.79398 3.69574C2.72905 3.66625 2.67117 3.6232 2.62424 3.5695V3.57Z" fill="white"/>
</svg>
