<svg width="151" height="141" viewBox="0 0 151 141" fill="none" xmlns="http://www.w3.org/2000/svg">
<path d="M148.774 57.4987L143.792 48.4878C142.91 46.9097 141.769 45.5351 140.316 44.466L134.712 40.1388L135.802 31.3825C136.061 29.4989 135.646 27.5134 134.712 25.8843L132.844 22.5244C131.806 20.6916 130.042 19.368 127.914 19.0116L122.207 17.9426L120.339 10.9681C119.768 8.77898 118.263 6.94627 116.239 5.92809L107.678 1.70266C103.423 -0.384598 98.4934 -0.180964 94.4461 2.31357L85.7807 7.60808C84.0683 8.62626 82.823 10.2553 82.2004 12.139C81.1107 15.3971 80.5918 18.808 80.5918 22.2698V125.462L86.8703 134.931C89.1016 138.291 92.7857 140.276 96.7811 140.276H101.97C104.149 140.276 106.277 139.716 108.145 138.596L115.098 134.575C116.655 133.658 117.952 132.385 118.834 130.807L120.702 127.549L127.499 126.022C130.198 125.411 132.636 123.833 134.297 121.593L143.429 109.222C145.349 106.626 146.439 103.368 146.439 100.109V91.5567C146.439 89.5203 145.92 87.484 144.934 85.7021L143.014 82.1385L145.92 79.0331C147.321 77.5058 148.359 75.6731 148.826 73.6368L150.175 68.1895C151.109 64.575 150.59 60.7568 148.774 57.4987ZM120.65 20.0807L127.499 21.4044C128.848 21.6589 129.99 22.5244 130.665 23.6953L132.533 27.0552C133.207 28.277 133.518 29.7025 133.311 31.077L132.066 41.2079L132.169 41.3097L120.391 63.8114L119.457 63.3532L102.437 30.1607L131.391 41.3606L131.962 39.8842L102.748 28.5825L120.65 20.0807ZM83.0825 48.3351L117.225 64.0659L97.0406 77.7604L83.0825 80.8658V48.3351ZM97.1962 79.3386L124.853 101.128L103.475 102.757L83.3938 82.444L97.1962 79.3386ZM98.701 78.5749L118.523 65.135L119.249 66.5095L125.683 99.8548L98.701 78.5749ZM84.5872 12.8517C85.0542 11.5281 85.9364 10.3572 87.1298 9.64443L95.7952 4.34992C99.1161 2.36447 103.112 2.16084 106.588 3.84083L115.15 8.06626C116.551 8.72807 117.537 10.0008 117.952 11.4771L119.872 18.7062L100.725 27.8189L83.29 18.7571C83.5495 16.7208 83.9646 14.7862 84.5872 12.8517ZM83.0825 22.2189C83.0825 21.608 83.0825 21.048 83.1343 20.4371L100.102 29.2952L117.07 62.2841L83.0825 46.6042V22.2189ZM119.093 125.36L116.706 129.535C116.032 130.706 115.046 131.673 113.904 132.386L106.951 136.407C105.447 137.273 103.734 137.731 102.022 137.731H96.833C93.6678 137.731 90.762 136.153 88.9978 133.505L83.6014 125.309L102.229 107.491L101.14 106.371L83.1862 123.527V84.3785L102.645 104.08L119.612 125.309L119.093 125.36ZM143.948 91.5567V100.109C143.948 102.858 143.066 105.607 141.406 107.797L132.273 120.167C130.976 121.949 129.108 123.171 126.98 123.629L121.273 124.902L104.824 104.335L104.928 104.233L104.876 104.182L126.617 102.553L128.07 103.673L120.909 66.5605L140.005 81.7822L142.755 86.8731C143.533 88.2985 143.948 89.9276 143.948 91.5567ZM147.788 67.6804L146.439 73.1277C146.024 74.7568 145.245 76.2331 144.104 77.404L141.094 80.6622L121.532 65.0841L133.467 42.277L138.811 46.4006C139.953 47.3169 140.887 48.386 141.613 49.6587L146.594 58.6696C148.099 61.4187 148.514 64.6259 147.788 67.6804Z" fill="#36AA3F"/>
<path d="M81.8411 22.6202C84.0478 22.6202 85.8366 20.8196 85.8366 18.5985C85.8366 16.3773 84.0478 14.5767 81.8411 14.5767C79.6345 14.5767 77.8457 16.3773 77.8457 18.5985C77.8457 20.8196 79.6345 22.6202 81.8411 22.6202Z" fill="#010080"/>
<path d="M121.523 22.4176C123.729 22.4176 125.518 20.617 125.518 18.3958C125.518 16.1746 123.729 14.374 121.523 14.374C119.316 14.374 117.527 16.1746 117.527 18.3958C117.527 20.617 119.316 22.4176 121.523 22.4176Z" fill="#010080"/>
<path d="M141.495 85.6554C143.702 85.6554 145.491 83.8548 145.491 81.6336C145.491 79.4124 143.702 77.6118 141.495 77.6118C139.289 77.6118 137.5 79.4124 137.5 81.6336C137.5 83.8548 139.289 85.6554 141.495 85.6554Z" fill="#010080"/>
<path d="M125.527 104.233C127.733 104.233 129.522 102.432 129.522 100.211C129.522 97.9901 127.733 96.1895 125.527 96.1895C123.32 96.1895 121.531 97.9901 121.531 100.211C121.531 102.432 123.32 104.233 125.527 104.233Z" fill="#010080"/>
<path d="M81.8385 52.8138C84.5323 52.8138 86.716 50.6029 86.716 47.8757C86.716 45.1484 84.5323 42.9375 81.8385 42.9375C79.1447 42.9375 76.9609 45.1484 76.9609 47.8757C76.9609 50.6029 79.1447 52.8138 81.8385 52.8138Z" fill="#010080"/>
<path d="M131.51 46.3519C134.204 46.3519 136.388 44.141 136.388 41.4137C136.388 38.6865 134.204 36.4756 131.51 36.4756C128.817 36.4756 126.633 38.6865 126.633 41.4137C126.633 44.141 128.817 46.3519 131.51 46.3519Z" fill="#010080"/>
<path d="M81.8411 86.1149C84.0478 86.1149 85.8366 84.3143 85.8366 82.0931C85.8366 79.8719 84.0478 78.0713 81.8411 78.0713C79.6345 78.0713 77.8457 79.8719 77.8457 82.0931C77.8457 84.3143 79.6345 86.1149 81.8411 86.1149Z" fill="#010080"/>
<path d="M81.8218 128.572C84.2863 128.572 86.2843 126.566 86.2843 124.092C86.2843 121.618 84.2863 119.612 81.8218 119.612C79.3573 119.612 77.3594 121.618 77.3594 124.092C77.3594 126.566 79.3573 128.572 81.8218 128.572Z" fill="#010080"/>
<path d="M97.8282 83.2168C100.407 83.2168 102.498 81.1199 102.498 78.5332C102.498 75.9465 100.407 73.8496 97.8282 73.8496C95.249 73.8496 93.1582 75.9465 93.1582 78.5332C93.1582 81.1199 95.249 83.2168 97.8282 83.2168Z" fill="#010080"/>
<path d="M104.262 110.288C107.558 110.288 110.229 107.576 110.229 104.23C110.229 100.884 107.558 98.1719 104.262 98.1719C100.967 98.1719 98.2949 100.884 98.2949 104.23C98.2949 107.576 100.967 110.288 104.262 110.288Z" fill="#010080"/>
<path d="M101.62 34.7511C104.915 34.7511 107.587 32.0387 107.587 28.6929C107.587 25.3471 104.915 22.6348 101.62 22.6348C98.324 22.6348 95.6523 25.3471 95.6523 28.6929C95.6523 32.0387 98.324 34.7511 101.62 34.7511Z" fill="#010080"/>
<path d="M121.291 132.188C124.587 132.188 127.259 129.475 127.259 126.129C127.259 122.784 124.587 120.071 121.291 120.071C117.996 120.071 115.324 122.784 115.324 126.129C115.324 129.475 117.996 132.188 121.291 132.188Z" fill="#010080"/>
<path d="M119.986 71.1362C123.654 71.1362 126.627 68.1276 126.627 64.4163C126.627 60.7049 123.654 57.6963 119.986 57.6963C116.317 57.6963 113.344 60.7049 113.344 64.4163C113.344 68.1276 116.317 71.1362 119.986 71.1362Z" fill="#010080"/>
<path d="M68.3704 12.1425C67.7478 10.2588 66.5024 8.68067 64.842 7.66249L56.1766 2.36798C52.1811 -0.0756423 47.2517 -0.279278 43.0487 1.75707L34.487 5.9825C32.4633 6.94977 31.0105 8.78249 30.4397 10.9207L28.5717 17.997L22.7601 19.117C20.7365 19.5242 18.9723 20.797 17.9345 22.5788L16.0146 25.9387C15.0806 27.5678 14.7174 29.5024 14.9249 31.386L16.0146 40.1932L10.3587 44.5205C8.95771 45.5895 7.81615 46.9641 6.93404 48.5422L1.95271 57.5531C0.136603 60.8113 -0.330396 64.6294 0.551714 68.244L1.90082 73.6912C2.41971 75.6766 3.4056 77.5094 4.8066 79.0366L7.29726 81.6839L7.76426 82.193L7.45293 82.8039L5.84438 85.8075C4.85849 87.5893 4.39149 89.5747 4.39149 91.6111V100.164C4.39149 103.422 5.42926 106.629 7.34915 109.226L16.4816 121.545C18.142 123.785 20.5289 125.313 23.2271 125.924L30.0765 127.451L31.9445 130.76C32.8266 132.287 34.1238 133.56 35.6286 134.476L42.6336 138.498C44.5016 139.567 46.629 140.127 48.7564 140.127H53.9453C57.8889 140.127 61.573 138.142 63.7523 134.833L67.4364 129.233C69.0969 126.687 69.979 123.785 69.979 120.731V22.2224C69.979 18.7606 69.4082 15.4006 68.3704 12.1425ZM18.0383 27.0078L19.9062 23.6479C20.5808 22.426 21.7743 21.5606 23.1752 21.306L29.6095 20.0842L50.9358 36.6296L18.2977 39.8368L17.208 31.1314C17.0524 29.706 17.3118 28.2296 18.0383 27.0078ZM6.51893 77.5094C5.37738 76.2875 4.54715 74.7603 4.13204 73.1821L2.78293 67.684C2.0046 64.5785 2.41971 61.3713 3.97638 58.6222L8.95771 49.6113C9.68415 48.3386 10.6181 47.2186 11.8116 46.3023L18.1939 41.3641L50.5726 38.2078L24.9914 60.5058L54.8274 72.9785C54.3086 73.1821 53.634 73.4367 52.9594 73.6912C50.9877 74.4548 48.1857 75.473 44.7091 76.7966C39.2608 78.8839 33.8643 80.9202 32.9303 81.2766H9.99548L6.51893 77.5094ZM47.3554 113.756L9.78793 83.2111L10.0474 82.753H32.8785L34.2795 83.4657L47.3554 113.756ZM36.5107 84.6366L67.4364 100.367L49.6904 115.131L36.5107 84.6366ZM31.1142 125.415L23.6941 123.785C21.5667 123.327 19.6468 122.055 18.2977 120.273L9.16526 107.902C7.50482 105.662 6.62271 102.913 6.62271 100.164V91.6111C6.62271 89.982 7.03782 88.302 7.81615 86.8766L9.00959 84.6875L47.9262 116.353L31.1142 125.415ZM67.6959 120.731C67.6959 123.327 66.9175 125.822 65.5165 128.011L61.8324 133.611C60.0682 136.309 57.1105 137.887 53.9453 137.887H48.7564C46.9922 137.887 45.2799 137.429 43.7751 136.564L36.822 132.542C35.6286 131.88 34.6427 130.862 33.9681 129.691L32.2558 126.636L49.3791 117.422L49.8461 117.167L49.898 117.116L50.4169 116.709L67.7997 102.251L67.6959 120.731ZM67.6959 98.7383L35.5248 82.3457L35.3691 81.9384C43.9308 78.6803 55.1388 74.4039 57.0068 73.793L57.2143 73.8948L67.7478 63.764L67.6959 98.7383ZM67.6959 61.5749L56.7992 72.0621L27.949 59.9967L53.3746 37.8514L67.6959 33.3714V61.5749ZM67.6959 31.7423L53.1151 36.3241L30.6472 18.8624L32.619 11.4807C33.0341 9.95339 34.0719 8.68067 35.4729 7.96795L43.9827 3.79343C45.5912 3.02979 47.3036 2.62252 49.0159 2.62252C51.0396 2.62252 53.1151 3.18252 54.9312 4.30251L63.5967 9.59703C64.7901 10.3607 65.7241 11.4807 66.1911 12.8552C67.177 15.9097 67.6959 19.0661 67.6959 22.2224V31.7423Z" fill="#36AA3F"/>
<path d="M17.474 44.5192C19.6806 44.5192 21.4694 42.7186 21.4694 40.4974C21.4694 38.2762 19.6806 36.4756 17.474 36.4756C15.2673 36.4756 13.4785 38.2762 13.4785 40.4974C13.4785 42.7186 15.2673 44.5192 17.474 44.5192Z" fill="#010080"/>
<path d="M30.3646 130.611C32.5712 130.611 34.36 128.811 34.36 126.59C34.36 124.369 32.5712 122.568 30.3646 122.568C28.158 122.568 26.3691 124.369 26.3691 126.59C26.3691 128.811 28.158 130.611 30.3646 130.611Z" fill="#010080"/>
<path d="M68.7279 65.9967C70.9345 65.9967 72.7233 64.1961 72.7233 61.9749C72.7233 59.7537 70.9345 57.9531 68.7279 57.9531C66.5212 57.9531 64.7324 59.7537 64.7324 61.9749C64.7324 64.1961 66.5212 65.9967 68.7279 65.9967Z" fill="#010080"/>
<path d="M68.7279 35.8175C70.9345 35.8175 72.7233 34.0169 72.7233 31.7957C72.7233 29.5745 70.9345 27.7739 68.7279 27.7739C66.5212 27.7739 64.7324 29.5745 64.7324 31.7957C64.7324 34.0169 66.5212 35.8175 68.7279 35.8175Z" fill="#010080"/>
<path d="M68.7291 104.689C71.4229 104.689 73.6067 102.478 73.6067 99.7507C73.6067 97.0234 71.4229 94.8125 68.7291 94.8125C66.0353 94.8125 63.8516 97.0234 63.8516 99.7507C63.8516 102.478 66.0353 104.689 68.7291 104.689Z" fill="#010080"/>
<path d="M29.4537 23.7918C32.1475 23.7918 34.3313 21.5809 34.3313 18.8537C34.3313 16.1264 32.1475 13.9155 29.4537 13.9155C26.7599 13.9155 24.5762 16.1264 24.5762 18.8537C24.5762 21.5809 26.7599 23.7918 29.4537 23.7918Z" fill="#010080"/>
<path d="M34.3724 85.6554C36.579 85.6554 38.3678 83.8548 38.3678 81.6336C38.3678 79.4124 36.579 77.6118 34.3724 77.6118C32.1658 77.6118 30.377 79.4124 30.377 81.6336C30.377 83.8548 32.1658 85.6554 34.3724 85.6554Z" fill="#010080"/>
<path d="M55.8834 77.2093C58.5772 77.2093 60.761 74.9984 60.761 72.2712C60.761 69.5439 58.5772 67.333 55.8834 67.333C53.1896 67.333 51.0059 69.5439 51.0059 72.2712C51.0059 74.9984 53.1896 77.2093 55.8834 77.2093Z" fill="#010080"/>
<path d="M49.852 121.889C53.1476 121.889 55.8192 119.177 55.8192 115.831C55.8192 112.485 53.1476 109.773 49.852 109.773C46.5564 109.773 43.8848 112.485 43.8848 115.831C43.8848 119.177 46.5564 121.889 49.852 121.889Z" fill="#010080"/>
<path d="M7.33831 88.1505C10.6339 88.1505 13.3055 85.4382 13.3055 82.0923C13.3055 78.7465 10.6339 76.0342 7.33831 76.0342C4.04271 76.0342 1.37109 78.7465 1.37109 82.0923C1.37109 85.4382 4.04271 88.1505 7.33831 88.1505Z" fill="#010080"/>
<path d="M49.852 42.5343C53.1476 42.5343 55.8192 39.8219 55.8192 36.4761C55.8192 33.1303 53.1476 30.418 49.852 30.418C46.5564 30.418 43.8848 33.1303 43.8848 36.4761C43.8848 39.8219 46.5564 42.5343 49.852 42.5343Z" fill="#010080"/>
<path d="M29.4445 66.2524C33.1127 66.2524 36.0863 63.2438 36.0863 59.5325C36.0863 55.8211 33.1127 52.8125 29.4445 52.8125C25.7764 52.8125 22.8027 55.8211 22.8027 59.5325C22.8027 63.2438 25.7764 66.2524 29.4445 66.2524Z" fill="#010080"/>
</svg>
