<svg width="109" height="144" viewBox="0 0 109 144" fill="none" xmlns="http://www.w3.org/2000/svg">
<g clip-path="url(#clip0_110_10286)">
<path d="M39.4197 54.9598C37.0497 53.7598 36.0197 52.8398 35.5197 50.9298C35.0097 48.9798 33.1597 47.3898 31.9897 45.5798C25.7697 35.9798 22.1597 25.5998 22.5897 14.0198C22.8197 7.94984 23.8897 3.64984 26.5997 0.339844C26.1997 3.00984 25.8897 5.70984 25.3697 8.35984C23.2697 19.1398 25.4997 29.2298 30.4697 38.7698C32.6297 42.9098 35.3997 46.7298 38.0997 51.0398C51.3997 45.1098 58.5697 34.9498 61.9497 21.5398C62.9897 24.3398 62.3897 26.8298 61.4697 29.2898C57.8497 39.0198 51.3397 46.2698 42.3997 51.4298C41.7197 51.8198 41.0497 52.2198 40.3597 52.6198C40.9597 54.8098 42.0597 55.4798 43.8797 54.1898C47.4897 51.6198 51.1197 49.0598 54.6497 46.3798C59.2097 42.9098 63.9797 40.2098 69.8797 39.5098C78.2797 38.4998 85.2297 41.2598 91.3097 46.7198C98.0097 52.7398 101.88 60.5298 104.68 68.9198C109.33 82.8598 109.21 96.9298 105.62 111.03C104.96 113.61 103.73 116.06 102.61 118.49C100.3 123.52 95.5297 125.29 90.7797 126.8C88.8597 127.41 86.5497 126.69 84.5397 127.12C80.1397 128.06 76.5597 130.06 75.2997 134.98C74.6797 137.4 72.6497 138.93 70.3997 140.08C62.7797 143.97 54.8697 144.2 46.8997 141.67C30.2097 136.37 16.5597 126.82 6.62969 112.25C-2.12031 99.4198 -2.26031 82.4899 6.49969 69.7198C11.6297 62.2398 18.6397 57.6598 27.9897 57.1898C30.6697 57.0498 33.3497 56.6998 36.0097 56.3198C36.8597 56.1998 37.6497 55.6798 39.4197 54.9598ZM43.1097 58.3698C41.0097 58.2098 39.3497 57.8798 37.7197 57.9998C34.6497 58.2298 31.5997 58.8498 28.5297 59.0598C20.8497 59.5898 14.4697 62.7798 9.76969 68.7698C0.199688 80.9698 -0.610312 97.5098 8.28969 110.94C16.4297 123.22 27.6997 131.68 41.1097 137.39C48.7797 140.66 56.6997 142.57 65.0497 139.93C69.0997 138.65 72.8997 137.21 74.0997 132.38C74.7397 129.8 76.6097 127.89 79.1297 126.94C82.3897 125.72 85.6697 124.1 89.0497 123.78C92.8397 123.42 95.4297 121.75 97.3897 118.91C99.1297 116.38 100.81 113.71 101.92 110.87C106.02 100.33 106.66 89.3998 104.76 78.3298C103.03 68.2399 99.4997 58.8798 92.6997 50.9998C82.5997 39.2998 67.8297 38.6098 57.3797 46.9598C53.2897 50.2298 48.8897 53.1098 44.7097 56.2498C43.9197 56.8398 43.4897 57.8498 43.1097 58.3698Z" fill="black" fill-opacity="0.2"/>
<path d="M56.2707 0C65.7507 16.93 58.7107 38.55 40.9607 45.53C42.2707 44.39 43.5607 43.24 44.8807 42.11C49.6207 38.06 53.8207 33.6 56.3707 27.78C59.7607 20.04 59.2607 11.19 55.8607 3.49C55.4907 3.58 55.0207 3.56 54.7407 3.78C46.5007 10.39 38.8207 17.44 35.5607 28C34.2607 32.22 34.7007 36.19 36.6707 40.08C37.1107 40.94 37.3607 41.89 37.9807 43.56C35.0807 42.39 34.4007 40.54 33.7707 38.75C31.9207 33.52 32.5207 28.36 34.9907 23.54C36.7507 20.1 38.8907 16.8 41.2407 13.73C45.3607 8.39 50.5107 4.08 56.2707 0Z" fill="black" fill-opacity="0.2"/>
</g>
<defs>
<clipPath id="clip0_110_10286">
<rect width="108.24" height="143.34" fill="white"/>
</clipPath>
</defs>
</svg>
