<svg width="1656" height="682" viewBox="0 0 1656 682" fill="none" xmlns="http://www.w3.org/2000/svg">
<path d="M1537.78 194C1537.78 187.87 1537.78 181.74 1537.78 175.634C1533.36 175.121 1532.09 174.179 1531.97 171.418C1531.89 169.108 1532.56 168.602 1536.82 167.809C1538.27 162.441 1539.66 157.05 1541.21 151.706C1543.64 143.313 1546.3 134.974 1548.67 126.573C1552.57 112.703 1557.11 98.9654 1559.5 84.7768C1560.07 81.3852 1560.99 78.0403 1561.86 74.2053C1547.64 74.8898 1533.86 76.4222 1520.07 77.7991C1506.24 79.176 1492.48 80.934 1478.4 83.8433C1478.79 82.7231 1479 82.1164 1479.26 81.3696C1468.71 73.933 1458.32 66.2008 1447.45 59.0676C1439.48 53.8402 1430.86 49.414 1422.57 44.5677C1413.81 39.4415 1405.05 34.3152 1396.41 29.0178C1394.03 27.5631 1392.09 25.5406 1390.01 23.7203C1389.56 23.3314 1389.37 22.7013 1389 22.0634C1398.73 23.0669 1408.18 22.4991 1417.63 21.8379C1423.19 21.4489 1428.74 21.0055 1434.29 20.5077C1443.99 19.6286 1453.68 18.6796 1463.38 17.7539C1469.73 17.1472 1476.09 16.5404 1482.45 15.9492C1486.02 15.6147 1489.6 15.2414 1493.17 15.008C1494 14.9535 1495.03 15.1791 1495.7 15.6225C1505.01 21.7678 1515.33 26.4041 1525.31 31.5381C1534.08 36.0499 1542.95 40.3983 1551.7 44.9567C1565.16 51.981 1578.56 59.1065 1591.97 66.2241C1593.55 67.0643 1595.02 68.0677 1597 69.2657C1586 72.4861 1575.06 73.0073 1563.73 74.1819C1560.4 89.9575 1556.79 105.78 1551.97 121.361C1547.18 136.849 1542.86 152.453 1538.2 168.462C1538.9 168.921 1539.78 169.302 1540.35 169.917C1541.2 170.858 1541.56 172.04 1540.52 173.075C1539.44 174.141 1539.66 175.315 1539.65 176.583C1539.59 181.297 1539.41 186.003 1539.18 190.71C1539.13 191.814 1538.71 192.903 1538.46 193.992C1538.21 193.984 1538 193.992 1537.78 194ZM1394.21 24.4671C1394.08 24.6694 1393.94 24.8716 1393.81 25.0661C1395.67 26.4274 1397.42 27.9443 1399.42 29.1189C1409.82 35.2486 1420.28 41.2851 1430.71 47.3759C1437.43 51.3042 1444.37 54.9681 1450.77 59.2776C1460.72 65.9752 1470.31 73.1007 1479.99 80.1172C1481.19 80.9884 1482.27 81.4241 1483.77 81.1129C1485.12 80.8329 1486.51 80.654 1487.89 80.4517C1495.09 79.3782 1502.28 78.1492 1509.52 77.2935C1517.46 76.3522 1525.46 75.7377 1533.43 75.022C1548.8 73.6374 1564.17 72.3306 1579.52 70.8993C1583.85 70.4947 1588.15 69.7402 1592.46 69.1412C1592.51 68.9156 1592.56 68.6978 1592.61 68.4722C1591.57 67.8733 1590.56 67.2432 1589.5 66.6909C1568.78 55.9093 1548.06 45.1123 1527.32 34.3618C1516.55 28.7766 1505.41 23.767 1495.21 17.3183C1494.5 16.8749 1493.5 16.5949 1492.63 16.6027C1490.54 16.626 1488.46 16.8205 1486.38 17.0305C1479.24 17.7539 1472.11 18.5552 1464.96 19.2553C1455.96 20.1343 1446.95 21.0211 1437.93 21.7678C1428.56 22.538 1419.18 23.1992 1409.8 23.7981C1404.61 24.1248 1399.41 24.2493 1394.21 24.4671ZM1536.77 170.22C1535.55 170.033 1533.96 169.131 1533.6 171.146C1533.36 172.507 1534.8 173.837 1536.23 173.806C1537.71 173.767 1539.31 172.515 1539.21 171.325C1539.08 169.901 1538.11 169.675 1536.77 170.22Z" fill="black" fill-opacity="0.15"/>
<path d="M1428.24 56.9909C1422.8 70.8295 1419.74 84.777 1413.71 97.8922C1414.69 90.479 1417.79 83.5635 1419.88 76.4225C1421.96 69.2737 1424.46 62.2261 1426.81 54.9995C1429.88 55.8552 1432.34 57.1543 1434.64 58.7567C1442.82 64.4508 1450.92 70.2461 1459.24 75.7847C1465.31 79.8219 1471.69 83.4702 1477.88 87.3519C1479.33 88.2542 1480.83 88.4565 1482.5 88.2931C1492.88 87.2663 1503.28 86.255 1513.67 85.2671C1520.12 84.6526 1526.59 84.1003 1533.05 83.4858C1536.97 83.1124 1540.88 82.6067 1544.81 82.2956C1546.12 82.1945 1547.48 82.529 1548.74 82.6612C1548.98 88.5498 1542.63 119.206 1540.26 123.43C1539.61 122.271 1539.91 121.338 1540.1 120.404C1542.23 109.926 1544.38 99.448 1546.47 88.9543C1546.77 87.4219 1546.81 85.8505 1547 84.1314C1544.71 84.1314 1542.66 83.9758 1540.64 84.1547C1529.32 85.1815 1518.01 86.3095 1506.68 87.383C1500.34 87.982 1493.99 88.5576 1487.64 89.141C1487.41 89.1643 1487.16 89.1099 1486.95 89.1877C1482.3 90.8212 1478.28 89.2421 1474.53 87.0096C1467.95 83.089 1461.36 79.1529 1455 74.9445C1447.14 69.7405 1439.52 64.2486 1431.76 58.9123C1430.77 58.22 1429.62 57.7299 1428.24 56.9909Z" fill="black" fill-opacity="0.15"/>
<path d="M1538.68 127.476C1536.58 128.495 1534.54 129.607 1532.38 130.502C1524.7 133.714 1516.6 135.34 1508.14 135.643C1491.91 136.227 1476.25 133.668 1461 128.759C1450.47 125.368 1440.18 121.548 1430.92 115.784C1423.91 111.412 1417.59 106.333 1412.13 100.405C1411.74 99.9773 1411.53 99.4095 1411.23 98.8961C1412.64 98.1104 1413.06 99.0828 1413.63 99.6506C1418.6 104.652 1423.94 109.289 1430 113.24C1438.64 118.872 1448.16 122.995 1458.17 126.122C1465.5 128.409 1472.96 130.509 1480.53 132.019C1493.22 134.554 1506.13 134.951 1518.96 132.82C1523.46 132.073 1527.74 130.222 1532.1 128.829C1534.14 128.176 1536.13 127.39 1538.15 126.667C1538.32 126.947 1538.5 127.211 1538.68 127.476Z" fill="black" fill-opacity="0.15"/>
<path d="M96.5654 495C96.5654 490.856 96.5654 486.713 96.5654 482.585C93.6972 482.238 92.8682 481.602 92.7953 479.735C92.7393 478.173 93.1763 477.831 95.938 477.295C96.8847 473.667 97.7811 470.023 98.7894 466.41C100.369 460.737 102.094 455.1 103.629 449.421C106.161 440.045 109.108 430.759 110.66 421.168C111.03 418.875 111.629 416.614 112.195 414.021C102.963 414.484 94.0221 415.52 85.0703 416.451C76.0961 417.382 67.1611 418.57 58.0244 420.537C58.2765 419.779 58.4109 419.369 58.579 418.864C51.7335 413.837 44.9888 408.611 37.936 403.789C32.7655 400.255 27.1692 397.263 21.7913 393.987C16.1054 390.522 10.4139 387.057 4.8064 383.476C3.26588 382.492 2.00547 381.125 0.655412 379.895C0.364114 379.632 0.240881 379.206 0 378.775C6.31333 379.453 12.4474 379.069 18.5815 378.622C22.1891 378.359 25.7911 378.06 29.3932 377.723C35.6897 377.129 41.9806 376.487 48.2771 375.862C52.4001 375.451 56.5231 375.041 60.6517 374.642C62.9709 374.416 65.2901 374.163 67.6093 374.005C68.147 373.969 68.8192 374.121 69.2506 374.421C75.295 378.575 81.9949 381.709 88.4707 385.179C94.1622 388.229 99.9209 391.169 105.596 394.25C114.335 398.998 123.029 403.815 131.734 408.626C132.759 409.194 133.717 409.873 135 410.682C127.863 412.859 120.76 413.212 113.405 414.006C111.242 424.67 108.901 435.365 105.775 445.898C102.666 456.367 99.8593 466.915 96.8343 477.737C97.2936 478.047 97.8651 478.305 98.2292 478.72C98.7838 479.356 99.0191 480.156 98.3412 480.855C97.641 481.575 97.7866 482.369 97.7754 483.227C97.7418 486.413 97.6242 489.594 97.4729 492.776C97.4393 493.522 97.1648 494.259 97.0024 494.995C96.8455 494.989 96.7055 494.995 96.5654 495ZM3.38353 380.4C3.2939 380.536 3.20429 380.673 3.12026 380.804C4.33027 381.725 5.46745 382.75 6.76149 383.544C13.5118 387.688 20.3013 391.768 27.0684 395.885C31.4322 398.541 35.9362 401.018 40.0928 403.931C46.5461 408.458 52.7754 413.275 59.0552 418.018C59.8338 418.607 60.5341 418.901 61.5088 418.691C62.3883 418.502 63.2902 418.381 64.1809 418.244C68.8585 417.518 73.5248 416.687 78.2192 416.109C83.373 415.473 88.566 415.057 93.7421 414.574C103.713 413.638 113.69 412.754 123.656 411.787C126.468 411.513 129.258 411.003 132.053 410.598C132.087 410.446 132.115 410.299 132.149 410.146C131.476 409.741 130.821 409.315 130.132 408.942C116.682 401.654 103.237 394.355 89.7759 387.088C82.7848 383.313 75.5527 379.926 68.9313 375.567C68.4719 375.267 67.8221 375.078 67.2619 375.083C65.9063 375.099 64.5506 375.231 63.2062 375.373C58.5678 375.862 53.9406 376.403 49.3022 376.876C43.4595 377.471 37.6111 378.07 31.7571 378.575C25.6791 379.095 19.5898 379.542 13.5006 379.947C10.1338 380.168 6.75587 380.252 3.38353 380.4ZM95.91 478.925C95.1146 478.799 94.0838 478.189 93.8541 479.551C93.6973 480.471 94.6272 481.37 95.5571 481.349C96.5206 481.323 97.557 480.476 97.4897 479.672C97.4057 478.71 96.7783 478.557 95.91 478.925Z" fill="black" fill-opacity="0.15"/>
<path d="M25.4671 402.385C21.9379 411.74 19.9492 421.168 16.0391 430.034C16.6721 425.022 18.6888 420.348 20.0444 415.521C21.3945 410.688 23.0135 405.924 24.5428 401.039C26.5314 401.617 28.128 402.496 29.6237 403.579C34.9343 407.428 40.1888 411.345 45.5891 415.089C49.5272 417.818 53.667 420.285 57.6891 422.909C58.6302 423.518 59.5994 423.655 60.6862 423.545C67.4253 422.851 74.17 422.167 80.9146 421.499C85.1049 421.084 89.3006 420.711 93.4965 420.295C96.0397 420.043 98.5774 419.701 101.126 419.491C101.978 419.422 102.857 419.648 103.675 419.738C103.832 423.718 99.7146 444.441 98.174 447.297C97.7539 446.513 97.9444 445.882 98.0676 445.251C99.4513 438.168 100.846 431.085 102.202 423.992C102.398 422.956 102.426 421.894 102.549 420.732C101.065 420.732 99.7314 420.626 98.4206 420.747C91.0709 421.441 83.7324 422.204 76.3827 422.93C72.2653 423.334 68.1423 423.724 64.0249 424.118C63.8737 424.134 63.7112 424.097 63.5767 424.149C60.5573 425.254 57.9469 424.186 55.5157 422.677C51.2414 420.027 46.9672 417.366 42.8386 414.521C37.7352 411.004 32.7887 407.291 27.7526 403.684C27.1084 403.216 26.3634 402.885 25.4671 402.385Z" fill="black" fill-opacity="0.15"/>
<path d="M97.1529 450.031C95.7916 450.72 94.4639 451.472 93.0635 452.076C88.0778 454.248 82.8232 455.347 77.3334 455.552C66.7962 455.947 56.6344 454.217 46.7358 450.899C39.9015 448.606 33.2185 446.024 27.2132 442.128C22.6589 439.172 18.5583 435.739 15.0179 431.732C14.7602 431.443 14.6258 431.059 14.4297 430.712C15.3484 430.181 15.6173 430.838 15.987 431.222C19.2137 434.603 22.6813 437.737 26.6138 440.408C32.2213 444.215 38.4002 447.002 44.8984 449.116C49.6544 450.662 54.5001 452.082 59.4073 453.102C67.6477 454.816 76.0281 455.084 84.3526 453.643C87.2711 453.139 90.0497 451.887 92.8786 450.946C94.2063 450.504 95.4947 449.973 96.8056 449.484C96.9176 449.673 97.0352 449.852 97.1529 450.031Z" fill="black" fill-opacity="0.15"/>
<path d="M73.2902 272.309C72.8106 272.936 72.3311 273.562 71.8515 274.189C71.5677 274.013 71.2838 273.836 71 273.66C72.4681 270.929 73.8579 268.15 75.4337 265.478C81.443 255.27 87.7166 245.209 93.5107 234.883C100.332 222.727 106.772 210.346 113.379 198.063C113.937 197.036 114.504 196.018 115.062 195C124.84 195.245 134.382 195.803 144.14 198.377C146.44 209.446 148.593 220.496 151.07 231.477C154.485 246.598 158.107 261.671 161.738 276.743C162.384 279.415 163.519 281.96 164.321 284.602C164.918 286.57 165.339 288.595 165.819 290.563C157.519 288.752 149.504 287 141.488 285.248C141.233 285.19 140.959 285.209 140.695 285.18C134.764 284.593 131.348 281.294 129.733 275.598C128.696 271.957 127.022 268.493 125.584 264.813C121.502 264.176 117.372 263.54 113.144 262.884C110.032 267.954 107.027 272.858 103.934 277.908C104.59 278.456 105.157 278.936 105.95 279.601C105.353 279.787 104.884 280.1 104.463 280.041C99.6474 279.366 94.8125 278.75 90.0265 277.898C85.5146 277.086 81.0418 276.038 76.569 275.03C75.0324 274.688 73.4175 274.267 73.2217 272.261C81.6192 273.915 90.0068 275.549 98.3945 277.193C101.203 277.741 101.703 277.487 103.181 275.109C105.187 271.859 107.193 268.61 109.337 265.439C110.374 263.912 111.431 262.503 109.875 259.909C116.638 261.201 122.589 262.346 128.07 263.393C129.176 270.313 132.689 275.823 133.687 281.568C143.807 283.692 153.35 285.689 163.118 287.734C161.757 283.389 160.319 279.425 159.281 275.363C156.629 264.91 153.996 254.458 151.657 243.926C149.093 232.377 146.068 220.917 144.727 209.113C144.483 206.931 143.494 204.836 142.829 202.703C142.085 200.314 140.597 199.023 137.955 198.954C136.124 198.905 134.314 198.416 132.484 198.23C127.013 197.701 121.551 196.546 116.129 197.515C114.543 200.442 112.948 203.182 111.549 206.011C102.094 225.174 90.9367 243.369 80.1218 261.759C77.998 265.37 75.5706 268.796 73.2902 272.309Z" fill="black" fill-opacity="0.15"/>
<path d="M128.363 218.528C130.046 227.875 131.544 236.253 133.159 245.218C125.397 243.956 118.047 242.595 110.805 239.913C114.279 240.041 115.414 237.535 116.834 235.255C119.75 230.557 122.755 225.918 125.769 221.288C126.259 220.554 126.983 219.977 128.363 218.528ZM116.383 239.904C121.463 240.569 125.632 242.096 130.546 242.458C129.41 235.881 128.373 229.881 127.169 222.893C122.804 228.609 119.985 234.149 116.383 239.904Z" fill="black" fill-opacity="0.15"/>
<path d="M174 287.5L154.5 202L167.5 195.5L189 283.5L174 287.5Z" stroke="black" stroke-opacity="0.15" stroke-width="2"/>
<path d="M1105.67 604.705C1107.69 612.311 1109.69 619.832 1111.77 627.62C1123.29 625.26 1134.7 623.101 1146.64 622.458C1147.12 624.914 1147.6 627.401 1148.08 629.894C1146.08 628.256 1146.49 625.709 1145.26 623.616C1133.27 624.708 1121.41 626.631 1109.66 629.548C1109.54 629.858 1109.39 630.222 1109.26 630.567C1109.06 630.61 1108.83 630.731 1108.77 630.67C1107.78 629.67 1106.63 630.112 1105.57 630.385C1098.61 632.15 1091.66 633.958 1084.72 635.759C1081.56 636.578 1078.41 637.415 1075.25 638.246C1075.81 640.538 1076.35 642.764 1076.9 644.996C1075.18 643.225 1074.56 641.072 1074.15 638.792C1073.66 638.646 1073.16 638.501 1072.39 638.282C1072.81 637.937 1073.01 637.639 1073.26 637.573C1077.51 636.414 1081.75 635.256 1086.01 634.158C1092.4 632.508 1098.81 630.913 1105.21 629.281C1105.75 629.142 1106.27 628.893 1106.63 628.76C1105.26 624.963 1103.76 621.275 1102.6 617.478C1101.46 613.742 1100.67 609.903 1099.69 605.973C1099.3 605.936 1098.82 605.797 1098.36 605.851C1079.44 608.09 1062.37 603.371 1047.33 591.78C1037.55 584.241 1030.52 574.561 1026.39 562.812C1023.95 555.886 1022.69 548.765 1022.52 541.487C1022.37 535.355 1023.27 529.29 1024.84 523.346C1026.86 515.716 1029.97 508.565 1034.41 502.021C1034.73 501.56 1034.93 501.02 1035.22 500.468C1033.3 498.103 1031.4 495.773 1029.4 493.305C1026.83 495.652 1024.86 498.345 1022.96 501.062C1017.09 509.438 1013.59 518.761 1012.2 528.865C1010.29 542.646 1011.11 556.25 1015.36 569.539C1019.15 581.421 1025.25 591.889 1034.89 600.071C1041.96 606.064 1049.92 610.394 1058.76 613.154C1063.84 614.743 1069.02 615.926 1074.3 616.399C1078.68 616.787 1083.1 616.805 1087.5 616.702C1091.08 616.617 1094.65 616.09 1098.23 615.798C1098.83 615.75 1099.43 615.895 1100.03 615.956C1100.04 616.144 1100.06 616.332 1100.07 616.52C1097.24 616.975 1094.41 617.715 1091.56 617.818C1086.17 618.024 1080.76 618.14 1075.4 617.776C1071.36 617.503 1067.33 616.593 1063.37 615.677C1056.02 613.967 1049.05 611.183 1042.6 607.216C1031.43 600.35 1023.08 590.955 1017.71 579.013C1014.69 572.299 1012.55 565.299 1011.38 557.985C1010.34 551.507 1009.81 545.017 1010.06 538.479C1010.61 523.971 1014.28 510.457 1023.15 498.685C1024.82 496.477 1026.64 494.378 1028.47 492.116C1026.95 490.46 1025.41 488.78 1023.87 487.106C1024.02 486.961 1024.16 486.815 1024.31 486.67C1026.55 487.446 1027.66 489.629 1029.5 491.225C1033.04 488.301 1036.6 485.232 1041.52 484.516C1041.59 485.917 1040.61 485.808 1040.01 486.008C1036.51 487.161 1033.65 489.302 1030.96 491.716C1030.79 491.867 1030.69 492.11 1030.46 492.486C1032.19 494.767 1033.95 497.084 1035.88 499.613C1036.71 498.624 1037.48 497.733 1038.22 496.811C1044.63 488.75 1052.47 482.503 1061.85 478.202C1073.86 472.695 1086.36 471.84 1099.2 474.327C1099.6 474.406 1099.97 474.733 1100.46 475C1099.76 475.91 1099.01 475.631 1098.35 475.473C1093.3 474.254 1088.18 474.078 1083.03 474.242C1078.09 474.393 1073.32 475.425 1068.64 476.892C1059.26 479.84 1051.17 484.989 1044.25 491.892C1038.26 497.866 1033.48 504.726 1030.01 512.52C1027.26 518.688 1025.45 525.05 1024.47 531.716C1023.43 538.746 1023.77 545.678 1024.96 552.659C1025.98 558.603 1027.9 564.201 1030.58 569.545C1034.39 577.145 1039.58 583.695 1046.11 589.202C1053.46 595.407 1061.71 599.889 1070.94 602.522C1084.93 606.519 1098.78 606.227 1112.5 601.157C1122.48 597.469 1131.17 591.847 1138.61 584.296C1140.48 582.409 1142.12 580.305 1143.74 578.109C1140.92 579.274 1138.2 580.632 1134.62 578.946C1135.94 578.758 1136.76 578.534 1137.58 578.54C1140.73 578.582 1143.05 577.084 1144.85 574.682C1148.53 569.794 1149.76 561.327 1146.29 555.734C1144.38 552.659 1140.62 551.471 1136.84 553.114C1135.66 553.63 1135.1 554.624 1135.11 555.844C1135.14 558.439 1133.84 560.332 1132.08 562.018C1130.48 563.54 1128.91 565.087 1127.27 566.555C1126.16 567.549 1125.68 568.763 1125.56 570.212C1125.41 572.129 1126.01 572.96 1127.93 573.16C1129.23 573.293 1130.55 573.233 1131.84 573.408C1133.68 573.657 1135 574.67 1135.66 576.435C1135.77 576.726 1135.6 577.12 1135.54 577.618C1135.14 577.393 1134.83 577.321 1134.76 577.157C1133.84 574.87 1131.94 574.458 1129.78 574.415C1128.73 574.397 1127.64 574.349 1126.63 574.057C1124.85 573.542 1124.24 572.626 1124.25 570.819C1124.26 568.775 1124.87 566.979 1126.43 565.56C1127.94 564.183 1129.38 562.74 1130.92 561.399C1132.58 559.944 1133.65 558.294 1133.83 555.983C1134.05 553.151 1135.3 552.059 1138.09 551.422C1143.78 550.124 1147.15 553.654 1148.46 557.348C1149.8 561.078 1149.89 564.856 1148.91 568.684C1148.77 569.217 1148.67 569.763 1148.48 570.655C1157.87 556.79 1161.63 531.103 1150.35 510.342C1139.73 490.794 1123.24 478.833 1100.61 474.921C1102.22 474.133 1103.39 474.363 1104.54 474.545C1112.75 475.819 1120.19 479.046 1127.11 483.522C1136.73 489.739 1144.67 497.611 1150.39 507.582C1154.66 515.037 1157.05 523.103 1158.02 531.649C1158.64 537.217 1158.59 542.743 1157.83 548.268C1156.64 556.941 1153.72 565.026 1149.23 572.529C1142.11 584.429 1132.19 593.333 1119.79 599.392C1115.78 601.351 1111.44 602.625 1107.25 604.208C1106.78 604.341 1106.33 604.481 1105.67 604.705ZM1101.28 606.719C1102.91 614.409 1104.36 621.754 1108.42 628.378C1109.19 628.196 1109.86 628.032 1110.61 627.856C1108.61 620.493 1106.67 613.318 1104.67 605.985C1103.44 606.246 1102.45 606.464 1101.28 606.719Z" fill="black" fill-opacity="0.15"/>
<path d="M1085.84 496.573C1087.08 496.513 1087.84 496.61 1088.53 496.422C1093.02 495.233 1097.49 493.965 1101.97 492.764C1108.71 490.957 1115.54 489.926 1122.54 490.278C1123.73 490.338 1124.96 490.66 1126.07 491.109C1127.67 491.757 1128.42 493.195 1128.33 494.808C1128.25 496.319 1127.13 496.737 1125.99 497.301C1125.1 497.75 1124.28 498.46 1123.6 499.206C1122.62 500.285 1121.77 501.498 1120.89 502.669C1119.24 504.858 1118.47 507.139 1119.32 509.971C1120.38 513.495 1119.07 515.855 1115.59 517.268C1114.08 517.88 1112.48 518.275 1110.95 518.827C1109.8 519.239 1108.66 519.694 1107.58 520.252C1106.53 520.792 1106.17 521.829 1106.23 522.945C1106.29 524.073 1107.06 524.655 1108.08 524.959C1108.78 525.171 1109.47 525.407 1110.18 525.595C1114.6 526.772 1117.31 530.514 1116.77 535.033C1116.51 537.113 1116.05 539.224 1115.31 541.183C1114.57 543.13 1114.81 544.677 1116.22 546.096C1117.19 547.079 1118.24 547.994 1119.24 548.953C1120.06 549.741 1120.94 550.487 1121.64 551.379C1122.06 551.919 1122.35 552.683 1122.41 553.368C1122.58 555.406 1121.19 556.352 1119.47 555.291C1118.38 554.624 1117.48 553.623 1116.54 552.725C1114.42 550.693 1112.42 548.54 1110.21 546.618C1107.65 544.404 1104.59 543.439 1101.18 543.385C1098.25 543.336 1095.3 543.209 1092.4 542.851C1087.86 542.293 1084.02 540.352 1081.2 536.58C1079.12 533.796 1076.56 531.521 1073.19 530.387C1070.31 529.417 1067.36 528.925 1064.29 529.386C1058.72 530.217 1053.15 530.957 1047.58 531.721C1047.01 531.8 1046.43 531.8 1045.87 531.77C1043.37 531.63 1041.75 530.472 1041.24 528.489C1040.72 526.511 1041.6 524.146 1043.49 522.963C1044.79 522.15 1046.25 521.592 1047.64 520.901C1048.94 520.246 1050.32 519.688 1051.52 518.869C1053.3 517.662 1053.96 515.576 1053.4 513.695C1053.03 512.458 1052.36 512.052 1051.2 512.616C1050.04 513.192 1049 514.017 1047.85 514.642C1046.64 515.297 1045.42 515.97 1044.12 516.407C1042.51 516.946 1041.13 516.031 1041.07 514.332C1041.04 513.241 1041.25 512.021 1041.74 511.051C1043.69 507.103 1046.79 504.319 1050.82 502.505C1053.08 501.48 1055.43 501.225 1057.71 502.141C1063.24 504.367 1067.62 502.754 1071.61 498.66C1074.34 495.87 1077.31 493.28 1080.42 490.933C1081.68 489.98 1083.58 489.61 1085.23 489.471C1087.79 489.259 1088.48 490.453 1087.48 492.789C1087.04 493.844 1086.58 494.881 1085.84 496.573ZM1121.12 554.757C1121.62 552.677 1120.5 551.779 1119.54 550.857C1118.31 549.668 1117.01 548.552 1115.75 547.4C1113.65 545.489 1113.04 543.336 1114.17 540.577C1114.94 538.721 1115.46 536.689 1115.64 534.693C1115.99 530.696 1113.53 527.664 1109.64 526.711C1108.54 526.445 1107.47 526.014 1106.46 525.517C1105.31 524.946 1104.9 523.794 1105.01 522.623C1105.17 521.04 1105.74 519.597 1107.42 518.942C1108.71 518.445 1110 517.917 1111.3 517.426C1112.89 516.819 1114.57 516.37 1116.09 515.624C1118.26 514.557 1118.78 513.174 1118.24 510.821C1117.79 508.813 1117.26 506.678 1118.28 504.816C1120.23 501.286 1122.06 497.562 1126.13 495.827C1127.38 495.3 1127.56 494.408 1126.79 493.286C1125.99 492.121 1124.77 491.563 1123.44 491.533C1120.42 491.472 1117.37 491.327 1114.38 491.63C1108.45 492.225 1102.69 493.765 1096.97 495.415C1094.15 496.228 1091.32 497.022 1088.49 497.762C1087.44 498.035 1086.36 498.096 1085.51 497.21C1084.58 496.234 1085.13 495.227 1085.51 494.25C1085.91 493.213 1086.36 492.194 1087.01 490.648C1085.38 490.793 1084.26 490.787 1083.2 491.018C1081.23 491.448 1079.66 492.649 1078.21 494.002C1075.71 496.343 1073.26 498.745 1070.75 501.068C1067.52 504.052 1063.82 505.295 1059.47 503.894C1058.69 503.645 1057.91 503.324 1057.11 503.257C1055.67 503.13 1054.1 502.808 1052.77 503.203C1048.27 504.549 1044.95 507.479 1042.81 511.664C1042.21 512.834 1042 514.12 1043.03 515.648C1044.13 515.157 1045.24 514.745 1046.27 514.169C1047.76 513.332 1049.13 512.276 1050.66 511.5C1052.6 510.511 1054.04 511.172 1054.54 513.277C1055.07 515.533 1054.88 517.729 1052.89 519.288C1051.75 520.179 1050.51 521.235 1049.17 521.52C1047.32 521.908 1046.03 523.133 1044.43 523.861C1042.86 524.576 1042.08 526.766 1042.49 528.252C1042.89 529.72 1044.29 530.581 1046.35 530.624C1046.68 530.63 1047.01 530.654 1047.33 530.605C1050.07 530.193 1052.79 529.732 1055.53 529.356C1059 528.883 1062.48 528.27 1065.97 528.1C1069.85 527.912 1073.57 528.677 1076.92 530.903C1079.21 532.419 1081.02 534.378 1082.71 536.464C1085.11 539.406 1088.17 541.08 1091.9 541.517C1094.33 541.802 1096.78 542.208 1099.2 542.129C1105.65 541.923 1110.75 544.398 1114.85 549.262C1116.05 550.693 1117.41 552.003 1118.78 553.283C1119.38 553.823 1120.16 554.163 1121.12 554.757Z" fill="black" fill-opacity="0.15"/>
<path d="M1051.62 539.898C1054.06 538.145 1056.71 538.109 1059.44 538.746C1060.39 538.97 1061.32 539.286 1062.24 539.601C1064.16 540.256 1066.09 540.129 1068.04 539.74C1069.39 539.468 1070.75 539.17 1072.12 538.982C1074.99 538.582 1077.03 539.862 1078.3 542.361C1079.3 544.32 1080.15 546.358 1081.1 548.341C1081.55 549.293 1082.01 550.27 1082.61 551.131C1083.72 552.714 1085.17 553.63 1087.23 553.048C1088.84 552.593 1090.15 553.139 1091.09 554.443C1092.01 555.698 1091.87 557.142 1091.19 558.385C1090.32 559.95 1089.23 561.387 1088.21 562.855C1087.74 563.522 1087.22 564.159 1086.67 564.766C1084.95 566.664 1084.5 568.866 1084.9 571.359C1085.08 572.468 1085.03 573.633 1084.95 574.761C1084.85 576.29 1084.18 577.581 1082.94 578.528C1081.54 579.595 1080.95 581.039 1080.81 582.755C1080.71 584.053 1080.52 585.357 1080.29 586.637C1079.87 588.954 1078.25 590.343 1075.87 590.428C1072.7 590.537 1070.18 589.196 1068.15 586.849C1065.47 583.744 1064.14 579.977 1063.03 576.114C1062.36 573.766 1061.79 571.371 1060.93 569.09C1059.55 565.445 1057.44 564.189 1053.55 564.377C1052.08 564.45 1050.61 564.572 1049.15 564.602C1042.59 564.735 1038.34 558.179 1039.34 552.326C1039.52 551.252 1040.17 550.185 1040.83 549.275C1042.26 547.28 1043.6 545.254 1044.32 542.864C1044.74 541.451 1045.82 540.772 1047.22 540.584C1047.48 540.547 1047.77 540.735 1048.64 541.002C1045.86 541.881 1045.27 543.853 1044.49 545.806C1043.96 547.14 1043.04 548.371 1042.11 549.487C1039.81 552.247 1039.97 555.201 1041.33 558.197C1042.67 561.133 1044.94 563.025 1048.26 563.334C1049.47 563.449 1050.71 563.304 1051.93 563.267C1052.83 563.237 1053.73 563.122 1054.62 563.158C1058.45 563.298 1060.88 565.02 1062.12 568.714C1063.19 571.88 1063.97 575.137 1065.01 578.309C1066.08 581.578 1067.47 584.684 1070.12 587.08C1071.81 588.602 1073.72 589.233 1075.94 589.099C1077.72 588.99 1078.63 588.262 1079.05 586.546C1079.2 585.915 1079.29 585.26 1079.33 584.605C1079.52 581.487 1080.45 578.801 1082.89 576.599C1083.69 575.877 1083.72 574.233 1083.97 572.984C1084.07 572.456 1083.83 571.862 1083.75 571.292C1083.34 568.581 1083.77 566.161 1085.7 564.02C1087.12 562.449 1088.29 560.665 1089.48 558.913C1089.92 558.264 1090.25 557.451 1090.37 556.675C1090.59 555.122 1089.67 554.2 1088.11 554.194C1087.95 554.194 1087.78 554.23 1087.62 554.242C1083.87 554.515 1082.28 553.642 1080.65 550.282C1079.69 548.298 1078.84 546.267 1077.94 544.253C1076.34 540.681 1074.86 539.844 1071.05 540.377C1070.32 540.48 1069.59 540.577 1068.88 540.772C1066.37 541.463 1063.87 541.53 1061.4 540.662C1058.8 539.753 1056.19 539.364 1053.45 539.892C1052.88 539.995 1052.24 539.898 1051.62 539.898Z" fill="black" fill-opacity="0.15"/>
<path d="M1080.26 646.725C1080.21 647.241 1080.15 647.787 1080.01 649C1079.26 646.27 1077.29 647.52 1075.89 647.198C1075.91 647.028 1075.92 646.852 1075.94 646.683C1076.62 646.337 1077.31 645.985 1078.13 645.567C1078.32 643.51 1077.19 641.376 1078.1 638.786C1079.63 640.969 1078.37 643.589 1080.14 645.476C1083.81 644.675 1087.6 643.838 1091.4 643.013C1095.31 642.164 1099.22 641.357 1103.11 640.472C1106.92 639.611 1110.71 638.658 1114.51 637.773C1118.32 636.887 1122.14 636.02 1125.96 635.177C1129.86 634.316 1133.75 633.4 1137.67 632.678C1141.42 631.987 1145.08 630.689 1149 631.034C1143.46 632.848 1137.73 633.806 1132.07 635.086C1126.27 636.396 1120.47 637.742 1114.67 639.065C1108.95 640.369 1103.24 641.685 1097.51 642.959C1091.8 644.226 1086.07 645.457 1080.26 646.725Z" fill="black" fill-opacity="0.15"/>
<path d="M1128.07 605.385C1131.74 602.977 1135.27 600.666 1139.03 598.198C1138.17 600.029 1137.3 600.842 1134.31 602.795C1132.48 603.99 1130.65 605.185 1128.74 606.434C1129.69 608.151 1130.57 609.716 1131.59 611.559C1129.82 611.553 1129.77 610.328 1129.22 609.655C1128.61 608.903 1128.09 608.078 1127.45 607.168C1121.71 609.922 1116.02 612.675 1109.62 614.246C1109.89 612.748 1110.91 612.797 1111.66 612.494C1115.58 610.904 1119.52 609.346 1123.43 607.72C1124.46 607.29 1125.43 606.665 1126.58 606.052C1125.47 604.19 1124.41 602.419 1123.35 600.648C1125.56 601.491 1126.31 603.65 1128.07 605.385Z" fill="black" fill-opacity="0.15"/>
<path d="M1134.27 539.141C1135.99 539.195 1137.41 539.747 1138.76 540.584C1139.91 541.3 1140.42 542.489 1140.36 543.702C1140.33 544.327 1139.6 545.242 1138.99 545.455C1136.52 546.31 1133.97 547.001 1131.36 545.964C1130.7 545.703 1130.02 545.34 1129.54 544.836C1127.97 543.211 1128.18 541.482 1130.17 540.463C1131.43 539.826 1132.9 539.572 1134.27 539.141ZM1139.54 544.066C1138.24 540.785 1134.99 539.65 1131.58 541.094C1130.73 541.452 1129.72 541.919 1129.94 542.901C1130.1 543.635 1130.91 544.333 1131.59 544.806C1132.08 545.145 1132.84 545.158 1133.48 545.188C1135.53 545.291 1137.52 544.963 1139.54 544.066Z" fill="black" fill-opacity="0.15"/>
<path d="M1035.78 518.943C1035.24 519.204 1034.65 519.392 1034.17 519.737C1033.26 520.386 1032.25 520.993 1031.56 521.848C1030.68 522.946 1030.98 524.62 1031.88 525.117C1033.19 525.833 1034.95 525.154 1035.47 523.674C1035.74 522.915 1035.86 522.109 1036.08 521.217C1036.94 522.885 1036.9 524.038 1036 525.214C1035.09 526.421 1033.55 526.961 1032.08 526.585C1030.89 526.282 1029.98 525.026 1029.9 523.649C1029.74 520.908 1032.8 517.857 1035.78 518.943Z" fill="black" fill-opacity="0.15"/>
<path d="M1457.15 283.001C1462.56 283.551 1467.92 283.991 1473.24 284.651C1480.3 285.521 1487.35 286.461 1494.38 287.551C1511.1 290.131 1527.79 292.921 1544.52 295.431C1554.35 296.901 1564.26 297.851 1574.09 299.281C1586.58 301.101 1599.07 302.971 1611.49 305.201C1618.36 306.431 1621.04 310.181 1620.78 317.221C1620.66 320.421 1620.02 323.601 1619.56 326.791C1618.71 332.771 1617.78 338.741 1616.96 344.721C1615.67 354.161 1614.49 363.611 1613.16 373.041C1611.76 383.011 1610.3 392.981 1608.77 402.931C1607.76 409.561 1606.69 416.181 1605.46 422.771C1604.43 428.321 1601.82 430.281 1596.04 429.741C1589.48 429.121 1582.94 428.301 1576.42 427.401C1565.38 425.871 1554.36 424.221 1543.34 422.571C1530.33 420.631 1517.31 418.691 1504.31 416.681C1490.52 414.541 1476.74 412.321 1462.96 410.101C1455.66 408.931 1448.37 407.751 1441.09 406.471C1434.2 405.261 1431.95 401.641 1432.94 394.671C1434.24 385.501 1435.07 376.271 1436.3 367.081C1437.88 355.231 1439.72 343.421 1441.32 331.581C1442.45 323.201 1443.36 314.791 1444.42 306.411C1445.04 301.481 1445.64 296.531 1446.5 291.641C1447.57 285.601 1451 282.951 1457.15 283.001ZM1595.18 427.631C1601.12 427.721 1602.45 426.741 1603.52 422.481C1603.85 421.181 1604.04 419.841 1604.24 418.511C1606 406.831 1607.79 395.141 1609.48 383.451C1611.04 372.681 1612.48 361.891 1613.99 351.111C1614.97 344.071 1615.97 337.031 1616.98 329.991C1617.57 325.861 1618.43 321.761 1618.76 317.611C1619.24 311.551 1616.95 308.581 1611.06 307.131C1608.98 306.621 1606.85 306.311 1604.73 305.971C1596.37 304.631 1588.03 303.221 1579.65 302.031C1567.55 300.311 1555.4 298.901 1543.31 297.111C1528.69 294.961 1514.13 292.381 1499.49 290.311C1487.51 288.621 1475.46 287.391 1463.43 285.971C1460.9 285.671 1458.35 285.231 1455.82 285.281C1451.81 285.361 1449.52 287.291 1448.81 291.191C1447.9 296.201 1447.18 301.261 1446.53 306.321C1445.46 314.721 1444.65 323.161 1443.51 331.561C1441.93 343.131 1440.02 354.651 1438.47 366.231C1437.16 375.961 1436.2 385.741 1435.02 395.491C1434.36 400.951 1435.99 403.351 1441.3 404.281C1446.72 405.231 1452.15 406.131 1457.58 407.021C1468.85 408.871 1480.12 410.701 1491.39 412.541C1500.4 414.011 1509.4 415.571 1518.43 416.951C1528.25 418.451 1538.1 419.821 1547.93 421.211C1556.05 422.361 1564.18 423.461 1572.31 424.561C1580.41 425.661 1588.53 426.741 1595.18 427.631Z" fill="black" fill-opacity="0.15"/>
<path d="M1419.46 407.271C1424.19 407.781 1428.6 408.121 1432.97 408.771C1442.13 410.131 1451.27 411.671 1460.42 413.111C1474.1 415.261 1487.77 417.441 1501.46 419.491C1511.83 421.051 1522.22 422.401 1532.6 423.901C1544.16 425.571 1555.71 427.341 1567.27 429.001C1574.59 430.051 1581.93 430.971 1589.26 431.991C1596.04 432.941 1602.82 433.941 1609.59 434.961C1610.78 435.141 1611.93 435.561 1613.11 435.781C1614.72 436.071 1615.43 436.971 1615.28 438.601C1615.23 439.141 1615.23 439.681 1615.24 440.221C1615.32 448.721 1611.09 451.771 1602.85 450.831C1595.92 450.041 1589.07 448.631 1582.16 447.651C1572.57 446.291 1562.96 445.121 1553.37 443.771C1543.67 442.401 1533.99 440.851 1524.29 439.451C1517.1 438.41 1509.89 437.55 1502.7 436.51C1493 435.12 1483.31 433.601 1473.61 432.201C1466.42 431.17 1459.18 430.481 1452.03 429.241C1443.31 427.721 1434.64 425.891 1426 424.001C1418.57 422.381 1417.4 417.131 1418.22 411.601C1418.42 410.301 1418.94 409.041 1419.46 407.271ZM1421.47 409.531C1418.42 415.431 1420.27 420.121 1426.46 422.031C1427.23 422.271 1428 422.541 1428.79 422.681C1441.07 424.881 1453.33 427.271 1465.66 429.191C1478.81 431.241 1492.03 432.811 1505.21 434.661C1515.31 436.081 1525.41 437.581 1535.5 439.071C1546.13 440.631 1556.75 442.261 1567.38 443.791C1579.09 445.471 1590.79 447.241 1602.53 448.641C1610.6 449.601 1613.2 447.281 1613.03 439.591C1613.02 439.191 1612.9 438.801 1612.82 438.301C1612.4 438.051 1611.97 437.621 1611.49 437.551C1548.26 428.211 1485.02 418.901 1421.47 409.531Z" fill="black" fill-opacity="0.15"/>
<path d="M1634.64 296.561C1638.56 297.141 1643.05 304.511 1644.85 311.801C1647.27 321.661 1645.16 331.721 1638.91 337.981C1639.28 336.581 1639.43 335.801 1639.7 335.061C1640.83 331.911 1642.34 328.851 1643.1 325.611C1645.33 316.031 1642.17 307.601 1636.92 299.741C1636.18 298.671 1635.39 297.621 1634.64 296.561Z" fill="black" fill-opacity="0.15"/>
<path d="M1652.65 325.98C1655.01 313.68 1652.58 303.13 1643.49 293.62C1645.28 293.76 1646.07 293.58 1646.38 293.88C1654.38 301.92 1657.89 315.33 1654.01 325.02C1653.93 325.22 1653.61 325.32 1652.65 325.98Z" fill="black" fill-opacity="0.15"/>
<path d="M1448.45 383.261C1449.09 378.611 1449.69 373.961 1450.39 369.321C1451.49 362.011 1452.61 354.711 1453.79 347.421C1455.25 338.421 1456.85 329.431 1458.27 320.421C1459.15 314.851 1460.01 309.251 1460.5 303.641C1460.94 298.521 1465.24 295.991 1469.45 296.281C1473.33 296.541 1477.18 297.211 1481.03 297.811C1492.7 299.651 1504.36 301.551 1516.02 303.421C1526.62 305.121 1537.23 306.841 1547.84 308.521C1557.27 310.011 1566.71 311.411 1576.14 312.931C1582.76 313.991 1589.38 315.061 1595.95 316.341C1601.15 317.351 1603.05 320.071 1602.35 325.261C1601.14 334.311 1599.75 343.341 1598.54 352.391C1597.07 363.441 1595.85 374.531 1594.26 385.561C1593.21 392.861 1591.83 400.121 1590.36 407.341C1589.29 412.621 1586.64 414.731 1581.21 414.331C1575.99 413.951 1570.82 412.991 1565.63 412.241C1555.8 410.831 1545.98 409.421 1536.16 407.961C1526.72 406.561 1517.31 405.041 1507.86 403.701C1500.15 402.601 1492.38 401.891 1484.69 400.651C1475.02 399.091 1465.22 398.251 1455.76 395.481C1451.12 394.121 1448.94 391.621 1448.8 386.941C1448.77 385.731 1448.79 384.511 1448.79 383.301C1448.69 383.291 1448.57 383.271 1448.45 383.261ZM1450.57 382.741C1450.71 382.761 1450.84 382.781 1450.98 382.801C1450.98 383.471 1450.98 384.151 1450.98 384.821C1451 391.331 1452.42 393.201 1458.81 394.411C1464.09 395.411 1469.41 396.171 1474.72 397.021C1479.63 397.811 1484.52 398.631 1489.44 399.331C1500.76 400.921 1512.09 402.441 1523.41 404.001C1529.79 404.881 1536.17 405.781 1542.55 406.701C1550 407.771 1557.45 408.831 1564.9 409.941C1570.21 410.731 1575.49 411.841 1580.83 412.341C1585.84 412.801 1587.97 410.791 1588.74 405.821C1589.21 402.771 1589.66 399.711 1590.13 396.651C1592.03 384.041 1593.96 371.441 1595.82 358.821C1597.01 350.711 1598.14 342.591 1599.21 334.471C1599.68 330.871 1600.1 327.251 1600.27 323.631C1600.42 320.421 1599.6 319.511 1596.7 318.671C1596.05 318.481 1595.39 318.351 1594.73 318.241C1583.2 316.321 1571.68 314.351 1560.14 312.501C1545.67 310.181 1531.19 307.961 1516.71 305.681C1504.76 303.791 1492.82 301.871 1480.87 299.991C1477.16 299.411 1473.45 298.631 1469.72 298.431C1465.22 298.191 1463.33 299.911 1462.51 304.291C1462.14 306.271 1462 308.291 1461.7 310.281C1460.33 319.441 1458.97 328.611 1457.54 337.771C1456.44 344.801 1455.21 351.811 1454.12 358.851C1452.87 366.781 1451.74 374.761 1450.57 382.741Z" fill="black" fill-opacity="0.15"/>
<path d="M1501.4 425.761C1502.48 428.781 1504.94 429.341 1507.49 429.691C1513.87 430.571 1520.26 431.481 1526.65 432.301C1527.63 432.431 1528.67 432.161 1530.62 431.991C1525.83 428.841 1521.11 429.651 1516.86 428.601C1512.51 427.531 1507.99 427.111 1503.55 426.401C1503.57 426.091 1503.58 425.771 1503.6 425.461C1504.6 425.331 1505.62 424.981 1506.59 425.101C1513.24 425.951 1519.9 426.811 1526.52 427.881C1528.19 428.151 1529.86 428.961 1531.32 429.861C1533.28 431.081 1533.15 432.941 1531.04 433.841C1529.86 434.341 1528.39 434.561 1527.13 434.391C1519.57 433.361 1512.01 432.271 1504.49 430.951C1503.07 430.701 1501.74 429.451 1500.59 428.411C1500.23 428.081 1500.61 426.931 1500.66 426.151C1500.89 426.021 1501.15 425.891 1501.4 425.761Z" fill="black" fill-opacity="0.15"/>
<path d="M368.26 282.28C367.63 282.44 367 282.59 366 282.84C366.24 282.15 366.28 281.51 366.62 281.15C369.03 278.63 371.35 276 374 273.77C375.23 272.73 377.1 272.1 378.74 271.97C387.06 271.31 395.38 270.71 403.72 270.38C421.61 269.67 439.51 269.09 457.4 268.57C464.67 268.36 471.95 268.51 479.23 268.34C480.75 268.3 482.25 267.56 484.29 267C484.43 267.36 485.03 268.26 485.1 269.19C486.07 282.31 486.84 295.45 487.92 308.56C488.57 316.45 489.83 324.29 490.55 332.18C491.03 337.4 490.83 342.68 491.32 347.9C492.34 358.85 493.57 369.79 494.81 380.72C495.22 384.32 495.96 387.87 496.46 391.46C496.56 392.18 496.52 393.43 496.12 393.65C492.95 395.37 494.7 397.54 495.56 400.05C491.57 400.66 487.68 401.55 483.74 401.81C471.12 402.67 458.48 403.34 445.85 404C433.21 404.67 420.57 405.21 407.94 405.87C402.7 406.14 397.48 406.64 392.24 406.92C390.58 407.01 389.22 407.41 387.78 408.37C383.39 411.29 379.55 410.06 378.16 404.9C377.02 400.66 376.6 396.18 376.32 391.78C375.4 377.56 374.91 363.31 373.83 349.11C373.13 339.88 371.65 330.71 370.6 321.5C369.57 312.42 368.47 303.35 367.76 294.24C367.45 290.26 368.02 286.2 368.19 282.18C370.34 281.74 370.28 283.14 370.22 284.59C370.09 287.93 369.72 291.29 369.93 294.61C370.31 300.51 371.02 306.38 371.64 312.26C372.19 317.47 372.77 322.69 373.39 327.89C374.28 335.36 375.54 342.81 376.07 350.31C377.05 364.28 377.55 378.28 378.4 392.26C378.64 396.26 379.25 400.25 379.97 404.19C380.27 405.82 381.16 407.5 383.59 407.49C383.66 406.89 383.78 406.4 383.76 405.91C383.52 400.4 383.25 394.89 383.01 389.38C382.39 375.26 381.89 361.13 381.14 347.01C380.37 332.49 379.37 317.99 378.46 303.48C378.32 301.2 378.18 298.92 378.02 296.64C377.62 290.59 377.18 284.55 376.84 278.5C376.78 277.45 376.36 276.08 378.67 275.04C379.98 297.28 381.63 319.03 382.69 340.83C383.76 362.87 384.88 384.91 385.96 406.41C386.83 406.09 388.12 405.32 389.48 405.16C393.76 404.67 398.06 404.33 402.36 404.09C407.6 403.79 412.86 403.67 418.1 403.43C428.86 402.95 439.62 402.46 450.38 401.96C451.45 401.91 452.53 401.81 453.6 401.74C460.45 401.28 467.3 400.87 474.14 400.35C480.4 399.87 486.66 399.25 493.21 398.67C492.87 396.01 492.49 393.77 492.32 391.51C491.53 380.91 490.8 370.3 490.06 359.69C489.57 352.71 489.22 345.72 488.62 338.75C487.72 328.3 486.55 317.88 485.69 307.43C484.85 297.23 484.28 287.02 483.51 276.82C483.34 274.61 482.85 272.42 482.46 269.98C472.59 270.25 463.17 270.45 453.75 270.77C437.33 271.33 420.91 271.94 404.5 272.56C397.5 272.82 390.51 273.38 383.51 273.37C376.53 273.35 372.07 277.13 368.26 282.28Z" fill="black" fill-opacity="0.15"/>
<path d="M1385.26 543.28C1384.63 543.44 1384 543.59 1383 543.84C1383.24 543.15 1383.28 542.51 1383.62 542.15C1386.03 539.63 1388.35 537 1391 534.77C1392.23 533.73 1394.1 533.1 1395.74 532.97C1404.06 532.31 1412.38 531.71 1420.72 531.38C1438.61 530.67 1456.51 530.09 1474.4 529.57C1481.67 529.36 1488.95 529.51 1496.23 529.34C1497.75 529.3 1499.25 528.56 1501.29 528C1501.43 528.36 1502.03 529.26 1502.1 530.19C1503.07 543.31 1503.84 556.45 1504.92 569.56C1505.57 577.45 1506.83 585.29 1507.55 593.18C1508.03 598.4 1507.83 603.68 1508.32 608.9C1509.34 619.85 1510.57 630.79 1511.81 641.72C1512.22 645.32 1512.96 648.87 1513.46 652.46C1513.56 653.18 1513.52 654.43 1513.12 654.65C1509.95 656.37 1511.7 658.54 1512.56 661.05C1508.57 661.66 1504.68 662.55 1500.74 662.81C1488.12 663.67 1475.48 664.34 1462.85 665C1450.21 665.67 1437.57 666.21 1424.94 666.87C1419.7 667.14 1414.48 667.64 1409.24 667.92C1407.58 668.01 1406.22 668.41 1404.78 669.37C1400.39 672.29 1396.55 671.06 1395.16 665.9C1394.02 661.66 1393.6 657.18 1393.32 652.78C1392.4 638.56 1391.91 624.31 1390.83 610.11C1390.13 600.88 1388.65 591.71 1387.6 582.5C1386.57 573.42 1385.47 564.35 1384.76 555.24C1384.45 551.26 1385.02 547.2 1385.19 543.18C1387.34 542.74 1387.28 544.14 1387.22 545.59C1387.09 548.93 1386.72 552.29 1386.93 555.61C1387.31 561.51 1388.02 567.38 1388.64 573.26C1389.19 578.47 1389.77 583.69 1390.39 588.89C1391.28 596.36 1392.54 603.81 1393.07 611.31C1394.05 625.28 1394.55 639.28 1395.4 653.26C1395.64 657.26 1396.25 661.25 1396.97 665.19C1397.27 666.82 1398.16 668.5 1400.59 668.49C1400.66 667.89 1400.78 667.4 1400.76 666.91C1400.52 661.4 1400.25 655.89 1400.01 650.38C1399.39 636.26 1398.89 622.13 1398.14 608.01C1397.37 593.49 1396.37 578.99 1395.46 564.48C1395.32 562.2 1395.18 559.92 1395.02 557.64C1394.62 551.59 1394.18 545.55 1393.84 539.5C1393.78 538.45 1393.36 537.08 1395.67 536.04C1396.98 558.28 1398.63 580.03 1399.69 601.83C1400.76 623.87 1401.88 645.91 1402.96 667.41C1403.83 667.09 1405.12 666.32 1406.48 666.16C1410.76 665.67 1415.06 665.33 1419.36 665.09C1424.6 664.79 1429.86 664.67 1435.1 664.43C1445.86 663.95 1456.62 663.46 1467.38 662.96C1468.45 662.91 1469.53 662.81 1470.6 662.74C1477.45 662.28 1484.3 661.87 1491.14 661.35C1497.4 660.87 1503.66 660.25 1510.21 659.67C1509.87 657.01 1509.49 654.77 1509.32 652.51C1508.53 641.91 1507.8 631.3 1507.06 620.69C1506.57 613.71 1506.22 606.72 1505.62 599.75C1504.72 589.3 1503.55 578.88 1502.69 568.43C1501.85 558.23 1501.28 548.02 1500.51 537.82C1500.34 535.61 1499.85 533.42 1499.46 530.98C1489.59 531.25 1480.17 531.45 1470.75 531.77C1454.33 532.33 1437.91 532.94 1421.5 533.56C1414.5 533.82 1407.51 534.38 1400.51 534.37C1393.53 534.35 1389.07 538.13 1385.26 543.28Z" fill="black" fill-opacity="0.15"/>
<path d="M840.136 60.7358C844.916 64.9958 849.016 68.6459 853.106 72.3159C854.826 73.8659 854.896 74.4859 853.306 76.0659C846.986 82.3159 840.196 87.9959 832.796 92.7059C830.106 92.3959 829.646 90.8159 830.216 88.7059C832.566 79.8859 834.656 70.9858 837.456 62.3058C838.746 58.2958 841.266 54.6158 843.546 50.9858C849.256 41.8658 855.096 32.8358 861.006 23.8458C862.606 21.4058 864.626 19.2559 866.876 17.2559C864.936 22.6159 861.226 26.8759 858.256 31.5859C855.166 36.4759 852.016 41.3258 848.966 46.2358C845.926 51.1158 842.976 56.0558 840.136 60.7358ZM851.206 73.4858C847.496 69.2058 842.846 65.5558 839.116 63.9858C837.716 68.9658 836.316 73.9159 834.966 78.7159C837.286 80.1059 839.096 81.2058 841.016 82.3558C844.396 79.4258 847.796 76.4558 851.206 73.4858ZM832.916 87.3859C833.216 87.5559 833.506 87.7359 833.806 87.9059C835.666 86.5559 837.516 85.1958 839.846 83.4958C837.546 82.6758 835.876 82.0758 833.856 81.3558C833.486 83.7858 833.196 85.5859 832.916 87.3859Z" fill="black" fill-opacity="0.15"/>
<path d="M866.147 15.2758C868.297 10.1458 869.647 5.42575 873.927 2.24575C877.457 -0.374246 883.317 -0.764212 886.387 1.40579C890.747 4.47579 892.727 9.05576 890.947 14.0658C889.567 17.9558 887.387 21.5558 885.617 25.3158C885.007 26.6158 884.697 28.0558 884.037 29.3258C882.827 31.6758 881.647 34.0758 880.127 36.2158C872.897 46.4058 865.577 56.5258 858.237 66.6458C857.267 67.9858 856.017 69.1257 854.907 70.3557C854.617 70.1457 854.337 69.9357 854.047 69.7257C855.137 67.9757 856.067 66.1058 857.357 64.5058C865.377 54.5358 872.737 44.1257 879.457 33.2357C879.877 32.5457 880.337 31.8758 880.677 31.1458C881.717 28.8758 881.457 28.5058 879.207 27.0658C875.697 24.8258 872.277 22.4557 868.847 20.0957C868.477 19.8357 868.287 19.3157 867.537 18.2257C871.067 18.4957 872.867 20.4658 874.917 21.8958C877.007 23.3458 879.137 24.7457 881.507 26.3457C882.137 25.3957 882.687 24.5658 883.427 23.4458C882.947 23.1358 882.597 22.9358 882.267 22.7058C879.287 20.6358 876.377 18.4858 873.327 16.5258C871.277 15.2158 869.427 12.6858 866.147 15.2758ZM869.837 11.6258C872.677 13.6558 875.057 15.3958 877.487 17.0658C879.367 18.3558 881.287 19.5958 883.247 20.7558C884.447 21.4658 885.667 21.2958 886.337 19.9558C887.857 16.9558 889.337 13.9458 889.257 10.4358C889.117 4.30576 883.407 0.425736 877.677 2.66574C873.487 4.31574 871.167 7.58576 869.837 11.6258Z" fill="black" fill-opacity="0.15"/>
<path d="M10.1359 81.7358C14.9159 85.9958 19.0159 89.6459 23.1059 93.3159C24.8259 94.8659 24.8959 95.4859 23.3059 97.0659C16.9859 103.316 10.1959 108.996 2.79587 113.706C0.105865 113.396 -0.354151 111.816 0.215849 109.706C2.56585 100.886 4.65584 91.9858 7.45584 83.3058C8.74584 79.2958 11.2659 75.6158 13.5459 71.9858C19.2559 62.8658 25.0959 53.8358 31.0059 44.8458C32.6059 42.4058 34.6259 40.2559 36.8759 38.2559C34.9359 43.6159 31.2259 47.8759 28.2559 52.5859C25.1659 57.4759 22.0158 62.3258 18.9658 67.2358C15.9258 72.1158 12.9759 77.0558 10.1359 81.7358ZM21.2058 94.4858C17.4958 90.2058 12.8459 86.5558 9.11587 84.9858C7.71587 89.9658 6.31585 94.9159 4.96585 99.7159C7.28585 101.106 9.0959 102.206 11.0159 103.356C14.3959 100.426 17.7958 97.4558 21.2058 94.4858ZM2.91586 108.386C3.21586 108.556 3.50588 108.736 3.80588 108.906C5.66588 107.556 7.51585 106.196 9.84585 104.496C7.54585 103.676 5.87586 103.076 3.85586 102.356C3.48586 104.786 3.19586 106.586 2.91586 108.386Z" fill="black" fill-opacity="0.15"/>
<path d="M36.1469 36.2758C38.2969 31.1458 39.6469 26.4258 43.9269 23.2458C47.4569 20.6258 53.3169 20.2358 56.3869 22.4058C60.7469 25.4758 62.7269 30.0558 60.9469 35.0658C59.5669 38.9558 57.3869 42.5558 55.6169 46.3158C55.0069 47.6158 54.6969 49.0558 54.0369 50.3258C52.8269 52.6758 51.6469 55.0758 50.1269 57.2158C42.8969 67.4058 35.5769 77.5258 28.2369 87.6458C27.2669 88.9858 26.0169 90.1257 24.9069 91.3557C24.6169 91.1457 24.3369 90.9357 24.0469 90.7257C25.1369 88.9757 26.0669 87.1058 27.3569 85.5058C35.3769 75.5358 42.7368 65.1257 49.4568 54.2357C49.8768 53.5457 50.3369 52.8758 50.6769 52.1458C51.7169 49.8758 51.4568 49.5058 49.2068 48.0658C45.6968 45.8258 42.2769 43.4557 38.8469 41.0957C38.4769 40.8357 38.2869 40.3157 37.5369 39.2257C41.0669 39.4957 42.8669 41.4658 44.9169 42.8958C47.0069 44.3458 49.1369 45.7457 51.5069 47.3457C52.1369 46.3957 52.6869 45.5658 53.4269 44.4458C52.9469 44.1358 52.5969 43.9358 52.2669 43.7058C49.2869 41.6358 46.3769 39.4858 43.3269 37.5258C41.2769 36.2158 39.4269 33.6858 36.1469 36.2758ZM39.8369 32.6258C42.6769 34.6558 45.0569 36.3958 47.4869 38.0658C49.3669 39.3558 51.2869 40.5958 53.2469 41.7558C54.4469 42.4658 55.6669 42.2958 56.3369 40.9558C57.8569 37.9558 59.3369 34.9458 59.2569 31.4358C59.1169 25.3058 53.4069 21.4257 47.6769 23.6657C43.4869 25.3157 41.1669 28.5858 39.8369 32.6258Z" fill="black" fill-opacity="0.15"/>
<path d="M275.453 37.0006C280.075 37.4705 284.654 37.8464 289.2 38.4103C295.232 39.1536 301.255 39.9568 307.261 40.888C321.547 43.0924 335.807 45.4761 350.1 47.6206C358.499 48.8766 366.966 49.6882 375.365 50.91C386.036 52.465 396.707 54.0627 407.319 55.968C413.188 57.0189 415.478 60.2229 415.256 66.2377C415.154 68.9718 414.607 71.6887 414.214 74.4142C413.488 79.5235 412.693 84.6242 411.992 89.7334C410.89 97.7988 409.882 105.873 408.746 113.93C407.549 122.448 406.302 130.966 404.995 139.467C404.132 145.132 403.218 150.788 402.167 156.418C401.287 161.16 399.057 162.835 394.119 162.373C388.514 161.844 382.926 161.143 377.355 160.374C367.923 159.067 358.508 157.657 349.092 156.247C337.977 154.59 326.853 152.932 315.746 151.215C303.964 149.387 292.19 147.49 280.417 145.593C274.18 144.594 267.951 143.585 261.731 142.492C255.844 141.458 253.922 138.365 254.768 132.41C255.879 124.575 256.588 116.689 257.639 108.838C258.989 98.713 260.561 88.6227 261.928 78.5067C262.893 71.347 263.671 64.1616 264.576 57.0018C265.106 52.7897 265.619 48.5605 266.353 44.3825C267.268 39.222 270.198 36.9579 275.453 37.0006ZM393.384 160.571C398.459 160.648 399.595 159.81 400.509 156.171C400.791 155.06 400.954 153.915 401.124 152.779C402.628 142.799 404.158 132.812 405.601 122.824C406.934 113.622 408.165 104.403 409.455 95.1929C410.292 89.1781 411.146 83.1632 412.009 77.1483C412.513 73.6196 413.248 70.1167 413.53 66.571C413.94 61.3934 411.984 58.8558 406.951 57.617C405.174 57.1812 403.354 56.9164 401.543 56.6259C394.4 55.481 387.275 54.2763 380.115 53.2596C369.777 51.79 359.396 50.5854 349.067 49.056C336.576 47.2191 324.136 45.0147 311.627 43.2462C301.392 41.8022 291.096 40.7514 280.818 39.5381C278.657 39.2818 276.478 38.9059 274.316 38.9486C270.89 39.0169 268.934 40.6659 268.327 43.998C267.55 48.2785 266.934 52.6017 266.379 56.9249C265.465 64.1018 264.773 71.3128 263.799 78.4897C262.449 88.3749 260.817 98.2175 259.493 108.111C258.373 116.424 257.553 124.78 256.545 133.111C255.981 137.776 257.374 139.826 261.911 140.621C266.541 141.432 271.181 142.201 275.82 142.962C285.449 144.542 295.078 146.106 304.707 147.678C312.405 148.934 320.094 150.267 327.81 151.446C336.2 152.727 344.615 153.898 353.014 155.086C359.952 156.068 366.898 157.008 373.844 157.948C380.764 158.888 387.702 159.81 393.384 160.571Z" fill="black" fill-opacity="0.15"/>
<path d="M243.252 143.175C247.293 143.611 251.061 143.902 254.794 144.457C262.62 145.619 270.43 146.935 278.247 148.165C289.935 150.002 301.615 151.864 313.311 153.616C322.171 154.949 331.048 156.102 339.917 157.384C349.794 158.811 359.662 160.323 369.539 161.741C375.793 162.638 382.064 163.424 388.327 164.296C394.119 165.107 399.912 165.962 405.696 166.833C406.713 166.987 407.696 167.346 408.704 167.534C410.079 167.782 410.686 168.551 410.558 169.943C410.515 170.405 410.515 170.866 410.524 171.327C410.592 178.59 406.978 181.196 399.938 180.392C394.017 179.717 388.164 178.513 382.26 177.675C374.067 176.514 365.856 175.514 357.663 174.36C349.375 173.19 341.105 171.866 332.817 170.669C326.674 169.781 320.514 169.046 314.371 168.158C306.083 166.97 297.804 165.671 289.517 164.475C283.374 163.595 277.188 163.006 271.079 161.946C263.629 160.648 256.221 159.084 248.839 157.469C242.491 156.085 241.491 151.6 242.192 146.875C242.363 145.764 242.807 144.688 243.252 143.175ZM244.969 145.106C242.363 150.147 243.944 154.154 249.232 155.786C249.89 155.991 250.548 156.222 251.223 156.341C261.715 158.221 272.19 160.263 282.724 161.903C293.959 163.655 305.255 164.996 316.515 166.577C325.145 167.79 333.774 169.072 342.395 170.345C351.477 171.678 360.55 173.07 369.633 174.378C379.637 175.813 389.634 177.325 399.664 178.521C406.559 179.342 408.781 177.359 408.635 170.789C408.627 170.447 408.524 170.114 408.456 169.687C408.097 169.473 407.73 169.106 407.32 169.046C353.297 161.066 299.265 153.112 244.969 145.106Z" fill="black" fill-opacity="0.15"/>
<path d="M427.094 48.5859C430.443 49.0815 434.279 55.3783 435.817 61.6068C437.885 70.0311 436.082 78.6262 430.742 83.9747C431.058 82.7785 431.186 82.1121 431.417 81.4799C432.382 78.7885 433.673 76.1741 434.322 73.4059C436.227 65.2209 433.527 58.0184 429.042 51.3029C428.41 50.3887 427.735 49.4916 427.094 48.5859Z" fill="black" fill-opacity="0.15"/>
<path d="M442.482 73.7217C444.499 63.2127 442.423 54.199 434.656 46.0737C436.186 46.1933 436.861 46.0396 437.125 46.2959C443.961 53.1651 446.959 64.6225 443.644 72.9015C443.576 73.0724 443.303 73.1578 442.482 73.7217Z" fill="black" fill-opacity="0.15"/>
<path d="M268.016 122.662C268.562 118.689 269.075 114.716 269.673 110.752C270.613 104.506 271.57 98.2691 272.578 92.0407C273.825 84.3512 275.192 76.6702 276.406 68.9722C277.158 64.2132 277.892 59.4287 278.311 54.6356C278.687 50.2611 282.361 48.0995 285.958 48.3473C289.273 48.5694 292.562 49.1418 295.852 49.6545C305.822 51.2265 315.784 52.8499 325.747 54.4476C334.803 55.9 343.868 57.3696 352.933 58.805C360.99 60.078 369.055 61.2741 377.112 62.5728C382.768 63.4785 388.424 64.3927 394.038 65.4863C398.481 66.3492 400.104 68.6731 399.506 73.1074C398.472 80.8396 397.284 88.5548 396.251 96.287C394.995 105.728 393.952 115.203 392.594 124.627C391.697 130.864 390.518 137.067 389.262 143.236C388.348 147.747 386.083 149.549 381.444 149.208C376.984 148.883 372.567 148.063 368.133 147.422C359.734 146.217 351.344 145.013 342.954 143.765C334.889 142.569 326.849 141.27 318.775 140.126C312.187 139.186 305.549 138.579 298.979 137.52C290.717 136.187 282.344 135.469 274.261 133.103C270.297 131.941 268.434 129.805 268.315 125.806C268.289 124.772 268.306 123.73 268.306 122.696C268.221 122.688 268.118 122.67 268.016 122.662ZM269.827 122.218C269.947 122.235 270.058 122.252 270.177 122.269C270.177 122.841 270.177 123.422 270.177 123.995C270.194 129.557 271.408 131.155 276.867 132.188C281.378 133.043 285.924 133.692 290.46 134.418C294.655 135.093 298.833 135.794 303.037 136.392C312.709 137.75 322.389 139.049 332.061 140.382C337.511 141.134 342.963 141.903 348.413 142.689C354.779 143.603 361.144 144.509 367.509 145.457C372.046 146.132 376.557 147.08 381.119 147.508C385.4 147.901 387.22 146.183 387.878 141.937C388.279 139.331 388.664 136.717 389.065 134.102C390.689 123.328 392.338 112.563 393.927 101.781C394.943 94.8516 395.909 87.914 396.823 80.9763C397.225 77.9005 397.583 74.8076 397.729 71.7148C397.857 68.9722 397.156 68.1947 394.679 67.477C394.123 67.3147 393.559 67.2036 392.995 67.1096C383.144 65.4692 373.302 63.786 363.442 62.2054C351.079 60.2233 338.708 58.3265 326.336 56.3785C316.126 54.7637 305.925 53.1233 295.715 51.517C292.545 51.0215 289.375 50.3551 286.188 50.1842C282.344 49.9791 280.729 51.4487 280.028 55.1909C279.712 56.8826 279.593 58.6085 279.336 60.3087C278.166 68.1349 277.004 75.9696 275.782 83.7958C274.842 89.8022 273.791 95.7914 272.86 101.806C271.792 108.582 270.827 115.4 269.827 122.218Z" fill="black" fill-opacity="0.15"/>
<path d="M313.253 158.973C314.175 161.553 316.277 162.032 318.456 162.331C323.907 163.083 329.366 163.86 334.826 164.561C335.663 164.672 336.552 164.441 338.218 164.296C334.125 161.605 330.093 162.297 326.462 161.4C322.745 160.485 318.883 160.127 315.09 159.52C315.107 159.255 315.115 158.982 315.132 158.717C315.987 158.606 316.858 158.307 317.687 158.409C323.369 159.135 329.059 159.87 334.715 160.784C336.142 161.015 337.569 161.707 338.816 162.476C340.491 163.518 340.38 165.108 338.577 165.877C337.569 166.304 336.313 166.492 335.236 166.347C328.777 165.466 322.318 164.535 315.893 163.407C314.68 163.194 313.543 162.126 312.561 161.237C312.253 160.955 312.578 159.973 312.62 159.306C312.817 159.195 313.039 159.084 313.253 158.973Z" fill="black" fill-opacity="0.15"/>
<g clip-path="url(#clip0_179_1908)">
<path d="M1190.72 72.3699C1186.64 71.9199 1182.63 71.4799 1178.62 71.0399C1177.68 70.9399 1176.74 70.9099 1175.81 70.7499C1172.41 70.1699 1170.33 71.5499 1168.78 74.6499C1165.6 81.0299 1162.12 87.2599 1158.73 93.5399C1158.03 94.8399 1157.33 96.1799 1156.37 97.2799C1154.65 99.2499 1152.7 98.8799 1151.74 96.4199C1150.71 93.7899 1149.93 91.0799 1148.99 88.4099C1147.35 83.7199 1145.56 79.0699 1144.06 74.3399C1143.32 72.0099 1142.16 71.0999 1139.63 70.5899C1133.33 69.3099 1127.17 67.3899 1120.96 65.6999C1119.02 65.1699 1117.01 64.7499 1115.2 63.9299C1112.56 62.7399 1112.26 61.1999 1114.57 59.4199C1117.64 57.0599 1121.08 55.1699 1124.31 53.0099C1126.99 51.2199 1129.68 49.4199 1132.22 47.4399C1135.24 45.0799 1136.26 41.9499 1135.45 38.1399C1134.49 33.5399 1133.66 28.9099 1132.9 24.2799C1132.64 22.6999 1132.61 21.0499 1132.74 19.4499C1132.98 16.4499 1135.02 15.2499 1137.85 16.5099C1139.31 17.1599 1140.63 18.1399 1141.95 19.0599C1146.14 21.9899 1150.29 24.9599 1154.47 27.8999C1157.55 30.0699 1160.67 30.0699 1163.94 28.1999C1169.54 24.9999 1175.2 21.8899 1180.83 18.7399C1180.95 18.6699 1181.04 18.5299 1181.16 18.5099C1182.55 18.2599 1184.18 17.4499 1185.28 17.9099C1186.88 18.5899 1186.98 20.4599 1186.51 22.1699C1185.77 24.8899 1185.14 27.6399 1184.34 30.3499C1183.58 32.9299 1182.61 35.4399 1181.81 38.0099C1179.85 44.2999 1180.87 47.5699 1185.98 51.8599C1190.41 55.5799 1194.87 59.2699 1199.21 63.0999C1200.65 64.3699 1202.83 65.5599 1202.06 67.9999C1201.34 70.2599 1199.31 71.2599 1197.1 71.6399C1194.97 71.9799 1192.83 72.1299 1190.72 72.3699ZM1135.14 18.2099C1135.14 20.6399 1134.91 22.6599 1135.19 24.6099C1135.84 29.1299 1136.86 33.5999 1137.51 38.1299C1138.17 42.6899 1137.05 46.7199 1133.01 49.4499C1128.66 52.3899 1124.22 55.1799 1119.89 58.1399C1118.42 59.1499 1116.43 59.6399 1115.6 61.8199C1116.59 62.1999 1117.42 62.6099 1118.3 62.8499C1125.3 64.7399 1132.29 66.6799 1139.33 68.4299C1142.42 69.1999 1144.69 70.6599 1145.8 73.7299C1147.58 78.6499 1149.4 83.5599 1151.19 88.4799C1152.09 90.9499 1152.95 93.4299 1154.1 96.6599C1155.4 94.8099 1156.35 93.7099 1157.02 92.4599C1160.4 86.1899 1163.81 79.9299 1167.01 73.5699C1168.93 69.7599 1171.58 67.6999 1175.99 68.5099C1176.78 68.6599 1177.58 68.7799 1178.39 68.8399C1183.74 69.2499 1189.09 69.6899 1194.45 69.9999C1196.69 70.1299 1198.7 69.4699 1200.14 66.9799C1199.32 66.1899 1198.51 65.3499 1197.64 64.5899C1192.58 60.1499 1187.47 55.7799 1182.46 51.2999C1178.91 48.1199 1177.83 44.2699 1179.44 39.6199C1180.76 35.8199 1181.8 31.9099 1182.88 28.0299C1183.61 25.3999 1184.59 22.7899 1184.21 19.5399C1182.94 20.1599 1181.98 20.5799 1181.08 21.0899C1175.55 24.1499 1170.05 27.2799 1164.49 30.2899C1160.91 32.2299 1157.28 32.3199 1153.83 29.9399C1149.63 27.0499 1145.49 24.0499 1141.29 21.1599C1139.58 19.9599 1138.02 18.3799 1135.14 18.2099Z" fill="black" fill-opacity="0.15"/>
</g>
<path d="M1257.29 276.309C1256.81 276.936 1256.33 277.562 1255.85 278.189C1255.57 278.013 1255.28 277.836 1255 277.66C1256.47 274.929 1257.86 272.15 1259.43 269.478C1265.44 259.27 1271.72 249.209 1277.51 238.883C1284.33 226.727 1290.77 214.346 1297.38 202.063C1297.94 201.036 1298.5 200.018 1299.06 199C1308.84 199.245 1318.38 199.803 1328.14 202.377C1330.44 213.446 1332.59 224.496 1335.07 235.477C1338.49 250.598 1342.11 265.671 1345.74 280.743C1346.38 283.415 1347.52 285.96 1348.32 288.602C1348.92 290.57 1349.34 292.595 1349.82 294.563C1341.52 292.752 1333.5 291 1325.49 289.248C1325.23 289.19 1324.96 289.209 1324.7 289.18C1318.76 288.593 1315.35 285.294 1313.73 279.598C1312.7 275.957 1311.02 272.493 1309.58 268.813C1305.5 268.176 1301.37 267.54 1297.14 266.884C1294.03 271.954 1291.03 276.858 1287.93 281.908C1288.59 282.456 1289.16 282.936 1289.95 283.601C1289.35 283.787 1288.88 284.1 1288.46 284.041C1283.65 283.366 1278.81 282.75 1274.03 281.898C1269.51 281.086 1265.04 280.038 1260.57 279.03C1259.03 278.688 1257.42 278.267 1257.22 276.261C1265.62 277.915 1274.01 279.549 1282.39 281.193C1285.2 281.741 1285.7 281.487 1287.18 279.109C1289.19 275.859 1291.19 272.61 1293.34 269.439C1294.37 267.912 1295.43 266.503 1293.87 263.909C1300.64 265.201 1306.59 266.346 1312.07 267.393C1313.18 274.313 1316.69 279.823 1317.69 285.568C1327.81 287.692 1337.35 289.689 1347.12 291.734C1345.76 287.389 1344.32 283.425 1343.28 279.363C1340.63 268.91 1338 258.458 1335.66 247.926C1333.09 236.377 1330.07 224.917 1328.73 213.113C1328.48 210.931 1327.49 208.836 1326.83 206.703C1326.08 204.314 1324.6 203.023 1321.95 202.954C1320.12 202.905 1318.31 202.416 1316.48 202.23C1311.01 201.701 1305.55 200.546 1300.13 201.515C1298.54 204.442 1296.95 207.182 1295.55 210.011C1286.09 229.174 1274.94 247.369 1264.12 265.759C1262 269.37 1259.57 272.796 1257.29 276.309Z" fill="black" fill-opacity="0.15"/>
<path d="M1312.36 222.528C1314.05 231.875 1315.54 240.253 1317.16 249.218C1309.4 247.956 1302.05 246.595 1294.8 243.913C1298.28 244.041 1299.41 241.535 1300.83 239.255C1303.75 234.557 1306.75 229.918 1309.77 225.288C1310.26 224.554 1310.98 223.977 1312.36 222.528ZM1300.38 243.904C1305.46 244.569 1309.63 246.096 1314.55 246.458C1313.41 239.881 1312.37 233.881 1311.17 226.893C1306.8 232.609 1303.99 238.149 1300.38 243.904Z" fill="black" fill-opacity="0.15"/>
<path d="M1358 291.5L1338.5 206L1351.5 199.5L1373 287.5L1358 291.5Z" stroke="black" stroke-opacity="0.15" stroke-width="2"/>
<g clip-path="url(#clip1_179_1908)">
<path d="M613.693 623.33C615.413 627.58 617.013 631.28 618.423 635.05C619.573 638.11 619.043 639.45 616.153 640.91C614.723 641.63 613.153 642.14 611.603 642.55C603.413 644.68 595.213 646.72 587.023 648.84C584.813 649.41 582.453 649.82 580.513 650.92C578.883 651.84 577.433 653.46 576.503 655.11C575.393 657.09 576.693 659.3 579.023 659.54C580.843 659.72 582.853 659.62 584.573 659.03C594.093 655.74 603.573 652.32 613.023 648.82C614.893 648.13 616.593 646.96 618.293 645.87C620.293 644.58 620.743 643.64 621.133 640.79C623.153 642.05 623.083 643.67 621.853 645.15C620.753 646.46 619.393 647.66 617.923 648.53C610.573 652.86 602.513 655.54 594.453 658.16C590.253 659.53 585.913 660.47 581.713 661.83C580.873 662.1 580.363 663.4 579.693 664.23C579.823 664.52 579.943 664.81 580.073 665.11C581.453 665.11 582.903 665.39 584.203 665.06C592.793 662.88 601.353 660.61 609.893 658.26C611.423 657.84 612.853 656.98 614.263 656.2C618.183 654.05 618.883 653.17 620.413 648.46C620.713 649.5 620.993 650 620.983 650.5C620.953 652.75 620.903 654.89 621.613 657.17C622.493 660.02 620.743 662.4 618.523 664.12C617.193 665.15 616.753 666.19 616.773 667.85C616.843 675.23 612.073 680.36 604.553 681.12C602.813 681.29 601.053 681.25 599.303 681.2C593.463 681.03 590.443 678.66 588.883 673.1C579.783 672.18 576.433 668.86 577.923 662.24C573.313 658.23 573.003 657.07 575.763 651.59C576.473 650.19 576.413 649.18 575.743 647.86C573.563 643.54 571.473 639.18 569.443 634.78C568.723 633.22 567.953 632.07 566.023 631.82C555.813 630.52 547.783 625.41 542.103 616.99C532.173 602.26 528.903 586.19 536.013 569.56C542.803 553.69 555.383 544.06 572.613 541.16C586.693 538.78 599.703 541.95 611.143 550.35C622.673 558.81 628.453 570.53 629.153 584.86C629.743 596.81 626.453 607.44 619.143 616.85C617.403 619.05 615.523 621.15 613.693 623.33ZM597.523 588.37C598.373 587.77 599.003 587.27 599.683 586.86C603.353 584.62 605.883 585.22 608.213 588.78C610.313 592 610.003 595.3 608.053 598.27C605.633 601.96 602.893 605.48 600.063 608.87C597.683 611.72 596.333 614.74 596.893 618.48C597.233 620.74 597.433 623.02 597.933 625.24C599.253 631.05 600.693 636.84 602.133 642.81C607.253 641.36 612.593 641.07 617.203 637.45C615.693 633.77 614.443 630.08 612.703 626.64C611.283 623.82 612.173 621.73 613.883 619.64C615.243 617.98 616.783 616.46 618.073 614.74C626.693 603.25 629.183 590.28 625.983 576.51C621.033 555.3 603.303 543.77 583.003 542.63C568.593 541.82 556.383 546.86 546.483 557.44C539.753 564.64 535.413 572.83 534.793 582.9C534.273 591.27 535.363 599.36 538.693 606.96C542.493 615.62 547.963 623.13 557.043 626.97C561.063 628.67 565.423 629.56 569.833 630.88C572.623 636.71 575.553 642.84 578.553 649.1C582.603 647.91 586.143 646.87 590.133 645.71C587.373 638.6 584.823 631.68 582.023 624.86C579.343 618.34 575.083 613.12 568.893 609.5C566.593 608.16 564.393 606.51 562.473 604.67C558.113 600.47 558.663 596.25 563.753 593.11C568.053 590.46 573.083 590.09 577.803 588.84C579.873 588.29 582.283 589.08 584.613 589.27C589.633 583.77 591.833 583.57 597.523 588.37ZM600.153 643.25C598.473 635.98 597.003 629.45 595.433 622.94C593.873 616.47 594.823 610.78 599.783 605.91C601.973 603.76 603.833 601.22 605.543 598.66C607.143 596.27 608.033 593.56 606.803 590.64C605.803 588.26 604.113 587.34 602.073 588C599.803 588.74 598.893 590.45 599.433 592.99C599.543 593.51 599.963 594.18 599.773 594.51C599.223 595.48 598.573 596.61 597.663 597.06C597.253 597.27 595.763 596.19 595.413 595.4C595.043 594.57 595.203 593.3 595.553 592.39C596.303 590.47 595.453 589.28 594.063 588.25C591.233 586.13 588.723 587.16 587.163 591.02C588.123 592.15 589.393 593.14 589.923 594.44C590.363 595.51 590.363 597.27 589.733 598.11C589.093 598.97 587.303 599.6 586.273 599.34C585.293 599.1 584.273 597.68 583.933 596.57C583.473 595.1 583.653 593.43 583.553 591.8C580.983 590.5 578.603 589.81 575.833 591.45C576.323 592.09 576.653 592.49 576.943 592.92C577.763 594.13 578.803 595.26 579.323 596.59C580.153 598.71 579.273 600.52 577.623 601.97C575.953 603.43 573.633 603.89 572.023 603.03C570.183 602.06 569.913 600.37 570.063 598.54C570.203 596.72 570.383 594.91 570.553 592.94C567.733 593.04 565.673 594.17 563.813 595.77C560.983 598.2 560.783 600.35 563.553 602.87C565.533 604.67 567.763 606.22 570.043 607.64C575.903 611.31 580.433 616.18 583.223 622.49C585.443 627.52 587.353 632.68 589.333 637.81C590.293 640.28 591.103 642.81 592.063 645.52C594.913 644.71 597.453 644.01 600.153 643.25ZM580.863 667.86C582.603 670.85 585.353 670.92 587.953 670.61C596.213 669.65 604.453 668.39 612.233 665.31C614.413 664.45 616.393 662.91 618.223 661.38C619.943 659.94 620.373 657.91 619.673 655.47C607.793 663.11 594.343 664.65 580.863 667.86ZM590.983 672.94C591.483 675.9 593.033 677.33 595.063 678.25C600.023 680.52 608.253 679.19 612.123 675.33C614.423 673.03 615.963 670.28 615.153 667.13C607.013 669.09 599.113 670.99 590.983 672.94ZM573.463 593.53C571.913 596.02 571.853 598.38 572.443 600.89C574.753 601.6 576.353 601.03 577.173 598.99C577.973 597.02 576.593 594.97 573.463 593.53ZM586.063 593.41C585.943 594.63 585.713 595.2 585.883 595.61C586.143 596.26 586.633 596.83 587.123 597.34C587.213 597.43 588.073 597.05 588.073 596.9C588.053 596.19 587.963 595.44 587.683 594.8C587.523 594.39 586.973 594.15 586.063 593.41Z" fill="black" fill-opacity="0.15"/>
<path d="M671.189 543.17C665.619 546.47 660.559 549.36 655.599 552.43C650.679 555.47 646.949 560.19 641.109 563.16C646.399 554.76 664.689 542.59 671.189 543.17Z" fill="black" fill-opacity="0.15"/>
<path d="M565.079 495C566.759 505.12 568.359 514.79 569.959 524.46C567.839 522.68 567.509 520.29 567.039 518.03C565.839 512.26 564.789 506.45 563.769 500.64C563.449 498.73 563.079 496.69 565.079 495Z" fill="black" fill-opacity="0.15"/>
<path d="M642.469 595.7C646.729 595.32 664.799 599.91 667.319 601.92C665.559 602.79 665.569 602.78 659.259 601.03C656.429 600.24 653.609 599.42 650.739 598.81C647.879 598.19 645.049 597.6 642.469 595.7Z" fill="black" fill-opacity="0.15"/>
<path d="M508.69 575.94C501.18 574.72 493.66 573.5 486 572.26C486.17 570.41 487.73 570.57 488.92 570.72C492.63 571.16 496.33 571.74 500.02 572.35C501.73 572.63 503.44 573.03 505.1 573.53C506.43 573.93 507.68 574.57 508.97 575.11C508.87 575.39 508.78 575.67 508.69 575.94Z" fill="black" fill-opacity="0.15"/>
<path d="M614.516 526.92C617.016 519.33 623.346 512.54 629.166 510.55C629.046 511.26 629.146 512.12 628.846 512.29C624.146 514.96 621.046 519.17 617.866 523.33C616.886 524.63 615.646 525.73 614.516 526.92Z" fill="black" fill-opacity="0.15"/>
<path d="M521.791 614.02C518.141 620.41 510.011 628.91 507.141 629.63C507.971 626.77 516.581 617.42 521.791 614.02Z" fill="black" fill-opacity="0.15"/>
<path d="M514.359 526.56C519.499 526.66 529.239 533.46 531.669 538.61C526.139 534.76 520.599 530.9 514.359 526.56Z" fill="black" fill-opacity="0.15"/>
</g>
<g clip-path="url(#clip2_179_1908)">
<path d="M270.824 610.07C271.204 604.87 271.494 599.65 271.984 594.46C272.454 589.39 273.124 584.34 273.764 578.8C266.084 577.24 258.174 576.97 250.474 575.45C242.874 573.96 234.884 574.8 227.154 571.76C226.814 560.97 228.954 550.41 229.694 539.72C224.354 539.04 219.194 538.38 213.704 537.68C213.524 525.01 216.234 512.79 216.724 500.39C219.864 499.35 228.194 500.31 232.134 502.03C230.664 513.96 229.214 525.74 227.824 537.53C227.794 537.76 228.594 538.1 229.034 538.4C230.514 535.34 233.134 514.34 233.264 504.47C234.524 504.47 235.814 504.35 237.074 504.49C247.074 505.63 257.064 506.87 267.074 507.98C274.024 508.76 280.984 509.44 287.944 510.08C296.634 510.88 305.334 511.59 314.044 512.31C315.604 512.44 316.974 512.77 317.644 514.38C311.334 513.96 305.034 513.59 298.734 513.13C291.624 512.62 284.504 512.24 277.424 511.43C266.894 510.23 256.404 508.67 245.884 507.35C242.584 506.94 239.254 506.82 235.474 506.53C233.194 527.83 230.944 548.84 228.644 570.37C255.564 574.61 282.734 577.16 309.754 581.15C310.164 577.32 310.544 573.73 310.934 570.14C311.834 561.72 312.724 553.31 313.624 544.89C314.274 538.75 314.844 532.6 315.614 526.48C316.124 522.4 316.904 518.36 317.564 514.3C319.234 513.86 318.984 515.11 318.904 515.96C318.444 520.76 317.934 525.56 317.404 530.36C316.794 535.84 316.134 541.31 315.524 546.78C314.514 555.86 313.544 564.93 312.534 574.01C312.194 577.04 311.794 580.07 311.414 583.22C305.984 582.54 300.984 581.92 295.774 581.27C294.874 590.9 294.014 600.21 293.144 609.52C291.684 607.2 291.524 604.73 291.764 602.19C292.294 596.58 292.824 590.97 293.314 585.36C293.384 584.59 293.234 583.8 293.164 582.72C287.294 582.12 281.594 581.53 275.444 580.9C274.484 590.08 273.554 598.94 272.594 608.08C279.274 609.61 285.924 609.08 292.024 611.56C284.844 612.16 277.794 611.33 270.784 609.98L270.824 610.07ZM215.274 535.81C219.084 536.36 222.434 536.85 225.884 537.34C227.184 525.61 228.414 514.45 229.684 502.97C226.274 502.61 222.874 502.25 218.964 501.83C217.724 513.23 216.524 524.24 215.274 535.81Z" fill="black" fill-opacity="0.15"/>
<path d="M270.759 610C271.209 611.11 271.649 612.22 271.939 612.94C278.449 614.08 284.639 615.16 290.979 616.26C290.979 621.54 290.979 626.58 290.979 632C291.849 632.07 293.109 632.11 294.359 632.29C298.859 632.93 301.459 635.89 301.459 640.16C301.449 643.05 300.129 644.91 297.509 646.12C294.459 647.52 291.279 647.74 288.039 647.47C282.429 647.01 276.809 646.62 271.239 645.87C267.009 645.3 263.129 643.84 261.829 638.52C260.089 642.62 256.989 643.71 253.429 643.6C248.999 643.46 244.529 643.32 240.159 642.65C236.529 642.09 232.969 642.1 229.349 642.15C224.209 642.22 222.619 639.66 221.909 635.81C221.059 631.21 224.549 626.85 229.219 626.48C231.489 626.3 233.779 626.45 236.499 626.45C236.729 624.66 236.919 622.99 237.159 621.32C237.649 617.87 238.119 614.42 238.669 610.98C238.959 609.17 240.109 608.57 241.889 608.88C247.159 609.81 252.449 610.69 257.729 611.61C258.829 611.8 258.829 611.83 259.799 609.91C252.899 609.12 246.079 608.34 239.359 607.56C240.159 597.2 240.929 587.22 241.729 576.75C249.609 577.77 257.129 577.47 264.559 580C264.559 580.97 264.619 581.87 264.549 582.77C264.019 589.47 263.539 596.17 262.859 602.86C262.639 605.08 261.919 607.25 261.389 609.44C261.299 609.8 260.919 610.12 260.899 610.47C260.549 616.21 260.239 621.95 259.909 627.81C259.359 628.02 258.669 628.28 258.459 628.36C259.879 631.23 261.259 634.03 262.729 637C263.839 632.38 267.919 631.69 272.189 630.27C271.399 630.04 271.159 629.95 270.909 629.91C270.509 629.84 270.099 629.85 269.719 629.74C269.349 629.63 269.009 629.4 268.229 629.01C271.009 627.09 273.169 628.41 275.269 628.56C277.689 628.74 280.109 628.88 282.519 629.12C284.759 629.34 286.989 629.65 289.559 629.97C289.339 625.74 289.129 621.77 288.899 617.33C283.229 617.04 277.699 615.39 272.079 615.95C270.339 619.57 271.589 623.61 269.439 627.21C268.259 623.89 268.829 618 270.859 610.07C270.829 610.07 270.759 610 270.759 610ZM260.299 607.94C260.999 598.7 261.669 589.92 262.359 580.87C256.329 580.33 250.219 579.79 243.669 579.21C242.879 588.22 242.119 596.86 241.339 605.75C247.629 606.47 253.869 607.19 260.299 607.94ZM234.099 640.13C236.359 640.37 239.139 640.73 241.929 640.96C245.939 641.29 249.949 641.63 253.969 641.73C255.189 641.76 256.629 641.26 257.629 640.53C259.689 639.02 260.119 636.86 259.319 634.41C258.419 631.63 256.729 630.16 253.809 629.93C248.049 629.47 242.289 628.96 236.529 628.66C233.719 628.51 230.859 628.51 228.089 628.92C225.369 629.32 223.899 631.9 224.049 635.04C224.199 638.05 225.699 639.78 228.699 640.1C230.299 640.27 231.919 640.13 234.099 640.13ZM276.729 632.43C274.169 632.88 270.979 633.22 267.919 634.07C265.639 634.7 264.269 636.98 264.419 638.96C264.589 641.17 266.249 642.26 268.039 642.85C270.299 643.6 272.679 644.16 275.049 644.42C278.749 644.83 282.479 645.07 286.209 645.1C289.389 645.13 292.649 645.12 295.729 644.45C298.799 643.78 299.659 642.16 299.469 639.58C299.279 637.03 297.649 635.03 294.959 634.65C289.109 633.84 283.259 633.22 276.729 632.43ZM257.359 626.3C257.919 622.03 258.479 617.84 259.079 613.32C252.879 612.58 246.939 611.87 240.679 611.12C239.999 615.57 239.359 619.73 238.669 624.24C245.009 624.94 250.969 625.6 257.359 626.3Z" fill="black" fill-opacity="0.15"/>
<path d="M331.991 548.17C331.681 536.65 333.721 525.3 334.541 513.51C330.691 513.12 327.021 512.75 322.961 512.33C322.611 513.99 322.131 515.52 322.001 517.07C321.411 524.31 320.991 531.57 320.371 538.81C320.121 541.74 319.531 544.64 319.081 547.69C323.351 549.2 328.051 548.64 332.141 550.95C330.741 551.15 329.331 551.34 327.751 551.56C329.181 552.09 330.431 552.55 331.771 553.05C330.771 564.14 329.881 575.14 327.401 585.95C326.501 575.3 329.301 564.87 329.361 553.99C325.801 553.72 322.641 553.47 319.011 553.2C317.731 564.48 316.501 575.37 315.231 586.59C317.571 586.81 319.541 587.15 321.501 587.15C326.531 587.17 329.331 590.3 331.681 594.14C335.891 600.99 335.041 609.37 329.611 614.52C329.121 614.98 328.651 615.5 328.081 615.81C326.541 616.62 324.951 617.33 323.401 618.07C320.271 613.63 320.851 610.5 325.271 607.76C327.051 606.66 327.831 605.15 327.791 603.06C327.701 597.37 322.341 593.73 317.001 595.88C313.521 597.28 311.431 600.07 310.271 603.53C309.571 605.64 310.731 608.09 312.841 609.38C313.631 609.87 314.551 610.14 315.441 610.53C315.441 612.18 315.561 613.8 315.411 615.38C315.241 617.09 314.251 617.64 312.611 617.09C309.901 616.18 308.141 614.09 306.711 611.8C302.091 604.43 303.701 592.86 311.531 589.18C313.211 588.39 313.171 587 313.341 585.49C314.471 575.07 315.381 564.61 316.981 554.26C317.661 549.9 317.551 545.56 318.001 541.23C318.441 536.95 318.691 532.65 319.041 528.36C319.531 522.49 320.041 516.62 320.571 510.41C326.201 509.89 331.191 511.12 336.701 512.39C335.631 524.54 334.811 536.46 331.991 548.17ZM324.401 615.22C330.491 612.22 333.331 606.65 332.091 600.57C330.751 594.01 325.871 589.58 319.621 589.25C313.731 588.94 308.281 592.66 306.741 598.28C305.361 603.28 306.441 611.45 312.921 615.1C313.771 613.36 313.341 612.15 311.671 611.07C308.411 608.96 307.571 605.81 308.651 602.23C309.891 598.12 312.601 595.19 316.641 593.7C321.591 591.88 326.481 593.99 328.821 598.76C331.241 603.7 330.371 606.65 325.531 609.96C323.371 611.44 323.211 612.06 324.401 615.22Z" fill="black" fill-opacity="0.15"/>
<path d="M217.417 600.02C222.857 596.34 224.577 592.7 223.317 588.24C222.507 585.37 219.517 583.41 215.767 583.3C211.207 583.16 207.867 585.08 206.677 588.51C205.217 592.72 206.737 596.53 211.387 600.02C211.017 601.84 210.627 603.76 210.247 605.6C203.667 605.59 197.307 598.93 199.397 590.22C200.887 584.03 203.637 580.34 209.087 577C209.257 573.86 209.327 570.7 209.637 567.57C210.437 559.28 211.327 550.99 212.207 542.7C212.507 539.87 213.107 539.35 215.717 539.68C218.247 540 220.777 540.36 223.287 540.82C226.087 541.34 226.347 541.58 226.097 544.18C225.227 552.87 224.287 561.56 223.297 570.24C223.167 571.41 222.637 572.54 221.637 573.74C221.497 572.82 221.157 571.87 221.237 570.97C221.767 565.35 222.397 559.75 222.987 554.14C223.377 550.42 223.747 546.7 224.167 542.62C220.897 542.32 217.897 542.05 214.527 541.75C213.277 552.57 212.057 563.18 210.817 573.93C215.227 574.67 219.517 575.4 224.547 576.25C223.437 577.04 223.067 577.31 222.547 577.68C228.337 582.19 231.887 587.9 230.267 595.39C228.987 601.31 224.767 604.99 218.657 607.35C218.217 604.7 217.827 602.4 217.417 600.02ZM208.197 603.53C209.697 601.57 208.227 600.49 207.047 599.18C203.447 595.17 203.017 589.4 205.907 585.44C208.907 581.33 215.457 579.65 220.127 581.98C223.327 583.57 225.337 586.02 225.437 589.9C225.537 594.06 224.707 597.68 221.037 600.12C219.317 601.26 219.787 602.41 220.537 603.79C226.637 601 229.437 595.78 228.277 589.67C227.027 583.08 221.477 578.15 215.177 578C208.717 577.86 203.577 582.46 201.637 590.15C200.107 596.22 202.117 600.33 208.197 603.53Z" fill="black" fill-opacity="0.15"/>
<path d="M242.544 498.63C265.264 502.39 288.124 503.79 311.424 503.52C312.524 489.1 311.924 474.58 315.904 460.64C316.244 460.62 316.584 460.6 316.924 460.58C317.104 461.33 317.574 462.15 317.404 462.82C314.474 474.41 314.684 486.31 313.824 498.1C313.674 500.19 313.434 502.28 313.184 504.97C308.644 505.23 303.874 505.7 299.104 505.72C294.264 505.74 289.424 505.32 284.584 505.08C279.874 504.85 275.154 504.72 270.464 504.33C265.644 503.93 260.834 503.41 256.064 502.67C251.454 501.95 246.704 501.73 242.234 500.31C242.334 499.74 242.434 499.19 242.544 498.63Z" fill="black" fill-opacity="0.15"/>
<path d="M248.628 451.18C253.248 451.02 257.788 452.23 262.948 452.45C263.128 450.51 263.298 448.56 263.478 446.62C263.718 444.06 264.508 443.22 266.848 443.03C268.848 442.86 269.688 443.44 269.648 445.45C269.598 447.85 269.218 450.23 268.928 453.12C276.798 454.08 284.728 455.04 293.258 456.08C293.258 452.57 293.258 449.44 293.258 445.74C295.898 445.96 297.938 446.12 300.298 446.31C300.298 449.91 300.298 453.23 300.298 456.45C305.188 457.95 310.268 456.91 314.548 459.71C303.338 459.9 292.328 457.8 281.248 456.69C270.278 455.59 259.308 454.34 248.398 452.8C248.478 452.27 248.548 451.72 248.628 451.18ZM299.168 456.52C298.968 454.04 298.768 451.95 298.648 449.85C298.518 447.56 297.248 447.81 295.598 448.21C295.598 450.83 295.598 453.2 295.598 455.88C296.758 456.09 297.848 456.29 299.168 456.52ZM267.048 453.39C267.308 450.22 267.508 447.91 267.738 445.03C266.708 445.54 265.808 445.76 265.788 446.03C265.688 448.21 264.388 450.56 267.048 453.39Z" fill="black" fill-opacity="0.15"/>
<path d="M257.375 491.69C257.225 490.45 257.005 489.53 257.025 488.63C257.085 486.18 257.665 485.5 260.185 485.54C263.405 485.6 266.615 485.89 269.825 486.22C276.095 486.85 282.355 487.53 288.605 488.28C293.225 488.84 297.825 489.55 302.725 490.23C302.555 492.74 302.415 494.68 302.295 496.51C287.095 494.88 272.285 493.29 257.375 491.69ZM300.265 491.5C298.025 491.4 295.885 491.42 293.775 491.18C283.385 490.02 272.995 488.77 262.605 487.63C261.425 487.5 259.885 486.93 258.945 489.05C260.545 490.11 262.375 490.3 264.155 490.5C268.415 490.98 272.695 491.36 276.965 491.81C283.905 492.53 290.845 493.27 297.785 494.02C299.295 494.19 300.555 494.1 300.265 491.5Z" fill="black" fill-opacity="0.15"/>
<path d="M240.698 495.4C240.608 494.33 240.388 493.25 240.448 492.19C241.368 476.13 244.748 457.59 247.728 453.14C247.618 455.24 247.678 456.97 247.418 458.65C245.518 470.87 243.558 483.08 241.618 495.29C241.318 495.33 241.008 495.36 240.698 495.4Z" fill="black" fill-opacity="0.15"/>
<path d="M300.03 464.92C301.2 466.71 301.81 467.92 302.68 468.9C305.26 471.78 305.16 474.83 302.07 477.16C299.63 479 296.89 479.82 293.79 478.79C290.63 477.74 289.11 475.79 288.91 472.28C288.71 468.82 290.06 466.51 293.09 465.26C295.65 464.21 298.23 463.77 300.03 464.92ZM291.05 471.96C291.12 475.16 293.38 477.42 296.37 477.27C299.55 477.12 302.58 474.73 302.45 472.47C302.31 470.01 299.12 466.4 297.07 466.39C293.45 466.37 290.98 468.65 291.05 471.96Z" fill="black" fill-opacity="0.15"/>
<path d="M266.278 463.13C265.258 463.03 264.238 462.87 263.218 462.84C260.298 462.77 257.698 464.93 257.258 467.75C256.838 470.42 258.418 473.02 260.888 473.71C263.608 474.48 267.688 472.89 268.288 470.31C268.658 468.71 267.788 466.83 267.508 465.23C269.998 465.85 271.268 468.3 270.238 471.18C269.028 474.57 263.878 476.91 260.108 475.8C256.888 474.85 254.628 470.6 255.428 467.03C256.328 463.04 260.298 460.09 264.018 460.78C264.928 460.95 265.758 461.57 266.618 461.99C266.498 462.38 266.388 462.75 266.278 463.13Z" fill="black" fill-opacity="0.15"/>
<path d="M296.951 559.87C290.221 559.32 284.091 558.81 277.811 558.3C277.691 556.7 279.071 556.14 280.001 555.29C282.581 552.94 285.241 550.67 287.761 548.26C288.891 547.18 290.381 545.83 289.221 544.13C287.951 542.28 286.121 543.58 284.881 544.3C282.461 545.71 280.211 547.46 278.011 549.22C276.331 550.56 274.741 552.04 273.271 553.61C270.341 556.77 266.841 557.69 262.661 556.97C257.501 556.09 252.281 555.56 247.141 554.6C243.291 553.88 242.731 552.83 243.191 549.01C243.871 543.27 244.511 537.53 245.241 531.79C245.991 525.92 248.331 524.33 253.031 524.87C258.231 525.46 263.451 525.83 268.651 526.44C275.721 527.27 282.771 528.25 289.831 529.16C292.361 529.49 294.911 529.76 297.431 530.14C300.181 530.56 300.441 530.98 300.641 533.8C301.111 540.47 299.531 546.89 298.291 553.35C297.871 555.57 297.391 557.77 296.951 559.87ZM298.371 532.66C297.801 532.42 297.441 532.18 297.061 532.13C287.861 530.97 278.651 529.77 269.441 528.69C263.841 528.04 258.231 527.41 252.601 527.08C248.651 526.85 248.021 527.57 247.471 531.59C246.681 537.45 245.951 543.31 245.281 549.19C245.151 550.33 245.411 551.52 245.481 552.7C246.881 552.97 247.921 553.25 248.981 553.36C253.521 553.85 258.111 554.07 262.601 554.82C266.401 555.45 269.261 554.6 272.091 551.88C275.661 548.46 279.621 545.4 283.641 542.51C286.321 540.59 289.801 540.91 291.091 542.6C292.471 544.41 291.771 547.12 289.251 549.79C287.261 551.9 285.281 554.02 282.961 556.5C287.111 556.88 291.041 557.24 294.941 557.6C298.211 543.32 299.431 539.18 298.371 532.66Z" fill="black" fill-opacity="0.15"/>
</g>
<g clip-path="url(#clip3_179_1908)">
<path d="M1174.61 291.764C1174.87 287.85 1175.08 283.92 1175.42 280.013C1175.75 276.197 1176.23 272.395 1176.68 268.225C1171.27 267.051 1165.69 266.848 1160.27 265.703C1154.92 264.582 1149.29 265.214 1143.84 262.926C1143.6 254.803 1145.11 246.854 1145.63 238.807C1141.87 238.295 1138.23 237.798 1134.37 237.272C1134.24 227.734 1136.15 218.535 1136.49 209.201C1138.71 208.418 1144.57 209.141 1147.35 210.436C1146.31 219.416 1145.29 228.284 1144.31 237.159C1144.29 237.332 1144.86 237.588 1145.17 237.814C1146.21 235.51 1148.05 219.702 1148.15 212.272C1149.03 212.272 1149.94 212.182 1150.83 212.287C1157.87 213.146 1164.91 214.079 1171.96 214.915C1176.86 215.502 1181.76 216.014 1186.67 216.495C1192.79 217.098 1198.92 217.632 1205.05 218.174C1206.15 218.272 1207.12 218.52 1207.59 219.732C1203.14 219.416 1198.71 219.138 1194.27 218.791C1189.26 218.407 1184.24 218.121 1179.25 217.512C1171.84 216.608 1164.45 215.434 1157.04 214.44C1154.71 214.132 1152.36 214.041 1149.7 213.823C1148.1 229.857 1146.51 245.672 1144.89 261.879C1163.85 265.071 1183 266.991 1202.03 269.994C1202.32 267.111 1202.59 264.409 1202.86 261.706C1203.5 255.368 1204.12 249.037 1204.76 242.699C1205.22 238.077 1205.62 233.448 1206.16 228.841C1206.52 225.769 1207.07 222.728 1207.53 219.672C1208.71 219.341 1208.53 220.282 1208.48 220.922C1208.15 224.535 1207.79 228.148 1207.42 231.761C1206.99 235.886 1206.53 240.004 1206.1 244.122C1205.38 250.957 1204.7 257.784 1203.99 264.619C1203.75 266.9 1203.47 269.181 1203.2 271.552C1199.37 271.04 1195.85 270.574 1192.18 270.084C1191.55 277.334 1190.94 284.342 1190.33 291.35C1189.3 289.604 1189.19 287.744 1189.36 285.832C1189.73 281.609 1190.1 277.386 1190.45 273.163C1190.5 272.584 1190.39 271.989 1190.34 271.176C1186.21 270.724 1182.19 270.28 1177.86 269.806C1177.18 276.716 1176.53 283.386 1175.85 290.266C1180.56 291.418 1185.24 291.019 1189.54 292.886C1184.48 293.337 1179.52 292.712 1174.58 291.696L1174.61 291.764ZM1135.47 235.864C1138.16 236.278 1140.52 236.647 1142.95 237.016C1143.86 228.186 1144.73 219.785 1145.62 211.143C1143.22 210.872 1140.83 210.601 1138.07 210.285C1137.2 218.867 1136.35 227.154 1135.47 235.864Z" fill="black" fill-opacity="0.15"/>
<path d="M1174.56 291.711C1174.88 292.547 1175.19 293.382 1175.39 293.924C1179.98 294.782 1184.34 295.595 1188.8 296.423C1188.8 300.398 1188.8 304.192 1188.8 308.272C1189.42 308.325 1190.3 308.355 1191.18 308.49C1194.35 308.972 1196.19 311.2 1196.19 314.415C1196.18 316.59 1195.25 317.99 1193.4 318.901C1191.25 319.955 1189.01 320.12 1186.73 319.917C1182.78 319.571 1178.82 319.277 1174.9 318.713C1171.92 318.284 1169.18 317.185 1168.27 313.18C1167.04 316.266 1164.86 317.087 1162.35 317.004C1159.23 316.899 1156.08 316.793 1153 316.289C1150.44 315.867 1147.94 315.875 1145.39 315.912C1141.77 315.965 1140.65 314.038 1140.14 311.14C1139.55 307.677 1142 304.395 1145.29 304.117C1146.89 303.981 1148.51 304.094 1150.42 304.094C1150.59 302.747 1150.72 301.49 1150.89 300.232C1151.23 297.635 1151.56 295.038 1151.95 292.449C1152.16 291.086 1152.97 290.635 1154.22 290.868C1157.93 291.568 1161.66 292.231 1165.38 292.923C1166.15 293.066 1166.15 293.089 1166.84 291.643C1161.98 291.049 1157.17 290.462 1152.44 289.874C1153 282.076 1153.54 274.563 1154.11 266.682C1159.66 267.45 1164.96 267.224 1170.19 269.128C1170.19 269.859 1170.23 270.536 1170.18 271.214C1169.81 276.257 1169.47 281.301 1168.99 286.336C1168.84 288.008 1168.33 289.641 1167.96 291.29C1167.89 291.561 1167.63 291.802 1167.61 292.065C1167.37 296.386 1167.15 300.707 1166.92 305.118C1166.53 305.276 1166.04 305.472 1165.89 305.532C1166.89 307.692 1167.87 309.8 1168.9 312.036C1169.68 308.558 1172.56 308.039 1175.57 306.97C1175.01 306.797 1174.84 306.729 1174.66 306.699C1174.38 306.646 1174.09 306.654 1173.83 306.571C1173.57 306.488 1173.33 306.315 1172.78 306.021C1174.73 304.576 1176.26 305.57 1177.74 305.682C1179.44 305.818 1181.15 305.923 1182.84 306.104C1184.42 306.27 1185.99 306.503 1187.8 306.744C1187.65 303.56 1187.5 300.571 1187.34 297.229C1183.34 297.011 1179.45 295.769 1175.49 296.19C1174.26 298.915 1175.14 301.956 1173.63 304.666C1172.8 302.167 1173.2 297.733 1174.63 291.764C1174.61 291.764 1174.56 291.711 1174.56 291.711ZM1167.19 290.161C1167.68 283.205 1168.16 276.596 1168.64 269.783C1164.39 269.377 1160.09 268.97 1155.47 268.534C1154.92 275.316 1154.38 281.82 1153.83 288.512C1158.26 289.054 1162.66 289.596 1167.19 290.161ZM1148.73 314.392C1150.32 314.573 1152.28 314.844 1154.25 315.017C1157.07 315.265 1159.9 315.521 1162.73 315.596C1163.59 315.619 1164.6 315.243 1165.31 314.693C1166.76 313.556 1167.06 311.93 1166.5 310.086C1165.87 307.993 1164.67 306.887 1162.62 306.714C1158.56 306.367 1154.5 305.984 1150.44 305.758C1148.46 305.645 1146.45 305.645 1144.5 305.953C1142.58 306.255 1141.55 308.197 1141.65 310.56C1141.76 312.826 1142.81 314.128 1144.93 314.369C1146.06 314.497 1147.2 314.392 1148.73 314.392ZM1178.76 308.596C1176.96 308.934 1174.71 309.19 1172.56 309.83C1170.95 310.304 1169.99 312.021 1170.09 313.511C1170.21 315.175 1171.38 315.995 1172.64 316.439C1174.23 317.004 1175.91 317.426 1177.58 317.621C1180.19 317.93 1182.82 318.111 1185.44 318.133C1187.68 318.156 1189.98 318.148 1192.15 317.644C1194.31 317.139 1194.92 315.92 1194.78 313.978C1194.65 312.058 1193.5 310.553 1191.61 310.267C1187.49 309.657 1183.36 309.19 1178.76 308.596ZM1165.12 303.981C1165.51 300.767 1165.91 297.613 1166.33 294.21C1161.96 293.653 1157.78 293.119 1153.37 292.554C1152.89 295.904 1152.44 299.036 1151.95 302.431C1156.42 302.957 1160.62 303.454 1165.12 303.981Z" fill="black" fill-opacity="0.15"/>
<path d="M1217.69 245.168C1217.47 236.496 1218.91 227.952 1219.49 219.077C1216.77 218.784 1214.19 218.505 1211.33 218.189C1211.08 219.439 1210.74 220.59 1210.65 221.757C1210.24 227.207 1209.94 232.672 1209.5 238.122C1209.33 240.328 1208.91 242.511 1208.6 244.807C1211.6 245.943 1214.91 245.522 1217.8 247.261C1216.81 247.411 1215.82 247.554 1214.7 247.72C1215.71 248.119 1216.59 248.465 1217.54 248.842C1216.83 257.19 1216.2 265.47 1214.46 273.607C1213.82 265.591 1215.8 257.739 1215.84 249.549C1213.33 249.346 1211.1 249.158 1208.55 248.955C1207.64 257.446 1206.78 265.643 1205.88 274.089C1207.53 274.255 1208.92 274.511 1210.3 274.511C1213.84 274.526 1215.82 276.882 1217.47 279.773C1220.44 284.929 1219.84 291.237 1216.01 295.114C1215.67 295.46 1215.34 295.852 1214.94 296.085C1213.85 296.695 1212.73 297.229 1211.64 297.786C1209.43 294.444 1209.84 292.088 1212.96 290.025C1214.21 289.197 1214.76 288.06 1214.73 286.487C1214.67 282.204 1210.89 279.464 1207.13 281.082C1204.68 282.136 1203.21 284.236 1202.39 286.841C1201.9 288.429 1202.71 290.274 1204.2 291.245C1204.76 291.614 1205.4 291.817 1206.03 292.11C1206.03 293.352 1206.12 294.572 1206.01 295.761C1205.89 297.048 1205.19 297.462 1204.04 297.048C1202.13 296.363 1200.89 294.79 1199.88 293.066C1196.63 287.519 1197.76 278.809 1203.28 276.039C1204.46 275.444 1204.43 274.398 1204.55 273.261C1205.35 265.417 1205.99 257.544 1207.12 249.752C1207.59 246.47 1207.52 243.203 1207.83 239.944C1208.14 236.722 1208.32 233.485 1208.57 230.256C1208.91 225.837 1209.27 221.419 1209.64 216.744C1213.61 216.352 1217.13 217.278 1221.01 218.234C1220.25 227.38 1219.68 236.353 1217.69 245.168ZM1212.34 295.641C1216.63 293.383 1218.63 289.19 1217.76 284.613C1216.82 279.675 1213.38 276.34 1208.98 276.092C1204.83 275.858 1200.99 278.659 1199.9 282.889C1198.93 286.653 1199.69 292.803 1204.26 295.55C1204.85 294.241 1204.55 293.33 1203.38 292.517C1201.08 290.929 1200.49 288.557 1201.25 285.862C1202.12 282.769 1204.03 280.563 1206.88 279.441C1210.36 278.071 1213.81 279.66 1215.46 283.25C1217.16 286.969 1216.55 289.19 1213.14 291.681C1211.62 292.795 1211.5 293.262 1212.34 295.641Z" fill="black" fill-opacity="0.15"/>
<path d="M1136.98 284.199C1140.81 281.428 1142.02 278.688 1141.14 275.331C1140.57 273.171 1138.46 271.695 1135.82 271.612C1132.61 271.507 1130.25 272.952 1129.41 275.534C1128.39 278.703 1129.46 281.572 1132.73 284.199C1132.47 285.569 1132.2 287.014 1131.93 288.399C1127.29 288.392 1122.81 283.378 1124.29 276.822C1125.33 272.162 1127.27 269.384 1131.11 266.87C1131.23 264.506 1131.28 262.128 1131.5 259.772C1132.06 253.531 1132.69 247.291 1133.31 241.05C1133.52 238.92 1133.94 238.529 1135.78 238.777C1137.56 239.018 1139.35 239.289 1141.12 239.635C1143.09 240.027 1143.27 240.207 1143.09 242.164C1142.48 248.706 1141.82 255.247 1141.12 261.781C1141.03 262.662 1140.66 263.513 1139.95 264.416C1139.85 263.724 1139.61 263.008 1139.67 262.331C1140.04 258.1 1140.49 253.885 1140.9 249.662C1141.18 246.862 1141.44 244.061 1141.74 240.99C1139.43 240.764 1137.32 240.561 1134.94 240.335C1134.06 248.48 1133.2 256.467 1132.33 264.559C1135.44 265.116 1138.46 265.666 1142 266.305C1141.22 266.9 1140.96 267.103 1140.59 267.382C1144.67 270.777 1147.17 275.075 1146.03 280.713C1145.13 285.17 1142.16 287.94 1137.85 289.716C1137.54 287.722 1137.27 285.99 1136.98 284.199ZM1130.48 286.841C1131.54 285.365 1130.51 284.552 1129.67 283.566C1127.14 280.548 1126.84 276.204 1128.87 273.223C1130.98 270.13 1135.6 268.865 1138.89 270.619C1141.14 271.816 1142.56 273.66 1142.63 276.581C1142.7 279.712 1142.12 282.437 1139.53 284.274C1138.32 285.132 1138.65 285.998 1139.18 287.037C1143.48 284.936 1145.45 281.007 1144.63 276.408C1143.75 271.447 1139.84 267.736 1135.4 267.623C1130.85 267.517 1127.23 270.98 1125.86 276.769C1124.79 281.338 1126.2 284.432 1130.48 286.841Z" fill="black" fill-opacity="0.15"/>
<path d="M1154.69 207.876C1170.69 210.706 1186.8 211.76 1203.21 211.557C1203.99 200.702 1203.56 189.772 1206.37 179.279C1206.61 179.264 1206.85 179.248 1207.09 179.233C1207.21 179.798 1207.54 180.415 1207.42 180.92C1205.36 189.644 1205.51 198.602 1204.9 207.477C1204.8 209.05 1204.63 210.624 1204.45 212.648C1201.25 212.844 1197.89 213.198 1194.53 213.213C1191.12 213.228 1187.71 212.912 1184.3 212.731C1180.99 212.558 1177.66 212.46 1174.36 212.167C1170.96 211.866 1167.57 211.474 1164.21 210.917C1160.96 210.375 1157.62 210.21 1154.47 209.141C1154.54 208.712 1154.61 208.298 1154.69 207.876Z" fill="black" fill-opacity="0.15"/>
<path d="M1158.97 172.158C1162.22 172.037 1165.42 172.948 1169.05 173.114C1169.18 171.653 1169.3 170.185 1169.43 168.725C1169.6 166.798 1170.15 166.166 1171.8 166.023C1173.21 165.895 1173.8 166.331 1173.77 167.844C1173.74 169.651 1173.47 171.442 1173.27 173.618C1178.81 174.341 1184.4 175.063 1190.41 175.846C1190.41 173.204 1190.41 170.848 1190.41 168.063C1192.27 168.228 1193.7 168.349 1195.37 168.492C1195.37 171.202 1195.37 173.701 1195.37 176.125C1198.81 177.254 1202.39 176.471 1205.41 178.579C1197.51 178.722 1189.75 177.141 1181.95 176.305C1174.22 175.477 1166.49 174.536 1158.8 173.377C1158.86 172.978 1158.91 172.564 1158.97 172.158ZM1194.57 176.177C1194.43 174.31 1194.29 172.737 1194.2 171.156C1194.11 169.433 1193.22 169.621 1192.06 169.922C1192.06 171.894 1192.06 173.678 1192.06 175.696C1192.87 175.854 1193.64 176.004 1194.57 176.177ZM1171.94 173.821C1172.13 171.435 1172.27 169.696 1172.43 167.528C1171.7 167.912 1171.07 168.078 1171.06 168.281C1170.99 169.922 1170.07 171.691 1171.94 173.821Z" fill="black" fill-opacity="0.15"/>
<path d="M1165.13 202.652C1165.02 201.719 1164.87 201.026 1164.88 200.349C1164.93 198.504 1165.33 197.992 1167.11 198.022C1169.38 198.068 1171.64 198.286 1173.9 198.534C1178.32 199.009 1182.73 199.52 1187.13 200.085C1190.39 200.507 1193.63 201.041 1197.08 201.553C1196.96 203.442 1196.86 204.903 1196.78 206.28C1186.07 205.053 1175.63 203.856 1165.13 202.652ZM1195.35 202.509C1193.77 202.434 1192.26 202.449 1190.77 202.268C1183.45 201.395 1176.13 200.454 1168.81 199.596C1167.98 199.498 1166.9 199.069 1166.24 200.665C1167.36 201.463 1168.65 201.606 1169.91 201.756C1172.91 202.118 1175.92 202.404 1178.93 202.742C1183.82 203.284 1188.71 203.841 1193.6 204.406C1194.66 204.534 1195.55 204.466 1195.35 202.509Z" fill="black" fill-opacity="0.15"/>
<path d="M1153.38 205.445C1153.32 204.639 1153.16 203.826 1153.2 203.028C1153.85 190.939 1156.23 176.983 1158.33 173.633C1158.25 175.214 1158.3 176.516 1158.11 177.781C1156.77 186.979 1155.39 196.17 1154.03 205.362C1153.82 205.392 1153.6 205.414 1153.38 205.445Z" fill="black" fill-opacity="0.15"/>
<path d="M1195.18 182.5C1196 183.848 1196.43 184.759 1197.04 185.496C1198.86 187.664 1198.79 189.96 1196.61 191.714C1194.89 193.099 1192.96 193.717 1190.78 192.941C1188.55 192.151 1187.48 190.683 1187.34 188.041C1187.2 185.436 1188.15 183.697 1190.29 182.756C1192.09 181.966 1193.91 181.635 1195.18 182.5ZM1188.85 187.8C1188.9 190.209 1190.49 191.91 1192.6 191.797C1194.84 191.684 1196.97 189.885 1196.88 188.184C1196.78 186.332 1194.53 183.614 1193.09 183.607C1190.54 183.592 1188.8 185.308 1188.85 187.8Z" fill="black" fill-opacity="0.15"/>
<path d="M1171.4 181.153C1170.68 181.078 1169.96 180.957 1169.24 180.935C1167.19 180.882 1165.35 182.508 1165.04 184.631C1164.75 186.641 1165.86 188.598 1167.6 189.117C1169.52 189.697 1172.39 188.5 1172.81 186.558C1173.07 185.354 1172.46 183.938 1172.26 182.734C1174.02 183.201 1174.91 185.045 1174.19 187.213C1173.34 189.765 1169.71 191.526 1167.05 190.691C1164.78 189.976 1163.19 186.776 1163.75 184.089C1164.39 181.085 1167.19 178.865 1169.81 179.384C1170.45 179.512 1171.03 179.979 1171.64 180.295C1171.55 180.589 1171.48 180.867 1171.4 181.153Z" fill="black" fill-opacity="0.15"/>
<path d="M1193.01 253.975C1188.27 253.561 1183.95 253.177 1179.52 252.793C1179.44 251.589 1180.41 251.167 1181.07 250.527C1182.88 248.758 1184.76 247.05 1186.53 245.236C1187.33 244.423 1188.38 243.406 1187.56 242.127C1186.67 240.734 1185.38 241.713 1184.5 242.255C1182.8 243.316 1181.21 244.633 1179.67 245.958C1178.48 246.967 1177.36 248.081 1176.33 249.263C1174.26 251.642 1171.8 252.334 1168.85 251.792C1165.22 251.13 1161.54 250.731 1157.92 250.008C1155.21 249.466 1154.81 248.676 1155.14 245.8C1155.61 241.479 1156.06 237.158 1156.58 232.838C1157.11 228.419 1158.76 227.222 1162.07 227.628C1165.73 228.073 1169.41 228.351 1173.07 228.81C1178.05 229.435 1183.02 230.173 1187.99 230.858C1189.77 231.106 1191.57 231.309 1193.35 231.596C1195.28 231.912 1195.47 232.228 1195.61 234.351C1195.94 239.372 1194.83 244.204 1193.95 249.067C1193.66 250.738 1193.32 252.394 1193.01 253.975ZM1194.01 233.492C1193.61 233.312 1193.35 233.131 1193.09 233.094C1186.6 232.22 1180.12 231.317 1173.63 230.504C1169.68 230.015 1165.73 229.54 1161.76 229.292C1158.98 229.119 1158.54 229.661 1158.15 232.687C1157.59 237.098 1157.08 241.509 1156.61 245.936C1156.52 246.794 1156.7 247.69 1156.75 248.578C1157.73 248.781 1158.47 248.992 1159.21 249.075C1162.41 249.444 1165.65 249.609 1168.81 250.174C1171.49 250.648 1173.5 250.008 1175.49 247.961C1178.01 245.386 1180.8 243.083 1183.63 240.907C1185.52 239.462 1187.97 239.703 1188.88 240.975C1189.85 242.337 1189.36 244.377 1187.58 246.387C1186.18 247.976 1184.79 249.571 1183.15 251.438C1186.08 251.724 1188.84 251.995 1191.59 252.266C1193.9 241.517 1194.76 238.4 1194.01 233.492Z" fill="black" fill-opacity="0.15"/>
</g>
<defs>
<clipPath id="clip0_179_1908">
<rect width="89.21" height="82.54" fill="white" transform="translate(1113 16)"/>
</clipPath>
<clipPath id="clip1_179_1908">
<rect width="185.19" height="186.21" fill="white" transform="translate(486 495)"/>
</clipPath>
<clipPath id="clip2_179_1908">
<rect width="137.69" height="204.58" fill="white" transform="translate(199 443)"/>
</clipPath>
<clipPath id="clip3_179_1908">
<rect width="97" height="154" fill="white" transform="translate(1124 166)"/>
</clipPath>
</defs>
</svg>
