<svg width="94" height="120" viewBox="0 0 94 120" fill="none" xmlns="http://www.w3.org/2000/svg">
<g clip-path="url(#clip0_456_222)">
<path d="M29.0914 1.56445C29.0914 1.56445 13.0014 25.4145 36.3014 38.1745C59.6014 50.9345 89.7714 74.9445 69.9714 102.874C50.1714 130.814 -5.30857 125.824 1.35143 69.2345C1.35143 69.2345 10.2314 79.7745 20.6814 83.5145C20.6814 83.5245 -22.4986 46.4945 29.0914 1.56445Z" fill="url(#paint0_radial_456_222)"/>
<path d="M34.7913 118.615C25.2613 117.875 17.0713 113.595 11.7313 106.565C6.11134 99.1652 3.84134 89.0051 5.03134 76.8952C8.56134 80.6352 13.7313 85.2551 19.6313 87.9052C19.9913 88.0652 20.3613 88.1552 20.7313 88.1852C21.8913 88.2751 23.0413 87.7552 23.7313 86.7552C24.6413 85.4352 24.4813 83.6451 23.3513 82.5152C23.2113 82.3652 8.74134 67.5352 10.2513 47.6152C11.0713 36.7052 16.4513 26.2052 26.2813 16.2852C25.6013 19.3652 25.3313 22.7352 25.9013 26.1952C27.0313 33.1552 31.1913 39.0252 38.2613 43.6452C50.0913 51.3752 70.3313 66.9252 72.9413 84.3552C74.0713 91.9052 71.8313 98.9352 66.0813 105.845C58.7613 114.645 46.7613 119.545 34.7913 118.615Z" fill="url(#paint1_radial_456_222)"/>
<path d="M43.4523 117.465C42.6023 117.565 41.7423 117.635 40.9023 117.675C32.6323 118.035 25.1923 115.255 19.9323 109.845C16.0123 105.805 13.3123 100.275 11.9523 93.5752C14.7323 95.2152 17.8023 96.6952 21.0323 97.6952C21.8823 97.9552 22.7723 98.0752 23.6623 98.0352C23.8623 98.0252 24.0723 98.0152 24.2623 97.9852C26.8023 97.6752 29.0223 96.1452 30.2023 93.8752C31.9423 90.5652 31.0623 86.4752 28.1123 84.1652C28.0023 84.0752 13.3923 72.1152 12.5723 54.3952C12.2723 47.8052 13.8723 41.0752 17.3323 34.2852C19.9123 41.5452 25.3423 47.2452 33.5023 51.2552C43.1723 56.0152 66.1323 68.7952 70.5423 84.6752C72.2523 90.8252 71.0823 96.7252 66.8823 103.245C61.8923 110.965 53.1323 116.285 43.4523 117.465Z" fill="url(#paint2_radial_456_222)"/>
<path d="M35.7222 0.554688C35.7222 0.554688 26.8722 17.6547 44.0622 29.8547C61.2622 42.0547 84.5622 57.0347 82.9022 82.5547C82.9022 82.5547 102.962 62.5447 87.1022 40.0947C71.2522 17.6547 45.6922 27.2847 35.7222 0.554688Z" fill="url(#paint3_radial_456_222)"/>
<path d="M84.4316 79.4343C82.8616 58.8743 65.7016 44.2543 51.5616 32.1943L49.0516 30.0543C41.8416 23.8643 40.7916 17.1643 41.4516 12.1543C46.8016 21.9943 55.2916 26.1543 63.5516 30.2143C72.0816 34.4043 80.1416 38.3543 85.9216 48.3843C93.5216 61.5543 89.0316 72.7443 84.4316 79.4343Z" fill="url(#paint4_radial_456_222)"/>
</g>
<defs>
<radialGradient id="paint0_radial_456_222" cx="0" cy="0" r="1" gradientUnits="userSpaceOnUse" gradientTransform="translate(45.1771 -1.76525) scale(119.182 119.182)">
<stop stop-color="#FFD034"/>
<stop offset="0.9949" stop-color="#FFA30F"/>
</radialGradient>
<radialGradient id="paint1_radial_456_222" cx="0" cy="0" r="1" gradientUnits="userSpaceOnUse" gradientTransform="translate(50.3958 15.2777) rotate(4.43913) scale(102.89 102.89)">
<stop stop-color="#FFAB09"/>
<stop offset="0.9949" stop-color="#FF811D"/>
</radialGradient>
<radialGradient id="paint2_radial_456_222" cx="0" cy="0" r="1" gradientUnits="userSpaceOnUse" gradientTransform="translate(39.2675 29.1689) rotate(-6.94949) scale(87.1404 87.1404)">
<stop stop-color="#FF7909"/>
<stop offset="0.9949" stop-color="#FF391D"/>
</radialGradient>
<radialGradient id="paint3_radial_456_222" cx="0" cy="0" r="1" gradientUnits="userSpaceOnUse" gradientTransform="translate(45.1768 -1.76512) scale(119.184 119.184)">
<stop stop-color="#FFD034"/>
<stop offset="0.9949" stop-color="#FFA30F"/>
</radialGradient>
<radialGradient id="paint4_radial_456_222" cx="0" cy="0" r="1" gradientUnits="userSpaceOnUse" gradientTransform="translate(51.975 11.3305) rotate(5.24993) scale(95.3458 95.3458)">
<stop stop-color="#FFAB09"/>
<stop offset="0.9949" stop-color="#FF811D"/>
</radialGradient>
<clipPath id="clip0_456_222">
<rect width="92.4" height="118.89" fill="white" transform="translate(0.799988 0.554688)"/>
</clipPath>
</defs>
</svg>
