<svg width="40" height="40" viewBox="0 0 40 40" fill="none" xmlns="http://www.w3.org/2000/svg">
<path fill-rule="evenodd" clip-rule="evenodd" d="M28 12C28.394 11.4747 28.6806 10.877 28.8436 10.2409C29.0065 9.60486 29.0426 8.94292 28.9497 8.29291C28.8569 7.6429 28.6369 7.01755 28.3024 6.45255C27.9678 5.88756 27.5253 5.39399 27 5.00002C26.4747 4.60605 25.877 4.31941 25.2409 4.15645C24.6048 3.99349 23.9429 3.95741 23.2929 4.05027C22.6429 4.14313 22.0175 4.36311 21.4525 4.69765C20.8875 5.03219 20.394 5.47473 20 6.00002C19.2044 4.93915 18.0199 4.23781 16.7071 4.05027C15.3944 3.86274 14.0609 4.20437 13 5.00002C11.9391 5.79567 11.2378 6.98016 11.0503 8.29291C10.8627 9.60567 11.2044 10.9392 12 12H6.5C5.12 12 4 13.12 4 14.5V15.5C4 16.88 5.12 18 6.5 18H18.5V12H21.5V18H33.5C34.88 18 36 16.88 36 15.5V14.5C36 13.12 34.88 12 33.5 12H28ZM26 9.00002C26 9.53045 25.7893 10.0392 25.4142 10.4142C25.0391 10.7893 24.5304 11 24 11H22V9.00002C22 8.46959 22.2107 7.96088 22.5858 7.58581C22.9609 7.21073 23.4696 7.00002 24 7.00002C24.5304 7.00002 25.0391 7.21073 25.4142 7.58581C25.7893 7.96088 26 8.46959 26 9.00002ZM14 9.00002C14 9.53045 14.2107 10.0392 14.5858 10.4142C14.9609 10.7893 15.4696 11 16 11H18V9.00002C18 8.46959 17.7893 7.96088 17.4142 7.58581C17.0391 7.21073 16.5304 7.00002 16 7.00002C15.4696 7.00002 14.9609 7.21073 14.5858 7.58581C14.2107 7.96088 14 8.46959 14 9.00002Z" fill="#009146"/>
<path d="M18.5 21H6V30.5C6 31.9587 6.57946 33.3576 7.61091 34.3891C8.64236 35.4205 10.0413 36 11.5 36H18.5V21ZM21.5 36V21H34V30.5C34 31.9587 33.4205 33.3576 32.3891 34.3891C31.3576 35.4205 29.9587 36 28.5 36H21.5Z" fill="#009146"/>
</svg>
