<svg width="22" height="22" viewBox="0 0 22 22" fill="none" xmlns="http://www.w3.org/2000/svg">
<g clip-path="url(#clip0_378_827)">
<path d="M20.4264 7.25779C20.0161 6.78495 19.509 6.40579 18.9394 6.14598C18.3698 5.88617 17.751 5.75178 17.125 5.75192H13.6346L13.9286 3.96604C14.0327 3.33715 13.9071 2.69181 13.575 2.14774C13.2429 1.60367 12.7262 1.19712 12.1193 1.00223C11.5124 0.807354 10.8556 0.83713 10.2688 1.08613C9.68203 1.33514 9.2043 1.78677 8.92275 2.35867L7.248 5.75192H4.875C3.7151 5.75331 2.60311 6.21469 1.78294 7.03486C0.962772 7.85503 0.501389 8.96702 0.5 10.1269L0.5 14.5019C0.501389 15.6618 0.962772 16.7738 1.78294 17.594C2.60311 18.4141 3.7151 18.8755 4.875 18.8769H16.5125C17.5655 18.8726 18.582 18.4904 19.3771 17.7999C20.1721 17.1094 20.6929 16.1565 20.8446 15.1144L21.4615 10.7394C21.5484 10.1188 21.5009 9.48678 21.3223 8.8861C21.1437 8.28543 20.8382 7.73013 20.4264 7.25779ZM2.25 14.5019V10.1269C2.25 9.43072 2.52656 8.76304 3.01884 8.27076C3.51113 7.77848 4.17881 7.50192 4.875 7.50192H6.625V17.1269H4.875C4.17881 17.1269 3.51113 16.8504 3.01884 16.3581C2.52656 15.8658 2.25 15.1981 2.25 14.5019ZM19.7246 10.4935L19.1069 14.8685C19.0166 15.4933 18.705 16.0649 18.2289 16.4793C17.7528 16.8938 17.1437 17.1236 16.5125 17.1269H8.375V7.26917C8.45746 7.19733 8.52572 7.11066 8.57625 7.01367L10.4916 3.13304C10.5635 3.00348 10.665 2.89281 10.7879 2.81013C10.9108 2.72745 11.0516 2.67512 11.1987 2.65744C11.3458 2.63976 11.495 2.65724 11.634 2.70843C11.773 2.75962 11.8979 2.84307 11.9984 2.95192C12.0843 3.05188 12.1472 3.16959 12.1824 3.29664C12.2177 3.42369 12.2244 3.55695 12.2023 3.68692L11.7403 6.48692C11.72 6.61202 11.7271 6.74004 11.7612 6.86212C11.7953 6.9842 11.8554 7.09741 11.9376 7.19394C12.0197 7.29047 12.1218 7.368 12.2369 7.42118C12.3519 7.47435 12.4771 7.5019 12.6039 7.50192H17.125C17.5007 7.50187 17.8721 7.58247 18.214 7.73829C18.5559 7.89411 18.8603 8.12151 19.1068 8.40512C19.3532 8.68873 19.5359 9.02194 19.6425 9.38223C19.7491 9.74252 19.7771 10.1215 19.7246 10.4935Z" fill="#171A1F"/>
</g>
<defs>
<clipPath id="clip0_378_827">
<rect width="21" height="21" fill="white" transform="translate(0.5 0.5)"/>
</clipPath>
</defs>
</svg>
