<svg width="24" height="25" viewBox="0 0 24 25" fill="none" xmlns="http://www.w3.org/2000/svg">
<g clip-path="url(#clip0_456_273)">
<path d="M19 8.86834V7.44432C19 3.57835 15.866 0.444336 12 0.444336C8.13397 0.444336 5 3.57835 5 7.44432V8.86834C3.18003 9.66263 2.00263 11.4586 2 13.4443V19.4443C2.00328 22.2044 4.23992 24.4411 6.99997 24.4443H17C19.76 24.4411 21.9966 22.2044 22 19.4443V13.4443C21.9974 11.4586 20.8199 9.66263 19 8.86834ZM13 17.4444C13 17.9966 12.5523 18.4443 12 18.4443C11.4477 18.4443 11 17.9966 11 17.4444V15.4443C11 14.8921 11.4477 14.4444 12 14.4444C12.5523 14.4444 13 14.8921 13 15.4443V17.4444ZM17 8.44435H6.99997V7.44437C6.99997 4.68296 9.23853 2.44435 12 2.44435C14.7614 2.44435 17 4.68291 17 7.44437V8.44435Z" fill="#717484"/>
</g>
<defs>
<clipPath id="clip0_456_273">
<rect width="24" height="24" fill="white" transform="translate(0 0.444336)"/>
</clipPath>
</defs>
</svg>
