<svg width="19" height="18" viewBox="0 0 19 18" fill="none" xmlns="http://www.w3.org/2000/svg">
<path d="M15.3333 7.83333H10.6667V3.16667C10.6667 2.85725 10.5437 2.5605 10.325 2.34171C10.1062 2.12292 9.80942 2 9.5 2C9.19058 2 8.89383 2.12292 8.67504 2.34171C8.45625 2.5605 8.33333 2.85725 8.33333 3.16667V7.83333H3.66667C3.35725 7.83333 3.0605 7.95625 2.84171 8.17504C2.62292 8.39383 2.5 8.69058 2.5 9C2.5 9.30942 2.62292 9.60616 2.84171 9.82496C3.0605 10.0437 3.35725 10.1667 3.66667 10.1667H8.33333V14.8333C8.33333 15.1428 8.45625 15.4395 8.67504 15.6583C8.89383 15.8771 9.19058 16 9.5 16C9.80942 16 10.1062 15.8771 10.325 15.6583C10.5437 15.4395 10.6667 15.1428 10.6667 14.8333V10.1667H15.3333C15.6428 10.1667 15.9395 10.0437 16.1583 9.82496C16.3771 9.60616 16.5 9.30942 16.5 9C16.5 8.69058 16.3771 8.39383 16.1583 8.17504C15.9395 7.95625 15.6428 7.83333 15.3333 7.83333Z" fill="white"/>
</svg>
