<svg width="18" height="18" viewBox="0 0 18 18" fill="none" xmlns="http://www.w3.org/2000/svg">
<path d="M14.8333 7.83333H10.1667V3.16667C10.1667 2.85725 10.0437 2.5605 9.82496 2.34171C9.60616 2.12292 9.30942 2 9 2C8.69058 2 8.39383 2.12292 8.17504 2.34171C7.95625 2.5605 7.83333 2.85725 7.83333 3.16667V7.83333H3.16667C2.85725 7.83333 2.5605 7.95625 2.34171 8.17504C2.12292 8.39383 2 8.69058 2 9C2 9.30942 2.12292 9.60616 2.34171 9.82496C2.5605 10.0437 2.85725 10.1667 3.16667 10.1667H7.83333V14.8333C7.83333 15.1428 7.95625 15.4395 8.17504 15.6583C8.39383 15.8771 8.69058 16 9 16C9.30942 16 9.60616 15.8771 9.82496 15.6583C10.0437 15.4395 10.1667 15.1428 10.1667 14.8333V10.1667H14.8333C15.1428 10.1667 15.4395 10.0437 15.6583 9.82496C15.8771 9.60616 16 9.30942 16 9C16 8.69058 15.8771 8.39383 15.6583 8.17504C15.4395 7.95625 15.1428 7.83333 14.8333 7.83333Z" fill="#151B4A"/>
</svg>
