<svg width="22" height="22" viewBox="0 0 22 22" fill="none" xmlns="http://www.w3.org/2000/svg">
<path d="M21.7096 0.730746C21.2856 0.0197457 20.3646 -0.210254 19.6536 0.209746C19.4566 0.327746 15.3306 2.80675 11.0036 6.94775C6.67657 2.80675 2.55057 0.327746 2.35357 0.210746C1.64357 -0.211254 0.722572 0.0197458 0.297572 0.731746C-0.126428 1.44375 0.106572 2.36375 0.818572 2.78875C0.863572 2.81575 4.81157 5.18674 8.90057 9.09074C4.20957 14.1827 1.34157 19.5677 1.21957 19.7997C0.832572 20.5317 1.11257 21.4397 1.84457 21.8257C2.06857 21.9437 2.30757 21.9997 2.54357 21.9997C3.08257 21.9997 3.60257 21.7097 3.87157 21.1997C3.89957 21.1467 6.63257 16.0147 11.0036 11.2357C15.3626 16.0027 18.1076 21.1477 18.1356 21.2007C18.4046 21.7097 18.9256 21.9997 19.4636 21.9997C19.6996 21.9997 19.9396 21.9437 20.1626 21.8257C20.8946 21.4377 21.1756 20.5317 20.7876 19.7997C20.6656 19.5677 17.7976 14.1827 13.1066 9.09074C17.1866 5.19775 21.1446 2.81475 21.1896 2.78775C21.9006 2.36275 22.1326 1.44275 21.7096 0.730746Z" fill="#E30E0E"/>
</svg>
