<svg width="16" height="16" viewBox="0 0 16 16" fill="none" xmlns="http://www.w3.org/2000/svg">
<g clip-path="url(#clip0_421_28638)">
<path d="M0.666667 3.1666H2.49067C2.63376 3.69308 2.94612 4.15786 3.37955 4.48922C3.81299 4.82057 4.34341 5.0001 4.889 5.0001C5.43459 5.0001 5.96501 4.82057 6.39845 4.48922C6.83188 4.15786 7.14424 3.69308 7.28733 3.1666H15.3333C15.5101 3.1666 15.6797 3.09636 15.8047 2.97133C15.9298 2.84631 16 2.67674 16 2.49993C16 2.32312 15.9298 2.15355 15.8047 2.02852C15.6797 1.9035 15.5101 1.83326 15.3333 1.83326H7.28733C7.14424 1.30677 6.83188 0.841999 6.39845 0.510641C5.96501 0.179283 5.43459 -0.000244141 4.889 -0.000244141C4.34341 -0.000244141 3.81299 0.179283 3.37955 0.510641C2.94612 0.841999 2.63376 1.30677 2.49067 1.83326H0.666667C0.489856 1.83326 0.320286 1.9035 0.195262 2.02852C0.0702379 2.15355 0 2.32312 0 2.49993C0 2.67674 0.0702379 2.84631 0.195262 2.97133C0.320286 3.09636 0.489856 3.1666 0.666667 3.1666ZM4.88867 1.33326C5.11941 1.33326 5.34497 1.40169 5.53683 1.52988C5.72869 1.65808 5.87822 1.84028 5.96653 2.05346C6.05483 2.26665 6.07793 2.50122 6.03292 2.72753C5.9879 2.95385 5.87679 3.16173 5.71362 3.32489C5.55046 3.48805 5.34258 3.59916 5.11627 3.64418C4.88996 3.68919 4.65538 3.66609 4.4422 3.57779C4.22902 3.48949 4.04681 3.33995 3.91862 3.14809C3.79042 2.95624 3.722 2.73067 3.722 2.49993C3.72235 2.19062 3.84538 1.89408 4.0641 1.67536C4.28281 1.45664 4.57936 1.33361 4.88867 1.33326Z" fill="#6F6F6F"/>
<path d="M15.3333 7.33416H13.5093C13.3665 6.80755 13.0542 6.3426 12.6208 6.01111C12.1874 5.67961 11.657 5.5 11.1113 5.5C10.5657 5.5 10.0352 5.67961 9.60182 6.01111C9.16842 6.3426 8.85619 6.80755 8.71333 7.33416H0.666667C0.489856 7.33416 0.320286 7.40439 0.195262 7.52942C0.0702379 7.65444 0 7.82401 0 8.00082C0 8.17763 0.0702379 8.3472 0.195262 8.47223C0.320286 8.59725 0.489856 8.66749 0.666667 8.66749H8.71333C8.85619 9.1941 9.16842 9.65904 9.60182 9.99054C10.0352 10.322 10.5657 10.5016 11.1113 10.5016C11.657 10.5016 12.1874 10.322 12.6208 9.99054C13.0542 9.65904 13.3665 9.1941 13.5093 8.66749H15.3333C15.5101 8.66749 15.6797 8.59725 15.8047 8.47223C15.9298 8.3472 16 8.17763 16 8.00082C16 7.82401 15.9298 7.65444 15.8047 7.52942C15.6797 7.40439 15.5101 7.33416 15.3333 7.33416ZM11.1113 9.16749C10.8806 9.16749 10.655 9.09907 10.4632 8.97087C10.2713 8.84268 10.1218 8.66047 10.0335 8.44729C9.94517 8.23411 9.92207 7.99953 9.96708 7.77322C10.0121 7.54691 10.1232 7.33903 10.2864 7.17586C10.4495 7.0127 10.6574 6.90159 10.8837 6.85657C11.11 6.81156 11.3446 6.83466 11.5578 6.92296C11.771 7.01127 11.9532 7.1608 12.0814 7.35266C12.2096 7.54451 12.278 7.77008 12.278 8.00082C12.2776 8.31013 12.1546 8.60667 11.9359 8.82539C11.7172 9.04411 11.4206 9.16714 11.1113 9.16749Z" fill="#6F6F6F"/>
<path d="M15.3333 12.8333H7.28733C7.14424 12.3068 6.83188 11.842 6.39845 11.5106C5.96501 11.1793 5.43459 10.9998 4.889 10.9998C4.34341 10.9998 3.81299 11.1793 3.37955 11.5106C2.94612 11.842 2.63376 12.3068 2.49067 12.8333H0.666667C0.489856 12.8333 0.320286 12.9035 0.195262 13.0285C0.0702379 13.1535 0 13.3231 0 13.4999C0 13.6767 0.0702379 13.8463 0.195262 13.9713C0.320286 14.0964 0.489856 14.1666 0.666667 14.1666H2.49067C2.63376 14.6931 2.94612 15.1579 3.37955 15.4892C3.81299 15.8206 4.34341 16.0001 4.889 16.0001C5.43459 16.0001 5.96501 15.8206 6.39845 15.4892C6.83188 15.1579 7.14424 14.6931 7.28733 14.1666H15.3333C15.5101 14.1666 15.6797 14.0964 15.8047 13.9713C15.9298 13.8463 16 13.6767 16 13.4999C16 13.3231 15.9298 13.1535 15.8047 13.0285C15.6797 12.9035 15.5101 12.8333 15.3333 12.8333ZM4.88867 14.6666C4.65792 14.6666 4.43236 14.5982 4.2405 14.47C4.04864 14.3418 3.89911 14.1596 3.81081 13.9464C3.72251 13.7332 3.6994 13.4986 3.74442 13.2723C3.78943 13.046 3.90055 12.8381 4.06371 12.675C4.22687 12.5118 4.43475 12.4007 4.66106 12.3557C4.88737 12.3107 5.12195 12.3338 5.33513 12.4221C5.54831 12.5104 5.73052 12.6599 5.85871 12.8518C5.98691 13.0436 6.05533 13.2692 6.05533 13.4999C6.0548 13.8092 5.93172 14.1056 5.71304 14.3243C5.49436 14.543 5.19792 14.6661 4.88867 14.6666Z" fill="#6F6F6F"/>
</g>
<defs>
<clipPath id="clip0_421_28638">
<rect width="16" height="16" fill="white"/>
</clipPath>
</defs>
</svg>
