<svg width="21" height="20" viewBox="0 0 21 20" fill="none" xmlns="http://www.w3.org/2000/svg">
<g clip-path="url(#clip0_421_28781)">
<path d="M18.8335 19.1667C18.8335 19.6275 18.461 20 18.0002 20H14.5735C14.0019 20 13.476 19.69 13.1994 19.19C12.9227 18.6908 12.9385 18.08 13.2402 17.5958C13.2652 17.555 17.0352 13.3333 17.0352 13.3333H13.8344C13.3735 13.3333 13.001 12.9608 13.001 12.5C13.001 12.0392 13.3735 11.6667 13.8344 11.6667H17.261C17.8327 11.6667 18.3585 11.9767 18.6352 12.4767C18.9119 12.9758 18.896 13.5867 18.5944 14.0708C18.5694 14.1117 14.7994 18.3333 14.7994 18.3333H18.0002C18.461 18.3333 18.8335 18.7058 18.8335 19.1667ZM18.8335 2.91667V7.5C18.8335 7.96083 18.461 8.33333 18.0002 8.33333C17.5394 8.33333 17.1669 7.96083 17.1669 7.5V5.83333H14.6669V7.5C14.6669 7.96083 14.2944 8.33333 13.8335 8.33333C13.3727 8.33333 13.0002 7.96083 13.0002 7.5V2.91667C13.0002 1.30833 14.3085 0 15.9169 0C17.5252 0 18.8335 1.30833 18.8335 2.91667ZM17.1669 2.91667C17.1669 2.2275 16.606 1.66667 15.9169 1.66667C15.2277 1.66667 14.6669 2.2275 14.6669 2.91667V4.16667H17.1669V2.91667ZM9.07771 14.7558L6.33354 17.5V0.833333C6.33354 0.3725 5.96104 0 5.50021 0C5.03938 0 4.66687 0.3725 4.66687 0.833333V17.5L1.92271 14.7558C1.59688 14.43 1.07021 14.43 0.744375 14.7558C0.418542 15.0817 0.418542 15.6083 0.744375 15.9342L4.32188 19.5117C4.64687 19.8367 5.07354 19.9992 5.50021 19.9992C5.92688 19.9992 6.35354 19.8367 6.67854 19.5117L10.256 15.9342C10.5819 15.6083 10.5819 15.0817 10.256 14.7558C9.93021 14.43 9.40354 14.43 9.07771 14.7558Z" fill="#009146"/>
</g>
<defs>
<clipPath id="clip0_421_28781">
<rect width="20" height="20" fill="white" transform="translate(0.5)"/>
</clipPath>
</defs>
</svg>
