<svg width="28" height="28" viewBox="0 0 28 28" fill="none" xmlns="http://www.w3.org/2000/svg">
<rect width="28" height="28" rx="8" fill="#F0F0F0"/>
<g clip-path="url(#clip0_533_32548)">
<path d="M8.77329 19.0182C8.0772 19.0384 7.63966 18.5937 7.68938 17.9771C7.74905 17.209 7.80871 16.4408 7.90815 15.6827C7.93798 15.4705 8.0772 15.2582 8.17664 15.0561C8.20647 14.9954 8.26614 14.9449 8.3258 14.8944C11.0306 12.1451 13.7354 9.39594 16.4501 6.64672C17.2854 5.7977 18.5881 5.7876 19.4234 6.63662C19.6123 6.82866 19.8112 7.0207 19.9902 7.21274C20.7062 8.01122 20.7062 9.19379 19.9902 9.98216C19.7217 10.2753 19.4333 10.5583 19.1549 10.8413C16.7484 13.2873 14.342 15.7232 11.9454 18.1793C11.5477 18.5836 11.13 18.8362 10.5632 18.8565C9.93674 18.8767 9.32021 18.9676 8.77329 19.0182ZM15.8236 8.88046C15.8037 8.90067 15.7839 8.91078 15.7739 8.931C13.5464 11.1951 11.3289 13.449 9.11138 15.7232C9.05172 15.7838 9.01194 15.895 9.002 15.986C8.95228 16.4206 8.92245 16.8552 8.88267 17.2898C8.86278 17.4717 8.85284 17.6638 8.84289 17.8457C8.9125 17.8457 8.96222 17.8457 9.01194 17.8457C9.57876 17.7952 10.1456 17.7446 10.7124 17.684C10.8218 17.6739 10.9411 17.593 11.0206 17.5122C13.1785 15.2987 15.3563 13.0851 17.534 10.8716C17.5738 10.8312 17.6136 10.7806 17.6533 10.7402C17.0467 10.1136 16.4402 9.49701 15.8236 8.88046ZM18.4886 9.91141C18.6975 9.69916 18.9162 9.4869 19.1251 9.25443C19.483 8.88046 19.493 8.34477 19.1449 7.96069C18.956 7.74843 18.7571 7.55639 18.5582 7.36435C18.2699 7.09145 17.8323 7.01059 17.5141 7.24306C17.186 7.46542 16.9175 7.76865 16.639 8.02133C17.2755 8.6682 17.8721 9.28475 18.4886 9.91141Z" fill="#112F82"/>
<path d="M14.0042 22.0002C11.558 22.0002 9.12167 22.0002 6.67543 22.0002C6.53621 22.0002 6.397 21.98 6.27767 21.9193C6.0589 21.8183 5.9694 21.5757 6.00918 21.3331C6.03901 21.1208 6.218 20.9389 6.42683 20.8884C6.50638 20.8682 6.58593 20.8682 6.66549 20.8682C11.548 20.8682 16.4405 20.8682 21.323 20.8682C21.7506 20.8682 22.0092 21.1006 21.9893 21.4645C21.9793 21.7475 21.7606 21.98 21.4821 22.0002C21.4125 22.0103 21.3429 22.0002 21.2733 22.0002C18.8569 22.0002 16.4306 22.0002 14.0042 22.0002Z" fill="#112F82"/>
</g>
<defs>
<clipPath id="clip0_533_32548">
<rect width="16" height="16" fill="white" transform="translate(6 6)"/>
</clipPath>
</defs>
</svg>
