<svg width="16" height="16" viewBox="0 0 16 16" fill="none" xmlns="http://www.w3.org/2000/svg">
<path d="M14.0007 2.66667H11.934C11.7793 1.91428 11.3699 1.23823 10.7748 0.752479C10.1798 0.266727 9.43546 0.000969683 8.66732 0L7.33399 0C6.56585 0.000969683 5.82153 0.266727 5.22648 0.752479C4.63144 1.23823 4.22205 1.91428 4.06732 2.66667H2.00065C1.82384 2.66667 1.65427 2.7369 1.52925 2.86193C1.40422 2.98695 1.33398 3.15652 1.33398 3.33333C1.33398 3.51014 1.40422 3.67971 1.52925 3.80474C1.65427 3.92976 1.82384 4 2.00065 4H2.66732V12.6667C2.66838 13.5504 3.01991 14.3976 3.6448 15.0225C4.26969 15.6474 5.11692 15.9989 6.00065 16H10.0007C10.8844 15.9989 11.7316 15.6474 12.3565 15.0225C12.9814 14.3976 13.3329 13.5504 13.334 12.6667V4H14.0007C14.1775 4 14.347 3.92976 14.4721 3.80474C14.5971 3.67971 14.6673 3.51014 14.6673 3.33333C14.6673 3.15652 14.5971 2.98695 14.4721 2.86193C14.347 2.7369 14.1775 2.66667 14.0007 2.66667ZM7.33399 1.33333H8.66732C9.08083 1.33384 9.48407 1.46225 9.82173 1.70096C10.1594 1.93967 10.4149 2.27699 10.5533 2.66667H5.44798C5.58637 2.27699 5.84192 1.93967 6.17958 1.70096C6.51723 1.46225 6.92047 1.33384 7.33399 1.33333ZM12.0007 12.6667C12.0007 13.1971 11.7899 13.7058 11.4149 14.0809C11.0398 14.456 10.5311 14.6667 10.0007 14.6667H6.00065C5.47022 14.6667 4.96151 14.456 4.58644 14.0809C4.21137 13.7058 4.00065 13.1971 4.00065 12.6667V4H12.0007V12.6667Z" fill="#112F82"/>
</svg>
