<svg width="16" height="16" viewBox="0 0 16 16" fill="none" xmlns="http://www.w3.org/2000/svg">
<g clip-path="url(#clip0_533_32589)">
<path d="M2.77329 13.0182C2.0772 13.0384 1.63966 12.5937 1.68938 11.9771C1.74905 11.209 1.80871 10.4408 1.90815 9.68273C1.93798 9.47048 2.0772 9.25822 2.17664 9.05608C2.20647 8.99543 2.26614 8.94489 2.3258 8.89436C5.03059 6.14515 7.73537 3.39594 10.4501 0.646725C11.2854 -0.202296 12.5881 -0.212404 13.4234 0.636617C13.6123 0.828658 13.8112 1.0207 13.9902 1.21274C14.7062 2.01122 14.7062 3.19379 13.9902 3.98216C13.7217 4.27528 13.4333 4.55829 13.1549 4.84129C10.7484 7.28728 8.34196 9.72316 5.94544 12.1793C5.54768 12.5836 5.13003 12.8362 4.56322 12.8565C3.93674 12.8767 3.32021 12.9676 2.77329 13.0182ZM9.82363 2.88046C9.80374 2.90067 9.78385 2.91078 9.77391 2.931C7.54644 5.19505 5.32891 7.449 3.11138 9.72316C3.05172 9.78381 3.01194 9.89499 3.002 9.98596C2.95228 10.4206 2.92245 10.8552 2.88267 11.2898C2.86278 11.4717 2.85284 11.6638 2.84289 11.8457C2.9125 11.8457 2.96222 11.8457 3.01194 11.8457C3.57876 11.7952 4.14557 11.7446 4.71238 11.684C4.82176 11.6739 4.94109 11.593 5.02064 11.5122C7.17851 9.29865 9.35626 7.08513 11.534 4.87161C11.5738 4.83119 11.6136 4.78065 11.6533 4.74022C11.0467 4.11356 10.4402 3.49701 9.82363 2.88046ZM12.4886 3.91141C12.6975 3.69916 12.9162 3.4869 13.1251 3.25443C13.483 2.88046 13.493 2.34477 13.1449 1.96069C12.956 1.74843 12.7571 1.55639 12.5582 1.36435C12.2699 1.09145 11.8323 1.01059 11.5141 1.24306C11.186 1.46542 10.9175 1.76865 10.639 2.02133C11.2755 2.6682 11.8721 3.28475 12.4886 3.91141Z" fill="#112F82"/>
<path d="M8.00421 16.0002C5.55797 16.0002 3.12167 16.0002 0.675431 16.0002C0.536215 16.0002 0.396998 15.98 0.277669 15.9193C0.0588995 15.8183 -0.0305971 15.5757 0.00917913 15.3331C0.0390113 15.1208 0.218004 14.9389 0.42683 14.8884C0.506382 14.8682 0.585935 14.8682 0.665487 14.8682C5.54802 14.8682 10.4405 14.8682 15.323 14.8682C15.7506 14.8682 16.0092 15.1006 15.9893 15.4645C15.9793 15.7475 15.7606 15.98 15.4821 16.0002C15.4125 16.0103 15.3429 16.0002 15.2733 16.0002C12.8569 16.0002 10.4306 16.0002 8.00421 16.0002Z" fill="#112F82"/>
</g>
<defs>
<clipPath id="clip0_533_32589">
<rect width="16" height="16" fill="white"/>
</clipPath>
</defs>
</svg>
