<svg width="348" height="180" viewBox="0 0 348 180" fill="none" xmlns="http://www.w3.org/2000/svg">
<g clip-path="url(#clip0_375_4574)">
<path d="M83.5405 127.066C77.3671 127.066 72.3364 122.052 72.3364 115.898C72.3364 109.745 77.3671 104.73 83.5405 104.73C89.714 104.73 94.7446 109.745 94.7446 115.898C94.7446 122.052 89.7252 127.066 83.5405 127.066ZM83.5405 108.081C79.2157 108.081 75.6977 111.588 75.6977 115.898C75.6977 120.209 79.2157 123.716 83.5405 123.716C87.8653 123.716 91.3834 120.209 91.3834 115.898C91.3834 111.588 87.8653 108.081 83.5405 108.081Z" fill="#EF9926"/>
<path d="M326.453 65.5646C324.291 65.5646 322.532 63.8112 322.532 61.6558C322.532 59.5004 324.291 57.7471 326.453 57.7471C328.616 57.7471 330.375 59.5004 330.375 61.6558C330.375 63.8112 328.616 65.5646 326.453 65.5646ZM326.453 58.8639C324.907 58.8639 323.652 60.1147 323.652 61.6558C323.652 63.197 324.907 64.4478 326.453 64.4478C327.999 64.4478 329.254 63.197 329.254 61.6558C329.254 60.1147 327.999 58.8639 326.453 58.8639Z" fill="#FFEB97"/>
<path d="M121.7 168.287C119.168 168.287 117.106 166.232 117.106 163.708C117.106 161.184 119.168 159.129 121.7 159.129C124.232 159.129 126.293 161.184 126.293 163.708C126.293 166.232 124.232 168.287 121.7 168.287ZM121.7 160.469C119.907 160.469 118.45 161.921 118.45 163.708C118.45 165.495 119.907 166.946 121.7 166.946C123.492 166.946 124.949 165.495 124.949 163.708C124.949 161.921 123.492 160.469 121.7 160.469Z" fill="#EA3F3F"/>
<path d="M283.452 112.201C286.237 112.201 288.494 109.951 288.494 107.176C288.494 104.4 286.237 102.15 283.452 102.15C280.668 102.15 278.411 104.4 278.411 107.176C278.411 109.951 280.668 112.201 283.452 112.201Z" fill="#FFAE1F"/>
<path d="M74.7422 54.9103C76.908 54.9103 78.6637 53.1603 78.6637 51.0015C78.6637 48.8428 76.908 47.0928 74.7422 47.0928C72.5765 47.0928 70.8208 48.8428 70.8208 51.0015C70.8208 53.1603 72.5765 54.9103 74.7422 54.9103Z" fill="#FFAE1F"/>
<path d="M244.877 31.2576C247.352 31.2576 249.358 29.2575 249.358 26.7904C249.358 24.3233 247.352 22.3232 244.877 22.3232C242.402 22.3232 240.395 24.3233 240.395 26.7904C240.395 29.2575 242.402 31.2576 244.877 31.2576Z" fill="#FFD522"/>
<path d="M14.029 143.718C16.5041 143.718 18.5106 141.718 18.5106 139.25C18.5106 136.783 16.5041 134.783 14.029 134.783C11.5539 134.783 9.54736 136.783 9.54736 139.25C9.54736 141.718 11.5539 143.718 14.029 143.718Z" fill="#FFD522"/>
<path d="M329.412 151.177C331.269 151.177 332.774 149.677 332.774 147.827C332.774 145.977 331.269 144.477 329.412 144.477C327.556 144.477 326.051 145.977 326.051 147.827C326.051 149.677 327.556 151.177 329.412 151.177Z" fill="#FFD522"/>
<path d="M103.023 97.0355C105.807 97.0355 108.065 94.7855 108.065 92.0099C108.065 89.2344 105.807 86.9844 103.023 86.9844C100.238 86.9844 97.981 89.2344 97.981 92.0099C97.981 94.7855 100.238 97.0355 103.023 97.0355Z" fill="#112F82"/>
<path d="M215.017 3.449C215.945 3.449 216.698 2.69899 216.698 1.77382C216.698 0.848638 215.945 0.0986328 215.017 0.0986328C214.089 0.0986328 213.336 0.848638 213.336 1.77382C213.336 2.69899 214.089 3.449 215.017 3.449Z" fill="#112F82"/>
<path d="M37.2983 130.182C38.2265 130.182 38.9789 129.432 38.9789 128.507C38.9789 127.582 38.2265 126.832 37.2983 126.832C36.3701 126.832 35.6177 127.582 35.6177 128.507C35.6177 129.432 36.3701 130.182 37.2983 130.182Z" fill="#112F82"/>
<path d="M117.779 119.807C118.707 119.807 119.459 119.057 119.459 118.132C119.459 117.207 118.707 116.457 117.779 116.457C116.851 116.457 116.098 117.207 116.098 118.132C116.098 119.057 116.851 119.807 117.779 119.807Z" fill="#112F82"/>
<path d="M249.931 101.347C250.859 101.347 251.612 100.597 251.612 99.6723C251.612 98.7471 250.859 97.9971 249.931 97.9971C249.003 97.9971 248.25 98.7471 248.25 99.6723C248.25 100.597 249.003 101.347 249.931 101.347Z" fill="#FFAE1F"/>
<path d="M121.048 13.4334C121.976 13.4334 122.729 12.6834 122.729 11.7582C122.729 10.833 121.976 10.083 121.048 10.083C120.12 10.083 119.368 10.833 119.368 11.7582C119.368 12.6834 120.12 13.4334 121.048 13.4334Z" fill="#FFC91F"/>
<path d="M183.075 26.164C184.622 26.164 185.876 24.914 185.876 23.3721C185.876 21.8301 184.622 20.5801 183.075 20.5801C181.528 20.5801 180.274 21.8301 180.274 23.3721C180.274 24.914 181.528 26.164 183.075 26.164Z" fill="#112F82"/>
<path d="M341.38 123.716C342.927 123.716 344.181 122.466 344.181 120.924C344.181 119.382 342.927 118.132 341.38 118.132C339.833 118.132 338.579 119.382 338.579 120.924C338.579 122.466 339.833 123.716 341.38 123.716Z" fill="#112F82"/>
<path d="M269.637 88.9052C271.184 88.9052 272.438 87.6552 272.438 86.1133C272.438 84.5713 271.184 83.3213 269.637 83.3213C268.09 83.3213 266.836 84.5713 266.836 86.1133C266.836 87.6552 268.09 88.9052 269.637 88.9052Z" fill="#112F82"/>
<path d="M301.401 150.173L289.961 138.246L278.298 144.567L276.696 141.629L290.611 134.069L301.546 145.471L319.708 128.652L321.994 131.109L301.401 150.173Z" fill="#FFAE1F"/>
<path d="M285.627 63.4317L284.137 46.8921L300.652 46.8697L295.577 29.0346L314.545 27.9513L309.38 14.7844L313.559 13.165L320.965 32.0499L301.414 33.1779L306.579 51.3369L289.045 51.3592L290.087 63.0297L285.627 63.4317Z" fill="#112F82"/>
<path d="M103.426 58.2162L100.221 57.1776L105.846 39.8674L90.4849 33.122L96.9944 16.9062L78.6646 12.4056L79.46 9.14453L101.543 14.5721L94.8096 31.3575L109.98 38.0247L103.426 58.2162Z" fill="#FFAE1F"/>
<path d="M24.851 106.193L15.574 86.7165L4.03378 103.502L0.336426 100.978L16.2686 77.7822L26.0498 98.2865L36.3352 87.1409L45.713 102.664L41.87 104.965L35.5845 94.5564L24.851 106.193Z" fill="#FFE669"/>
<path d="M50.1953 59.8586C40.3581 53.3588 43.54 39.9797 43.6745 39.4102L46.9349 40.2142C46.9013 40.3259 44.2011 51.8847 52.044 57.0666L50.1953 59.8586Z" fill="#FFAE1F"/>
<path d="M330.855 97.4374L327.954 95.751C333.903 85.5882 347.494 88.0005 348.065 88.101L347.449 91.3956C347.325 91.3732 335.606 89.3295 330.855 97.4374Z" fill="#FFAE1F"/>
<path d="M93.7895 148.263L90.6411 147.101C90.6859 146.989 95.1452 135.498 108.792 136.961L108.433 140.289C97.3412 139.105 93.8231 148.173 93.7895 148.263Z" fill="#FFAE1F"/>
<path d="M248.766 170.475L245.652 169.224C247.063 165.729 247.198 162.702 246.033 160.223C244.285 156.493 240.229 155.131 240.184 155.119L241.226 151.937C241.45 152.004 246.727 153.768 249.08 158.816C250.649 162.155 250.548 166.086 248.766 170.475Z" fill="#112F82"/>
<path d="M132.176 25.9749L130.563 23.0377C133.868 21.2285 135.885 18.9726 136.568 16.337C137.588 12.3724 135.302 8.69817 135.28 8.66467L138.115 6.85547C138.238 7.05649 141.207 11.747 139.84 17.1299C138.91 20.726 136.344 23.6966 132.176 25.9749Z" fill="#112F82"/>
<path d="M272.866 131.489C258.536 128.786 255.108 115.709 254.973 115.15L258.234 114.346L256.598 114.748L258.234 114.335C258.357 114.804 261.315 125.905 273.494 128.194L272.866 131.489Z" fill="#112F82"/>
<path d="M250.445 45.5632C248.563 46.8364 269.918 43.9216 279.397 18.5816C280.181 16.4932 270.445 9.60263 268.069 12.4281C265.694 15.2536 272.54 30.6541 250.445 45.5632Z" fill="#FFAE1F"/>
<path d="M126.305 73.874C126.305 73.874 126.384 139.943 127.896 142.389C129.409 144.835 183.76 169.672 185.732 169.08L185.396 98.3987L126.305 73.874Z" fill="#112F82"/>
<path d="M146.911 152.328C146.911 152.328 151.695 159.509 162.271 159.509V92.8364L146.911 85.8564V152.328Z" fill="#FFAE1F"/>
<path opacity="0.2" d="M162.283 103.971V92.8364L146.922 85.8564V99.6041C151.987 101.257 157.096 102.753 162.283 103.971Z" fill="#FFAE1F"/>
<path d="M184.848 98.6774L185.733 169.091C185.733 169.091 238.493 143.583 238.998 140.892C239.502 138.189 240.891 71.249 240.891 71.249L184.848 98.6774Z" fill="#112F82"/>
<path d="M209.677 157.253C209.677 157.253 218.954 156.181 223.581 150.117L225.184 84.0361L209.442 88.816L209.677 157.253Z" fill="#EF9926"/>
<path opacity="0.17" d="M224.724 103.077L225.184 84.0361L209.442 88.816L209.509 108.561C214.629 106.852 219.716 105.054 224.724 103.077Z" fill="#EF9926"/>
<path d="M121.052 64.582C121.052 64.582 120.604 79.5582 121.186 81.5684C121.769 83.5786 186.876 110.337 188.299 110.884C188.299 110.884 187.884 92.7251 187.862 92.0104C187.839 91.1504 121.052 64.582 121.052 64.582Z" fill="#112F82"/>
<path d="M187.86 92.0096L188.297 110.883C188.297 110.883 243.981 88.3354 244.799 85.6216C245.202 84.2703 246.457 67.2392 244.373 67.2951L187.86 92.0096Z" fill="#112F82"/>
<path d="M187.861 92.0107L244.375 67.2961C244.375 67.2961 185.049 44.5025 182.214 44.5695C179.425 44.6365 121.051 64.5935 121.051 64.5935L187.861 92.0107Z" fill="#112F82"/>
<path d="M148.817 55.1889L214.182 80.5065L215.414 99.626C215.414 99.626 224.052 100.542 228.433 93.9862L227.324 74.7551L161.421 51.001C161.433 51.001 152.212 51.068 148.817 55.1889Z" fill="#FFAE1F"/>
<path d="M203.011 51.6829C203.011 51.6829 212.277 51.56 216.848 56.8424L159.83 80.5072L159.573 98.9565C159.573 98.9565 146.923 97.5717 143.204 92.0213L143.685 73.8846L203.011 51.6829Z" fill="#FFC91F"/>
<path d="M226.025 30.0944C202.351 4.92197 180.839 59.3096 186.027 64.5808C193.085 71.773 251.066 56.7298 226.025 30.0944ZM187.606 63.2295C186.676 61.9787 206.004 15.1853 220.983 34.8072C238.451 57.7014 189.063 65.1951 187.606 63.2295Z" fill="#FFE424"/>
<path opacity="0.18" d="M228.564 33.1553C228.508 33.6578 228.452 34.1604 228.385 34.6629C227.791 38.9291 226.223 42.4023 224.52 46.0095C224.195 47.6735 223.444 49.2035 222.391 50.6107C222.133 51.1356 221.797 51.5041 221.416 51.7721C213.73 60.1034 194.84 63.5989 189.193 63.5208C188.005 63.6995 186.795 63.7888 185.563 63.8335C185.675 64.135 185.832 64.3919 186.011 64.5817C192.801 71.4835 246.603 57.8587 228.564 33.1553Z" fill="#FFBB24"/>
<path d="M186.194 62.7611C189.802 61.1753 189.981 30.095 173.298 37.8455C155.641 46.0428 181.276 64.9165 186.194 62.7611ZM174.845 41.1624C186.127 34.4282 186.385 61.3428 185.679 61.7783C184.57 62.4596 161.68 49.0134 174.845 41.1624Z" fill="#FFE424"/>
<path opacity="0.18" d="M171.426 38.8506C171.347 39.1074 171.28 39.3643 171.213 39.6323C170.664 41.8547 170.742 43.8761 170.865 45.998C170.697 46.8803 170.765 47.7849 171 48.6895C171.022 49.0022 171.112 49.2479 171.246 49.4489C173.386 55.0775 182.013 60.5275 184.814 61.5996C185.363 61.9234 185.946 62.2026 186.54 62.4707C186.417 62.5935 186.305 62.694 186.17 62.7499C181.464 64.8271 157.611 47.4834 171.426 38.8506Z" fill="#FFBB24"/>
<path d="M186.385 64.4812C191.572 59.21 170.06 4.82236 146.386 29.9948C121.334 56.619 179.326 71.6622 186.385 64.4812ZM151.428 34.6965C166.396 15.0745 185.735 61.868 184.805 63.1188C183.348 65.0843 133.961 57.5906 151.428 34.6965Z" fill="#FFE424"/>
<path opacity="0.18" d="M143.84 33.0557C143.896 33.5582 143.952 34.0608 144.019 34.5633C144.613 38.8295 146.181 42.3027 147.884 45.9099C148.209 47.5739 148.96 49.1039 150.013 50.5111C150.271 51.036 150.607 51.4045 150.988 51.6725C158.674 60.0038 177.564 63.4993 183.211 63.4212C184.399 63.5998 185.609 63.6892 186.841 63.7339C186.718 64.0354 186.572 64.2923 186.393 64.4821C179.592 71.3839 125.79 57.759 143.84 33.0557Z" fill="#FFBB24"/>
<path d="M201.036 49.0249C190.908 40.7049 185.451 62.203 187.658 63.9341C190.672 66.3017 211.758 57.8364 201.036 49.0249ZM188.196 63.3533C187.782 62.929 192.779 44.3903 199.367 51.0463C207.053 58.808 188.835 64.0122 188.196 63.3533Z" fill="#FFE424"/>
<path opacity="0.18" d="M202.134 50.0518C202.134 50.2416 202.146 50.4315 202.134 50.6325C202.112 52.263 201.697 53.6478 201.238 55.0885C201.193 55.725 200.992 56.3393 200.655 56.92C200.588 57.1322 200.476 57.2886 200.342 57.4002C197.854 60.907 190.919 63.1405 188.79 63.3751C188.353 63.4979 187.905 63.5872 187.446 63.6654C187.502 63.7771 187.569 63.8664 187.647 63.9223C190.549 66.2005 210.134 58.4723 202.134 50.0518Z" fill="#FFBB24"/>
<path opacity="0.48" d="M153.44 75.4701C157.653 73.4376 162.011 71.8182 166.515 70.5674C168.599 69.9979 167.714 66.7592 165.619 67.3399C160.824 68.6577 156.207 70.4222 151.737 72.5776C149.788 73.5157 151.491 76.4082 153.44 75.4701Z" fill="#FFE424"/>
<path opacity="0.48" d="M147.068 79.5137C146.888 81.8925 146.72 84.2713 146.541 86.65C146.384 88.8054 149.745 88.7943 149.902 86.65C150.081 84.2713 150.25 81.8925 150.429 79.5137C150.586 77.3583 147.224 77.3695 147.068 79.5137Z" fill="#FFE424"/>
<path opacity="0.45" d="M203.594 71.8972C208.636 73.5836 213.678 75.2588 218.708 76.9451C220.759 77.6264 221.644 74.3988 219.605 73.7176C214.563 72.0312 209.521 70.3561 204.49 68.6697C202.44 67.9773 201.555 71.216 203.594 71.8972Z" fill="#FFC91F"/>
<path opacity="0.45" d="M221.787 79.6588C221.843 82.0376 221.798 84.4052 221.664 86.7839C221.541 88.9394 224.902 88.9282 225.025 86.7839C225.16 84.4164 225.204 82.0376 225.148 79.6588C225.104 77.5034 221.742 77.4923 221.787 79.6588Z" fill="#FFC91F"/>
<path opacity="0.45" d="M149.969 134.258C149.992 137.072 150.025 139.887 150.048 142.701C150.07 144.856 153.431 144.856 153.409 142.701C153.387 139.887 153.353 137.072 153.33 134.258C153.319 132.103 149.958 132.103 149.969 134.258Z" fill="#FFC91F"/>
<path opacity="0.45" d="M149.993 114.692C150.038 119.293 150.082 123.906 150.116 128.507C150.138 130.662 153.5 130.662 153.477 128.507C153.432 123.906 153.388 119.293 153.354 114.692C153.332 112.537 149.97 112.525 149.993 114.692Z" fill="#FFC91F"/>
<path opacity="0.51" d="M218.885 108.628C218.728 115.262 218.661 121.907 218.706 128.552C218.717 130.707 222.078 130.707 222.067 128.552C222.022 121.907 222.089 115.273 222.246 108.628C222.302 106.473 218.941 106.473 218.885 108.628Z" fill="#FFAE1F"/>
<path opacity="0.51" d="M218.794 134.873C218.559 137.799 218.626 140.713 218.996 143.628C219.265 145.739 222.626 145.761 222.357 143.628C221.987 140.713 221.92 137.81 222.155 134.873C222.323 132.728 218.962 132.739 218.794 134.873Z" fill="#FFAE1F"/>
<path d="M133.041 66.4918C137.422 65.174 141.769 63.7222 146.06 62.1475C148.077 61.4104 147.203 58.1718 145.164 58.92C140.861 60.4947 136.525 61.9353 132.145 63.2643C130.083 63.8786 130.957 67.1172 133.041 66.4918Z" fill="#112F82"/>
<path d="M129.253 92.5016C128.995 100.464 128.984 108.416 129.197 116.379C129.253 118.534 132.614 118.534 132.558 116.379C132.345 108.416 132.356 100.464 132.614 92.5016C132.681 90.335 129.32 90.3462 129.253 92.5016Z" fill="#112F82"/>
<path d="M129.423 121.952C129.334 124.654 129.322 127.346 129.378 130.048C129.423 132.204 132.785 132.204 132.74 130.048C132.684 127.346 132.706 124.654 132.785 121.952C132.852 119.796 129.491 119.796 129.423 121.952Z" fill="#112F82"/>
</g>
<defs>
<clipPath id="clip0_375_4574">
<rect width="347.327" height="179.803" fill="white" transform="translate(0.336426 0.0986328)"/>
</clipPath>
</defs>
</svg>
