<svg width="262" height="191" viewBox="0 0 262 191" fill="none" xmlns="http://www.w3.org/2000/svg">
<g clip-path="url(#clip0_255_37686)">
<path d="M255.189 170.493C254.31 163.857 250.142 157.345 243.79 155.233C246.342 162.05 246.401 169.55 243.956 176.407C243.004 179.047 241.669 181.885 242.606 184.532C243.188 186.178 244.592 187.431 246.156 188.208C247.72 188.986 249.452 189.349 251.163 189.704L251.501 189.979C254.163 183.838 256.067 177.128 255.189 170.493Z" fill="#BABABA"/>
<path d="M243.727 155.359C247.449 159.463 249.783 164.636 250.397 170.142C250.551 171.325 250.516 172.525 250.296 173.697C250.045 174.833 249.494 175.88 248.701 176.73C247.977 177.538 247.144 178.28 246.629 179.249C246.373 179.749 246.226 180.298 246.197 180.859C246.168 181.42 246.257 181.981 246.46 182.505C246.932 183.824 247.849 184.894 248.782 185.91C249.819 187.038 250.913 188.193 251.362 189.696C251.416 189.878 251.695 189.783 251.641 189.601C250.86 186.987 248.305 185.519 247.073 183.168C246.499 182.072 246.251 180.795 246.772 179.628C247.228 178.608 248.087 177.842 248.827 177.03C249.613 176.212 250.186 175.214 250.497 174.123C250.776 172.966 250.857 171.769 250.735 170.585C250.502 167.914 249.851 165.297 248.805 162.828C247.627 160.005 245.975 157.403 243.92 155.136C243.793 154.996 243.6 155.22 243.727 155.359Z" fill="white"/>
<path d="M250.303 168.359C251.213 168.13 252.012 167.586 252.558 166.823C253.103 166.059 253.359 165.127 253.281 164.192C253.264 164.003 252.97 164.02 252.986 164.209C253.061 165.08 252.822 165.948 252.313 166.658C251.803 167.367 251.057 167.872 250.209 168.079C250.024 168.125 250.12 168.404 250.303 168.359Z" fill="white"/>
<path d="M249.122 176.369C247.467 175.399 246.24 173.841 245.683 172.006C245.628 171.824 245.349 171.919 245.404 172.101C245.986 174.009 247.267 175.628 248.991 176.634C249.155 176.729 249.285 176.464 249.122 176.369Z" fill="white"/>
<path d="M247.357 160.288C247.023 160.45 246.654 160.526 246.284 160.51C245.914 160.494 245.553 160.387 245.234 160.197C245.071 160.099 244.942 160.364 245.104 160.462C245.457 160.67 245.855 160.788 246.264 160.806C246.674 160.825 247.081 160.743 247.451 160.567C247.488 160.554 247.517 160.527 247.534 160.492C247.552 160.457 247.555 160.417 247.544 160.38C247.531 160.343 247.504 160.313 247.469 160.296C247.434 160.278 247.394 160.276 247.357 160.288L247.357 160.288Z" fill="white"/>
<path d="M224.574 167.25C224.674 167.314 224.774 167.378 224.875 167.445C226.216 168.311 227.484 169.286 228.667 170.358C228.76 170.439 228.853 170.523 228.943 170.607C231.766 173.22 234.08 176.335 235.766 179.793C236.436 181.17 237 182.595 237.453 184.057C238.079 186.077 238.598 188.316 239.818 189.962C239.944 190.135 240.08 190.301 240.226 190.457L251.138 190.371C251.163 190.358 251.188 190.348 251.213 190.335L251.649 190.352C251.63 190.275 251.61 190.195 251.592 190.118C251.582 190.073 251.569 190.029 251.558 189.984C251.551 189.954 251.543 189.924 251.538 189.897C251.535 189.887 251.533 189.877 251.53 189.87C251.525 189.842 251.517 189.817 251.512 189.792C251.399 189.348 251.283 188.903 251.163 188.458C251.163 188.456 251.163 188.456 251.16 188.453C250.281 185.056 249.001 181.774 247.348 178.678C247.298 178.586 247.247 178.492 247.192 178.4C246.427 177.03 245.551 175.725 244.574 174.497C244.036 173.826 243.465 173.184 242.863 172.571C241.303 170.991 239.504 169.665 237.533 168.644C233.603 166.609 229.065 165.853 224.892 167.148C224.785 167.181 224.681 167.215 224.574 167.25Z" fill="#BABABA"/>
<path d="M224.6 167.389C230.043 168.425 235.02 171.15 238.826 175.177C239.661 176.029 240.356 177.007 240.886 178.076C241.369 179.134 241.559 180.301 241.438 181.458C241.347 182.538 241.128 183.633 241.301 184.717C241.398 185.27 241.61 185.797 241.925 186.262C242.239 186.728 242.649 187.122 243.126 187.418C244.297 188.187 245.674 188.49 247.031 188.739C248.537 189.015 250.106 189.279 251.369 190.208C251.522 190.321 251.688 190.077 251.535 189.965C249.338 188.347 246.414 188.713 244.015 187.578C242.896 187.049 241.93 186.178 241.643 184.933C241.393 183.844 241.618 182.715 241.72 181.622C241.855 180.496 241.712 179.353 241.303 178.295C240.829 177.203 240.173 176.199 239.362 175.327C237.569 173.335 235.473 171.637 233.152 170.295C230.511 168.75 227.626 167.667 224.62 167.095C224.434 167.059 224.415 167.354 224.6 167.389Z" fill="white"/>
<path d="M237.677 173.808C238.266 173.077 238.576 172.162 238.552 171.224C238.528 170.286 238.171 169.387 237.546 168.688C237.419 168.547 237.194 168.738 237.321 168.879C237.905 169.529 238.237 170.366 238.257 171.24C238.278 172.113 237.986 172.965 237.433 173.642C237.313 173.789 237.558 173.954 237.677 173.808Z" fill="white"/>
<path d="M241.556 180.917C239.652 181.138 237.733 180.633 236.184 179.503C236.031 179.391 235.865 179.635 236.018 179.747C237.632 180.92 239.63 181.441 241.611 181.207C241.8 181.184 241.744 180.894 241.556 180.917Z" fill="white"/>
<path d="M230.464 169.138C230.295 169.468 230.047 169.751 229.741 169.962C229.436 170.172 229.083 170.303 228.715 170.344C228.525 170.364 228.582 170.653 228.77 170.633C229.177 170.587 229.566 170.442 229.904 170.21C230.242 169.978 230.518 169.667 230.708 169.304C230.728 169.272 230.736 169.232 230.729 169.194C230.721 169.156 230.7 169.122 230.669 169.1C230.636 169.078 230.597 169.07 230.558 169.077C230.52 169.084 230.486 169.106 230.464 169.138L230.464 169.138Z" fill="white"/>
<path d="M183.272 103.735C183.462 103.985 183.704 104.19 183.982 104.336C184.259 104.482 184.565 104.565 184.878 104.58C185.192 104.594 185.504 104.54 185.794 104.421C186.084 104.302 186.344 104.121 186.557 103.89L193.545 106.93L192.864 103.029L186.333 100.741C185.921 100.409 185.403 100.241 184.876 100.266C184.349 100.292 183.849 100.51 183.472 100.879C183.095 101.248 182.866 101.743 182.829 102.269C182.793 102.796 182.95 103.317 183.272 103.735V103.735Z" fill="#A0616A"/>
<path d="M189.632 101.531L202.982 103.261L216.748 94.9685C217.484 94.525 218.306 94.2425 219.16 94.1395C220.013 94.0366 220.878 94.1155 221.699 94.3711C222.519 94.6267 223.277 95.0532 223.92 95.6226C224.564 96.1919 225.08 96.8911 225.435 97.6743C226.073 99.0917 226.146 100.7 225.638 102.169C225.13 103.639 224.08 104.858 222.702 105.578L204.203 112.17L204.168 112.183L187.938 104.953L189.632 101.531Z" fill="#3F3D56"/>
<path d="M223.746 187.864H220.909L219.559 176.918L223.747 176.918L223.746 187.864Z" fill="#A0616A"/>
<path d="M224.471 190.614L215.32 190.613V190.497C215.32 189.553 215.696 188.647 216.364 187.979C217.031 187.311 217.937 186.936 218.882 186.936H218.882L220.553 185.668L223.672 186.936L224.471 186.936L224.471 190.614Z" fill="#2F2E41"/>
<path d="M212.75 186.074L209.982 186.699L206.254 176.32L210.339 175.397L212.75 186.074Z" fill="#A0616A"/>
<path d="M214.062 188.599L205.136 190.614L205.111 190.501C204.903 189.58 205.069 188.614 205.574 187.815C206.078 187.016 206.879 186.451 207.8 186.243L207.801 186.243L209.152 184.638L212.473 185.188L213.252 185.012L214.062 188.599Z" fill="#2F2E41"/>
<path d="M227.341 120.947C228.672 124.96 228.531 129.316 227.021 133.991L226.376 160.311C226.376 160.311 227.337 177.572 224.235 183.646H219.735L217.507 158.735L217.228 142.015L207.581 156.121L213.725 183.239L208.187 183.734L198.217 154.305L210.518 125.754L227.341 120.947Z" fill="#2F2E41"/>
<path d="M209.125 124.826L210.235 122.052L209.501 119.667L209.334 96.5564L209.334 96.5388L211.996 92.2927L212.018 89.6071L219.453 89.4258L220.26 91.4735L221.855 92.4275C223.595 93.4708 225.029 94.9539 226.014 96.7275C226.998 98.5012 227.498 100.503 227.463 102.531L227.175 118.124L227.917 119.608C228.119 120.011 228.231 120.453 228.245 120.903C228.26 121.353 228.177 121.802 228.002 122.217C227.828 122.632 227.565 123.005 227.233 123.309C226.9 123.613 226.506 123.842 226.077 123.979L209.715 126.596L209.125 124.826Z" fill="#3F3D56"/>
<path d="M215.056 86.8796C218.788 86.8796 221.812 83.855 221.812 80.1239C221.812 76.3928 218.788 73.3682 215.056 73.3682C211.325 73.3682 208.301 76.3928 208.301 80.1239C208.301 83.855 211.325 86.8796 215.056 86.8796Z" fill="#A0616A"/>
<path d="M222.091 81.5964C222.292 80.7475 222.2 79.5529 222.086 78.6982C221.94 77.5712 221.559 76.4874 220.968 75.517C220.376 74.5466 219.587 73.7113 218.652 73.0653C218.294 72.793 217.868 72.6237 217.42 72.5757C217.197 72.5568 216.973 72.6093 216.781 72.7255C216.589 72.8416 216.438 73.0156 216.351 73.2225C216.238 72.9413 216.069 72.6862 215.854 72.4728C215.639 72.2595 215.382 72.0926 215.1 71.9823C214.534 71.7651 213.924 71.683 213.32 71.7424C212.149 71.8389 211.026 72.2506 210.071 72.9337C209.115 73.6169 208.362 74.5461 207.892 75.6226C207.711 76.0513 207.207 74.4679 206.979 74.8729C206.769 75.2939 206.402 75.616 205.958 75.7702C205.51 75.8952 205.328 77.7409 205.151 77.3105C205.014 77.6286 204.96 77.9761 204.994 78.3207C205.028 78.6653 205.148 78.9957 205.344 79.2813C205.54 79.5668 205.805 79.7982 206.114 79.9538C206.423 80.1095 206.767 80.1843 207.113 80.1713C207.565 80.1128 208.013 80.027 208.455 79.9144C209.267 79.8121 210.087 80.0105 210.763 80.472C211.438 80.9335 211.921 81.6262 212.12 82.4194C212.243 81.9582 212.44 81.5199 212.703 81.1215C212.837 80.9233 213.016 80.7599 213.225 80.6448C213.435 80.5298 213.668 80.4664 213.907 80.4599C214.136 80.4861 214.356 80.5587 214.555 80.6732C214.755 80.7878 214.928 80.9418 215.066 81.126C215.363 81.4752 215.587 81.8826 215.886 82.2299C216.766 83.2491 217.955 85.6259 219.207 85.4525C220.196 85.3157 221.816 82.7554 222.091 81.5964Z" fill="#2F2E41"/>
<path d="M189.87 121.665C190.158 121.79 190.469 121.851 190.783 121.842C191.096 121.834 191.404 121.757 191.684 121.616C191.964 121.476 192.211 121.276 192.405 121.03C192.6 120.785 192.738 120.499 192.811 120.194L200.393 119.428L197.891 116.358L191.075 117.556C190.555 117.469 190.02 117.575 189.573 117.855C189.125 118.135 188.796 118.569 188.648 119.076C188.499 119.582 188.542 120.125 188.767 120.603C188.992 121.08 189.385 121.458 189.87 121.665Z" fill="#A0616A"/>
<path d="M194.34 116.634L206.83 111.616L214.784 97.6505C215.209 96.9036 215.788 96.2553 216.482 95.7483C217.176 95.2412 217.969 94.8869 218.81 94.7086C219.651 94.5303 220.52 94.5321 221.36 94.7138C222.2 94.8956 222.992 95.2532 223.684 95.7632C224.934 96.6871 225.784 98.0542 226.059 99.5843C226.335 101.114 226.015 102.692 225.165 103.994L212.252 118.79L212.228 118.818L194.535 120.448L194.34 116.634Z" fill="#3F3D56"/>
<path d="M261.549 191H148.789C148.739 191 148.688 190.99 148.641 190.971C148.594 190.952 148.552 190.923 148.516 190.888C148.48 190.852 148.451 190.809 148.432 190.762C148.412 190.715 148.402 190.665 148.402 190.614C148.402 190.564 148.412 190.513 148.432 190.466C148.451 190.42 148.48 190.377 148.516 190.341C148.552 190.305 148.594 190.277 148.641 190.258C148.688 190.238 148.739 190.228 148.789 190.229H261.549C261.6 190.228 261.65 190.238 261.697 190.258C261.744 190.277 261.787 190.305 261.823 190.341C261.859 190.377 261.887 190.42 261.907 190.466C261.926 190.513 261.936 190.564 261.936 190.614C261.936 190.665 261.926 190.715 261.907 190.762C261.887 190.809 261.859 190.852 261.823 190.888C261.787 190.923 261.744 190.952 261.697 190.971C261.65 190.99 261.6 191 261.549 191Z" fill="#CCCCCC"/>
<path d="M188.675 128.253H137.433C137.076 128.253 136.733 128.111 136.481 127.858C136.228 127.606 136.086 127.264 136.086 126.907V106.114C136.086 105.757 136.228 105.415 136.481 105.163C136.733 104.91 137.076 104.768 137.433 104.768H188.675C189.033 104.768 189.375 104.91 189.627 105.163C189.88 105.415 190.022 105.757 190.022 106.114V126.907C190.022 127.264 189.88 127.606 189.627 127.858C189.375 128.111 189.033 128.253 188.675 128.253Z" fill="#0B8A44"/>
<path d="M183.798 138.227H142.314C142.101 138.227 141.891 138.186 141.695 138.104C141.498 138.023 141.32 137.904 141.17 137.754C141.019 137.604 140.9 137.426 140.819 137.23C140.737 137.033 140.695 136.823 140.695 136.611C140.695 136.398 140.737 136.188 140.819 135.992C140.9 135.795 141.019 135.617 141.17 135.467C141.32 135.317 141.498 135.198 141.695 135.117C141.891 135.036 142.101 134.994 142.314 134.994H183.798C185.882 134.965 185.903 138.256 183.798 138.227Z" fill="#BABABA"/>
<path d="M183.798 145.635H142.314C141.885 145.635 141.474 145.465 141.171 145.162C140.868 144.859 140.697 144.447 140.697 144.019C140.697 143.59 140.868 143.179 141.171 142.876C141.474 142.573 141.885 142.403 142.314 142.403H183.798C185.882 142.373 185.903 145.664 183.798 145.635Z" fill="#BABABA"/>
<path d="M183.798 153.043H142.314C142.101 153.044 141.891 153.002 141.695 152.921C141.498 152.84 141.32 152.721 141.17 152.571C141.019 152.421 140.9 152.242 140.819 152.046C140.737 151.85 140.695 151.639 140.695 151.427C140.695 151.215 140.737 151.004 140.819 150.808C140.9 150.612 141.019 150.433 141.17 150.283C141.32 150.133 141.498 150.014 141.695 149.933C141.891 149.852 142.101 149.81 142.314 149.811H183.798C185.882 149.782 185.903 153.073 183.798 153.043Z" fill="#BABABA"/>
<path d="M9.46692 73.1053C0.44627 61.2531 -3.18764 44.4366 3.52685 31.1416C10.1899 45.905 21.8601 57.8358 36.4729 64.823C42.1182 67.4973 48.6755 69.8839 51.3478 75.5302C53.0106 79.0434 52.7591 83.2215 51.5098 86.902C50.2604 90.5827 48.0956 93.8717 45.9536 97.1151L45.8514 98.08C32.0172 92.5608 18.4876 84.9575 9.46692 73.1053Z" fill="#BABABA"/>
<path d="M3.82316 31.2442C4.37605 43.4304 8.82565 55.5189 16.4803 65.0404C18.1352 67.0989 19.9931 69.0431 22.2157 70.4937C24.393 71.8911 26.9047 72.6799 29.49 72.7783C31.8987 72.9184 34.3787 72.7828 36.7113 73.506C39.1701 74.2682 41.0024 76.0745 42.0845 78.3801C43.4085 81.2011 43.6399 84.3296 43.7599 87.3969C43.8931 90.8025 43.9775 94.3421 45.626 97.4174C45.8258 97.79 45.2359 98.0782 45.0365 97.7061C42.1683 92.3555 43.899 86.0302 42.1568 80.3883C41.3439 77.7558 39.7326 75.3522 37.0798 74.3285C34.7599 73.4333 32.2024 73.571 29.7624 73.4502C27.2003 73.3234 24.801 72.7815 22.5664 71.4814C20.2807 70.1515 18.3428 68.2759 16.6425 66.2687C12.8209 61.6884 9.74314 56.5357 7.5221 50.9993C4.95221 44.6947 3.47973 37.997 3.16838 31.1959C3.14928 30.775 3.80419 30.826 3.82317 31.2442L3.82316 31.2442Z" fill="white"/>
<path d="M13.8291 62.0766C12.0346 63.1429 9.91944 63.5365 7.86146 63.1873C5.80347 62.838 3.93666 61.7685 2.59439 60.1699C2.3239 59.8455 2.81529 59.41 3.08613 59.7348C4.33331 61.2257 6.07236 62.2218 7.98941 62.5431C9.90647 62.8644 11.8752 62.4899 13.5404 61.4871C13.9025 61.2696 14.1892 61.8604 13.8291 62.0766Z" fill="white"/>
<path d="M28.2582 72.8675C29.3479 68.7419 28.8426 64.3571 26.843 60.5876C26.6445 60.2142 27.2343 59.926 27.4325 60.2988C29.506 64.2254 30.0226 68.7895 28.8793 73.0802C28.77 73.4891 28.1496 73.2742 28.2582 72.8675V72.8675Z" fill="white"/>
<path d="M5.82199 44.7129C6.60231 44.445 7.30388 43.9875 7.86369 43.3815C8.42351 42.7755 8.82404 42.0399 9.02932 41.2408C9.13333 40.8308 9.7537 41.0462 9.65035 41.4536C9.41944 42.3354 8.9761 43.1472 8.35908 43.8181C7.74205 44.489 6.97011 44.9986 6.1107 45.3024C6.0321 45.3378 5.94295 45.342 5.86138 45.3141C5.77982 45.2861 5.71194 45.2282 5.67157 45.152C5.63373 45.0737 5.62831 44.9837 5.65647 44.9015C5.68464 44.8193 5.74412 44.7515 5.82199 44.7129Z" fill="white"/>
<path d="M52.7043 19.9727C52.6466 20.2306 52.5889 20.4885 52.5349 20.7505C51.7775 24.2219 51.3034 27.7491 51.1172 31.2972C51.0984 31.5713 51.0835 31.8494 51.0727 32.1234C50.7152 40.6765 51.9487 49.2217 54.7107 57.3244C55.8126 60.5477 57.1583 63.6825 58.7359 66.7016C60.9148 70.871 63.6091 75.2183 64.2642 79.7312C64.3378 80.2012 64.3822 80.6754 64.3972 81.151L47.0365 98.1302C46.9777 98.149 46.9225 98.1719 46.8635 98.1909L46.2013 98.9005C46.1091 98.7505 46.0166 98.5929 45.9244 98.4429C45.8705 98.3561 45.8205 98.2655 45.7667 98.1787C45.732 98.1196 45.6975 98.0604 45.6628 98.009C45.6512 97.9894 45.6398 97.9696 45.632 97.9539C45.5973 97.9026 45.5705 97.8513 45.5397 97.8039C45.0206 96.9245 44.5067 96.0399 43.9981 95.1501C43.9942 95.1461 43.9942 95.1461 43.9942 95.1384C40.1362 88.3488 36.8112 81.1775 34.6803 73.7295C34.6163 73.5054 34.5481 73.2775 34.492 73.0456C33.5501 69.6831 32.8847 66.2492 32.5022 62.7782C32.2989 60.877 32.192 58.9666 32.1819 57.0546C32.1652 52.114 32.9258 47.2016 34.4357 42.4973C37.447 33.12 43.4239 24.8101 52.0424 20.31C52.263 20.195 52.4798 20.0837 52.7043 19.9727Z" fill="#BABABA"/>
<path d="M52.8816 20.2304C45.9861 30.2933 42.2608 42.6242 42.6399 54.8352C42.7219 57.4752 43.0348 60.1461 43.9361 62.6426C44.8332 65.0691 46.3637 67.2112 48.3687 68.8462C50.2075 70.4083 52.2693 71.7932 53.6964 73.775C55.2007 75.864 55.5762 78.4093 55.0521 80.9018C54.4108 83.9513 52.7119 86.5886 50.961 89.1099C49.0169 91.9093 46.9533 94.7862 46.418 98.2342C46.3531 98.652 45.7087 98.5269 45.7734 98.1098C46.7048 92.1108 51.895 88.1024 53.9007 82.5488C54.8366 79.9573 54.9972 77.0682 53.4954 74.6536C52.1821 72.5421 50.0572 71.1122 48.1817 69.5467C46.2123 67.9029 44.6229 66.0257 43.6215 63.6423C42.5971 61.2043 42.1791 58.54 42.03 55.9136C41.7362 49.9556 42.3812 43.9885 43.941 38.2308C45.6849 31.6497 48.5417 25.4154 52.3878 19.7977C52.626 19.4501 53.1182 19.8851 52.8816 20.2304L52.8816 20.2304Z" fill="white"/>
<path d="M42.3072 50.8732C40.2324 50.6441 38.3066 49.6849 36.8737 48.167C35.4408 46.649 34.5941 44.6712 34.4849 42.5866C34.4642 42.1648 35.1188 42.1129 35.1395 42.5353C35.2376 44.4766 36.0265 46.3189 37.3637 47.7297C38.7009 49.1404 40.4983 50.0267 42.4316 50.2286C42.8517 50.273 42.7249 50.9173 42.3072 50.8732H42.3072Z" fill="white"/>
<path d="M47.3317 68.1773C50.6856 65.5392 52.9221 61.734 53.5951 57.5203C53.6614 57.1028 54.3059 57.2277 54.2396 57.6448C53.5311 62.0283 51.1957 65.9835 47.6995 68.721C47.366 68.9817 47.0001 68.4365 47.3317 68.1773Z" fill="white"/>
<path d="M46.3673 32.1892C47.1516 32.4452 47.9872 32.5023 48.799 32.3554C49.6109 32.2086 50.3736 31.8625 51.0186 31.348C51.3485 31.0832 51.7141 31.6287 51.3863 31.8918C50.6711 32.4568 49.8283 32.8381 48.9317 33.0023C48.0351 33.1665 47.1119 33.1087 46.2428 32.8338C46.1588 32.8147 46.0851 32.7644 46.0368 32.693C45.9885 32.6216 45.9692 32.5344 45.9828 32.4493C45.9997 32.364 46.0496 32.2889 46.1215 32.2402C46.1935 32.1915 46.2819 32.1732 46.3673 32.1892Z" fill="white"/>
<path d="M57.3336 53.0716C61.3504 53.0716 64.6067 49.8153 64.6067 45.7985C64.6067 41.7817 61.3504 38.5254 57.3336 38.5254C53.3168 38.5254 50.0605 41.7817 50.0605 45.7985C50.0605 49.8153 53.3168 53.0716 57.3336 53.0716Z" fill="#2F2E41"/>
<path d="M97.1306 115.788H45.8879C45.5308 115.787 45.1885 115.645 44.936 115.393C44.6835 115.14 44.5414 114.798 44.541 114.441V93.6486C44.5414 93.2916 44.6835 92.9492 44.936 92.6967C45.1885 92.4442 45.5308 92.3022 45.8879 92.3018H97.1306C97.4877 92.3022 97.83 92.4442 98.0825 92.6967C98.335 92.9492 98.477 93.2916 98.4775 93.6486V114.441C98.477 114.798 98.335 115.14 98.0825 115.393C97.83 115.645 97.4877 115.787 97.1306 115.788Z" fill="#BABABA"/>
<path d="M92.2514 125.762H50.7672C50.3398 125.76 49.9306 125.589 49.629 125.286C49.3275 124.983 49.1582 124.573 49.1582 124.146C49.1582 123.718 49.3275 123.308 49.629 123.005C49.9306 122.703 50.3398 122.531 50.7672 122.529H92.2514C94.3358 122.5 94.3566 125.791 92.2514 125.762Z" fill="#BABABA"/>
<path d="M92.2511 133.17H50.767C50.5546 133.171 50.3441 133.129 50.1478 133.048C49.9514 132.967 49.773 132.848 49.6226 132.698C49.4723 132.548 49.3531 132.369 49.2717 132.173C49.1903 131.977 49.1484 131.766 49.1484 131.554C49.1484 131.341 49.1903 131.131 49.2717 130.935C49.3531 130.739 49.4723 130.56 49.6226 130.41C49.773 130.26 49.9514 130.141 50.1478 130.06C50.3441 129.979 50.5546 129.937 50.767 129.938H92.2511C94.3355 129.909 94.3564 133.2 92.2511 133.17Z" fill="#BABABA"/>
<path d="M92.2508 140.577H50.7667C50.338 140.577 49.9269 140.407 49.6238 140.104C49.3207 139.801 49.1504 139.39 49.1504 138.961C49.1504 138.533 49.3207 138.121 49.6238 137.818C49.9269 137.515 50.338 137.345 50.7667 137.345H92.2508C94.3352 137.316 94.356 140.607 92.2508 140.577Z" fill="#BABABA"/>
<path d="M95.6572 60.1609C95.4602 60.4595 95.2001 60.7113 94.8952 60.8986C94.5903 61.0858 94.2481 61.204 93.8927 61.2446C93.5372 61.2853 93.1772 61.2476 92.8379 61.1341C92.4986 61.0205 92.1883 60.834 91.9289 60.5876L73.7715 68.3384L74.2492 63.8443L91.9441 56.9837C92.3869 56.5754 92.9642 56.3436 93.5664 56.3325C94.1687 56.3213 94.7542 56.5314 95.2118 56.923C95.6695 57.3147 95.9677 57.8606 96.0498 58.4573C96.1318 59.0541 95.9922 59.6602 95.6572 60.1609Z" fill="#FFB6B6"/>
<path d="M58.7001 59.7443C58.7001 59.7443 56.4551 61.9247 58.683 64.7306C60.9109 67.5365 71.9264 69.361 73.6931 69.7083C75.4597 70.0555 85.2867 63.3711 85.2867 63.3711L86.2385 58.5283L75.2694 62.2917L58.7001 59.7443Z" fill="#0B8A44"/>
<path d="M52.6712 76.2879L52.8479 79.6466C52.8479 79.6466 52.3262 82.6218 52.7553 83.2638C53.1812 83.9026 64.8025 83.9833 64.8025 83.9833C64.8025 83.9833 65.5704 79.8439 66.2318 76.2207L52.6712 76.2879Z" fill="#FFB6B6"/>
<path d="M86.0839 120.697L88.5136 120.206L87.8182 110.393L84.2324 111.117L86.0839 120.697Z" fill="#FFB6B6"/>
<path d="M89.5636 107.927L91.8222 106.911L88.8922 97.5215L85.5586 99.0208L89.5636 107.927Z" fill="#FFB6B6"/>
<path d="M91.5302 102.635L87.2774 105.043L76.789 88.1894C69.4261 93.1498 62.2262 95.5253 54.968 96.793C52.514 97.2299 50.012 97.0085 49.5409 94.5108C49.5189 94.3941 49.5013 94.2766 49.4882 94.1586C49.1984 91.4304 52.5921 87.9335 53.0234 84.5956L62.3112 84.038L63.4566 85.5065L74.1976 78.9029C74.7189 78.5893 75.2972 78.3819 75.8991 78.2929C76.501 78.2038 77.1145 78.2347 77.7044 78.3838C78.2943 78.533 78.8488 78.7974 79.336 79.1618C79.8232 79.5262 80.2335 79.9835 80.5431 80.5072C80.6141 80.6241 80.68 80.744 80.7409 80.8666L91.5302 102.635Z" fill="#2F2E41"/>
<path d="M88.928 113.974L84.0617 114.426L75.2384 96.3811C66.4889 97.8858 58.2345 98.3679 51.0948 96.5476C49.9227 96.238 48.9195 95.4797 48.3019 94.4365C47.6844 93.3933 47.5021 92.149 47.7945 90.9725C47.8222 90.857 47.8544 90.7427 47.8909 90.6297C48.7453 88.0226 50.9821 86.178 52.7443 83.3105L65.6164 83.5061L64.1787 88.4667L76.683 86.8486C77.2872 86.7764 77.8996 86.8245 78.4851 86.99C79.0705 87.1556 79.6175 87.4354 80.0943 87.8133C80.5711 88.1912 80.9684 88.6598 81.2634 89.192C81.5583 89.7242 81.7449 90.3094 81.8126 90.9141C81.8294 91.0498 81.8404 91.1861 81.8455 91.323L88.928 113.974Z" fill="#2F2E41"/>
<path d="M57.6956 53.6851C60.5822 53.6851 62.9224 51.3449 62.9224 48.4583C62.9224 45.5716 60.5822 43.2314 57.6956 43.2314C54.8089 43.2314 52.4688 45.5716 52.4688 48.4583C52.4688 51.3449 54.8089 53.6851 57.6956 53.6851Z" fill="#FFB6B6"/>
<path d="M54.6324 55.5713L59.4249 56.1351C59.627 56.1589 59.8167 56.2451 59.9674 56.3818C60.1182 56.5185 60.2226 56.6988 60.266 56.8976L61.0282 60.3851L65.7793 65.9801C65.7793 65.9801 67.4853 69.179 66.8456 72.8044C66.2058 76.4298 65.9246 79.1237 65.9246 79.1237C65.9246 79.1237 53.1799 83.9022 52.7534 83.2624C52.3269 82.6226 52.1885 79.7166 52.1885 79.7166L50.4824 60.7366C50.4824 60.7366 52.4018 57.5377 53.4681 57.5377C54.1562 57.5145 54.0679 55.9656 54.6324 55.5713Z" fill="#0B8A44"/>
<path d="M66.0528 80.2916C66.7249 80.2916 67.2697 79.6378 67.2697 78.8313C67.2697 78.0249 66.7249 77.3711 66.0528 77.3711C65.3808 77.3711 64.8359 78.0249 64.8359 78.8313C64.8359 79.6378 65.3808 80.2916 66.0528 80.2916Z" fill="#F10086"/>
<path d="M84.877 118.17L88.581 116.313L89.2791 117.942L93.963 118.889C94.1943 118.936 94.4047 119.055 94.5633 119.23C94.722 119.405 94.8206 119.626 94.8448 119.86C94.869 120.095 94.8176 120.331 94.6979 120.535C94.5783 120.738 94.3968 120.898 94.1798 120.991L89.6543 122.931L88.1836 121.654L88.5696 123.396L86.8633 124.127L84.877 118.17Z" fill="#2F2E41"/>
<path d="M88.5039 107.146L92.1747 105.225L92.9014 106.841L97.6012 107.705C97.8333 107.748 98.0458 107.863 98.2075 108.035C98.3692 108.207 98.4716 108.426 98.5 108.661C98.5283 108.895 98.481 109.132 98.365 109.338C98.2489 109.543 98.0703 109.706 97.855 109.803L93.3642 111.822L91.8714 110.572L92.2879 112.306L90.5947 113.068L88.5039 107.146Z" fill="#2F2E41"/>
<path d="M54.7104 46.8189C53.3295 46.8211 51.9818 46.3959 50.8522 45.6017L50.8145 45.5753V45.5293C50.816 44.1935 51.3472 42.913 52.2917 41.9685C53.2362 41.024 54.5168 40.4927 55.8525 40.4912H57.9738C59.3095 40.4927 60.5901 41.024 61.5346 41.9685C62.479 42.913 63.0103 44.1935 63.0118 45.5293C63.0104 45.835 62.8897 46.1281 62.6754 46.3461C62.4611 46.5641 62.1702 46.6899 61.8645 46.6966L54.8296 46.8179C54.7899 46.8186 54.75 46.8189 54.7104 46.8189Z" fill="#2F2E41"/>
<path d="M75.749 87.4763C75.3928 87.5093 75.0336 87.4637 74.6969 87.3429C74.3601 87.222 74.054 87.0288 73.8 86.7768C73.546 86.5248 73.3503 86.2202 73.2268 85.8844C73.1033 85.5486 73.0549 85.1899 73.085 84.8333L55.6836 75.5082L59.4897 73.0713L75.9072 82.592C76.5027 82.6823 77.0445 82.988 77.4297 83.451C77.815 83.9141 78.0171 84.5024 77.9976 85.1044C77.9781 85.7065 77.7384 86.2805 77.324 86.7176C76.9096 87.1548 76.3492 87.4247 75.749 87.4763H75.749Z" fill="#FFB6B6"/>
<path d="M52.9678 58.3713C52.9678 58.3713 49.8625 57.9824 49.0655 61.4755C48.2685 64.9685 53.7316 74.7063 54.5651 76.3022C55.3987 77.8981 66.7595 81.3885 66.7595 81.3885L71.1341 79.1036L61.339 72.8956L52.9678 58.3713Z" fill="#0B8A44"/>
<path d="M58.5048 41.2697C58.9938 40.67 58.6115 39.7818 58.2105 39.12C57.2916 37.6038 56.3271 36.1164 55.3169 34.658C54.0546 32.8357 52.5252 30.9305 50.3518 30.4936C48.3697 30.0952 46.373 31.0371 44.6678 32.1232C42.9913 33.1911 41.3401 34.5362 40.702 36.4188C40.0913 38.2203 40.5202 40.2209 41.28 41.9648C41.9307 43.4584 42.8062 45.2444 41.8782 46.5834C41.4339 47.1336 40.8367 47.54 40.1619 47.7515C38.4481 48.4172 36.6065 48.6889 34.7734 48.5465C37.2902 48.5195 39.4933 51.1037 41.9331 50.4855C43.3167 50.1349 44.2381 48.845 44.9012 47.5811C45.3863 46.7323 45.7144 45.803 45.8699 44.8378C46.0311 43.5286 45.6824 42.151 46.1226 40.9075C46.5807 39.6133 47.7985 38.7474 49.0278 38.1362C49.8439 37.7303 50.7337 37.3914 51.6426 37.4602C54.2191 37.6552 55.5535 40.8264 57.9983 41.6626" fill="#2F2E41"/>
<path d="M146.074 58.9673H94.8313C94.4742 58.9669 94.1318 58.8248 93.8793 58.5723C93.6268 58.3198 93.4848 57.9775 93.4844 57.6204V36.8283C93.4848 36.4712 93.6268 36.1289 93.8793 35.8764C94.1318 35.6239 94.4742 35.4819 94.8313 35.4814H146.074C146.431 35.4819 146.773 35.6239 147.026 35.8764C147.278 36.1289 147.42 36.4712 147.421 36.8283V57.6204C147.42 57.9775 147.278 58.3198 147.026 58.5723C146.773 58.8248 146.431 58.9669 146.074 58.9673Z" fill="#0B8A44"/>
<path d="M141.194 68.9417H99.71C99.2814 68.9417 98.8703 68.7714 98.5671 68.4683C98.264 68.1652 98.0937 67.7541 98.0938 67.3254C98.0937 66.8968 98.264 66.4857 98.5671 66.1826C98.8703 65.8795 99.2814 65.7092 99.71 65.7092H141.194C143.279 65.6801 143.299 68.9711 141.194 68.9417Z" fill="#BABABA"/>
<path d="M141.193 76.3489H99.7084C99.4959 76.3492 99.2855 76.3077 99.0892 76.2266C98.8928 76.1455 98.7144 76.0265 98.564 75.8764C98.4137 75.7262 98.2945 75.548 98.2131 75.3517C98.1317 75.1555 98.0898 74.9451 98.0898 74.7327C98.0898 74.5202 98.1317 74.3099 98.2131 74.1136C98.2945 73.9174 98.4137 73.7391 98.564 73.589C98.7144 73.4389 98.8928 73.3199 99.0892 73.2388C99.2855 73.1577 99.4959 73.1161 99.7084 73.1164H141.193C143.277 73.0873 143.298 76.3783 141.193 76.3489Z" fill="#BABABA"/>
<path d="M141.194 83.7571H99.71C99.2814 83.7571 98.8703 83.5869 98.5671 83.2837C98.264 82.9806 98.0937 82.5695 98.0938 82.1409C98.0937 81.7122 98.264 81.3011 98.5671 80.998C98.8703 80.6949 99.2814 80.5246 99.71 80.5246H141.194C143.279 80.4955 143.299 83.7865 141.194 83.7571Z" fill="#BABABA"/>
<path d="M195.678 2.57339H189.712C189.595 2.57244 189.484 2.52546 189.402 2.44268C189.32 2.3599 189.273 2.24802 189.273 2.13142C189.273 2.01482 189.32 1.90294 189.402 1.82016C189.484 1.73738 189.595 1.6904 189.712 1.68945H195.678C195.795 1.6904 195.906 1.73738 195.989 1.82016C196.071 1.90294 196.117 2.01482 196.117 2.13142C196.117 2.24802 196.071 2.3599 195.989 2.44268C195.906 2.52546 195.795 2.57244 195.678 2.57339Z" fill="white"/>
<path d="M195.678 4.2316H189.711C189.594 4.2316 189.482 4.18504 189.399 4.10215C189.316 4.01927 189.27 3.90685 189.27 3.78963C189.27 3.67242 189.316 3.56001 189.399 3.47712C189.482 3.39424 189.594 3.34767 189.711 3.34767H195.678C195.736 3.34717 195.794 3.35823 195.848 3.38022C195.902 3.40221 195.952 3.43468 195.993 3.47577C196.034 3.51686 196.067 3.56575 196.09 3.61962C196.112 3.67349 196.124 3.73127 196.124 3.78963C196.124 3.84799 196.112 3.90578 196.09 3.95965C196.067 4.01352 196.034 4.06241 195.993 4.1035C195.952 4.14459 195.902 4.17707 195.848 4.19905C195.794 4.22104 195.736 4.2321 195.678 4.2316Z" fill="white"/>
<path d="M195.678 5.88882H189.711C189.594 5.88882 189.482 5.84225 189.399 5.75937C189.316 5.67648 189.27 5.56407 189.27 5.44685C189.27 5.32963 189.316 5.21722 189.399 5.13434C189.482 5.05145 189.594 5.00488 189.711 5.00488H195.678C195.795 5.00488 195.908 5.05145 195.991 5.13434C196.073 5.21722 196.12 5.32963 196.12 5.44685C196.12 5.56407 196.073 5.67648 195.991 5.75937C195.908 5.84225 195.795 5.88882 195.678 5.88882Z" fill="white"/>
</g>
<defs>
<clipPath id="clip0_255_37686">
<rect width="261.868" height="191" fill="white" transform="translate(0.0664062)"/>
</clipPath>
</defs>
</svg>
