<svg width="177" height="36" viewBox="0 0 177 36" fill="none" xmlns="http://www.w3.org/2000/svg">
<path d="M34.0843 15.8854L33.229 14.3324C33.0793 14.061 32.8802 13.8276 32.6363 13.6383L31.6795 12.8961L31.8669 11.3898C31.9072 11.0639 31.8415 10.7272 31.6813 10.4411L31.3582 9.86313C31.18 9.54545 30.8746 9.32411 30.5196 9.25582L29.5422 9.06776L29.2266 7.86441C29.1277 7.48751 28.8724 7.17242 28.5253 7.00085L27.063 6.27606C26.3364 5.91642 25.4898 5.95495 24.7982 6.37896L23.3118 7.29048C23.0224 7.46815 22.8041 7.74472 22.6973 8.06935C22.5116 8.63212 22.418 9.21777 22.418 9.81077V27.5713L23.4878 29.2034C23.866 29.78 24.4997 30.1241 25.1838 30.1241H26.0715C26.4426 30.1241 26.8091 30.0256 27.1311 29.8389L28.3247 29.1469C28.59 28.9931 28.8106 28.7704 28.9629 28.5025L29.2807 27.9436L30.4428 27.6843C30.9081 27.5806 31.3204 27.3105 31.604 26.9241L33.167 24.794C33.4984 24.3427 33.6804 23.7844 33.6804 23.222V21.7515C33.6804 21.4014 33.5929 21.0539 33.4265 20.7461L33.0965 20.1367L33.5955 19.6008C33.8372 19.341 34.0101 19.0203 34.0954 18.6741L34.3265 17.7366C34.4814 17.1081 34.3953 16.4508 34.084 15.8854H34.0843ZM29.2704 9.44656H29.2709L30.4379 9.67134C30.6681 9.71588 30.8668 9.86027 30.9828 10.0682L31.3063 10.6461C31.4231 10.8545 31.4708 11.1003 31.4415 11.3386L31.2244 13.0817L31.2427 13.096L29.224 16.9705L29.0608 16.8944L26.1457 11.1825L31.0939 13.1141L31.1945 12.8639L26.2016 10.9146L29.2703 9.44675L29.2704 9.44656ZM22.8467 14.3108L28.6875 17.0187L25.2331 19.379L22.8467 19.9176V14.3107V14.3108ZM25.2558 19.6505L29.9822 23.3979L26.3299 23.6746L22.8992 20.1822L25.2558 19.6505ZM25.5175 19.5126L28.9088 17.1955L29.0297 17.4319L30.1331 23.1723L25.5175 19.5126ZM23.1049 8.20039C23.1806 7.97045 23.3343 7.77505 23.5383 7.65021L25.0247 6.73868C25.5884 6.39288 26.2787 6.36131 26.871 6.65486L28.3333 7.37927C28.5697 7.49638 28.7439 7.71211 28.8118 7.97055L29.1374 9.211V9.21148L25.8656 10.7762L22.8817 9.21281C22.9215 8.8692 22.9964 8.53074 23.1049 8.20058V8.20039ZM22.8467 9.81087C22.8467 9.70844 22.8498 9.60601 22.8559 9.50397L25.7605 11.0254V11.0259L28.6607 16.7087L22.8467 14.0133V9.81077V9.81087ZM29.0009 27.5723L28.5895 28.295C28.4743 28.4977 28.3075 28.6659 28.108 28.7816L26.9144 29.4741C26.6579 29.6224 26.3668 29.701 26.0719 29.701H25.1842C24.6463 29.701 24.1469 29.4291 23.8484 28.9735L22.9222 27.561L26.1057 24.4931L25.9153 24.3004L22.847 27.2577V20.5158L26.1748 23.9032L29.0755 27.556L29.0011 27.5724L29.0009 27.5723ZM33.2523 21.7515V23.222C33.2523 23.6961 33.0987 24.1659 32.8203 24.5459L31.2573 26.6754C31.035 26.9789 30.7119 27.1902 30.3486 27.2715L29.3694 27.4902L26.5602 23.9524L26.5821 23.9312L26.5769 23.9261L30.2935 23.6443L30.5395 23.8397L29.3108 17.451L32.5778 20.0699L32.5761 20.0716L33.0488 20.946C33.1819 21.192 33.2523 21.4707 33.2523 21.7517V21.7515ZM33.9106 17.6363L33.6795 18.5737C33.6112 18.8508 33.4729 19.1071 33.2798 19.3142L32.7625 19.8708L29.417 17.1893L31.4611 13.2651L32.3715 13.9709C32.5689 14.1244 32.7309 14.3137 32.8521 14.5345L33.7074 16.0875C33.9679 16.5603 34.04 17.1106 33.9105 17.6362L33.9106 17.6363Z" fill="#04813C"/>
<path d="M22.6322 9.88524C23.0094 9.88524 23.3152 9.57517 23.3152 9.19268C23.3152 8.81019 23.0094 8.50012 22.6322 8.50012C22.255 8.50012 21.9492 8.81019 21.9492 9.19268C21.9492 9.57517 22.255 9.88524 22.6322 9.88524Z" fill="#010080"/>
<path d="M22.6307 10.0137C22.1818 10.0137 21.8164 9.64478 21.8164 9.1914C21.8164 8.73802 22.1817 8.36914 22.6307 8.36914C23.0798 8.36914 23.4451 8.73802 23.4451 9.1914C23.4451 9.64478 23.0798 10.0137 22.6307 10.0137ZM22.6307 8.62845C22.3265 8.62845 22.079 8.88098 22.079 9.1914C22.079 9.50183 22.3265 9.75436 22.6307 9.75436C22.935 9.75436 23.1825 9.50183 23.1825 9.1914C23.1825 8.88098 22.935 8.62845 22.6307 8.62845Z" fill="#98FF98"/>
<path d="M29.4252 9.84606C29.8024 9.84606 30.1082 9.53599 30.1082 9.1535C30.1082 8.77101 29.8024 8.46094 29.4252 8.46094C29.048 8.46094 28.7422 8.77101 28.7422 9.1535C28.7422 9.53599 29.048 9.84606 29.4252 9.84606Z" fill="#010080"/>
<path d="M29.4236 9.97656C28.9746 9.97656 28.6094 9.60767 28.6094 9.15429C28.6094 8.70092 28.9746 8.33203 29.4236 8.33203C29.8726 8.33203 30.238 8.70092 30.238 9.15429C30.238 9.60767 29.8727 9.97656 29.4236 9.97656ZM29.4236 8.59134C29.1194 8.59134 28.872 8.84387 28.872 9.15429C28.872 9.46472 29.1195 9.71725 29.4236 9.71725C29.7277 9.71725 29.9754 9.46472 29.9754 9.15429C29.9754 8.84387 29.7278 8.59134 29.4236 8.59134Z" fill="#98FF98"/>
<path d="M32.8392 20.7347C33.2165 20.7347 33.5222 20.4247 33.5222 20.0422C33.5222 19.6597 33.2165 19.3496 32.8392 19.3496C32.462 19.3496 32.1562 19.6597 32.1562 20.0422C32.1562 20.4247 32.462 20.7347 32.8392 20.7347Z" fill="#010080"/>
<path d="M32.8378 20.8652C32.3888 20.8652 32.0234 20.4963 32.0234 20.043C32.0234 19.5896 32.3887 19.2207 32.8378 19.2207C33.2869 19.2207 33.652 19.5896 33.652 20.043C33.652 20.4963 33.2868 20.8652 32.8378 20.8652ZM32.8378 19.48C32.5336 19.48 32.286 19.7325 32.286 20.043C32.286 20.3534 32.5336 20.6059 32.8378 20.6059C33.142 20.6059 33.3894 20.3534 33.3894 20.043C33.3894 19.7325 33.1419 19.48 32.8378 19.48Z" fill="#98FF98"/>
<path d="M30.1088 23.93C30.486 23.93 30.7918 23.62 30.7918 23.2375C30.7918 22.855 30.486 22.5449 30.1088 22.5449C29.7316 22.5449 29.4258 22.855 29.4258 23.2375C29.4258 23.62 29.7316 23.93 30.1088 23.93Z" fill="#010080"/>
<path d="M30.1073 24.0586C29.6583 24.0586 29.293 23.6897 29.293 23.2363C29.293 22.7829 29.6582 22.4141 30.1073 22.4141C30.5564 22.4141 30.9217 22.7829 30.9217 23.2363C30.9217 23.6897 30.5564 24.0586 30.1073 24.0586ZM30.1073 22.6734C29.8031 22.6734 29.5556 22.9259 29.5556 23.2363C29.5556 23.5467 29.8031 23.7993 30.1073 23.7993C30.4115 23.7993 30.6591 23.5467 30.6591 23.2363C30.6591 22.9259 30.4115 22.6734 30.1073 22.6734Z" fill="#98FF98"/>
<path d="M22.6317 15.0797C23.0927 15.0797 23.4665 14.7007 23.4665 14.2332C23.4665 13.7657 23.0927 13.3867 22.6317 13.3867C22.1706 13.3867 21.7969 13.7657 21.7969 14.2332C21.7969 14.7007 22.1706 15.0797 22.6317 15.0797Z" fill="#010080"/>
<path d="M22.6301 15.2102C22.0974 15.2102 21.6641 14.7723 21.6641 14.234C21.6641 13.6957 22.0974 13.2578 22.6301 13.2578C23.1628 13.2578 23.5963 13.6957 23.5963 14.234C23.5963 14.7723 23.1629 15.2102 22.6301 15.2102ZM22.6301 13.5171C22.2423 13.5171 21.9267 13.8387 21.9267 14.234C21.9267 14.6293 22.2423 14.9509 22.6301 14.9509C23.018 14.9509 23.3336 14.6293 23.3336 14.234C23.3336 13.8387 23.018 13.5171 22.6301 13.5171Z" fill="#98FF98"/>
<path d="M31.1317 13.9625C31.5927 13.9625 31.9665 13.5835 31.9665 13.116C31.9665 12.6485 31.5927 12.2695 31.1317 12.2695C30.6706 12.2695 30.2969 12.6485 30.2969 13.116C30.2969 13.5835 30.6706 13.9625 31.1317 13.9625Z" fill="#010080"/>
<path d="M31.1301 14.093C30.5974 14.093 30.1641 13.6551 30.1641 13.1168C30.1641 12.5786 30.5974 12.1406 31.1301 12.1406C31.6628 12.1406 32.0962 12.5786 32.0962 13.1168C32.0962 13.6551 31.6628 14.093 31.1301 14.093ZM31.1301 12.4C30.7423 12.4 30.4267 12.7216 30.4267 13.1169C30.4267 13.5122 30.7423 13.8337 31.1301 13.8337C31.518 13.8337 31.8336 13.5121 31.8336 13.1169C31.8336 12.7217 31.518 12.4 31.1301 12.4Z" fill="#98FF98"/>
<path d="M22.6322 20.8129C23.0094 20.8129 23.3152 20.5028 23.3152 20.1203C23.3152 19.7378 23.0094 19.4277 22.6322 19.4277C22.255 19.4277 21.9492 19.7378 21.9492 20.1203C21.9492 20.5028 22.255 20.8129 22.6322 20.8129Z" fill="#010080"/>
<path d="M22.6307 20.9434C22.1818 20.9434 21.8164 20.5745 21.8164 20.1211C21.8164 19.6677 22.1817 19.2988 22.6307 19.2988C23.0798 19.2988 23.4451 19.6677 23.4451 20.1211C23.4451 20.5745 23.0798 20.9434 22.6307 20.9434ZM22.6307 19.5581C22.3265 19.5581 22.079 19.8107 22.079 20.1211C22.079 20.4315 22.3265 20.684 22.6307 20.684C22.935 20.684 23.1825 20.4315 23.1825 20.1211C23.1825 19.8107 22.935 19.5581 22.6307 19.5581Z" fill="#98FF98"/>
<path d="M22.63 28.123C23.0491 28.123 23.3889 27.7785 23.3889 27.3535C23.3889 26.9285 23.0491 26.584 22.63 26.584C22.2109 26.584 21.8711 26.9285 21.8711 27.3535C21.8711 27.7785 22.2109 28.123 22.63 28.123Z" fill="#010080"/>
<path d="M22.6324 28.2535C22.1416 28.2535 21.7422 27.8501 21.7422 27.3543C21.7422 26.8585 22.1415 26.4551 22.6324 26.4551C23.1233 26.4551 23.5227 26.8585 23.5227 27.3543C23.5227 27.8501 23.1233 28.2535 22.6324 28.2535ZM22.6324 26.7144C22.2864 26.7144 22.0049 27.0014 22.0049 27.3543C22.0049 27.7072 22.2864 27.9942 22.6324 27.9942C22.9785 27.9942 23.26 27.7072 23.26 27.3543C23.26 27.0014 22.9785 26.7144 22.6324 26.7144Z" fill="#98FF98"/>
<path d="M25.3633 20.3114C25.8034 20.3114 26.1601 19.9496 26.1601 19.5034C26.1601 19.0571 25.8034 18.6953 25.3633 18.6953C24.9232 18.6953 24.5664 19.0571 24.5664 19.5034C24.5664 19.9496 24.9232 20.3114 25.3633 20.3114Z" fill="#010080"/>
<path d="M25.3618 20.4418C24.85 20.4418 24.4336 20.0211 24.4336 19.5041C24.4336 18.987 24.8499 18.5664 25.3618 18.5664C25.8737 18.5664 26.2899 18.9871 26.2899 19.5041C26.2899 20.021 25.8736 20.4418 25.3618 20.4418ZM25.3618 18.8258C24.9948 18.8258 24.6963 19.1301 24.6963 19.5042C24.6963 19.8782 24.9949 20.1825 25.3618 20.1825C25.7287 20.1825 26.0273 19.8782 26.0273 19.5042C26.0273 19.1301 25.7288 18.8258 25.3618 18.8258Z" fill="#98FF98"/>
<path d="M26.4659 24.9685C27.0317 24.9685 27.4904 24.5034 27.4904 23.9296C27.4904 23.3558 27.0317 22.8906 26.4659 22.8906C25.9001 22.8906 25.4414 23.3558 25.4414 23.9296C25.4414 24.5034 25.9001 24.9685 26.4659 24.9685Z" fill="#010080"/>
<path d="M26.4644 25.0988C25.8271 25.0988 25.3086 24.5746 25.3086 23.9303C25.3086 23.286 25.8271 22.7617 26.4644 22.7617C27.1017 22.7617 27.6203 23.286 27.6203 23.9303C27.6203 24.5746 27.1017 25.0988 26.4644 25.0988ZM26.4644 23.021C25.9719 23.021 25.5712 23.4289 25.5712 23.9303C25.5712 24.4316 25.9719 24.8395 26.4644 24.8395C26.957 24.8395 27.3577 24.4316 27.3577 23.9303C27.3577 23.4289 26.957 23.021 26.4644 23.021Z" fill="#98FF98"/>
<path d="M26.0089 11.9626C26.5747 11.9626 27.0334 11.4975 27.0334 10.9237C27.0334 10.3499 26.5747 9.88477 26.0089 9.88477C25.4431 9.88477 24.9844 10.3499 24.9844 10.9237C24.9844 11.4975 25.4431 11.9626 26.0089 11.9626Z" fill="#010080"/>
<path d="M26.0112 12.0929C25.3739 12.0929 24.8555 11.5687 24.8555 10.9244C24.8555 10.2801 25.374 9.75586 26.0112 9.75586C26.6484 9.75586 27.167 10.2801 27.167 10.9244C27.167 11.5687 26.6485 12.0929 26.0112 12.0929ZM26.0112 10.0152C25.5187 10.0152 25.1181 10.4231 25.1181 10.9244C25.1181 11.4257 25.5187 11.8336 26.0112 11.8336C26.5038 11.8336 26.9045 11.4257 26.9045 10.9244C26.9045 10.4231 26.5038 10.0152 26.0112 10.0152Z" fill="#98FF98"/>
<path d="M29.3878 28.738C29.9536 28.738 30.4123 28.2729 30.4123 27.6991C30.4123 27.1253 29.9536 26.6602 29.3878 26.6602C28.822 26.6602 28.3633 27.1253 28.3633 27.6991C28.3633 28.2729 28.822 28.738 29.3878 28.738Z" fill="#010080"/>
<path d="M29.3863 28.8683C28.749 28.8683 28.2305 28.3441 28.2305 27.6998C28.2305 27.0555 28.749 26.5312 29.3863 26.5312C30.0236 26.5312 30.5421 27.0555 30.5421 27.6998C30.5421 28.3441 30.0236 28.8683 29.3863 28.8683ZM29.3863 26.7906C28.8938 26.7906 28.4931 27.1984 28.4931 27.6998C28.4931 28.2011 28.8938 28.609 29.3863 28.609C29.8789 28.609 30.2795 28.2011 30.2795 27.6998C30.2795 27.1984 29.8789 26.7906 29.3863 26.7906Z" fill="#98FF98"/>
<path d="M29.1579 18.2344C29.7866 18.2344 30.2962 17.7176 30.2962 17.0801C30.2962 16.4426 29.7866 15.9258 29.1579 15.9258C28.5292 15.9258 28.0195 16.4426 28.0195 17.0801C28.0195 17.7176 28.5292 18.2344 29.1579 18.2344Z" fill="#010080"/>
<path d="M29.1602 18.3649C28.4601 18.3649 27.8906 17.7889 27.8906 17.0809C27.8906 16.3729 28.4602 15.7969 29.1602 15.7969C29.8602 15.7969 30.4298 16.3729 30.4298 17.0809C30.4298 17.7889 29.8602 18.3649 29.1602 18.3649ZM29.1602 16.0563C28.605 16.0563 28.1532 16.5159 28.1532 17.0809C28.1532 17.6459 28.605 18.1055 29.1602 18.1055C29.7155 18.1055 30.1672 17.6459 30.1672 17.0809C30.1672 16.5159 29.7155 16.0563 29.1602 16.0563Z" fill="#98FF98"/>
<path d="M20.3272 8.0756C20.2213 7.75536 20.0059 7.48213 19.7205 7.30713L18.2341 6.3956C17.5482 5.97503 16.7087 5.93698 15.9887 6.29356L14.5258 7.01835C14.1839 7.18735 13.9323 7.49767 13.8347 7.86942L13.5165 9.0844L12.5269 9.27504C12.1775 9.34199 11.8769 9.55991 11.7018 9.87281L11.3784 10.4507C11.2204 10.733 11.1556 11.0658 11.1955 11.3878L11.3841 12.9045L10.4185 13.6535C10.1768 13.8411 9.97944 14.0723 9.8311 14.3416L8.97581 15.8945C8.66676 16.456 8.581 17.1087 8.73466 17.7319L8.96577 18.6694C9.05066 19.0126 9.22179 19.3302 9.46169 19.5878L9.88934 20.0477L9.9694 20.1337L9.91203 20.2396L9.63321 20.7552C9.46865 21.0599 9.38153 21.4044 9.38153 21.7515V23.222C9.38153 23.7805 9.56233 24.3346 9.89146 24.7828L11.4545 26.9124C11.7355 27.2954 12.1435 27.5629 12.6039 27.6658L13.7744 27.9268L14.0965 28.493C14.2476 28.7579 14.4656 28.9784 14.7277 29.1301L15.9218 29.8225C16.2404 30.0075 16.6037 30.1052 16.9714 30.1052H17.859C18.5361 30.1052 19.1642 29.7642 19.5385 29.1932L20.1679 28.2324C20.4541 27.7962 20.6052 27.291 20.6052 26.7714V9.81092C20.6052 9.22002 20.5115 8.63617 20.3272 8.07551V8.0756ZM11.7193 10.6365L12.0427 10.0586C12.1618 9.84592 12.3653 9.69771 12.6012 9.65232L13.6994 9.44137L17.3477 12.2863L11.7683 12.8361L11.5822 11.3406C11.552 11.0986 11.6006 10.8487 11.7193 10.6365ZM9.74834 19.3277C9.55315 19.1176 9.4135 18.8588 9.34435 18.5787L9.11324 17.6412C8.98277 17.1108 9.05549 16.5559 9.31808 16.0783L10.1734 14.5253C10.2959 14.3027 10.4596 14.1112 10.6593 13.9561L11.7526 13.1081L17.2918 12.563L12.9147 16.3973L18.0154 18.5412C17.923 18.5753 17.814 18.6168 17.6919 18.6627C17.3518 18.791 16.8783 18.9708 16.2851 19.1973C15.3554 19.5526 14.4265 19.9088 14.2677 19.9697H10.3459L9.74843 19.3279L9.74834 19.3277ZM16.7372 25.5738L10.3124 20.3166L10.3545 20.2388H14.2597L14.4982 20.3607L16.7371 25.5738H16.7372ZM14.8782 20.5553L20.1675 23.264L17.1342 25.8094L14.8782 20.5553ZM13.9581 27.5733L12.6897 27.2901C12.322 27.2084 11.995 26.994 11.7696 26.6867L10.207 24.5572C9.92594 24.1742 9.77103 23.7001 9.77103 23.222V21.7515C9.77103 21.4675 9.8424 21.1857 9.97674 20.9368L10.1811 20.5591L16.8395 26.0081L13.9581 27.5732V27.5733ZM20.2156 26.7715C20.2156 27.2167 20.086 27.6498 19.8409 28.0237L19.211 28.9841C18.909 29.4453 18.4034 29.7202 17.8589 29.7202H16.9713C16.6727 29.7202 16.3782 29.6411 16.1186 29.4906L14.925 28.7987C14.7224 28.6811 14.5533 28.5104 14.4365 28.3047L14.1393 27.7825L17.0654 26.1928L17.1468 26.1483L17.1591 26.1418L17.2457 26.0692L20.2156 23.577V26.7715ZM20.2156 22.9852L14.7114 20.1667H14.711L14.6825 20.0993C16.1448 19.5382 18.0651 18.8056 18.3789 18.6941L18.4161 18.7097L20.2155 16.9666V22.9853L20.2156 22.9852ZM20.2156 16.5896L18.3553 18.3911L13.4184 16.316L17.7666 12.5068L20.2156 11.7313V16.5896ZM20.2156 11.4487L17.725 12.2375L13.8785 9.23823L14.212 7.96574C14.2812 7.70166 14.4594 7.48165 14.7005 7.36196L16.1634 6.63755C16.4356 6.5027 16.7281 6.43566 17.0199 6.43566C17.3696 6.43566 17.7181 6.5316 18.0284 6.72224L19.5148 7.63376C19.7228 7.76127 19.8794 7.96049 19.9565 8.19433C20.1285 8.71647 20.2156 9.26064 20.2156 9.81082V11.4485V11.4487Z" fill="#04813C"/>
<path d="M11.6283 13.6566C12.0055 13.6566 12.3113 13.3465 12.3113 12.964C12.3113 12.5816 12.0055 12.2715 11.6283 12.2715C11.2511 12.2715 10.9453 12.5816 10.9453 12.964C10.9453 13.3465 11.2511 13.6566 11.6283 13.6566Z" fill="#010080"/>
<path d="M11.6268 13.7852C11.1779 13.7852 10.8125 13.4163 10.8125 12.9629C10.8125 12.5095 11.1778 12.1406 11.6268 12.1406C12.0759 12.1406 12.4412 12.5095 12.4412 12.9629C12.4412 13.4163 12.0759 13.7852 11.6268 13.7852ZM11.6268 12.3999C11.3226 12.3999 11.0751 12.6525 11.0751 12.9629C11.0751 13.2733 11.3226 13.5258 11.6268 13.5258C11.9311 13.5258 12.1786 13.2733 12.1786 12.9629C12.1786 12.6525 11.9311 12.3999 11.6268 12.3999Z" fill="#98FF98"/>
<path d="M13.8275 28.4691C14.2047 28.4691 14.5105 28.159 14.5105 27.7765C14.5105 27.3941 14.2047 27.084 13.8275 27.084C13.4503 27.084 13.1445 27.3941 13.1445 27.7765C13.1445 28.159 13.4503 28.4691 13.8275 28.4691Z" fill="#010080"/>
<path d="M13.83 28.5996C13.381 28.5996 13.0156 28.2307 13.0156 27.7773C13.0156 27.324 13.3809 26.9551 13.83 26.9551C14.2791 26.9551 14.6442 27.324 14.6442 27.7773C14.6442 28.2307 14.279 28.5996 13.83 28.5996ZM13.83 27.2144C13.5257 27.2144 13.2782 27.4669 13.2782 27.7773C13.2782 28.0878 13.5257 28.3403 13.83 28.3403C14.1342 28.3403 14.3816 28.0878 14.3816 27.7773C14.3816 27.4669 14.1341 27.2144 13.83 27.2144Z" fill="#98FF98"/>
<path d="M20.3939 17.35C20.7711 17.35 21.0769 17.0399 21.0769 16.6574C21.0769 16.2749 20.7711 15.9648 20.3939 15.9648C20.0167 15.9648 19.7109 16.2749 19.7109 16.6574C19.7109 17.0399 20.0167 17.35 20.3939 17.35Z" fill="#010080"/>
<path d="M20.3925 17.4785C19.9435 17.4785 19.5781 17.1096 19.5781 16.6562C19.5781 16.2029 19.9434 15.834 20.3925 15.834C20.8415 15.834 21.2067 16.2029 21.2067 16.6562C21.2067 17.1096 20.8415 17.4785 20.3925 17.4785ZM20.3925 16.0933C20.0882 16.0933 19.8407 16.3458 19.8407 16.6562C19.8407 16.9667 20.0882 17.2192 20.3925 17.2192C20.6967 17.2192 20.9441 16.9667 20.9441 16.6562C20.9441 16.3458 20.6966 16.0933 20.3925 16.0933Z" fill="#98FF98"/>
<path d="M20.3939 12.1547C20.7711 12.1547 21.0769 11.8446 21.0769 11.4621C21.0769 11.0796 20.7711 10.7695 20.3939 10.7695C20.0167 10.7695 19.7109 11.0796 19.7109 11.4621C19.7109 11.8446 20.0167 12.1547 20.3939 12.1547Z" fill="#010080"/>
<path d="M20.3925 12.2851C19.9435 12.2851 19.5781 11.9163 19.5781 11.4629C19.5781 11.0095 19.9434 10.6406 20.3925 10.6406C20.8415 10.6406 21.2067 11.0095 21.2067 11.4629C21.2067 11.9163 20.8415 12.2851 20.3925 12.2851ZM20.3925 10.8999C20.0882 10.8999 19.8407 11.1525 19.8407 11.4629C19.8407 11.7733 20.0882 12.0258 20.3925 12.0258C20.6967 12.0258 20.9441 11.7733 20.9441 11.4629C20.9441 11.1525 20.6966 10.8999 20.3925 10.8999Z" fill="#98FF98"/>
<path d="M20.3934 24.0074C20.8545 24.0074 21.2282 23.6284 21.2282 23.1609C21.2282 22.6934 20.8545 22.3145 20.3934 22.3145C19.9324 22.3145 19.5586 22.6934 19.5586 23.1609C19.5586 23.6284 19.9324 24.0074 20.3934 24.0074Z" fill="#010080"/>
<path d="M20.3919 24.136C19.8592 24.136 19.4258 23.698 19.4258 23.1598C19.4258 22.6215 19.8591 22.1836 20.3919 22.1836C20.9248 22.1836 21.358 22.6215 21.358 23.1598C21.358 23.698 20.9247 24.136 20.3919 24.136ZM20.3919 22.4429C20.004 22.4429 19.6885 22.7645 19.6885 23.1598C19.6885 23.5551 20.0041 23.8767 20.3919 23.8767C20.7798 23.8767 21.0954 23.5551 21.0954 23.1598C21.0954 22.7645 20.7798 22.4429 20.3919 22.4429Z" fill="#98FF98"/>
<path d="M13.6786 10.0777C14.1396 10.0777 14.5134 9.69875 14.5134 9.23125C14.5134 8.76375 14.1396 8.38477 13.6786 8.38477C13.2175 8.38477 12.8438 8.76375 12.8438 9.23125C12.8438 9.69875 13.2175 10.0777 13.6786 10.0777Z" fill="#010080"/>
<path d="M13.6771 10.2063C13.1444 10.2063 12.7109 9.76835 12.7109 9.23009C12.7109 8.69184 13.1443 8.25391 13.6771 8.25391C14.2099 8.25391 14.6432 8.69184 14.6432 9.23009C14.6432 9.76835 14.2098 10.2063 13.6771 10.2063ZM13.6771 8.51321C13.2891 8.51321 12.9736 8.83479 12.9736 9.23009C12.9736 9.62539 13.2892 9.94697 13.6771 9.94697C14.065 9.94697 14.3806 9.62539 14.3806 9.23009C14.3806 8.83479 14.065 8.51321 13.6771 8.51321Z" fill="#98FF98"/>
<path d="M14.5111 20.7347C14.8883 20.7347 15.1941 20.4247 15.1941 20.0422C15.1941 19.6597 14.8883 19.3496 14.5111 19.3496C14.1339 19.3496 13.8281 19.6597 13.8281 20.0422C13.8281 20.4247 14.1339 20.7347 14.5111 20.7347Z" fill="#010080"/>
<path d="M14.5135 20.8652C14.0645 20.8652 13.6992 20.4963 13.6992 20.043C13.6992 19.5896 14.0645 19.2207 14.5135 19.2207C14.9625 19.2207 15.3278 19.5896 15.3278 20.043C15.3278 20.4963 14.9625 20.8652 14.5135 20.8652ZM14.5135 19.48C14.2092 19.48 13.9618 19.7325 13.9618 20.043C13.9618 20.3534 14.2093 20.6059 14.5135 20.6059C14.8176 20.6059 15.0652 20.3534 15.0652 20.043C15.0652 19.7325 14.8177 19.48 14.5135 19.48Z" fill="#98FF98"/>
<path d="M18.1942 19.273C18.6552 19.273 19.029 18.8941 19.029 18.4266C19.029 17.9591 18.6552 17.5801 18.1942 17.5801C17.7331 17.5801 17.3594 17.9591 17.3594 18.4266C17.3594 18.8941 17.7331 19.273 18.1942 19.273Z" fill="#010080"/>
<path d="M18.1926 19.4034C17.6599 19.4034 17.2266 18.9655 17.2266 18.4272C17.2266 17.889 17.6599 17.451 18.1926 17.451C18.7253 17.451 19.1588 17.889 19.1588 18.4272C19.1588 18.9655 18.7254 19.4034 18.1926 19.4034ZM18.1926 17.7104C17.8048 17.7104 17.4892 18.0319 17.4892 18.4272C17.4892 18.8225 17.8048 19.1441 18.1926 19.1441C18.5805 19.1441 18.8961 18.8225 18.8961 18.4272C18.8961 18.0319 18.5805 17.7104 18.1926 17.7104Z" fill="#98FF98"/>
<path d="M17.169 26.9685C17.7348 26.9685 18.1935 26.5034 18.1935 25.9296C18.1935 25.3558 17.7348 24.8906 17.169 24.8906C16.6032 24.8906 16.1445 25.3558 16.1445 25.9296C16.1445 26.5034 16.6032 26.9685 17.169 26.9685Z" fill="#010080"/>
<path d="M17.1676 27.0989C16.5302 27.0989 16.0117 26.5747 16.0117 25.9303C16.0117 25.2859 16.5302 24.7617 17.1676 24.7617C17.8049 24.7617 18.3234 25.286 18.3234 25.9303C18.3234 26.5746 17.8049 27.0989 17.1676 27.0989ZM17.1676 25.021C16.675 25.021 16.2743 25.4289 16.2743 25.9303C16.2743 26.4316 16.675 26.8395 17.1676 26.8395C17.6601 26.8395 18.0608 26.4316 18.0608 25.9303C18.0608 25.4289 17.6601 25.021 17.1676 25.021Z" fill="#98FF98"/>
<path d="M9.88387 21.1599C10.4497 21.1599 10.9084 20.6948 10.9084 20.121C10.9084 19.5472 10.4497 19.082 9.88387 19.082C9.31806 19.082 8.85938 19.5472 8.85938 20.121C8.85938 20.6948 9.31806 21.1599 9.88387 21.1599Z" fill="#010080"/>
<path d="M9.8824 21.2883C9.24509 21.2883 8.72656 20.764 8.72656 20.1197C8.72656 19.4754 9.24509 18.9512 9.8824 18.9512C10.5197 18.9512 11.0382 19.4754 11.0382 20.1197C11.0382 20.764 10.5197 21.2883 9.8824 21.2883ZM9.8824 19.2105C9.38986 19.2105 8.98916 19.6184 8.98916 20.1197C8.98916 20.6211 9.38986 21.029 9.8824 21.029C10.3749 21.029 10.7756 20.6211 10.7756 20.1197C10.7756 19.6184 10.3749 19.2105 9.8824 19.2105Z" fill="#98FF98"/>
<path d="M17.169 13.3103C17.7348 13.3103 18.1935 12.8451 18.1935 12.2714C18.1935 11.6976 17.7348 11.2324 17.169 11.2324C16.6032 11.2324 16.1445 11.6976 16.1445 12.2714C16.1445 12.8451 16.6032 13.3103 17.169 13.3103Z" fill="#010080"/>
<path d="M17.1676 13.4386C16.5302 13.4386 16.0117 12.9144 16.0117 12.2701C16.0117 11.6258 16.5302 11.1016 17.1676 11.1016C17.8049 11.1016 18.3234 11.6258 18.3234 12.2701C18.3234 12.9144 17.8049 13.4386 17.1676 13.4386ZM17.1676 11.3609C16.675 11.3609 16.2743 11.7688 16.2743 12.2701C16.2743 12.7715 16.675 13.1793 17.1676 13.1793C17.6601 13.1793 18.0608 12.7715 18.0608 12.2701C18.0608 11.7688 17.6601 11.3609 17.1676 11.3609Z" fill="#98FF98"/>
<path d="M13.6774 17.3887C14.3061 17.3887 14.8158 16.8719 14.8158 16.2344C14.8158 15.5969 14.3061 15.0801 13.6774 15.0801C13.0487 15.0801 12.5391 15.5969 12.5391 16.2344C12.5391 16.8719 13.0487 17.3887 13.6774 17.3887Z" fill="#010080"/>
<path d="M13.6798 17.5173C12.9797 17.5173 12.4102 16.9413 12.4102 16.2333C12.4102 15.5252 12.9798 14.9492 13.6798 14.9492C14.3798 14.9492 14.9494 15.5252 14.9494 16.2333C14.9494 16.9413 14.3798 17.5173 13.6798 17.5173ZM13.6798 15.2086C13.1245 15.2086 12.6727 15.6683 12.6727 16.2333C12.6727 16.7982 13.1245 17.2579 13.6798 17.2579C14.235 17.2579 14.6868 16.7982 14.6868 16.2333C14.6868 15.6683 14.235 15.2086 13.6798 15.2086Z" fill="#98FF98"/>
<path d="M48.0356 14.8789V16.9293C48.0356 18.9378 46.9173 22.6476 45.0968 24.1286L44.7742 24.3919L44.4516 24.1286C42.578 22.5989 41.5418 18.9006 41.5418 16.9293V14.8789H39.7734V16.9293C39.7734 20.1013 41.3872 23.5879 42.947 25.1262C43.5989 25.7442 44.1967 26.0455 44.7742 26.0455C46.2808 26.0455 47.5585 24.0533 48.1863 22.866C49.1955 20.9519 49.775 18.788 49.775 16.9293V14.8789H48.0356Z" fill="#06007C"/>
<path d="M55.163 16.6258H61.9234V14.9082H55.163C53.3754 14.9082 51.9219 16.3311 51.9219 18.0792C51.9219 18.8173 52.1624 19.4973 52.6375 20.0981L52.8886 20.4138L52.6298 20.7247C52.173 21.274 51.9219 21.9778 51.9219 22.7055C51.9219 24.4707 53.3754 25.907 55.163 25.907H61.9234V24.1598H55.163C54.3373 24.1598 53.6902 23.5209 53.6902 22.7055C53.6902 21.9664 54.2243 21.3684 54.9612 21.2826L55.0133 21.2797H59.8229V19.5335L54.9612 19.5307C54.2243 19.4449 53.6902 18.8345 53.6902 18.0792C53.6902 17.2647 54.3373 16.6258 55.163 16.6258Z" fill="#06007C"/>
<path d="M70.7519 21.6963L70.4487 21.3978L70.7973 21.1527C71.7322 20.4918 72.2914 19.417 72.2914 18.2754C72.2914 16.3233 70.6949 14.7363 68.7354 14.7363H63.9297V26.0489H65.9887V21.7878H66.3509C68.5973 21.7878 70.3675 24.0023 70.5578 26.0489H72.6197C72.5144 24.4925 71.7467 22.6805 70.7519 21.6963ZM68.7354 19.9272H65.8439V16.6256H68.7354C69.6567 16.6256 70.4071 17.3656 70.4071 18.2754C70.4071 19.1852 69.6567 19.9272 68.7354 19.9272Z" fill="#06007C"/>
<path d="M74.6406 14.8789V16.6251H78.2748V25.9063H80.0412V16.6251H83.6764V14.8789H74.6406Z" fill="#06007C"/>
<path d="M85.8242 14.8789V25.9063H87.5935V14.8789H85.8242Z" fill="#06007C"/>
<path d="M95.3147 16.6251H99.2078V14.8789H95.3147C92.2446 14.8789 89.7461 17.3585 89.7461 20.4055C89.7461 23.4525 92.2446 25.9063 95.3147 25.9063H99.2078V24.1592H95.3147C93.2181 24.1592 91.5135 22.4759 91.5135 20.4055C91.5135 18.3217 93.2181 16.6251 95.3147 16.6251Z" fill="#06007C"/>
<path d="M105.989 14.7362C103.354 14.7362 101.211 16.8658 101.211 19.4808V26.0487H103.269V21.843H105.989C107.503 21.843 108.735 23.0599 108.735 24.5553V26.0487H110.793V19.4808C110.793 16.8658 108.638 14.7362 105.989 14.7362ZM108.88 20.8674L108.139 20.4869C107.488 20.1521 106.764 19.9824 105.989 19.9824H103.124V19.4817C103.124 17.8805 104.383 16.6254 105.989 16.6254C107.583 16.6254 108.88 17.9072 108.88 19.4817V20.8674Z" fill="#06007C"/>
<path d="M116.435 24.1592C115.389 24.1592 114.538 23.3314 114.538 22.3128V14.8789H112.797V22.3128C112.797 24.2936 114.429 25.9063 116.435 25.9063H119.903V24.1592H116.435Z" fill="#06007C"/>
<path d="M134.921 14.8789C134.066 14.8789 133.205 15.2012 132.56 15.763L132.223 16.0529L131.889 15.763C131.243 15.2012 130.382 14.8789 129.527 14.8789C127.552 14.8789 125.945 16.4649 125.945 18.4142V25.9063H127.714V18.4142C127.714 17.4281 128.527 16.6251 129.527 16.6251C130.528 16.6251 131.341 17.4281 131.341 18.4142V25.9063H133.107V18.4142C133.107 17.4453 133.938 16.6251 134.921 16.6251C135.937 16.6251 136.764 17.4281 136.764 18.4142V25.9063H138.503V18.4142C138.503 16.4649 136.896 14.8789 134.921 14.8789Z" fill="#06007C"/>
<path d="M140.652 14.8789V25.9063H142.419V14.8789H140.652Z" fill="#06007C"/>
<path d="M149.203 14.8789C146.649 14.8789 144.57 16.9436 144.57 19.4814V25.9063H146.339V19.4814C146.339 17.8801 147.597 16.6251 149.203 16.6251C150.798 16.6251 152.095 17.9068 152.095 19.4814V25.9063H153.863V19.4814C153.863 16.9436 151.772 14.8789 149.203 14.8789Z" fill="#06007C"/>
<path d="M159.88 14.8789H156.016V16.6251H159.88C161.991 16.6251 163.708 18.3217 163.708 20.4055C163.708 22.4759 161.991 24.1592 159.88 24.1592H157.782V18.2931H156.016V25.9063H159.88C162.966 25.9063 165.477 23.4382 165.477 20.4055C165.477 17.3728 162.966 14.8789 159.88 14.8789Z" fill="#06007C"/>
<path d="M170.838 16.6262H176.663V14.9086H170.867C170.005 14.8953 169.193 15.2157 168.582 15.8108C167.965 16.4116 167.625 17.2175 167.625 18.0796C167.625 19.8286 169.066 21.2515 170.838 21.2515H173.422C174.22 21.2515 174.894 21.9172 174.894 22.7059V22.7345C174.894 23.5213 174.234 24.1602 173.422 24.1602H167.625V25.9074H173.422C175.209 25.9074 176.663 24.4835 176.663 22.7345V22.7059C176.663 20.9568 175.209 19.5339 173.422 19.5339H170.838C170.041 19.5339 169.394 18.8816 169.394 18.0796C169.394 17.2775 170.041 16.6262 170.838 16.6262Z" fill="#06007C"/>
</svg>
