<svg width="48" height="73" viewBox="0 0 48 73" fill="none" xmlns="http://www.w3.org/2000/svg">
<path d="M34.9787 22.3933C34.9787 22.3933 34.9831 24.4454 34.8611 24.7852C34.8088 24.9353 34.5301 25.1648 34.3298 25.5708C34.0031 26.2328 33.9291 27.1816 33.9291 27.1816L33.2932 29.525L32.2959 28.0951C32.2959 28.0951 32.6312 26.6741 32.7009 26.193C32.8272 25.306 32.8795 24.7941 32.8795 24.7941C32.8795 24.7941 33.3847 24.2071 33.4457 24.0306C33.6155 23.5319 34.0423 22.7419 34.2296 22.5521C34.4822 22.2962 34.1077 24.0879 34.1077 24.0879C34.1077 24.0879 34.4169 22.1152 34.6433 22.1152C34.8698 22.1152 34.6346 23.3642 34.6346 23.3642C34.6346 23.3642 34.6303 22.2653 34.9787 22.3933Z" fill="#FFBDAE"/>
<path d="M19.0205 20.8809C19.138 20.8676 19.1947 20.9691 19.2121 21.1148C19.2556 20.872 19.3166 20.669 19.4037 20.6911C19.53 20.722 19.5387 21.3751 19.5257 21.9356C19.5561 21.4899 19.6128 21.0486 19.7129 21.2119C19.8523 21.4413 19.9742 22.5093 20.0265 23.0345C20.0439 23.2199 20.131 23.2993 20.2878 23.4052C20.2878 23.4052 20.4794 22.0813 20.6754 22.399C20.8714 22.7168 20.4969 25.0072 20.4969 25.0072L20.3618 27.0549L19.1468 27.2271L19.0901 26.0223C19.0901 26.0223 19.26 25.5147 19.1598 24.8395C19.064 24.1952 18.6938 23.392 18.6024 23.2419C18.4151 22.933 19.0205 20.8809 19.0205 20.8809Z" fill="#FFBDAE"/>
<path d="M15.859 16.2491C17.3224 19.4751 18.8772 19.5237 19.4433 21.439C20.2098 24.0428 20.1924 24.5768 20.9023 24.5768C25.1181 24.5768 25.4012 24.7313 25.6625 24.1532C26.2984 22.7498 25.9021 23.2264 27.9359 23.116C28.3889 23.0896 28.4716 23.5 28.7939 24.2149C29.016 24.7048 29.0247 24.5724 33.6543 24.5724C34.73 24.5724 34.1247 21.6464 36.3023 19.4398C38.2534 17.4671 39.4424 14.8589 39.4424 11.9992C39.4424 9.70872 38.715 8.38475 38.7934 8.3671C39.303 8.22147 39.7341 7.82869 40.0739 7.46239C40.1043 7.4315 41.3369 7.84193 42.0293 6.0281C41.6548 6.82248 41.0581 7.46239 40.2089 7.27704C40.6313 6.56651 40.6662 5.50734 39.9911 4.84095C39.377 4.28047 37.8745 4.88067 39.0199 6.59299C39.4249 7.20201 39.5338 7.04314 39.3944 7.1623C39.1723 7.34765 38.7368 7.65216 38.4537 7.60362C34.0593 -1.66412 19.4607 -1.22721 15.6761 8.19057C15.5585 8.48626 15.4583 8.47743 14.0081 9.18355C13.4854 9.43951 13.5987 9.51012 13.0107 13.7777C12.8191 15.1943 15.2536 14.9163 15.859 16.2491ZM39.033 5.30434C39.1506 5.0925 39.4772 5.03513 39.6514 5.20283C40.1087 5.74566 39.9432 6.53121 39.6383 6.94164C39.2986 6.59299 38.8021 5.71918 39.033 5.30434Z" fill="#2FCBED"/>
<path d="M16.9388 8.8921C16.8735 9.27164 16.9345 9.60263 17.0738 9.6247C17.2089 9.64676 17.3744 9.3599 17.4353 8.97595C17.5007 8.59642 17.4397 8.26543 17.3003 8.24336C17.1653 8.2213 16.9998 8.51257 16.9388 8.8921Z" fill="#184655"/>
<path d="M22.4567 2.5235C22.1301 2.17486 20.1267 0.228633 16.4727 0.109476C16.3377 0.105063 16.2506 0.246285 16.3072 0.365442C16.7384 1.27456 18.1407 4.33733 18.5501 6.51304C18.5676 6.60131 18.646 6.66309 18.7331 6.65868C19.4647 6.62778 22.5351 6.27473 22.509 2.64266C22.5046 2.60294 22.4872 2.55881 22.4567 2.5235Z" fill="#2FCBED"/>
<path opacity="0.5" d="M20.1967 3.84295C20.1967 3.76351 20.1923 3.68407 20.188 3.60905C20.127 2.8588 19.7917 2.16593 19.2647 1.63635C18.6463 1.0185 17.7055 0.369754 16.3641 0.144681C16.3903 0.122615 16.4295 0.109375 16.473 0.109375C20.127 0.232945 22.1304 2.17917 22.457 2.5234C22.4875 2.55429 22.5049 2.59842 22.5049 2.64697C22.5311 6.27463 19.4607 6.62768 18.729 6.66299C18.6419 6.6674 18.5635 6.60562 18.5461 6.51735C18.533 6.45998 18.5243 6.3982 18.5112 6.33641C19.4999 6.01425 20.0748 5.57293 20.1967 3.84295Z" fill="#80E4FA"/>
<path opacity="0.2" d="M32.5525 3.77724C32.191 4.34654 32.718 5.33951 33.724 5.99708C34.7344 6.65465 35.8407 6.72526 36.2021 6.15596C36.5636 5.58665 36.0366 4.59368 35.0306 3.93611C34.0245 3.27854 32.914 3.20793 32.5525 3.77724Z" fill="white"/>
<path d="M24.2042 2.51681C27.758 1.33849 30.8851 2.49916 30.9155 2.5124L31.1464 2.05784C31.1115 2.0446 30.2884 1.73568 28.9949 1.5768C27.8016 1.43116 25.9681 1.40027 23.9995 2.04901L24.2042 2.51681Z" fill="#184655"/>
<path opacity="0.5" d="M39.4428 12.0075C39.4428 9.71704 38.7155 8.39307 38.7938 8.37542C39.3034 8.22979 39.7346 7.83701 40.0743 7.47071C40.1048 7.43982 41.3373 7.85025 42.0298 6.03642C41.6552 6.8308 41.0585 7.47071 40.2093 7.28536C40.6317 6.57483 40.6666 5.51566 39.9915 4.84927C39.3774 4.28879 37.8749 4.88899 39.0203 6.60131C39.4254 7.21033 39.5342 7.05146 39.3949 7.17062C39.1727 7.35597 38.7372 7.66048 38.4541 7.61194C36.2809 3.03544 31.6296 0.820008 27.0174 0.886206C28.8814 2.34256 30.6279 4.77866 31.0939 7.88555C31.9257 13.4197 27.1307 17.3519 21.0421 16.5531C16.3603 15.9397 15.5981 15.7058 15.4326 15.6881C15.4544 15.7058 15.4718 15.7278 15.4892 15.7499C15.646 15.8867 15.7723 16.05 15.8638 16.2442C17.3271 19.4702 18.8819 19.5188 19.4481 21.4341C20.2146 24.0379 20.1972 24.5719 20.9071 24.5719C25.1229 24.5719 25.406 24.7264 25.6673 24.1482C26.3032 22.7448 25.9068 23.2215 27.9407 23.1111C28.3937 23.0846 28.4764 23.4951 28.7987 24.21C29.0208 24.6999 29.0295 24.5675 33.6591 24.5675C34.7348 24.5675 34.1294 21.6415 36.307 19.4349C38.2538 17.4755 39.4428 14.8673 39.4428 12.0075ZM39.0334 5.30383C39.151 5.09199 39.4776 5.03462 39.6518 5.20232C40.1091 5.74515 39.9436 6.5307 39.6388 6.94113C39.299 6.59248 38.8026 5.71867 39.0334 5.30383Z" fill="#80E4FA"/>
<path d="M20.5319 22.2444C20.9457 22.5666 20.5014 25.0027 20.5014 25.0027L19.957 23.4139C19.957 23.4139 20.1443 23.4228 20.2445 23.2242C20.4448 22.8226 20.2575 22.0326 20.5319 22.2444Z" fill="#FFBDAE"/>
<path d="M18.956 21.7812C18.956 21.7812 18.8994 22.3329 19.1128 22.7124C19.3262 23.092 20.2364 23.573 20.2364 23.573L20.3018 23.3744L18.956 21.7812Z" fill="#FFBDAE"/>
<path d="M24.9222 30.1201C24.9222 30.1201 25.7279 29.2595 26.3768 30.3054C26.3768 30.3054 26.8777 30.023 27.2261 30.5261C27.2261 30.5261 28.1276 30.2525 28.3497 31.6206C28.3497 31.6206 28.8157 31.5323 28.8767 32.0928C28.9377 32.6532 28.6589 33.024 28.6589 33.024C28.6589 33.024 28.9202 33.2225 28.8026 33.7389C28.7025 34.1758 28.3454 34.242 28.3454 34.242C28.3454 34.242 28.2495 34.979 27.9316 35.1997C27.618 35.4203 27.1869 35.3144 27.1869 35.3144C27.1869 35.3144 27.0736 35.716 26.7034 35.6807C26.3333 35.6454 25.8803 35.2879 25.4666 35.4512C25.0528 35.6101 23.9858 35.4424 23.9858 35.4424C23.9858 35.4424 22.7838 34.8996 23.1453 33.655C23.1453 33.655 22.5138 33.0769 23.0669 32.384C23.0669 32.384 22.6618 31.2984 23.4632 30.6585C24.2558 30.023 24.9222 30.1201 24.9222 30.1201Z" fill="#323E41"/>
<path d="M33.8848 60.561C33.8848 60.561 35.2741 60.4022 35.5049 60.2874C35.7357 60.1727 36.9029 61.3025 36.6721 61.8674C36.5414 62.1851 36.1277 62.1454 36.1277 62.1454L35.7923 61.8144L34.0285 62.1851L33.8848 60.561Z" fill="#FFBDAE"/>
<path d="M25.9488 66.4941C25.9488 66.4941 26.6805 67.7034 26.8808 67.8666C27.0812 68.0299 26.5629 69.579 25.9619 69.6055C25.6222 69.6187 25.4828 69.2259 25.4828 69.2259L25.6353 68.7802L24.5552 67.3194L25.9488 66.4941Z" fill="#FFBDAE"/>
<path d="M26.8382 67.8184C26.8382 67.8184 26.4157 68.3612 26.1893 68.5774C25.8931 68.8555 25.5142 69.1291 25.5142 69.1291C25.5142 69.1291 25.0831 69.919 24.9655 70.1971C24.7042 70.8105 24.4124 71.4945 24.4516 71.8388C24.4646 71.9491 24.7085 72.0638 24.9132 72.0021C25.7625 71.7373 27.9314 69.7249 28.2057 69.1864C28.5237 68.5642 26.8382 67.8184 26.8382 67.8184Z" fill="#323E41"/>
<path d="M20.641 49.4099C20.7194 49.1848 20.7934 48.9774 20.8674 48.7832C21.769 48.9818 22.7881 49.2025 23.8377 49.4275L23.9683 53.726C23.9683 53.4259 23.18 59.5382 23.18 59.5382C23.18 59.5382 25.3228 63.8499 26.7164 66.5155C26.1459 67.2392 25.706 67.557 24.8742 68.0468C22.7097 65.4166 19.9441 60.7827 19.8265 59.9839C19.7612 59.5294 19.7002 52.0931 20.641 49.4099Z" fill="#D1821A"/>
<path d="M28.7025 50.5357C28.4586 53.2366 28.0492 57.3232 27.9752 58.7001C29.6998 58.9517 33.7676 60.1918 34.5297 60.1918C34.8172 60.845 34.974 61.6349 34.778 62.2881C34.7388 62.4161 26.747 62.6764 24.6826 61.3392C24.1426 60.9906 23.9815 57.663 23.9728 53.7309L23.6592 49.7148C25.4056 50.09 27.1956 50.1782 28.7025 50.5357Z" fill="#E2A22F"/>
<path d="M22.9622 36.7012L24.922 37.0013C24.922 37.0013 26.3985 37.0233 26.7948 37.0277C26.8296 37.0277 28.367 44.6317 28.7415 47.4959C29.1161 50.3556 28.8243 50.8632 28.8243 50.8632C28.8243 50.8632 26.2155 51.4589 24.2862 51.2824C22.2784 51.1015 20.0225 50.0026 20.0225 50.0026C20.0225 50.0026 21.9649 44.539 22.3046 42.8223C22.6486 41.11 22.9622 36.7012 22.9622 36.7012Z" fill="white"/>
<path d="M18.9292 26.0861C18.9292 26.0861 19.1034 33.1296 19.3125 33.5665C19.6173 34.1976 21.8123 38.6946 21.8123 38.6946C21.8123 38.6946 20.1617 45.694 19.4692 48.108C19.3996 48.3507 19.0903 49.9218 19.0903 50.0763C19.0903 50.4161 20.5493 50.8486 20.7235 50.8221C20.8803 50.8001 22.152 44.145 22.9665 40.8836C23.2408 39.7803 23.7155 38.7388 24.3601 37.8076L24.9263 36.9956L21.5728 32.8869C21.5728 32.8869 20.8455 26.3818 20.8455 25.9758C20.8498 25.8655 19.1382 25.6889 18.9292 26.0861Z" fill="#323E41"/>
<path d="M26.7948 37.0263L30.1526 31.8938C30.1526 31.8938 32.3302 26.5008 32.3869 26.3022C32.4391 26.1081 34.1507 26.3287 34.6951 26.2758C34.8693 26.2581 32.7701 31.9556 32.5088 32.9C32.2039 34.0165 30.2093 38.3724 30.2093 38.3724C30.2093 38.3724 29.0769 40.9894 29.2555 43.0151C29.5473 46.3779 30.1309 51.2192 29.9872 51.3648C29.1074 51.9253 26.3419 51.9077 26.1285 51.559C23.7679 47.7107 26.7948 37.0263 26.7948 37.0263Z" fill="#323E41"/>
<path d="M25.0566 35.9741L24.9085 37.073C24.9085 37.073 24.5819 38.6529 25.0044 38.9574C25.4268 39.262 26.7943 37.0245 26.7943 37.0245L26.6506 34.2441L25.0566 35.9741Z" fill="#FFBDAE"/>
<path d="M26.6984 35.141C26.35 36.0899 25.5225 36.6724 24.9346 36.8975L25.0565 35.9663L26.6505 34.2363L26.6984 35.141Z" fill="#E2A22F"/>
<path d="M28.8888 32.3538C28.8888 32.7775 28.6493 33.1217 28.3575 33.1217C28.0657 33.1217 27.8262 32.7775 27.8262 32.3538C27.8262 31.9302 28.0657 31.5859 28.3575 31.5859C28.6537 31.5859 28.8888 31.9302 28.8888 32.3538Z" fill="#323E41"/>
<path d="M27.296 30.7011C27.296 30.9438 27.0085 31.1424 26.6514 31.1424C26.2943 31.1424 26.0068 30.9438 26.0068 30.7011C26.0068 30.4584 26.2943 30.2598 26.6514 30.2598C27.0085 30.2598 27.296 30.4584 27.296 30.7011Z" fill="#323E41"/>
<path d="M25.6801 31.3225C24.8265 31.0268 23.9163 31.6006 23.7856 32.492C23.729 32.8804 23.6767 33.3658 23.668 33.8998C23.6462 35.1841 24.2995 36.4286 24.8744 36.4286C25.4493 36.4286 27.0346 35.5989 27.0955 33.7807C27.1304 32.6553 26.5729 31.6359 25.6801 31.3225Z" fill="#FFBDAE"/>
<path d="M26.6685 33.9182C26.6685 34.2006 26.8514 34.4301 27.0822 34.4301C27.3087 34.4301 27.4959 34.2006 27.4959 33.9182C27.4959 33.6357 27.313 33.4062 27.0822 33.4062C26.8557 33.4062 26.6685 33.6357 26.6685 33.9182Z" fill="#FFBDAE"/>
<path d="M23.1885 30.687C22.5962 31.1637 22.3871 31.8874 22.7225 32.3023C23.0578 32.7171 23.8156 32.6686 24.408 32.1919C25.0003 31.7153 25.2093 30.9916 24.874 30.5767C24.5386 30.1619 23.7808 30.2104 23.1885 30.687Z" fill="#323E41"/>
<path d="M24.7388 31.0743C24.7388 31.2818 24.987 31.4495 25.2919 31.4495C25.5967 31.4495 25.845 31.2818 25.845 31.0743C25.845 30.8669 25.5967 30.6992 25.2919 30.6992C24.987 30.6992 24.7388 30.8669 24.7388 31.0743Z" fill="#323E41"/>
<path d="M23.1016 32.6685C23.1016 32.9333 23.3106 33.1496 23.5719 33.1496C23.8332 33.1496 24.0423 32.9333 24.0423 32.6685C24.0423 32.4037 23.8332 32.1875 23.5719 32.1875C23.3106 32.1875 23.1016 32.4037 23.1016 32.6685Z" fill="#323E41"/>
<path d="M35.4441 60.3038C35.4441 60.3038 35.7533 60.9217 35.8491 61.2217C35.9754 61.6101 36.0582 62.0779 36.0582 62.0779C36.0582 62.0779 36.5852 62.8061 36.7811 63.0312C37.221 63.5298 37.7567 64.1212 38.0833 64.2271C38.1879 64.2624 38.484 64.1698 38.4797 63.9403C38.4709 63.04 37.6173 60.1052 37.2515 59.6286C36.8247 59.0725 35.4441 60.3038 35.4441 60.3038Z" fill="#323E41"/>
<path d="M18.6377 22.4435C18.6377 22.4435 18.8685 20.7444 19.0601 20.6915C19.2518 20.6385 19.3171 20.9518 19.2344 21.2166C19.156 21.4814 19.0863 22.4921 19.1473 22.876C19.2082 23.26 18.6377 22.4435 18.6377 22.4435Z" fill="#FFBDAE"/>
<path d="M34.9432 24.0971C34.9432 24.0971 34.9824 22.7555 34.7864 22.3362C34.7603 22.2788 34.7037 22.2126 34.6427 22.3583C34.56 22.5613 34.6209 23.6381 34.6209 23.6381C34.6209 23.6381 34.6122 21.9037 34.3814 21.9037C34.1506 21.9037 34.2638 22.4995 34.2638 22.7378C34.2638 22.9761 34.2812 23.7926 34.2812 23.7926C34.2812 23.7926 34.1854 21.9523 34.1636 21.8419C34.1375 21.7272 33.959 21.7051 33.9023 21.8772C33.8457 22.0538 33.8239 23.8279 33.8239 23.8279C33.8239 23.8279 33.9328 22.0008 33.6759 22.0008C33.4146 22.0008 33.567 24.2736 33.3275 24.5119C33.0923 24.7502 32.8745 24.8341 32.8745 24.8341C33.6105 25.1077 34.2638 25.5137 34.9432 24.0971Z" fill="#FFBDAE"/>
<path d="M28.392 22.2456C29.6868 20.9288 29.6868 18.7938 28.392 17.477C27.0972 16.1602 24.998 16.1602 23.7033 17.477C22.4085 18.7938 22.4085 20.9288 23.7033 22.2456C24.998 23.5624 27.0972 23.5624 28.392 22.2456Z" fill="#E2810E"/>
<path d="M28.9992 20.8579C29.4643 19.0567 28.4057 17.2131 26.6346 16.74C24.8636 16.267 23.0509 17.3437 22.5858 19.1449C22.1207 20.9461 23.1794 22.7897 24.9504 23.2627C26.7214 23.7357 28.5341 22.659 28.9992 20.8579Z" fill="#FFB93E"/>
<path d="M25.8168 23.1065C24.7517 23.1065 23.7164 22.532 23.1677 21.519C22.778 20.8015 22.6881 19.9714 22.9118 19.1835C23.1354 18.3956 23.6496 17.7437 24.3551 17.3474C25.0606 16.9512 25.8768 16.8597 26.6515 17.0872C27.4262 17.3146 28.0671 17.8375 28.4568 18.5551C29.2614 20.0394 28.7288 21.9106 27.2694 22.7266C26.8083 22.9845 26.3103 23.1065 25.8168 23.1065ZM25.8076 17.1458C25.335 17.1458 24.8669 17.2677 24.4404 17.5069C23.7764 17.8797 23.2945 18.4917 23.0824 19.2327C22.8726 19.9737 22.9579 20.7546 23.3245 21.4299C23.8409 22.3842 24.8139 22.9236 25.8168 22.9236C26.2803 22.9236 26.7483 22.8087 27.1841 22.5648C28.5559 21.7957 29.0562 20.037 28.3 18.6418C27.9334 17.9665 27.3316 17.4764 26.6031 17.2607C26.3402 17.1833 26.0728 17.1458 25.8076 17.1458Z" fill="#FFA412"/>
<path d="M26.5983 20.6154C26.5729 20.5544 26.5429 20.5029 26.5083 20.463C26.4715 20.4231 26.4276 20.3926 26.3723 20.3692C26.317 20.3481 26.2547 20.3317 26.1786 20.3246C26.1049 20.3176 26.0172 20.3176 25.9158 20.3223C25.7406 20.3317 25.5792 20.3317 25.4316 20.3223C25.2841 20.3153 25.148 20.2895 25.0281 20.2473C24.9082 20.2051 24.8022 20.1441 24.7123 20.0597C24.6223 19.9753 24.5463 19.8604 24.4886 19.7173C24.4379 19.593 24.4148 19.4688 24.4171 19.3492C24.4195 19.2272 24.4471 19.1123 24.4955 19.0021C24.5463 18.8919 24.6177 18.7911 24.7123 18.695C24.8068 18.6012 24.9198 18.5167 25.0558 18.4464L24.8667 17.9751L25.2403 17.8203L25.4316 18.2987C25.5723 18.2611 25.7083 18.2471 25.8397 18.2565C25.9711 18.2658 26.091 18.2987 26.2017 18.3526C26.3124 18.4089 26.4115 18.4863 26.5014 18.5871C26.589 18.6879 26.6628 18.8122 26.7228 18.9599L26.0518 19.2437C25.9804 19.0678 25.8904 18.9505 25.7775 18.8943C25.6645 18.838 25.5446 18.838 25.4155 18.8919C25.3463 18.9201 25.2887 18.9552 25.2472 18.9974C25.2034 19.0373 25.1734 19.0819 25.1549 19.1311C25.1365 19.1803 25.1273 19.2296 25.1319 19.2835C25.1342 19.3375 25.148 19.3914 25.1688 19.4453C25.1895 19.4992 25.2172 19.5461 25.2518 19.5837C25.2841 19.6212 25.3279 19.6517 25.3809 19.6728C25.4339 19.6939 25.4985 19.7079 25.5746 19.715C25.6507 19.722 25.7429 19.7244 25.8512 19.7197C26.0242 19.715 26.1856 19.7173 26.3331 19.7267C26.4807 19.7361 26.6144 19.7619 26.7343 19.8041C26.8542 19.8463 26.9602 19.9096 27.0502 19.994C27.1401 20.0784 27.2139 20.191 27.2715 20.334C27.3222 20.463 27.3476 20.5896 27.3453 20.7092C27.343 20.8311 27.3153 20.946 27.2646 21.0539C27.2139 21.1618 27.1401 21.2626 27.0432 21.3564C26.9464 21.4502 26.8311 21.5323 26.6974 21.6026L26.8726 22.0411L26.5014 22.1935L26.3262 21.7574C26.1925 21.7972 26.0541 21.8207 25.9158 21.8254C25.7775 21.8301 25.646 21.8113 25.5192 21.7667C25.3924 21.7222 25.2771 21.6472 25.1688 21.544C25.0627 21.4408 24.9728 21.3001 24.9036 21.1242L25.5792 20.8452C25.6207 20.9507 25.6691 21.0305 25.7267 21.0891C25.7844 21.1477 25.8443 21.1876 25.9089 21.2087C25.9734 21.2298 26.0403 21.2368 26.1095 21.2298C26.1786 21.2204 26.2432 21.204 26.3078 21.1782C26.3815 21.1477 26.4415 21.1125 26.4899 21.0703C26.5383 21.0281 26.5729 20.9836 26.5983 20.9343C26.6213 20.8851 26.6352 20.8335 26.6352 20.7796C26.6328 20.7256 26.6213 20.6693 26.5983 20.6154Z" fill="#FFE86F"/>
<path d="M3.74794 24.8113L3.95155 24.2202L3.57949 23.7184C3.53749 23.6618 3.57919 23.5817 3.64875 23.5835L4.27847 23.5943L4.6438 23.085C4.68481 23.0278 4.77458 23.0398 4.79567 23.1092L4.98097 23.7067L5.58042 23.8915C5.64852 23.9117 5.66368 24.0003 5.6017 24.0428L5.08571 24.4001L5.09083 25.0239C5.0895 25.0971 5.00882 25.1382 4.95039 25.0935L4.45671 24.7174L3.85811 24.9156C3.78861 24.9411 3.72639 24.8743 3.74794 24.8113Z" fill="white"/>
<path d="M13.8825 32.7738C13.7489 32.2359 14.0842 31.6861 14.6299 31.5563C15.1748 31.422 15.726 31.7564 15.855 32.2951C15.9886 32.8331 15.6533 33.3829 15.1076 33.5127C14.5627 33.6469 14.0123 33.317 13.8825 32.7738Z" fill="#FFBC44"/>
<path d="M16.0622 35.287C15.9547 35.009 15.8658 34.705 15.7156 34.448C15.5895 34.2233 15.2256 34.3631 15.2867 34.6125C15.3629 34.9232 15.5161 35.2253 15.6357 35.5195C15.6838 35.6389 15.8597 35.6681 15.9657 35.6135C16.092 35.5418 16.1059 35.4072 16.0622 35.287Z" fill="#FFBC44"/>
<path d="M17.566 33.7669C17.2008 33.6288 16.8683 33.4394 16.5239 33.2612C16.2558 33.1247 16.048 33.4749 16.2817 33.6538C16.6166 33.9111 17.0298 34.0866 17.4242 34.2335C17.5477 34.2807 17.6934 34.1874 17.7327 34.0667C17.7751 33.9364 17.694 33.8134 17.566 33.7669Z" fill="#FFBC44"/>
<path d="M16.6335 32.0929C16.567 32.1635 16.5687 32.2544 16.628 32.3309C16.775 32.5155 17.0598 32.4531 17.2609 32.4142C17.4702 32.3692 17.6742 32.2933 17.8647 32.1923C18.1433 32.0398 17.9045 31.6156 17.6259 31.7681C17.0799 32.0576 16.8237 31.8825 16.6335 32.0929Z" fill="#FFBC44"/>
<path d="M15.9853 30.2202C15.7657 30.691 15.5529 30.8778 15.6282 31.102C15.6741 31.2355 15.7924 31.2791 15.9224 31.2295C16.0734 31.1673 16.1305 30.9888 16.205 30.8575C16.2758 30.7314 16.3466 30.6053 16.4069 30.4719C16.4604 30.3533 16.4504 30.2136 16.3268 30.139C16.219 30.0754 16.0426 30.0965 15.9853 30.2202Z" fill="#FFBC44"/>
<path d="M14.8374 30.3414C14.6992 30.1006 14.6654 30.0107 14.5238 29.9118C14.4032 29.8275 14.1903 29.9323 14.2026 30.0852C14.215 30.2655 14.2667 30.3251 14.4071 30.5792C14.4732 30.6955 14.6236 30.7382 14.7416 30.6724C14.8559 30.6119 14.9035 30.4578 14.8374 30.3414Z" fill="#FFBC44"/>
<path d="M13.7144 31.1707C13.2389 30.9282 13.1378 30.8498 12.9749 30.8959C12.8777 30.9216 12.7859 31.0331 12.8266 31.1356C12.901 31.328 13.0267 31.3612 13.461 31.5788C13.577 31.6364 13.7213 31.6163 13.7936 31.4991C13.8584 31.3922 13.8304 31.2283 13.7144 31.1707Z" fill="#FFBC44"/>
<path d="M12.2712 32.9082C12.1204 33.0251 12.2362 33.2972 12.4194 33.2886C12.5936 33.2816 12.6564 33.2435 13.4649 32.9502C13.5912 32.9058 13.6785 32.7951 13.6453 32.6549C13.6158 32.5368 13.4728 32.4291 13.3472 32.4779C12.5125 32.7803 12.4228 32.7956 12.2712 32.9082Z" fill="#FFBC44"/>
<path d="M13.8128 34.0412C13.4303 34.558 13.3502 34.4942 13.2162 34.7907C13.1567 34.9286 13.3246 35.1005 13.4636 35.0493C13.6414 34.9825 13.6854 34.943 13.8958 34.7155C14.0159 34.581 14.1308 34.4428 14.2397 34.2965C14.318 34.1874 14.2667 34.0229 14.1589 33.9592C14.0309 33.8854 13.8911 33.9321 13.8128 34.0412Z" fill="#FFBC44"/>
<path d="M39.8989 17.3247L41.8344 17.6549L41.0861 16.114L39.8989 17.3247Z" fill="white"/>
<path d="M2.19011 36.1624L0.669246 35.962L0.265827 34.4671L0.663462 34.3626L0.994507 35.5963L2.56698 35.8016L2.73688 37.5508L3.80037 37.5604L3.75939 37.9687L2.36758 37.9559L2.19011 36.1624Z" fill="white"/>
<path d="M44.4901 37.8407L45.0832 37.8533C45.0832 37.8533 45.856 37.3244 45.887 37.1276C45.918 36.9308 45.8176 36.5057 45.9341 36.4584C46.0507 36.4111 46.2989 36.3778 46.4424 36.6496C46.5453 36.8463 46.4182 37.5338 46.4871 37.5858C46.529 37.6151 46.8693 37.6344 47.1154 37.6425C47.2777 37.6466 47.4238 37.7448 47.4951 37.8921C47.5447 37.9931 47.5143 38.1123 47.4247 38.1823L47.2859 38.2882L47.3841 38.4309C47.4577 38.5369 47.4318 38.6827 47.3243 38.7558L47.2175 38.8333L47.2828 38.9179C47.3705 39.026 47.3432 39.1903 47.2267 39.2649L47.1311 39.3269L47.1446 39.3519C47.1957 39.4617 47.1586 39.5957 47.0541 39.6592L46.9577 39.7167L45.3819 39.6807C45.2338 39.6787 45.0894 39.6441 44.9539 39.5807L44.4002 39.4747C44.3426 39.4618 44.2969 39.4103 44.3005 39.3505L44.3632 37.9627C44.3698 37.8932 44.425 37.8382 44.4901 37.8407Z" fill="#FFBC44"/>
</svg>
