<svg width="48" height="70" viewBox="0 0 48 70" fill="none" xmlns="http://www.w3.org/2000/svg">
<path d="M28.392 19.2456C29.6868 17.9288 29.6868 15.7938 28.392 14.477C27.0972 13.1602 24.998 13.1602 23.7033 14.477C22.4085 15.7938 22.4085 17.9288 23.7033 19.2456C24.998 20.5624 27.0972 20.5624 28.392 19.2456Z" fill="#E2810E"/>
<path d="M28.9992 17.8579C29.4643 16.0567 28.4057 14.2131 26.6346 13.74C24.8636 13.267 23.0509 14.3437 22.5858 16.1449C22.1207 17.9461 23.1794 19.7897 24.9504 20.2627C26.7214 20.7357 28.5341 19.659 28.9992 17.8579Z" fill="#FFB93E"/>
<path d="M25.8168 20.1065C24.7517 20.1065 23.7164 19.532 23.1677 18.519C22.778 17.8015 22.6881 16.9714 22.9118 16.1835C23.1354 15.3956 23.6496 14.7437 24.3551 14.3474C25.0606 13.9512 25.8768 13.8597 26.6515 14.0872C27.4262 14.3146 28.0671 14.8375 28.4568 15.5551C29.2614 17.0394 28.7288 18.9106 27.2694 19.7266C26.8083 19.9845 26.3103 20.1065 25.8168 20.1065ZM25.8076 14.1458C25.335 14.1458 24.8669 14.2677 24.4404 14.5069C23.7764 14.8797 23.2945 15.4917 23.0824 16.2327C22.8726 16.9737 22.9579 17.7546 23.3245 18.4299C23.8409 19.3842 24.8139 19.9236 25.8168 19.9236C26.2803 19.9236 26.7483 19.8087 27.1841 19.5648C28.5559 18.7957 29.0562 17.037 28.3 15.6418C27.9334 14.9665 27.3316 14.4764 26.6031 14.2607C26.3402 14.1833 26.0728 14.1458 25.8076 14.1458Z" fill="#FFA412"/>
<path d="M26.5983 17.6154C26.5729 17.5544 26.5429 17.5029 26.5083 17.463C26.4715 17.4231 26.4276 17.3926 26.3723 17.3692C26.317 17.3481 26.2547 17.3317 26.1786 17.3246C26.1049 17.3176 26.0172 17.3176 25.9158 17.3223C25.7406 17.3317 25.5792 17.3317 25.4316 17.3223C25.2841 17.3153 25.148 17.2895 25.0281 17.2473C24.9082 17.2051 24.8022 17.1441 24.7123 17.0597C24.6223 16.9753 24.5463 16.8604 24.4886 16.7173C24.4379 16.593 24.4148 16.4688 24.4171 16.3492C24.4195 16.2272 24.4471 16.1123 24.4955 16.0021C24.5463 15.8919 24.6177 15.7911 24.7123 15.695C24.8068 15.6012 24.9198 15.5167 25.0558 15.4464L24.8667 14.9751L25.2403 14.8203L25.4316 15.2987C25.5723 15.2611 25.7083 15.2471 25.8397 15.2565C25.9711 15.2658 26.091 15.2987 26.2017 15.3526C26.3124 15.4089 26.4115 15.4863 26.5014 15.5871C26.589 15.6879 26.6628 15.8122 26.7228 15.9599L26.0518 16.2437C25.9804 16.0678 25.8904 15.9505 25.7775 15.8943C25.6645 15.838 25.5446 15.838 25.4155 15.8919C25.3463 15.9201 25.2887 15.9552 25.2472 15.9974C25.2034 16.0373 25.1734 16.0819 25.1549 16.1311C25.1365 16.1803 25.1273 16.2296 25.1319 16.2835C25.1342 16.3375 25.148 16.3914 25.1688 16.4453C25.1895 16.4992 25.2172 16.5461 25.2518 16.5837C25.2841 16.6212 25.3279 16.6517 25.3809 16.6728C25.4339 16.6939 25.4985 16.7079 25.5746 16.715C25.6507 16.722 25.7429 16.7244 25.8512 16.7197C26.0242 16.715 26.1856 16.7173 26.3331 16.7267C26.4807 16.7361 26.6144 16.7619 26.7343 16.8041C26.8542 16.8463 26.9602 16.9096 27.0502 16.994C27.1401 17.0784 27.2139 17.191 27.2715 17.334C27.3222 17.463 27.3476 17.5896 27.3453 17.7092C27.343 17.8311 27.3153 17.946 27.2646 18.0539C27.2139 18.1618 27.1401 18.2626 27.0432 18.3564C26.9464 18.4502 26.8311 18.5323 26.6974 18.6026L26.8726 19.0411L26.5014 19.1935L26.3262 18.7574C26.1925 18.7972 26.0541 18.8207 25.9158 18.8254C25.7775 18.8301 25.646 18.8113 25.5192 18.7667C25.3924 18.7222 25.2771 18.6472 25.1688 18.544C25.0627 18.4408 24.9728 18.3001 24.9036 18.1242L25.5792 17.8452C25.6207 17.9507 25.6691 18.0305 25.7267 18.0891C25.7844 18.1477 25.8443 18.1876 25.9089 18.2087C25.9734 18.2298 26.0403 18.2368 26.1095 18.2298C26.1786 18.2204 26.2432 18.204 26.3078 18.1782C26.3815 18.1477 26.4415 18.1125 26.4899 18.0703C26.5383 18.0281 26.5729 17.9836 26.5983 17.9343C26.6213 17.8851 26.6352 17.8335 26.6352 17.7796C26.6328 17.7256 26.6213 17.6693 26.5983 17.6154Z" fill="#FFE86F"/>
<path d="M3.74794 21.8113L3.95155 21.2202L3.57949 20.7184C3.53749 20.6618 3.57919 20.5817 3.64875 20.5835L4.27847 20.5943L4.6438 20.085C4.68481 20.0278 4.77458 20.0398 4.79567 20.1092L4.98097 20.7067L5.58042 20.8915C5.64852 20.9117 5.66368 21.0003 5.6017 21.0428L5.08571 21.4001L5.09083 22.0239C5.0895 22.0971 5.00882 22.1382 4.95039 22.0935L4.45671 21.7174L3.85811 21.9156C3.78861 21.9411 3.72639 21.8743 3.74794 21.8113Z" fill="white"/>
<path d="M13.8825 29.7738C13.7489 29.2359 14.0842 28.6861 14.6299 28.5563C15.1748 28.422 15.726 28.7564 15.855 29.2951C15.9886 29.8331 15.6533 30.3829 15.1076 30.5127C14.5627 30.6469 14.0123 30.317 13.8825 29.7738Z" fill="#FFBC44"/>
<path d="M16.0622 32.287C15.9547 32.009 15.8658 31.705 15.7156 31.448C15.5895 31.2233 15.2256 31.3631 15.2867 31.6125C15.3629 31.9232 15.5161 32.2253 15.6357 32.5195C15.6838 32.6389 15.8597 32.6681 15.9657 32.6135C16.092 32.5418 16.1059 32.4072 16.0622 32.287Z" fill="#FFBC44"/>
<path d="M17.566 30.7669C17.2008 30.6288 16.8683 30.4394 16.5239 30.2612C16.2558 30.1247 16.048 30.4749 16.2817 30.6538C16.6166 30.9111 17.0298 31.0866 17.4242 31.2335C17.5477 31.2807 17.6934 31.1874 17.7327 31.0667C17.7751 30.9364 17.694 30.8134 17.566 30.7669Z" fill="#FFBC44"/>
<path d="M16.6335 29.0929C16.567 29.1635 16.5687 29.2544 16.628 29.3309C16.775 29.5155 17.0598 29.4531 17.2609 29.4142C17.4702 29.3692 17.6742 29.2933 17.8647 29.1923C18.1433 29.0398 17.9045 28.6156 17.6259 28.7681C17.0799 29.0576 16.8237 28.8825 16.6335 29.0929Z" fill="#FFBC44"/>
<path d="M15.9853 27.2202C15.7657 27.691 15.5529 27.8778 15.6282 28.102C15.6741 28.2355 15.7924 28.2791 15.9224 28.2295C16.0734 28.1673 16.1305 27.9888 16.205 27.8575C16.2758 27.7314 16.3466 27.6053 16.4069 27.4719C16.4604 27.3533 16.4504 27.2136 16.3268 27.139C16.219 27.0754 16.0426 27.0965 15.9853 27.2202Z" fill="#FFBC44"/>
<path d="M14.8374 27.3414C14.6992 27.1006 14.6654 27.0107 14.5238 26.9118C14.4032 26.8275 14.1903 26.9323 14.2026 27.0852C14.215 27.2655 14.2667 27.3251 14.4071 27.5792C14.4732 27.6955 14.6236 27.7382 14.7416 27.6724C14.8559 27.6119 14.9035 27.4578 14.8374 27.3414Z" fill="#FFBC44"/>
<path d="M13.7144 28.1707C13.2389 27.9282 13.1378 27.8498 12.9749 27.8959C12.8777 27.9216 12.7859 28.0331 12.8266 28.1356C12.901 28.328 13.0267 28.3612 13.461 28.5788C13.577 28.6364 13.7213 28.6163 13.7936 28.4991C13.8584 28.3922 13.8304 28.2283 13.7144 28.1707Z" fill="#FFBC44"/>
<path d="M12.2712 29.9082C12.1204 30.0251 12.2362 30.2972 12.4194 30.2886C12.5936 30.2816 12.6564 30.2435 13.4649 29.9502C13.5912 29.9058 13.6785 29.7951 13.6453 29.6549C13.6158 29.5368 13.4728 29.4291 13.3472 29.4779C12.5125 29.7803 12.4228 29.7956 12.2712 29.9082Z" fill="#FFBC44"/>
<path d="M13.8128 31.0412C13.4303 31.558 13.3502 31.4942 13.2162 31.7907C13.1567 31.9286 13.3246 32.1005 13.4636 32.0493C13.6414 31.9825 13.6854 31.943 13.8958 31.7155C14.0159 31.581 14.1308 31.4428 14.2397 31.2965C14.318 31.1874 14.2667 31.0229 14.1589 30.9592C14.0309 30.8854 13.8911 30.9321 13.8128 31.0412Z" fill="#FFBC44"/>
<path d="M39.8989 14.3247L41.8344 14.6549L41.0861 13.114L39.8989 14.3247Z" fill="white"/>
<path d="M2.19011 33.1624L0.669246 32.962L0.265827 31.4671L0.663462 31.3626L0.994507 32.5963L2.56698 32.8016L2.73688 34.5508L3.80037 34.5604L3.75939 34.9687L2.36758 34.9559L2.19011 33.1624Z" fill="white"/>
<path d="M44.4901 34.8407L45.0832 34.8533C45.0832 34.8533 45.856 34.3244 45.887 34.1276C45.918 33.9308 45.8176 33.5057 45.9341 33.4584C46.0507 33.4111 46.2989 33.3778 46.4424 33.6496C46.5453 33.8463 46.4182 34.5338 46.4871 34.5858C46.529 34.6151 46.8693 34.6344 47.1154 34.6425C47.2777 34.6466 47.4238 34.7448 47.4951 34.8921C47.5447 34.9931 47.5143 35.1123 47.4247 35.1823L47.2859 35.2882L47.3841 35.4309C47.4577 35.5369 47.4318 35.6827 47.3243 35.7558L47.2175 35.8333L47.2828 35.9179C47.3705 36.026 47.3432 36.1903 47.2267 36.2649L47.1311 36.3269L47.1446 36.3519C47.1957 36.4617 47.1586 36.5957 47.0541 36.6592L46.9577 36.7167L45.3819 36.6807C45.2338 36.6787 45.0894 36.6441 44.9539 36.5807L44.4002 36.4747C44.3426 36.4618 44.2969 36.4103 44.3005 36.3505L44.3632 34.9627C44.3698 34.8932 44.425 34.8382 44.4901 34.8407Z" fill="#FFBC44"/>
<path d="M24.5205 12.4271C23.5194 14.2261 23.958 17.7859 24.7874 18.9246C25.6264 20.0729 27.6095 20.427 27.6095 20.427L30.5269 21.3265C30.5269 21.3265 32.6243 18.4175 33.2059 16.5802C33.4347 15.8721 33.4729 15.4032 33.2059 13.9008C32.8627 11.9487 32.3669 10.9439 30.2504 10.7143C28.2006 10.4846 25.7313 10.2454 24.5205 12.4271Z" fill="#184655"/>
<path d="M33.8349 17.2296C33.73 17.8803 33.2819 18.3587 32.8338 18.2918C32.3762 18.2248 32.0997 17.641 32.195 16.9903C32.2999 16.3396 32.748 15.8611 33.1961 15.9281C33.6537 15.9951 33.9397 16.5788 33.8349 17.2296Z" fill="#F7A491"/>
<path d="M21.7845 61.875C21.489 62.4396 20.1066 63.4252 20.1066 63.4252C21.2888 64.8414 25.0928 67.8462 25.0928 67.8462C25.0928 67.8462 25.5695 67.3486 25.3598 66.8893C25.1405 66.4299 24.0918 63.5974 24.5685 62.6597C24.6924 62.4204 25.6077 60.6023 26.4085 59.5975C25.3407 59.2339 24.3111 58.7171 23.3195 58.2578C22.6903 59.5497 21.8799 61.6932 21.7845 61.875Z" fill="#F7A491"/>
<path d="M21.5355 62.207C21.5355 62.207 24.3289 65.1926 24.8628 65.5084C25.3014 65.7668 25.883 68.9342 25.2442 69.0203C24.615 69.116 19.9052 64.2931 19.7622 63.6328C19.6382 62.9821 21.5355 62.207 21.5355 62.207Z" fill="#323E41"/>
<path d="M35.3133 55.1213C34.9701 55.6667 33.5018 56.5662 33.5018 56.5662C34.5601 58.0495 38.0782 61.2839 38.0782 61.2839C38.0782 61.2839 38.6025 60.815 38.4309 60.3461C38.2593 59.8772 37.4585 56.9777 38.0114 56.0782C38.1544 55.839 39.2318 54.0974 40.1184 53.1405C39.0888 52.7098 38.1068 52.1357 37.1534 51.6094C36.4192 52.8534 35.4277 54.9395 35.3133 55.1213Z" fill="#F7A491"/>
<path d="M34.7591 55.6797C34.7591 55.6797 37.5239 58.6366 38.0578 58.9619C38.4964 59.2203 39.0589 62.3877 38.4297 62.4834C37.8004 62.5791 32.8714 58.0816 32.7379 57.4213C32.6044 56.761 34.7591 55.6797 34.7591 55.6797Z" fill="#323E41"/>
<path d="M33.4147 37.25C33.4147 37.25 43.2443 41.4892 43.9784 44.7044C44.3693 46.4364 39.3735 55.6324 39.3735 55.6324L35.4741 54.0057C35.4741 54.0057 36.2845 50.6277 37.3141 48.3981C37.7908 47.3646 38.1054 46.7618 38.1054 46.7618C37.3046 46.0824 28.0566 43.2882 28.0566 43.2882L29.706 37.7954L33.4147 37.25Z" fill="#355389"/>
<path d="M21.8606 37.25C21.8606 37.25 21.0693 38.5036 22.5185 41.8624C23.4719 44.0633 26.4751 50.5034 26.3988 50.6278C24.2727 54.2449 21.4697 59.6132 21.4697 59.6132L26.0842 61.8716C26.1509 61.9864 31.9476 54.044 32.1764 51.6421C32.3575 49.8144 30.813 37.6615 30.813 37.6615L21.8606 37.25Z" fill="#466EB6"/>
<path d="M17.3501 14.6939C16.4539 13.6604 14.6234 10.1485 14.0037 8.95233C14.0227 8.8375 14.099 8.16765 13.6128 7.15331C13.2695 6.43562 13.2219 5.00024 12.8215 5.28731C12.4115 5.57439 12.9454 6.8471 12.5831 6.75141C12.2208 6.65571 10.9337 4.06245 10.5619 4.32082C10.1901 4.57919 11.5534 6.95236 11.2293 6.86624C10.9051 6.78011 9.88499 4.4835 9.36062 4.84713C8.83625 5.21076 10.8003 7.44039 10.5142 7.64134C10.2282 7.83273 9.02693 6.39734 8.60744 6.69399C8.18794 6.99064 10.3426 8.57913 10.1519 8.53128C9.96126 8.48343 8.5979 8.05282 8.52163 8.32076C8.43583 8.62697 11.8013 10.1006 12.0969 10.7513C12.6403 12.5121 13.5937 15.7082 14.938 17.3732C16.5874 19.4115 20.2103 23.9377 20.2103 23.9377L23.509 21.4306C23.509 21.4306 18.4179 15.9187 17.3501 14.6939Z" fill="#F7A491"/>
<path d="M36.8755 12.7167C37.4666 11.4823 38.3342 7.60677 38.6202 6.29578C38.5725 6.19052 38.3246 5.55895 38.5248 4.44892C38.6679 3.66425 38.3437 2.27671 38.8109 2.43939C39.278 2.61163 39.0969 3.98003 39.421 3.78865C39.7452 3.59726 40.3077 0.755204 40.7367 0.908312C41.1658 1.06142 40.4602 3.71209 40.7463 3.53985C41.0418 3.3676 41.4232 0.889173 42.0238 1.0997C42.6244 1.31022 41.3088 3.98003 41.6329 4.09486C41.9571 4.20969 42.7389 2.50637 43.2251 2.67862C43.7113 2.85086 42.0429 4.94652 42.2145 4.85083C42.3861 4.75514 43.5874 3.98003 43.7304 4.21926C43.8925 4.4872 41.0323 6.79338 40.9179 7.50151C40.8511 9.3388 40.7653 12.6785 39.8977 14.6401C38.8395 17.042 36.3797 22.2955 36.3797 22.2955L32.6805 20.7932C32.6805 20.8314 36.17 14.1808 36.8755 12.7167Z" fill="#F7A491"/>
<path d="M12.412 7.41211C12.2786 7.56522 12.1928 7.7566 12.126 7.94799C12.126 7.98626 11.8877 8.59869 12.2976 9.23983C12.1928 8.79008 12.0688 8.28291 12.412 7.41211Z" fill="#F48C7F"/>
<path d="M21.8696 19.0147C21.8696 19.0147 18.3421 22.1151 18.3707 22.1917C18.5613 22.7467 22.1842 25.1677 22.1842 26.6414C22.1842 28.3064 21.0306 39.6173 21.0306 39.6173C21.0306 39.6173 24.215 40.6699 28.1048 40.0766C31.9947 39.4929 34.6737 37.6651 34.6737 37.6651C34.6737 37.6651 34.4354 34.5838 34.4354 31.7418C34.4354 28.8997 34.8644 26.45 34.8644 26.45L37.8295 19.7707L34.1398 17.7324C34.1398 17.7324 31.5847 22.6606 30.9078 22.6606C28.9915 22.6606 26.8082 22.3257 26.8082 22.3257L21.8696 19.0147Z" fill="#F7CC7F"/>
<path d="M30.6309 20.187C30.6309 20.187 30.1923 23.2874 31.1171 24.1199C32.0896 25.0003 27.58 24.7611 27.2654 23.297C27.0938 22.5027 27.7135 19.0195 27.7135 19.0195L30.6309 20.187Z" fill="#F7A491"/>
<path d="M27.714 19.0195L30.6314 20.1774C30.6314 20.1774 30.5265 20.9334 30.5265 21.8042C29.8114 21.9095 29.0011 21.7564 28.1239 21.2588C27.8665 21.1152 27.6377 20.9525 27.4375 20.7803C27.5614 19.8425 27.714 19.0195 27.714 19.0195Z" fill="#F48C7F"/>
<path d="M28.8213 12.4718C28.8213 12.4718 27.4389 12.8259 26.6285 14.1369C25.8181 15.4478 25.37 19.2277 28.2683 20.8832C31.1667 22.5386 33.2737 19.9741 33.2165 17.5531C33.1593 15.1321 32.0533 12.0316 28.8213 12.4718Z" fill="#F7A491"/>
<path d="M28.8213 12.4718C28.8213 12.4718 27.4389 12.8259 26.6285 14.1369C25.8181 15.4478 25.37 19.2277 28.2683 20.8832C31.1667 22.5386 33.2737 19.9741 33.2165 17.5531C33.1593 15.1321 32.0533 12.0316 28.8213 12.4718Z" fill="#F7A491"/>
<path d="M26.7135 17.5065C26.9423 18.1285 26.7802 18.7601 26.3417 18.9036C25.9126 19.0567 25.3787 18.6739 25.1499 18.0519C24.9211 17.4299 25.0832 16.7984 25.5217 16.6548C25.9508 16.5017 26.4847 16.8845 26.7135 17.5065Z" fill="#F7A491"/>
</svg>
