<svg width="71" height="58" viewBox="0 0 71 58" fill="none" xmlns="http://www.w3.org/2000/svg">
<path d="M43.392 7.24562C44.6868 5.92881 44.6868 3.79384 43.392 2.47703C42.0972 1.16022 39.998 1.16022 38.7033 2.47703C37.4085 3.79384 37.4085 5.92881 38.7033 7.24562C39.998 8.56244 42.0972 8.56244 43.392 7.24562Z" fill="#E2810E"/>
<path d="M43.9992 5.85786C44.4643 4.05667 43.4057 2.21306 41.6346 1.74005C39.8636 1.26703 38.0509 2.34372 37.5858 4.14491C37.1207 5.9461 38.1794 7.78971 39.9504 8.26272C41.7214 8.73574 43.5341 7.65904 43.9992 5.85786Z" fill="#FFB93E"/>
<path d="M40.8168 8.10647C39.7517 8.10647 38.7164 7.53197 38.1677 6.51898C37.778 5.80145 37.6881 4.97136 37.9118 4.18348C38.1354 3.3956 38.6496 2.74373 39.3551 2.34744C40.0606 1.95116 40.8768 1.85971 41.6515 2.08716C42.4262 2.31461 43.0671 2.83752 43.4568 3.55506C44.2614 5.03936 43.7288 6.91058 42.2694 7.7266C41.8083 7.98453 41.3103 8.10647 40.8168 8.10647ZM40.8076 2.14578C40.335 2.14578 39.8669 2.26772 39.4404 2.50689C38.7764 2.87973 38.2945 3.49174 38.0824 4.23273C37.8726 4.97371 37.9579 5.75455 38.3245 6.42988C38.8409 7.38424 39.8139 7.92357 40.8168 7.92357C41.2803 7.92357 41.7483 7.80867 42.1841 7.5648C43.5559 6.79568 44.0562 5.03702 43.3 3.64182C42.9334 2.96649 42.3316 2.47641 41.6031 2.26068C41.3402 2.1833 41.0728 2.14578 40.8076 2.14578Z" fill="#FFA412"/>
<path d="M41.5983 5.61541C41.5729 5.55444 41.5429 5.50286 41.5083 5.46299C41.4715 5.42313 41.4276 5.39265 41.3723 5.3692C41.317 5.34809 41.2547 5.33168 41.1786 5.32464C41.1049 5.31761 41.0172 5.31761 40.9158 5.3223C40.7406 5.33168 40.5792 5.33168 40.4316 5.3223C40.2841 5.31527 40.148 5.28947 40.0281 5.24726C39.9082 5.20506 39.8022 5.14409 39.7123 5.05967C39.6223 4.97526 39.5463 4.86036 39.4886 4.71732C39.4379 4.59304 39.4148 4.46876 39.4171 4.34917C39.4195 4.22724 39.4471 4.11234 39.4955 4.00213C39.5463 3.89192 39.6177 3.79109 39.7123 3.69495C39.8068 3.60116 39.9198 3.51674 40.0558 3.4464L39.8667 2.97507L40.2403 2.82031L40.4316 3.29867C40.5723 3.26115 40.7083 3.24708 40.8397 3.25646C40.9711 3.26584 41.091 3.29867 41.2017 3.3526C41.3124 3.40888 41.4115 3.48626 41.5014 3.58709C41.589 3.68792 41.6628 3.8122 41.7228 3.95992L41.0518 4.24365C40.9804 4.06779 40.8904 3.95054 40.7775 3.89427C40.6645 3.83799 40.5446 3.83799 40.4155 3.89192C40.3463 3.92006 40.2887 3.95523 40.2472 3.99744C40.2034 4.03731 40.1734 4.08186 40.1549 4.1311C40.1365 4.18034 40.1273 4.22959 40.1319 4.28352C40.1342 4.33745 40.148 4.39138 40.1688 4.44531C40.1895 4.49925 40.2172 4.54614 40.2518 4.58366C40.2841 4.62118 40.3279 4.65166 40.3809 4.67277C40.4339 4.69387 40.4985 4.70794 40.5746 4.71498C40.6507 4.72201 40.7429 4.72436 40.8512 4.71967C41.0242 4.71498 41.1856 4.71732 41.3331 4.7267C41.4807 4.73608 41.6144 4.76187 41.7343 4.80408C41.8542 4.84629 41.9602 4.9096 42.0502 4.99402C42.1401 5.07843 42.2139 5.19099 42.2715 5.33402C42.3222 5.46299 42.3476 5.58962 42.3453 5.70921C42.343 5.83114 42.3153 5.94604 42.2646 6.0539C42.2139 6.16177 42.1401 6.2626 42.0432 6.35639C41.9464 6.45019 41.8311 6.53226 41.6974 6.6026L41.8726 7.0411L41.5014 7.19351L41.3262 6.75737C41.1925 6.79723 41.0541 6.82068 40.9158 6.82537C40.7775 6.83006 40.646 6.8113 40.5192 6.76675C40.3924 6.72219 40.2771 6.64716 40.1688 6.54398C40.0627 6.44081 39.9728 6.30012 39.9036 6.12425L40.5792 5.84521C40.6207 5.95073 40.6691 6.03045 40.7267 6.08908C40.7844 6.1477 40.8443 6.18756 40.9089 6.20866C40.9734 6.22977 41.0403 6.2368 41.1095 6.22977C41.1786 6.22039 41.2432 6.20397 41.3078 6.17818C41.3815 6.1477 41.4415 6.11252 41.4899 6.07032C41.5383 6.02811 41.5729 5.98356 41.5983 5.93431C41.6213 5.88507 41.6352 5.83348 41.6352 5.77955C41.6328 5.72562 41.6213 5.66934 41.5983 5.61541Z" fill="#FFE86F"/>
<path d="M18.7479 9.8113L18.9515 9.2202L18.5795 8.71844C18.5375 8.66179 18.5792 8.58171 18.6487 8.58349L19.2785 8.59434L19.6438 8.08501C19.6848 8.02784 19.7746 8.03984 19.7957 8.10919L19.981 8.70673L20.5804 8.89146C20.6485 8.91173 20.6637 9.00033 20.6017 9.04285L20.0857 9.40011L20.0908 10.0239C20.0895 10.0971 20.0088 10.1382 19.9504 10.0935L19.4567 9.71744L18.8581 9.91557C18.7886 9.94113 18.7264 9.87426 18.7479 9.8113Z" fill="white"/>
<path d="M28.8825 17.7738C28.7489 17.2359 29.0842 16.6861 29.6299 16.5563C30.1748 16.422 30.726 16.7564 30.855 17.2951C30.9886 17.8331 30.6533 18.3829 30.1076 18.5127C29.5627 18.6469 29.0123 18.317 28.8825 17.7738Z" fill="#FFBC44"/>
<path d="M31.0622 20.287C30.9547 20.009 30.8658 19.705 30.7156 19.448C30.5895 19.2233 30.2256 19.3631 30.2867 19.6125C30.3629 19.9232 30.5161 20.2253 30.6357 20.5195C30.6838 20.6389 30.8597 20.6681 30.9657 20.6135C31.092 20.5418 31.1059 20.4072 31.0622 20.287Z" fill="#FFBC44"/>
<path d="M32.566 18.7669C32.2008 18.6288 31.8683 18.4394 31.5239 18.2612C31.2558 18.1247 31.048 18.4749 31.2817 18.6538C31.6166 18.9111 32.0298 19.0866 32.4242 19.2335C32.5477 19.2807 32.6934 19.1874 32.7327 19.0667C32.7751 18.9364 32.694 18.8134 32.566 18.7669Z" fill="#FFBC44"/>
<path d="M31.6335 17.0929C31.567 17.1635 31.5687 17.2544 31.628 17.3309C31.775 17.5155 32.0598 17.4531 32.2609 17.4142C32.4702 17.3692 32.6742 17.2933 32.8647 17.1923C33.1433 17.0398 32.9045 16.6156 32.6259 16.7681C32.0799 17.0576 31.8237 16.8825 31.6335 17.0929Z" fill="#FFBC44"/>
<path d="M30.9853 15.2202C30.7657 15.691 30.5529 15.8778 30.6282 16.102C30.6741 16.2355 30.7924 16.2791 30.9224 16.2295C31.0734 16.1673 31.1305 15.9888 31.205 15.8575C31.2758 15.7314 31.3466 15.6053 31.4069 15.4719C31.4604 15.3533 31.4504 15.2136 31.3268 15.139C31.219 15.0754 31.0426 15.0965 30.9853 15.2202Z" fill="#FFBC44"/>
<path d="M29.8374 15.3414C29.6992 15.1006 29.6654 15.0107 29.5238 14.9118C29.4032 14.8275 29.1903 14.9323 29.2026 15.0852C29.215 15.2655 29.2667 15.3251 29.4071 15.5792C29.4732 15.6955 29.6236 15.7382 29.7416 15.6724C29.8559 15.6119 29.9035 15.4578 29.8374 15.3414Z" fill="#FFBC44"/>
<path d="M28.7144 16.1707C28.2389 15.9282 28.1378 15.8498 27.9749 15.8959C27.8777 15.9216 27.7859 16.0331 27.8266 16.1356C27.901 16.328 28.0267 16.3612 28.461 16.5788C28.577 16.6364 28.7213 16.6163 28.7936 16.4991C28.8584 16.3922 28.8304 16.2283 28.7144 16.1707Z" fill="#FFBC44"/>
<path d="M27.2712 17.9082C27.1204 18.0251 27.2362 18.2972 27.4194 18.2886C27.5936 18.2816 27.6564 18.2435 28.4649 17.9502C28.5912 17.9058 28.6785 17.7951 28.6453 17.6549C28.6158 17.5368 28.4728 17.4291 28.3472 17.4779C27.5125 17.7803 27.4228 17.7956 27.2712 17.9082Z" fill="#FFBC44"/>
<path d="M28.8128 19.0412C28.4303 19.558 28.3502 19.4942 28.2162 19.7907C28.1567 19.9286 28.3246 20.1005 28.4636 20.0493C28.6414 19.9825 28.6854 19.943 28.8958 19.7155C29.0159 19.581 29.1308 19.4428 29.2397 19.2965C29.318 19.1874 29.2667 19.0229 29.1589 18.9592C29.0309 18.8854 28.8911 18.9321 28.8128 19.0412Z" fill="#FFBC44"/>
<path d="M54.8989 2.32474L56.8344 2.65485L56.0861 1.11402L54.8989 2.32474Z" fill="white"/>
<path d="M17.1901 21.1624L15.6692 20.962L15.2658 19.4671L15.6635 19.3626L15.9945 20.5963L17.567 20.8016L17.7369 22.5508L18.8004 22.5604L18.7594 22.9687L17.3676 22.9559L17.1901 21.1624Z" fill="white"/>
<path d="M59.4901 22.8407L60.0832 22.8533C60.0832 22.8533 60.856 22.3244 60.887 22.1276C60.918 21.9308 60.8176 21.5057 60.9341 21.4584C61.0507 21.4111 61.2989 21.3778 61.4424 21.6496C61.5453 21.8463 61.4182 22.5338 61.4871 22.5858C61.529 22.6151 61.8693 22.6344 62.1154 22.6425C62.2777 22.6466 62.4238 22.7448 62.4951 22.8921C62.5447 22.9931 62.5143 23.1123 62.4247 23.1823L62.2859 23.2882L62.3841 23.4309C62.4577 23.5369 62.4318 23.6827 62.3243 23.7558L62.2175 23.8333L62.2828 23.9179C62.3705 24.026 62.3432 24.1903 62.2267 24.2649L62.1311 24.3269L62.1446 24.3519C62.1957 24.4617 62.1586 24.5957 62.0541 24.6592L61.9577 24.7167L60.3819 24.6807C60.2338 24.6787 60.0894 24.6441 59.9539 24.5807L59.4002 24.4747C59.3426 24.4618 59.2969 24.4103 59.3005 24.3505L59.3632 22.9627C59.3698 22.8932 59.425 22.8382 59.4901 22.8407Z" fill="#FFBC44"/>
<path d="M12.3446 14.5065C14.6904 18.1737 17.7737 15.9237 17.6343 15.9415C17.7446 15.9178 18.3834 16.0419 18.8072 16.1068C20.5608 16.3726 22.3841 15.41 23.3944 13.8628C26.0654 14.0222 28.2312 11.9022 27.8596 9.62859C29.2822 8.39436 29.3635 5.99676 28.5564 4.2901C28.7596 1.79802 25.6996 0.776387 23.377 1.21339C22.1983 1.43779 21.0892 2.19368 20.3982 3.23894C18.3253 2.78422 16.2524 4.00074 15.3814 6.07944C11.973 6.38062 9.95228 10.7683 12.3446 14.5065Z" fill="#323E41"/>
<path d="M11.1779 32.9962C11.3869 33.2029 12.7631 35.9312 13.2857 37.3957C14.0521 36.9056 14.5167 36.321 15.376 35.9903C14.6967 34.9922 13.3786 32.5946 13.2683 32.0277C13.0128 30.6754 12.7108 30.4746 12.7108 30.4746C12.7108 30.4746 8.25142 32.01 7.95528 32.4411C7.65915 32.8663 10.3476 32.1695 11.1779 32.9962Z" fill="#F7A491"/>
<path d="M13.3267 32.3269C13.675 32.3269 13.2976 30.7384 13.2163 30.3722C13.1292 29.9588 12.8912 29.8348 12.8331 29.823C12.6763 29.7817 7.71754 31.4883 6.8814 32.1025C6.82334 32.1439 6.72463 32.2738 6.70721 32.3033C6.24849 33.1714 10.3363 33.3368 10.9228 32.9588C11.4453 32.6163 11.7705 32.321 13.3267 32.3269Z" fill="#454342"/>
<path d="M37.4351 51.5066C38.3293 53.668 38.5267 54.6719 38.6196 54.8136C38.666 54.8845 38.5906 55.103 38.637 55.1798C40.0886 54.979 41.877 55.6463 43.1777 55.103C42.5158 54.7723 41.099 54.4416 40.8609 54.2703C40.5764 54.0636 40.048 53.6975 39.5835 50.1602C38.9564 50.922 38.3467 51.1582 37.4351 51.5066Z" fill="#F8A492"/>
<path d="M39.0901 54.6565C38.7475 54.5915 38.3294 54.8336 38.3236 55.1997C38.3236 55.5659 38.283 56.0324 38.2946 56.4103C38.312 56.8296 38.521 57.0009 38.5791 57.0245C38.7417 57.1013 44.8908 56.2214 45.2276 55.8198C45.5644 55.4123 41.6856 54.0482 41.0353 54.308C40.4546 54.5324 40.6346 54.9576 39.0901 54.6565Z" fill="#454342"/>
<path d="M24.5158 22.1348C24.5158 22.1348 24.2545 23.8119 23.4241 26.0737C22.5938 28.3295 22.7854 28.8846 26.2752 32.1562C29.672 35.3452 33.2256 37.8727 33.2256 37.8727L37.325 52.2641C38.1205 52.4354 39.0263 52.4413 40.1005 52.1756C40.1005 52.1756 37.8708 40.1167 38.0218 37.3294C38.0798 36.2605 29.9217 23.9005 29.9217 23.9005L24.5158 22.1348Z" fill="#645E54"/>
<path d="M30.3451 24.6588C30.3451 24.6588 24.2193 22.0368 24.1438 22.2908C23.5225 24.3222 21.4728 23.8911 20.3289 27.4639C19.8469 28.958 19.7366 32.9146 19.4114 35.8436C19.1908 37.8574 18.8772 39.4696 18.8772 39.4696C18.8772 39.4696 17.4895 37.8101 14.8823 34.822C14.6791 34.5917 12.5771 36.2039 12.5771 36.2039C16.7288 44.5777 19.7889 45.8297 20.4218 45.5344C24.7128 43.5325 28.2258 28.5328 28.22 28.5328C28.7077 27.5761 30.3451 24.6588 30.3451 24.6588Z" fill="#736B5D"/>
<path d="M21.1128 10.4687C21.1128 10.4687 13.9708 10.4569 12.4378 10.3683C11.0559 10.2856 5.56292 10.4274 5.34807 10.4037C5.13323 10.3801 3.71644 7.93528 3.47837 8.19511C3.2403 8.45495 4.26806 9.40572 3.9487 9.65375C3.62934 9.90177 0.226716 9.34667 0.267362 9.6065C0.35446 10.0848 2.34029 10.0258 2.34029 10.2561C2.34029 10.4864 0.261555 10.1262 0.116392 10.51C-0.0229645 10.8939 2.11384 10.6695 2.20094 10.8407C2.28803 11.012 0.215103 11.325 0.429945 11.6852C0.546075 11.8801 2.26481 11.3604 2.259 11.6262C2.25319 11.8919 0.998984 12.4942 1.14995 12.7009C1.30673 12.9135 2.13706 12.0513 2.86288 12.0454C3.5887 12.0336 4.11128 11.6498 5.27259 11.9746C5.84744 12.134 10.2256 12.6773 13.9301 13.0021C17.7218 13.3328 20.8341 13.4391 20.8341 13.4391L21.1128 10.4687Z" fill="#F7A491"/>
<path d="M29.8229 9.63738C29.8229 9.63738 36.483 7.01538 37.8823 6.37169C39.1424 5.78706 44.316 3.91504 44.5076 3.80874C44.6992 3.70835 45.1579 0.909191 45.4715 1.06273C45.785 1.22218 45.1637 2.48003 45.547 2.59814C45.9302 2.71034 48.9147 0.950529 48.9612 1.20446C49.0541 1.6828 47.1728 2.35011 47.2599 2.56861C47.3412 2.7812 49.1528 1.6887 49.4199 1.99579C49.687 2.30287 47.6083 2.87569 47.5909 3.06466C47.5734 3.25364 49.6173 2.79302 49.5419 3.20049C49.5012 3.42489 47.7128 3.56662 47.8173 3.81465C47.916 4.05677 49.3038 4.16307 49.2341 4.4111C49.1644 4.66503 48.0844 4.16897 47.405 4.42291C46.7199 4.67684 46.0986 4.51149 45.1289 5.23785C44.6528 5.59808 40.7566 7.70631 37.4178 9.35982C33.992 11.0547 31.1293 12.2889 31.1293 12.2889L29.8229 9.63738Z" fill="#F7A491"/>
<path d="M31.7038 16.9309C31.7967 15.7616 31.5703 13.5412 31.5238 13.1573C31.8722 11.9467 33.9858 11.8227 34.2529 11.3148C34.2529 11.3148 33.318 8.24994 32.0464 8.26765C32.0464 8.26765 29.056 9.42511 28.0515 9.9566C28.0341 9.9507 27.6973 10.1101 27.5463 10.1101C26.5767 10.1042 23.1856 9.99794 22.5527 10.1928L22.9127 15.5254C23.0927 15.8325 23.3947 22.2871 23.7663 22.789C24.1437 23.291 29.5264 25.2634 30.4322 24.6729C30.4612 24.6374 31.5122 19.2871 31.7038 16.9309Z" fill="#F7CC7F"/>
<path d="M24.3125 10.309C23.6854 10.0078 19.1157 10.0137 19.1157 10.0137C19.1157 10.0137 18.4827 13.2203 18.9937 13.988C18.9937 13.988 23.0409 14.6022 22.9247 14.9388L24.3125 10.309Z" fill="#F7CC7F"/>
<path d="M25.061 7.92488C25.061 7.92488 25.7927 9.65517 25.8798 10.3815C25.9669 11.1079 26.7914 13.3283 28.2778 13.0094C29.7643 12.6846 27.9295 10.0272 27.6391 9.35989C27.3488 8.69258 26.8494 6.53711 26.8494 6.53711L25.061 7.92488Z" fill="#F7A491"/>
<path d="M27.2791 8.25215C26.8611 8.7423 26.2223 9.00804 25.4036 8.78954C25.2236 8.3112 25.061 7.92735 25.061 7.92735L25.2585 7.77381L27.012 7.22461C27.0875 7.53169 27.1804 7.89783 27.2791 8.25215Z" fill="#454342"/>
<path d="M24.2419 3.17386C24.2419 3.17386 23.5161 3.70535 23.3419 4.69746C23.1677 5.68366 23.7832 8.10488 25.862 8.4533C27.9407 8.80172 28.5852 6.75254 27.993 5.28209C27.4007 3.80574 26.2742 1.98688 24.2419 3.17386Z" fill="#F7A491"/>
<path d="M28.1731 4.65232C28.179 5.0657 27.999 5.4023 27.7609 5.40821C27.5228 5.41411 27.3254 5.08341 27.3196 4.67003C27.3138 4.25665 27.4938 3.92005 27.7319 3.91414C27.9699 3.90823 28.1673 4.23894 28.1731 4.65232Z" fill="#F7A491"/>
<path d="M24.4624 3.01367C24.4624 3.01367 24.416 5.80102 23.6031 6.39747C22.7901 6.99982 23.2953 8.16909 23.2953 8.16909C23.2953 8.16909 22.1746 5.44079 22.7553 4.44869C23.3418 3.46248 24.4624 3.01367 24.4624 3.01367Z" fill="#323E41"/>
<path d="M24.1669 6.73445C24.4456 7.06515 24.4921 7.48444 24.2772 7.67341C24.0566 7.86238 23.6559 7.75608 23.3772 7.42538C23.0985 7.09468 23.0521 6.6754 23.2669 6.48642C23.4875 6.29155 23.8882 6.40375 24.1669 6.73445Z" fill="#F7A491"/>
<path d="M60.4839 19.82C61.1419 21.0024 60.8536 23.342 60.3084 24.0905C59.757 24.8452 58.4537 25.0779 58.4537 25.0779L56.5362 25.6691C56.5362 25.6691 55.1576 23.7571 54.7754 22.5496C54.625 22.0842 54.5999 21.776 54.7754 20.7886C55.001 19.5055 55.3268 18.8452 56.7179 18.6942C58.0652 18.5433 59.6881 18.386 60.4839 19.82Z" fill="#184655"/>
<path d="M54.362 22.9747C54.431 23.4024 54.7255 23.7169 55.02 23.6728C55.3208 23.6288 55.5025 23.2452 55.4398 22.8175C55.3709 22.3898 55.0764 22.0753 54.7819 22.1193C54.4811 22.1634 54.2931 22.547 54.362 22.9747Z" fill="#F7A491"/>
<path d="M62.2819 52.3188C62.4762 52.6899 63.3848 53.3377 63.3848 53.3377C62.6078 54.2685 60.1075 56.2433 60.1075 56.2433C60.1075 56.2433 59.7942 55.9163 59.9321 55.6144C60.0762 55.3125 60.7655 53.4509 60.4522 52.8345C60.3707 52.6773 59.7692 51.4823 59.2428 50.8219C59.9446 50.5829 60.6214 50.2433 61.2731 49.9414C61.6866 50.7905 62.2193 52.1993 62.2819 52.3188Z" fill="#F7A491"/>
<path d="M62.4454 52.5371C62.4454 52.5371 60.6094 54.4994 60.2585 54.7069C59.9703 54.8767 59.588 56.9585 60.0079 57.0151C60.4214 57.078 63.5169 53.9082 63.6109 53.4742C63.6924 53.0465 62.4454 52.5371 62.4454 52.5371Z" fill="#323E41"/>
<path d="M53.3901 47.8805C53.6157 48.239 54.5807 48.8302 54.5807 48.8302C53.8851 49.805 51.5729 51.9308 51.5729 51.9308C51.5729 51.9308 51.2283 51.6226 51.341 51.3145C51.4538 51.0063 51.9802 49.1006 51.6168 48.5094C51.5228 48.3522 50.8147 47.2075 50.2319 46.5786C50.9087 46.2955 51.5541 45.9182 52.1807 45.5723C52.6632 46.3899 53.3149 47.761 53.3901 47.8805Z" fill="#F7A491"/>
<path d="M53.7546 48.248C53.7546 48.248 51.9374 50.1915 51.5865 50.4053C51.2982 50.5751 50.9285 52.6569 51.3421 52.7198C51.7557 52.7827 54.9953 49.8267 55.083 49.3927C55.1707 48.9587 53.7546 48.248 53.7546 48.248Z" fill="#323E41"/>
<path d="M54.6381 36.1348C54.6381 36.1348 48.1776 38.9209 47.6951 41.0342C47.4382 42.1725 50.7217 48.2166 50.7217 48.2166L53.2846 47.1474C53.2846 47.1474 52.7519 44.9273 52.0752 43.4619C51.7619 42.7826 51.5551 42.3864 51.5551 42.3864C52.0815 41.9398 58.1597 40.1033 58.1597 40.1033L57.0756 36.4933L54.6381 36.1348Z" fill="#355389"/>
<path d="M62.2319 36.1348C62.2319 36.1348 62.7519 36.9587 61.7995 39.1662C61.1729 40.6128 59.199 44.8455 59.2491 44.9273C60.6465 47.3047 62.4888 50.833 62.4888 50.833L59.4559 52.3173C59.4121 52.3927 55.6022 47.1726 55.4518 45.5939C55.3328 44.3927 56.3479 36.4052 56.3479 36.4052L62.2319 36.1348Z" fill="#466EB6"/>
<path d="M65.1964 21.31C65.7855 20.6308 66.9886 18.3226 67.3959 17.5364C67.3833 17.4609 67.3332 17.0207 67.6528 16.354C67.8784 15.8823 67.9097 14.9389 68.1729 15.1276C68.4423 15.3163 68.0914 16.1527 68.3295 16.0899C68.5677 16.027 69.4136 14.3225 69.658 14.4924C69.9024 14.6622 69.0063 16.2219 69.2193 16.1653C69.4324 16.1087 70.1029 14.5993 70.4475 14.8383C70.7922 15.0773 69.5013 16.5427 69.6893 16.6748C69.8773 16.8006 70.6668 15.8571 70.9425 16.0521C71.2183 16.2471 69.8021 17.2911 69.9274 17.2597C70.0527 17.2282 70.9488 16.9452 70.9989 17.1213C71.0553 17.3226 68.8434 18.2911 68.6491 18.7188C68.2919 19.8761 67.6653 21.9767 66.7818 23.071C65.6977 24.4107 63.3166 27.3855 63.3166 27.3855L61.1485 25.7377C61.1485 25.7377 64.4946 22.1151 65.1964 21.31Z" fill="#F7A491"/>
<path d="M52.3634 20.0111C51.9749 19.1998 51.4046 16.6526 51.2167 15.7909C51.248 15.7217 51.4109 15.3066 51.2793 14.5771C51.1853 14.0614 51.3984 13.1494 51.0913 13.2563C50.7843 13.3695 50.9033 14.2689 50.6903 14.1431C50.4772 14.0173 50.1075 12.1494 49.8256 12.25C49.5436 12.3506 50.0073 14.0928 49.8193 13.9796C49.625 13.8664 49.3744 12.2374 48.9796 12.3758C48.5849 12.5142 49.4496 14.2689 49.2365 14.3444C49.0235 14.4198 48.5097 13.3003 48.1901 13.4135C47.8705 13.5268 48.9671 14.9041 48.8543 14.8412C48.7415 14.7783 47.952 14.2689 47.858 14.4261C47.7515 14.6022 49.6313 16.118 49.7065 16.5834C49.7504 17.7909 49.8068 19.9859 50.377 21.2753C51.0725 22.8539 52.6892 26.3067 52.6892 26.3067L55.1205 25.3193C55.1205 25.3445 52.8271 20.9734 52.3634 20.0111Z" fill="#F7A491"/>
<path d="M68.442 16.5254C68.5298 16.626 68.5861 16.7518 68.63 16.8776C68.63 16.9028 68.7867 17.3053 68.5172 17.7267C68.5861 17.4311 68.6676 17.0977 68.442 16.5254Z" fill="#F48C7F"/>
<path d="M62.226 24.1494C62.226 24.1494 64.5444 26.1872 64.5256 26.2375C64.4003 26.6023 62.0192 28.1935 62.0192 29.162C62.0192 30.2564 62.7774 37.6904 62.7774 37.6904C62.7774 37.6904 60.6845 38.3823 58.1279 37.9923C55.5713 37.6087 53.8105 36.4074 53.8105 36.4074C53.8105 36.4074 53.9671 34.3822 53.9671 32.5143C53.9671 30.6463 53.6851 29.0363 53.6851 29.0363L51.7363 24.6463L54.1614 23.3066C54.1614 23.3066 55.8407 26.5457 56.2856 26.5457C57.5451 26.5457 58.9801 26.3255 58.9801 26.3255L62.226 24.1494Z" fill="#F7CC7F"/>
<path d="M56.4675 24.9196C56.4675 24.9196 56.7557 26.9574 56.1479 27.5046C55.5088 28.0832 58.4727 27.926 58.6795 26.9637C58.7923 26.4417 58.385 24.1523 58.385 24.1523L56.4675 24.9196Z" fill="#F7A491"/>
<path d="M58.3847 24.1523L56.4672 24.9134C56.4672 24.9134 56.5362 25.4102 56.5362 25.9826C57.0061 26.0518 57.5388 25.9511 58.1152 25.6241C58.2844 25.5297 58.4348 25.4228 58.5664 25.3096C58.4849 24.6932 58.3847 24.1523 58.3847 24.1523Z" fill="#F48C7F"/>
<path d="M57.6569 19.8499C57.6569 19.8499 58.5655 20.0827 59.0981 20.9443C59.6308 21.8059 59.9253 24.2902 58.0203 25.3783C56.1154 26.4664 54.7306 24.7808 54.7682 23.1896C54.8058 21.5984 55.5327 19.5606 57.6569 19.8499Z" fill="#F7A491"/>
<path d="M57.6569 19.8499C57.6569 19.8499 58.5655 20.0827 59.0981 20.9443C59.6308 21.8059 59.9253 24.2902 58.0203 25.3783C56.1154 26.4664 54.7306 24.7808 54.7682 23.1896C54.8058 21.5984 55.5327 19.5606 57.6569 19.8499Z" fill="#F7A491"/>
<path d="M59.0425 23.1581C58.8921 23.5669 58.9986 23.982 59.2869 24.0763C59.5688 24.177 59.9198 23.9254 60.0701 23.5166C60.2205 23.1078 60.114 22.6927 59.8258 22.5983C59.5438 22.4977 59.1929 22.7493 59.0425 23.1581Z" fill="#F7A491"/>
</svg>
