<svg width="65" height="58" viewBox="0 0 65 58" fill="none" xmlns="http://www.w3.org/2000/svg">
<path d="M43.392 7.24562C44.6868 5.92881 44.6868 3.79384 43.392 2.47703C42.0972 1.16022 39.998 1.16022 38.7033 2.47703C37.4085 3.79384 37.4085 5.92881 38.7033 7.24562C39.998 8.56244 42.0972 8.56244 43.392 7.24562Z" fill="#E2810E"/>
<path d="M43.9992 5.85786C44.4643 4.05667 43.4057 2.21306 41.6346 1.74005C39.8636 1.26703 38.0509 2.34372 37.5858 4.14491C37.1207 5.9461 38.1794 7.78971 39.9504 8.26272C41.7214 8.73574 43.5341 7.65904 43.9992 5.85786Z" fill="#FFB93E"/>
<path d="M40.8168 8.10647C39.7517 8.10647 38.7164 7.53197 38.1677 6.51898C37.778 5.80145 37.6881 4.97136 37.9118 4.18348C38.1354 3.3956 38.6496 2.74373 39.3551 2.34744C40.0606 1.95116 40.8768 1.85971 41.6515 2.08716C42.4262 2.31461 43.0671 2.83752 43.4568 3.55506C44.2614 5.03936 43.7288 6.91058 42.2694 7.7266C41.8083 7.98453 41.3103 8.10647 40.8168 8.10647ZM40.8076 2.14578C40.335 2.14578 39.8669 2.26772 39.4404 2.50689C38.7764 2.87973 38.2945 3.49174 38.0824 4.23273C37.8726 4.97371 37.9579 5.75455 38.3245 6.42988C38.8409 7.38424 39.8139 7.92357 40.8168 7.92357C41.2803 7.92357 41.7483 7.80867 42.1841 7.5648C43.5559 6.79568 44.0562 5.03702 43.3 3.64182C42.9334 2.96649 42.3316 2.47641 41.6031 2.26068C41.3402 2.1833 41.0728 2.14578 40.8076 2.14578Z" fill="#FFA412"/>
<path d="M41.5983 5.61541C41.5729 5.55444 41.5429 5.50286 41.5083 5.46299C41.4715 5.42313 41.4276 5.39265 41.3723 5.3692C41.317 5.34809 41.2547 5.33168 41.1786 5.32464C41.1049 5.31761 41.0172 5.31761 40.9158 5.3223C40.7406 5.33168 40.5792 5.33168 40.4316 5.3223C40.2841 5.31527 40.148 5.28947 40.0281 5.24726C39.9082 5.20506 39.8022 5.14409 39.7123 5.05967C39.6223 4.97526 39.5463 4.86036 39.4886 4.71732C39.4379 4.59304 39.4148 4.46876 39.4171 4.34917C39.4195 4.22724 39.4471 4.11234 39.4955 4.00213C39.5463 3.89192 39.6177 3.79109 39.7123 3.69495C39.8068 3.60116 39.9198 3.51674 40.0558 3.4464L39.8667 2.97507L40.2403 2.82031L40.4316 3.29867C40.5723 3.26115 40.7083 3.24708 40.8397 3.25646C40.9711 3.26584 41.091 3.29867 41.2017 3.3526C41.3124 3.40888 41.4115 3.48626 41.5014 3.58709C41.589 3.68792 41.6628 3.8122 41.7228 3.95992L41.0518 4.24365C40.9804 4.06779 40.8904 3.95054 40.7775 3.89427C40.6645 3.83799 40.5446 3.83799 40.4155 3.89192C40.3463 3.92006 40.2887 3.95523 40.2472 3.99744C40.2034 4.03731 40.1734 4.08186 40.1549 4.1311C40.1365 4.18034 40.1273 4.22959 40.1319 4.28352C40.1342 4.33745 40.148 4.39138 40.1688 4.44531C40.1895 4.49925 40.2172 4.54614 40.2518 4.58366C40.2841 4.62118 40.3279 4.65166 40.3809 4.67277C40.4339 4.69387 40.4985 4.70794 40.5746 4.71498C40.6507 4.72201 40.7429 4.72436 40.8512 4.71967C41.0242 4.71498 41.1856 4.71732 41.3331 4.7267C41.4807 4.73608 41.6144 4.76187 41.7343 4.80408C41.8542 4.84629 41.9602 4.9096 42.0502 4.99402C42.1401 5.07843 42.2139 5.19099 42.2715 5.33402C42.3222 5.46299 42.3476 5.58962 42.3453 5.70921C42.343 5.83114 42.3153 5.94604 42.2646 6.0539C42.2139 6.16177 42.1401 6.2626 42.0432 6.35639C41.9464 6.45019 41.8311 6.53226 41.6974 6.6026L41.8726 7.0411L41.5014 7.19351L41.3262 6.75737C41.1925 6.79723 41.0541 6.82068 40.9158 6.82537C40.7775 6.83006 40.646 6.8113 40.5192 6.76675C40.3924 6.72219 40.2771 6.64716 40.1688 6.54398C40.0627 6.44081 39.9728 6.30012 39.9036 6.12425L40.5792 5.84521C40.6207 5.95073 40.6691 6.03045 40.7267 6.08908C40.7844 6.1477 40.8443 6.18756 40.9089 6.20866C40.9734 6.22977 41.0403 6.2368 41.1095 6.22977C41.1786 6.22039 41.2432 6.20397 41.3078 6.17818C41.3815 6.1477 41.4415 6.11252 41.4899 6.07032C41.5383 6.02811 41.5729 5.98356 41.5983 5.93431C41.6213 5.88507 41.6352 5.83348 41.6352 5.77955C41.6328 5.72562 41.6213 5.66934 41.5983 5.61541Z" fill="#FFE86F"/>
<path d="M18.7479 9.8113L18.9515 9.2202L18.5795 8.71844C18.5375 8.66179 18.5792 8.58171 18.6487 8.58349L19.2785 8.59434L19.6438 8.08501C19.6848 8.02784 19.7746 8.03984 19.7957 8.10919L19.981 8.70673L20.5804 8.89146C20.6485 8.91173 20.6637 9.00033 20.6017 9.04285L20.0857 9.40011L20.0908 10.0239C20.0895 10.0971 20.0088 10.1382 19.9504 10.0935L19.4567 9.71744L18.8581 9.91557C18.7886 9.94113 18.7264 9.87426 18.7479 9.8113Z" fill="white"/>
<path d="M28.8825 17.7738C28.7489 17.2359 29.0842 16.6861 29.6299 16.5563C30.1748 16.422 30.726 16.7564 30.855 17.2951C30.9886 17.8331 30.6533 18.3829 30.1076 18.5127C29.5627 18.6469 29.0123 18.317 28.8825 17.7738Z" fill="#FFBC44"/>
<path d="M31.0622 20.287C30.9547 20.009 30.8658 19.705 30.7156 19.448C30.5895 19.2233 30.2256 19.3631 30.2867 19.6125C30.3629 19.9232 30.5161 20.2253 30.6357 20.5195C30.6838 20.6389 30.8597 20.6681 30.9657 20.6135C31.092 20.5418 31.1059 20.4072 31.0622 20.287Z" fill="#FFBC44"/>
<path d="M32.566 18.7669C32.2008 18.6288 31.8683 18.4394 31.5239 18.2612C31.2558 18.1247 31.048 18.4749 31.2817 18.6538C31.6166 18.9111 32.0298 19.0866 32.4242 19.2335C32.5477 19.2807 32.6934 19.1874 32.7327 19.0667C32.7751 18.9364 32.694 18.8134 32.566 18.7669Z" fill="#FFBC44"/>
<path d="M31.6335 17.0929C31.567 17.1635 31.5687 17.2544 31.628 17.3309C31.775 17.5155 32.0598 17.4531 32.2609 17.4142C32.4702 17.3692 32.6742 17.2933 32.8647 17.1923C33.1433 17.0398 32.9045 16.6156 32.6259 16.7681C32.0799 17.0576 31.8237 16.8825 31.6335 17.0929Z" fill="#FFBC44"/>
<path d="M30.9853 15.2202C30.7657 15.691 30.5529 15.8778 30.6282 16.102C30.6741 16.2355 30.7924 16.2791 30.9224 16.2295C31.0734 16.1673 31.1305 15.9888 31.205 15.8575C31.2758 15.7314 31.3466 15.6053 31.4069 15.4719C31.4604 15.3533 31.4504 15.2136 31.3268 15.139C31.219 15.0754 31.0426 15.0965 30.9853 15.2202Z" fill="#FFBC44"/>
<path d="M29.8374 15.3414C29.6992 15.1006 29.6654 15.0107 29.5238 14.9118C29.4032 14.8275 29.1903 14.9323 29.2026 15.0852C29.215 15.2655 29.2667 15.3251 29.4071 15.5792C29.4732 15.6955 29.6236 15.7382 29.7416 15.6724C29.8559 15.6119 29.9035 15.4578 29.8374 15.3414Z" fill="#FFBC44"/>
<path d="M28.7144 16.1707C28.2389 15.9282 28.1378 15.8498 27.9749 15.8959C27.8777 15.9216 27.7859 16.0331 27.8266 16.1356C27.901 16.328 28.0267 16.3612 28.461 16.5788C28.577 16.6364 28.7213 16.6163 28.7936 16.4991C28.8584 16.3922 28.8304 16.2283 28.7144 16.1707Z" fill="#FFBC44"/>
<path d="M27.2712 17.9082C27.1204 18.0251 27.2362 18.2972 27.4194 18.2886C27.5936 18.2816 27.6564 18.2435 28.4649 17.9502C28.5912 17.9058 28.6785 17.7951 28.6453 17.6549C28.6158 17.5368 28.4728 17.4291 28.3472 17.4779C27.5125 17.7803 27.4228 17.7956 27.2712 17.9082Z" fill="#FFBC44"/>
<path d="M28.8128 19.0412C28.4303 19.558 28.3502 19.4942 28.2162 19.7907C28.1567 19.9286 28.3246 20.1005 28.4636 20.0493C28.6414 19.9825 28.6854 19.943 28.8958 19.7155C29.0159 19.581 29.1308 19.4428 29.2397 19.2965C29.318 19.1874 29.2667 19.0229 29.1589 18.9592C29.0309 18.8854 28.8911 18.9321 28.8128 19.0412Z" fill="#FFBC44"/>
<path d="M54.8989 2.32474L56.8344 2.65485L56.0861 1.11402L54.8989 2.32474Z" fill="white"/>
<path d="M17.1901 21.1624L15.6692 20.962L15.2658 19.4671L15.6635 19.3626L15.9945 20.5963L17.567 20.8016L17.7369 22.5508L18.8004 22.5604L18.7594 22.9687L17.3676 22.9559L17.1901 21.1624Z" fill="white"/>
<path d="M59.4901 22.8407L60.0832 22.8533C60.0832 22.8533 60.856 22.3244 60.887 22.1276C60.918 21.9308 60.8176 21.5057 60.9341 21.4584C61.0507 21.4111 61.2989 21.3778 61.4424 21.6496C61.5453 21.8463 61.4182 22.5338 61.4871 22.5858C61.529 22.6151 61.8693 22.6344 62.1154 22.6425C62.2777 22.6466 62.4238 22.7448 62.4951 22.8921C62.5447 22.9931 62.5143 23.1123 62.4247 23.1823L62.2859 23.2882L62.3841 23.4309C62.4577 23.5369 62.4318 23.6827 62.3243 23.7558L62.2175 23.8333L62.2828 23.9179C62.3705 24.026 62.3432 24.1903 62.2267 24.2649L62.1311 24.3269L62.1446 24.3519C62.1957 24.4617 62.1586 24.5957 62.0541 24.6592L61.9577 24.7167L60.3819 24.6807C60.2338 24.6787 60.0894 24.6441 59.9539 24.5807L59.4002 24.4747C59.3426 24.4618 59.2969 24.4103 59.3005 24.3505L59.3632 22.9627C59.3698 22.8932 59.425 22.8382 59.4901 22.8407Z" fill="#FFBC44"/>
<path d="M11.3089 18.1055C13.4562 21.4623 16.2785 19.4028 16.1509 19.419C16.2519 19.3974 16.8366 19.5109 17.2246 19.5704C18.8297 19.8136 20.4986 18.9325 21.4235 17.5163C23.8684 17.6622 25.8509 15.7216 25.5108 13.6405C26.813 12.5107 26.8874 10.316 26.1486 8.75381C26.3346 6.47265 23.5336 5.53749 21.4075 5.9375C20.3286 6.14291 19.3134 6.83483 18.6809 7.79162C16.7834 7.37539 14.8859 8.48893 14.0887 10.3917C10.9687 10.6674 9.11907 14.6837 11.3089 18.1055Z" fill="#323E41"/>
<path d="M10.241 35.0289C10.4323 35.2181 11.692 37.7155 12.1704 39.056C12.872 38.6074 13.2972 38.0722 14.0838 37.7695C13.4619 36.856 12.2554 34.6613 12.1544 34.1424C11.9206 32.9045 11.6442 32.7207 11.6442 32.7207C11.6442 32.7207 7.5622 34.1262 7.29113 34.5208C7.02007 34.91 9.48095 34.2721 10.241 35.0289Z" fill="#F7A491"/>
<path d="M12.2082 34.4177C12.5271 34.4177 12.1816 32.9635 12.1072 32.6284C12.0275 32.25 11.8096 32.1365 11.7564 32.1257C11.6129 32.0878 7.07382 33.6501 6.30845 34.2123C6.2553 34.2501 6.16494 34.369 6.149 34.396C5.72911 35.1907 9.47092 35.342 10.0077 34.9961C10.4861 34.6825 10.7837 34.4123 12.2082 34.4177Z" fill="#454342"/>
<path d="M34.2759 51.9727C35.0944 53.9512 35.2751 54.8701 35.3602 54.9998C35.4027 55.0647 35.3336 55.2647 35.3761 55.335C36.7049 55.1512 38.3419 55.762 39.5325 55.2647C38.9266 54.962 37.6297 54.6593 37.4118 54.5025C37.1513 54.3133 36.6677 53.9782 36.2425 50.7402C35.6684 51.4376 35.1103 51.6538 34.2759 51.9727Z" fill="#F8A492"/>
<path d="M35.7906 54.8566C35.477 54.7972 35.0943 55.0188 35.089 55.3539C35.089 55.6891 35.0518 56.1161 35.0625 56.4621C35.0784 56.8459 35.2697 57.0026 35.3229 57.0242C35.4717 57.0945 41.1004 56.2891 41.4087 55.9215C41.7169 55.5485 38.1665 54.2999 37.5712 54.5377C37.0397 54.7431 37.2044 55.1323 35.7906 54.8566Z" fill="#454342"/>
<path d="M22.4502 25.0879C22.4502 25.0879 22.211 26.6231 21.451 28.6934C20.6909 30.7583 20.8663 31.2665 24.0607 34.2612C27.17 37.1802 30.4228 39.4938 30.4228 39.4938L34.1753 52.6672C34.9034 52.8239 35.7326 52.8293 36.7159 52.5861C36.7159 52.5861 34.6749 41.5479 34.8131 38.9964C34.8662 38.018 27.3985 26.7042 27.3985 26.7042L22.4502 25.0879Z" fill="#645E54"/>
<path d="M27.786 27.3983C27.786 27.3983 22.1786 24.9983 22.1095 25.2307C21.5408 27.0902 19.6646 26.6956 18.6175 29.966C18.1763 31.3336 18.0753 34.9553 17.7777 37.6365C17.5757 39.4798 17.2887 40.9555 17.2887 40.9555C17.2887 40.9555 16.0184 39.4366 13.6319 36.7013C13.4459 36.4905 11.5219 37.9662 11.5219 37.9662C15.3221 45.6313 18.1232 46.7773 18.7025 46.507C22.6304 44.6746 25.846 30.9444 25.8407 30.9444C26.2871 30.0687 27.786 27.3983 27.786 27.3983Z" fill="#736B5D"/>
<path d="M19.3351 14.4094C19.3351 14.4094 12.7976 14.3986 11.3944 14.3175C10.1294 14.2418 5.10138 14.3716 4.90472 14.3499C4.70806 14.3283 3.41118 12.0904 3.19327 12.3282C2.97535 12.5661 3.91612 13.4364 3.62379 13.6634C3.33146 13.8905 0.216826 13.3823 0.254031 13.6202C0.333758 14.058 2.15151 14.004 2.15151 14.2148C2.15151 14.4256 0.248716 14.0959 0.11584 14.4472C-0.0117222 14.7986 1.94422 14.5932 2.02395 14.7499C2.10368 14.9067 0.206196 15.1932 0.402853 15.5229C0.509155 15.7013 2.08242 15.2256 2.0771 15.4689C2.07179 15.7121 0.92373 16.2635 1.06192 16.4527C1.20543 16.6473 1.96548 15.8581 2.62987 15.8527C3.29425 15.8419 3.77261 15.4905 4.83562 15.7878C5.36182 15.9338 9.36938 16.4311 12.7604 16.7284C16.2311 17.0311 19.08 17.1284 19.08 17.1284L19.3351 14.4094Z" fill="#F7A491"/>
<path d="M27.308 13.6474C27.308 13.6474 33.4044 11.2474 34.6853 10.6582C35.8387 10.123 40.5744 8.40944 40.7498 8.31214C40.9252 8.22024 41.3451 5.658 41.6321 5.79854C41.9191 5.9445 41.3504 7.09588 41.7012 7.204C42.052 7.3067 44.7839 5.69584 44.8265 5.92828C44.9115 6.36613 43.1894 6.97696 43.2692 7.17697C43.3436 7.37157 45.0019 6.37154 45.2464 6.65263C45.4909 6.93372 43.5881 7.45806 43.5721 7.63104C43.5562 7.80401 45.4271 7.38238 45.358 7.75536C45.3208 7.96078 43.6837 8.09051 43.7794 8.31754C43.8698 8.53917 45.1401 8.63647 45.0763 8.86351C45.0125 9.09595 44.0239 8.64188 43.402 8.87432C42.7749 9.10676 42.2061 8.9554 41.3185 9.62029C40.8827 9.95003 37.3163 11.8798 34.2601 13.3934C31.1242 14.9448 28.5039 16.0746 28.5039 16.0746L27.308 13.6474Z" fill="#F7A491"/>
<path d="M29.0299 20.3246C29.1149 19.2543 28.9076 17.2218 28.8651 16.8704C29.184 15.7623 31.1187 15.6488 31.3632 15.1839C31.3632 15.1839 30.5075 12.3784 29.3435 12.3946C29.3435 12.3946 26.6062 13.4541 25.6867 13.9406C25.6707 13.9352 25.3625 14.0811 25.2243 14.0811C24.3367 14.0757 21.2327 13.9784 20.6533 14.1568L20.9829 19.0381C21.1476 19.3191 21.424 25.2274 21.7642 25.6869C22.1096 26.1464 27.0367 27.9519 27.8659 27.4113C27.8924 27.3789 28.8545 22.4814 29.0299 20.3246Z" fill="#F7CC7F"/>
<path d="M22.2639 14.2625C21.6899 13.9868 17.5069 13.9922 17.5069 13.9922C17.5069 13.9922 16.9276 16.9274 17.3953 17.6302C17.3953 17.6302 21.0999 18.1923 20.9936 18.5005L22.2639 14.2625Z" fill="#F7CC7F"/>
<path d="M22.9492 12.0809C22.9492 12.0809 23.6189 13.6647 23.6986 14.3296C23.7784 14.9945 24.5331 17.027 25.8938 16.7351C27.2544 16.4378 25.5749 14.0052 25.3091 13.3944C25.0433 12.7836 24.5863 10.8105 24.5863 10.8105L22.9492 12.0809Z" fill="#F7A491"/>
<path d="M24.9796 12.38C24.5969 12.8287 24.0122 13.0719 23.2628 12.8719C23.098 12.4341 22.9492 12.0827 22.9492 12.0827L23.1299 11.9422L24.7351 11.4395C24.8042 11.7205 24.8892 12.0557 24.9796 12.38Z" fill="#454342"/>
<path d="M22.1995 7.7313C22.1995 7.7313 21.5352 8.21781 21.3757 9.12594C21.2163 10.0287 21.7796 12.245 23.6824 12.5639C25.5852 12.8828 26.1752 11.0071 25.6331 9.6611C25.0909 8.3097 24.0598 6.64478 22.1995 7.7313Z" fill="#F7A491"/>
<path d="M25.798 9.08397C25.8033 9.46236 25.6386 9.77048 25.4207 9.77589C25.2028 9.78129 25.022 9.47858 25.0167 9.10019C25.0114 8.7218 25.1762 8.41368 25.3941 8.40827C25.612 8.40287 25.7927 8.70558 25.798 9.08397Z" fill="#F7A491"/>
<path d="M22.4015 7.58398C22.4015 7.58398 22.3589 10.1354 21.6148 10.6814C20.8707 11.2328 21.3331 12.3031 21.3331 12.3031C21.3331 12.3031 20.3073 9.80568 20.8388 8.89754C21.3757 7.99481 22.4015 7.58398 22.4015 7.58398Z" fill="#323E41"/>
<path d="M22.1307 10.9905C22.3859 11.2932 22.4284 11.677 22.2317 11.85C22.0298 12.023 21.663 11.9257 21.4079 11.623C21.1528 11.3202 21.1102 10.9365 21.3069 10.7635C21.5089 10.5851 21.8756 10.6878 22.1307 10.9905Z" fill="#F7A491"/>
<path d="M53.2808 22.9687C52.6786 24.051 52.9424 26.1926 53.4414 26.8777C53.9462 27.5685 55.1393 27.7815 55.1393 27.7815L56.8944 28.3227C56.8944 28.3227 58.1563 26.5726 58.5062 25.4672C58.6438 25.0412 58.6668 24.7591 58.5062 23.8552C58.2997 22.6808 58.0014 22.0763 56.7281 21.9382C55.4949 21.8 54.0093 21.6561 53.2808 22.9687Z" fill="#184655"/>
<path d="M58.8847 25.857C58.8216 26.2485 58.552 26.5364 58.2824 26.4961C58.0071 26.4558 57.8408 26.1046 57.8981 25.7131C57.9612 25.3216 58.2308 25.0338 58.5004 25.0741C58.7757 25.1144 58.9478 25.4656 58.8847 25.857Z" fill="#F7A491"/>
<path d="M51.635 52.7172C51.4572 53.0568 50.6255 53.6498 50.6255 53.6498C51.3367 54.5019 53.6253 56.3096 53.6253 56.3096C53.6253 56.3096 53.9121 56.0102 53.7859 55.7339C53.654 55.4575 53.0231 53.7534 53.3099 53.1893C53.3844 53.0453 53.9351 51.9515 54.4169 51.347C53.7745 51.1282 53.155 50.8174 52.5585 50.541C52.1799 51.3182 51.6924 52.6078 51.635 52.7172Z" fill="#F7A491"/>
<path d="M51.4852 52.918C51.4852 52.918 53.1658 54.7142 53.487 54.9041C53.7508 55.0596 54.1007 56.9651 53.7164 57.017C53.3378 57.0745 50.5043 54.173 50.4183 53.7758C50.3437 53.3843 51.4852 52.918 51.4852 52.918Z" fill="#323E41"/>
<path d="M59.7741 48.6539C59.5676 48.982 58.6843 49.5232 58.6843 49.5232C59.321 50.4155 61.4375 52.3614 61.4375 52.3614C61.4375 52.3614 61.753 52.0793 61.6498 51.7972C61.5465 51.5151 61.0647 49.7707 61.3974 49.2296C61.4834 49.0856 62.1316 48.0378 62.665 47.4621C62.0455 47.2031 61.4547 46.8577 60.8812 46.541C60.4395 47.2894 59.843 48.5445 59.7741 48.6539Z" fill="#F7A491"/>
<path d="M59.4405 48.9902C59.4405 48.9902 61.1039 50.7692 61.4251 50.9649C61.689 51.1203 62.0274 53.0259 61.6488 53.0835C61.2703 53.141 58.3048 50.4352 58.2245 50.038C58.1442 49.6408 59.4405 48.9902 59.4405 48.9902Z" fill="#323E41"/>
<path d="M58.632 37.9023C58.632 37.9023 64.5456 40.4527 64.9873 42.3871C65.2225 43.4291 62.2169 48.9616 62.2169 48.9616L59.8709 47.9829C59.8709 47.9829 60.3585 45.9507 60.9779 44.6093C61.2647 43.9875 61.454 43.6248 61.454 43.6248C60.9722 43.2161 55.4084 41.535 55.4084 41.535L56.4007 38.2305L58.632 37.9023Z" fill="#355389"/>
<path d="M51.6807 37.9023C51.6807 37.9023 51.2047 38.6565 52.0765 40.6772C52.6501 42.0013 54.4569 45.8758 54.411 45.9507C53.1319 48.1268 51.4456 51.3565 51.4456 51.3565L54.2217 52.7152C54.2618 52.7843 57.7492 48.0059 57.8869 46.5609C57.9959 45.4613 57.0667 38.1499 57.0667 38.1499L51.6807 37.9023Z" fill="#466EB6"/>
<path d="M48.9669 24.3316C48.4277 23.7098 47.3264 21.597 46.9536 20.8774C46.9651 20.8083 47.011 20.4053 46.7184 19.795C46.512 19.3633 46.4833 18.4997 46.2424 18.6724C45.9957 18.8451 46.3169 19.6108 46.099 19.5532C45.881 19.4957 45.1067 17.9355 44.883 18.091C44.6593 18.2464 45.4795 19.6741 45.2845 19.6223C45.0895 19.5705 44.4757 18.1888 44.1603 18.4076C43.8448 18.6264 45.0264 19.9678 44.8543 20.0887C44.6822 20.2038 43.9595 19.3402 43.7071 19.5187C43.4548 19.6972 44.7511 20.6528 44.6363 20.6241C44.5216 20.5953 43.7014 20.3362 43.6555 20.4974C43.6039 20.6816 45.6286 21.5682 45.8064 21.9597C46.1334 23.019 46.707 24.9418 47.5157 25.9436C48.508 27.1698 50.6876 29.8929 50.6876 29.8929L52.6722 28.3845C52.6722 28.3845 49.6093 25.0685 48.9669 24.3316Z" fill="#F7A491"/>
<path d="M60.7139 23.1429C61.0696 22.4003 61.5915 20.0687 61.7636 19.28C61.7349 19.2166 61.5858 18.8367 61.7062 18.1689C61.7923 17.6968 61.5973 16.862 61.8783 16.9599C62.1594 17.0635 62.0504 17.8868 62.2454 17.7716C62.4404 17.6565 62.7788 15.9466 63.0369 16.0387C63.2951 16.1309 62.8706 17.7256 63.0427 17.6219C63.2205 17.5183 63.4499 16.0272 63.8113 16.1539C64.1726 16.2805 63.3811 17.8868 63.5761 17.9558C63.7711 18.0249 64.2415 17.0002 64.534 17.1038C64.8265 17.2074 63.8228 18.4682 63.926 18.4106C64.0292 18.3531 64.752 17.8868 64.838 18.0307C64.9355 18.1919 63.2148 19.5793 63.1459 20.0053C63.1058 21.1107 63.0542 23.1199 62.5322 24.3001C61.8955 25.7451 60.4157 28.9057 60.4157 28.9057L58.1902 28.0019C58.1902 28.0249 60.2895 24.0238 60.7139 23.1429Z" fill="#F7A491"/>
<path d="M45.9965 19.9512C45.9162 20.0433 45.8646 20.1584 45.8244 20.2736C45.8244 20.2966 45.681 20.665 45.9277 21.0508C45.8646 20.7802 45.79 20.4751 45.9965 19.9512Z" fill="#F48C7F"/>
<path d="M51.6862 26.9316C51.6862 26.9316 49.564 28.7969 49.5812 28.8429C49.6959 29.1768 51.8755 30.6334 51.8755 31.52C51.8755 32.5217 51.1815 39.3265 51.1815 39.3265C51.1815 39.3265 53.0972 39.9598 55.4374 39.6029C57.7777 39.2517 59.3894 38.1521 59.3894 38.1521C59.3894 38.1521 59.246 36.2983 59.246 34.5885C59.246 32.8786 59.5041 31.4048 59.5041 31.4048L61.288 27.3864L59.0682 26.1602C59.0682 26.1602 57.531 29.125 57.1238 29.125C55.9709 29.125 54.6574 28.9235 54.6574 28.9235L51.6862 26.9316Z" fill="#F7CC7F"/>
<path d="M56.9571 27.636C56.9571 27.636 56.6933 29.5012 57.2497 30.0021C57.8347 30.5317 55.1217 30.3878 54.9324 29.507C54.8291 29.0292 55.202 26.9336 55.202 26.9336L56.9571 27.636Z" fill="#F7A491"/>
<path d="M55.2022 26.9336L56.9574 27.6302C56.9574 27.6302 56.8943 28.085 56.8943 28.6089C56.4641 28.6722 55.9766 28.5801 55.4489 28.2808C55.294 28.1944 55.1563 28.0965 55.0359 27.9929C55.1105 27.4287 55.2022 26.9336 55.2022 26.9336Z" fill="#F48C7F"/>
<path d="M55.8684 22.996C55.8684 22.996 55.0367 23.2091 54.5492 23.9978C54.0616 24.7865 53.792 27.0605 55.5357 28.0565C57.2794 29.0525 58.547 27.5096 58.5126 26.053C58.4782 24.5965 57.8129 22.7312 55.8684 22.996Z" fill="#F7A491"/>
<path d="M55.8684 22.996C55.8684 22.996 55.0367 23.2091 54.5492 23.9978C54.0616 24.7865 53.792 27.0605 55.5357 28.0565C57.2794 29.0525 58.547 27.5096 58.5126 26.053C58.4782 24.5965 57.8129 22.7312 55.8684 22.996Z" fill="#F7A491"/>
<path d="M54.6004 26.0249C54.738 26.3991 54.6405 26.779 54.3767 26.8654C54.1186 26.9575 53.7974 26.7272 53.6597 26.353C53.522 25.9788 53.6195 25.5988 53.8834 25.5125C54.1415 25.4204 54.4627 25.6506 54.6004 26.0249Z" fill="#F7A491"/>
</svg>
