<svg width="75" height="85" viewBox="0 0 75 85" fill="none" xmlns="http://www.w3.org/2000/svg">
<path d="M18.5619 20.4085C22.1209 25.9724 26.7987 22.5588 26.5873 22.5857C26.7547 22.5498 27.7237 22.738 28.3668 22.8365C31.0273 23.2397 33.7935 21.7793 35.3263 19.4319C39.3787 19.6738 42.6646 16.4574 42.1008 13.008C44.2591 11.1354 44.3825 7.4979 43.1579 4.9086C43.4663 1.1277 38.8237 -0.422291 35.2999 0.240711C33.5116 0.581171 31.8289 1.72799 30.7806 3.31381C27.6356 2.62393 24.4906 4.46959 23.1692 7.62333C17.9981 8.08026 14.9324 14.7372 18.5619 20.4085Z" fill="#323E41"/>
<path d="M16.7913 48.4546C17.1085 48.7682 19.1963 52.9075 19.9892 55.1294C21.152 54.3858 21.8568 53.4988 23.1606 52.9971C22.1299 51.4829 20.1301 47.8454 19.9627 46.9853C19.5751 44.9335 19.117 44.6289 19.117 44.6289C19.117 44.6289 12.3513 46.9584 11.9021 47.6124C11.4528 48.2575 15.5316 47.2003 16.7913 48.4546Z" fill="#F7A491"/>
<path d="M20.0525 47.4426C20.5811 47.4426 20.0085 45.0324 19.8852 44.4769C19.753 43.8498 19.3918 43.6616 19.3037 43.6437C19.0659 43.581 11.5426 46.1703 10.274 47.1021C10.1859 47.1648 10.0362 47.3619 10.0097 47.4067C9.31378 48.7238 15.5157 48.9747 16.4054 48.4012C17.1983 47.8816 17.6916 47.4336 20.0525 47.4426Z" fill="#454342"/>
<path d="M56.6289 76.5389C57.9856 79.818 58.2851 81.3412 58.426 81.5562C58.4965 81.6637 58.382 81.9952 58.4525 82.1117C60.6548 81.8071 63.3681 82.8195 65.3415 81.9952C64.3372 81.4935 62.1877 80.9917 61.8265 80.7319C61.3948 80.4183 60.5932 79.8628 59.8884 74.4961C58.937 75.6519 58.012 76.0103 56.6289 76.5389Z" fill="#F8A492"/>
<path d="M59.1398 81.3184C58.62 81.2198 57.9857 81.5872 57.9769 82.1426C57.9769 82.6981 57.9152 83.4059 57.9329 83.9793C57.9593 84.6154 58.2764 84.8753 58.3645 84.9111C58.6112 85.0276 67.9404 83.6926 68.4514 83.0834C68.9623 82.4652 63.0776 80.3956 62.0909 80.7898C61.21 81.1302 61.4831 81.7753 59.1398 81.3184Z" fill="#454342"/>
<path d="M37.0282 31.9805C37.0282 31.9805 36.6318 34.525 35.372 37.9564C34.1123 41.379 34.403 42.2212 39.6975 47.1847C44.851 52.0228 50.2424 55.8575 50.2424 55.8575L56.4619 77.6918C57.6688 77.9516 59.0431 77.9606 60.6728 77.5574C60.6728 77.5574 57.29 59.2621 57.519 55.0332C57.6071 53.4116 45.2298 34.6594 45.2298 34.6594L37.0282 31.9805Z" fill="#645E54"/>
<path d="M45.8721 35.8085C45.8721 35.8085 36.5781 31.8305 36.4636 32.2157C35.521 35.2978 32.4112 34.6438 30.6758 40.0642C29.9446 42.331 29.7772 48.3338 29.2839 52.7777C28.9491 55.8329 28.4734 58.2789 28.4734 58.2789C28.4734 58.2789 26.3679 55.7612 22.4125 51.2277C22.1041 50.8783 18.9151 53.3243 18.9151 53.3243C25.2139 66.0288 29.8565 67.9282 30.8167 67.4802C37.3269 64.443 42.6567 41.6859 42.6479 41.6859C43.3879 40.2345 45.8721 35.8085 45.8721 35.8085Z" fill="#736B5D"/>
<path d="M31.865 14.2795C31.865 14.2795 21.0293 14.2616 18.7036 14.1272C16.607 14.0018 8.27319 14.2168 7.94724 14.181C7.62129 14.1451 5.47178 10.4359 5.11059 10.8301C4.7494 11.2243 6.30868 12.6668 5.82416 13.0431C5.33964 13.4194 0.177285 12.5772 0.238952 12.9714C0.371094 13.6971 3.38393 13.6076 3.38393 13.957C3.38393 14.3064 0.230142 13.7599 0.00990541 14.3422C-0.201522 14.9246 3.04037 14.5841 3.17251 14.844C3.30465 15.1038 0.159666 15.5786 0.485617 16.1252C0.661807 16.4208 3.26941 15.6324 3.2606 16.0356C3.25179 16.4387 1.34895 17.3526 1.57799 17.6662C1.81585 17.9887 3.0756 16.6807 4.17679 16.6717C5.27797 16.6538 6.07083 16.0714 7.83272 16.5642C8.70486 16.8061 15.3472 17.6304 20.9676 18.1231C26.7202 18.6249 31.4421 18.7861 31.4421 18.7861L31.865 14.2795Z" fill="#F7A491"/>
<path d="M45.0797 13.0184C45.0797 13.0184 55.1842 9.0404 57.3073 8.06382C59.2189 7.17683 67.0682 4.33667 67.3589 4.1754C67.6496 4.02309 68.3455 -0.223705 68.8213 0.00924154C69.297 0.251148 68.3544 2.15952 68.9358 2.33871C69.5172 2.50894 74.0453 -0.160989 74.1158 0.224269C74.2567 0.949988 71.4024 1.96241 71.5346 2.29391C71.6579 2.61645 74.4065 0.958947 74.8117 1.42484C75.2169 1.89073 72.0631 2.7598 72.0367 3.04651C72.0103 3.33321 75.1112 2.63437 74.9967 3.25258C74.935 3.59304 72.2217 3.80806 72.3803 4.18436C72.53 4.5517 74.6355 4.71297 74.5298 5.08927C74.4241 5.47453 72.7855 4.72193 71.7548 5.10719C70.7153 5.49245 69.7727 5.24158 68.3015 6.3436C67.5791 6.89013 61.668 10.0887 56.6025 12.5973C51.4049 15.1687 47.0618 17.0412 47.0618 17.0412L45.0797 13.0184Z" fill="#F7A491"/>
<path d="M47.9331 24.0851C48.074 22.3111 47.7304 18.9423 47.66 18.36C48.1885 16.5233 51.3952 16.3351 51.8004 15.5646C51.8004 15.5646 50.3821 10.9146 48.4528 10.9415C48.4528 10.9415 43.9159 12.6976 42.3919 13.5039C42.3655 13.495 41.8545 13.7369 41.6255 13.7369C40.1543 13.7279 35.0095 13.5667 34.0493 13.8623L34.5955 21.9527C34.8686 22.4186 35.3267 32.2113 35.8905 32.9729C36.4631 33.7345 44.6295 36.7269 46.0038 35.831C46.0478 35.7772 47.6423 27.6599 47.9331 24.0851Z" fill="#F7CC7F"/>
<path d="M36.7191 14.0378C35.7676 13.5809 28.8346 13.5899 28.8346 13.5899C28.8346 13.5899 27.8744 18.4549 28.6496 19.6196C28.6496 19.6196 34.7898 20.5514 34.6136 21.0621L36.7191 14.0378Z" fill="#F7CC7F"/>
<path d="M37.8553 10.4219C37.8553 10.4219 38.9653 13.047 39.0975 14.149C39.2296 15.2511 40.4806 18.6198 42.7358 18.136C44.991 17.6432 42.2072 13.6115 41.7667 12.599C41.3263 11.5866 40.5687 8.31641 40.5687 8.31641L37.8553 10.4219Z" fill="#F7A491"/>
<path d="M41.2207 10.9183C40.5864 11.662 39.6174 12.0651 38.3752 11.7336C38.1021 11.0079 37.8555 10.4256 37.8555 10.4256L38.155 10.1926L40.8155 9.35938C40.93 9.82527 41.0709 10.3808 41.2207 10.9183Z" fill="#454342"/>
<path d="M36.6125 3.2117C36.6125 3.2117 35.5113 4.01806 35.247 5.52325C34.9827 7.01949 35.9165 10.6929 39.0703 11.2215C42.2241 11.7501 43.202 8.64116 42.3034 6.41024C41.4048 4.17037 39.6958 1.41084 36.6125 3.2117Z" fill="#F7A491"/>
<path d="M42.5764 5.45599C42.5852 6.08316 42.3122 6.59385 41.951 6.60281C41.5898 6.61177 41.2903 6.11004 41.2815 5.48287C41.2726 4.85571 41.5457 4.34502 41.9069 4.33606C42.2681 4.3271 42.5676 4.82883 42.5764 5.45599Z" fill="#F7A491"/>
<path d="M36.9468 2.96875C36.9468 2.96875 36.8763 7.19763 35.6429 8.10254C34.4096 9.01641 35.176 10.7904 35.176 10.7904C35.176 10.7904 33.4758 6.6511 34.3568 5.14591C35.2465 3.64967 36.9468 2.96875 36.9468 2.96875Z" fill="#323E41"/>
<path d="M36.4988 8.61539C36.9217 9.11712 36.9922 9.75324 36.6662 10.0399C36.3315 10.3267 35.7236 10.1654 35.3008 9.66365C34.8779 9.16192 34.8074 8.5258 35.1334 8.23909C35.4681 7.94343 36.076 8.11366 36.4988 8.61539Z" fill="#F7A491"/>
</svg>
